<svg width="312" height="189" viewBox="0 0 312 189" fill="none" xmlns="http://www.w3.org/2000/svg">
<rect x="5" y="6" width="302" height="177" rx="36" fill="url(#paint0_linear_1998_2392)" stroke="url(#paint1_linear_1998_2392)" stroke-width="2"/>
<g filter="url(#filter0_i_1998_2392)">
<rect x="20.3936" y="21.9103" width="271.212" height="145.455" rx="25" fill="#E5F4FD"/>
</g>
<g filter="url(#filter1_dd_1998_2392)">
<circle cx="13.5" cy="123.5" r="3.5" transform="rotate(-90 13.5 123.5)" fill="white"/>
</g>
<g filter="url(#filter2_dd_1998_2392)">
<circle cx="13.5" cy="66.5" r="3.5" transform="rotate(-90 13.5 66.5)" fill="white"/>
</g>
<g filter="url(#filter3_dd_1998_2392)">
<circle cx="298.5" cy="123.5" r="3.5" transform="rotate(-90 298.5 123.5)" fill="white"/>
</g>
<g filter="url(#filter4_dd_1998_2392)">
<circle cx="298.5" cy="66.5" r="3.5" transform="rotate(-90 298.5 66.5)" fill="white"/>
</g>
<g filter="url(#filter5_dd_1998_2392)">
<circle cx="39.8027" cy="14.197" r="3.5" fill="white"/>
</g>
<g filter="url(#filter6_dd_1998_2392)">
<circle cx="86.2812" cy="14.197" r="3.5" fill="white"/>
</g>
<g filter="url(#filter7_dd_1998_2392)">
<circle cx="132.761" cy="14.197" r="3.5" fill="white"/>
</g>
<g filter="url(#filter8_dd_1998_2392)">
<circle cx="179.239" cy="14.197" r="3.5" fill="white"/>
</g>
<g filter="url(#filter9_dd_1998_2392)">
<circle cx="225.718" cy="14.197" r="3.5" fill="white"/>
</g>
<g filter="url(#filter10_dd_1998_2392)">
<circle cx="272.196" cy="14.197" r="3.5" fill="white"/>
</g>
<g filter="url(#filter11_dd_1998_2392)">
<circle cx="39.8027" cy="174.803" r="3.5" fill="white"/>
</g>
<g filter="url(#filter12_dd_1998_2392)">
<circle cx="86.2812" cy="174.803" r="3.5" fill="white"/>
</g>
<g filter="url(#filter13_dd_1998_2392)">
<circle cx="132.761" cy="174.803" r="3.5" fill="white"/>
</g>
<g filter="url(#filter14_dd_1998_2392)">
<circle cx="179.239" cy="174.803" r="3.5" fill="white"/>
</g>
<g filter="url(#filter15_dd_1998_2392)">
<circle cx="225.718" cy="174.803" r="3.5" fill="white"/>
</g>
<g filter="url(#filter16_dd_1998_2392)">
<circle cx="272.196" cy="174.803" r="3.5" fill="white"/>
</g>
<path d="M106.271 65.0022V64.5022H105.771H84.7307H84.2307V65.0022V74.5249V75.0249H84.7307H93.5664V82.5533C91.8382 83.167 89.9819 83.4761 87.9355 83.4761C83.7336 83.4761 80.2091 82.033 77.7359 79.5342C75.2625 77.0352 73.8048 73.4442 73.8048 69.0833C73.8048 64.8323 75.261 61.2393 77.7377 58.7112C80.2136 56.1839 83.7387 54.6906 87.9355 54.6906C91.7823 54.6906 95.4561 56.0757 99.8935 58.4272L100.337 58.662L100.57 58.2183L105.168 49.4831L105.397 49.0484L104.966 48.8119C98.774 45.413 92.4914 43.6667 86.4027 43.6667C78.7963 43.6667 72.2747 46.2862 67.6523 50.7895C63.0291 55.2937 60.334 61.6552 60.334 69.0833C60.334 76.5147 63.0837 82.8774 67.8042 87.3808C72.523 91.8827 79.1828 94.5 86.9601 94.5C93.5938 94.5 99.7228 92.9034 105.967 90.2354L106.271 90.1057V89.7756V65.0022ZM127.134 66.5762C130.309 66.5762 132.431 68.2968 132.613 70.494C130.759 70.1934 128.87 70.0153 127.204 70.0153C122.124 70.0153 117.999 71.1198 115.132 73.2462C112.244 75.387 110.68 78.5296 110.68 82.4725C110.68 86.0085 112.041 89.0269 114.388 91.1572C116.731 93.2842 120.027 94.5 123.859 94.5C127.567 94.5 131.654 93.1543 134.884 90.6564C136.558 93.1031 139.313 94.5 142.67 94.5C144.794 94.5 146.779 94.2818 148.553 93.917L148.989 93.8275L148.951 93.3849L148.185 84.3633L148.14 83.8338L147.614 83.911C147.13 83.982 146.603 84.0489 146.084 84.0489C145.679 84.0489 145.379 83.9128 145.18 83.7079C144.979 83.5018 144.842 83.1863 144.842 82.7589V71.0881C144.842 66.7004 143.242 62.9998 140.395 60.3996C137.551 57.8031 133.504 56.3398 128.667 56.3398C123.651 56.3398 118.365 57.3564 112.741 59.5236L112.288 59.6985L112.45 60.157L115.515 68.8205L115.692 69.3207L116.181 69.1144C120.042 67.4849 123.806 66.5762 127.134 66.5762ZM151.746 93.1408V93.6408H152.246H164.508H165.008V93.1408V73.5941C165.008 71.8002 165.567 70.315 166.499 69.2844C167.427 68.2579 168.753 67.6502 170.361 67.6502C171.663 67.6502 172.749 68.1211 173.51 68.9111C174.272 69.7023 174.737 70.8439 174.737 72.2337V93.1408V93.6408H175.237H187.499H187.999V93.1408V73.5941C187.999 71.8001 188.558 70.314 189.483 69.2828C190.403 68.2558 191.712 67.6502 193.282 67.6502C194.622 67.6502 195.706 68.1227 196.456 68.9093C197.208 69.6981 197.659 70.8391 197.659 72.2337V93.1408V93.6408H198.159H210.421H210.921V93.1408V70.1573C210.921 66.1364 209.519 62.6763 207.083 60.2199C204.647 57.7631 201.206 56.3398 197.183 56.3398C192.678 56.3398 188.658 58.127 185.007 61.384C182.689 58.2198 178.781 56.3398 174.262 56.3398C170.315 56.3398 166.754 57.7314 163.714 60.4317L162.46 57.5022L162.33 57.199H162H152.246H151.746V57.699V93.1408ZM251.292 79.1777H251.738L251.788 78.7346C251.93 77.497 252.001 76.1892 252.001 74.8829C252.001 69.4347 250.167 64.7939 246.983 61.5125C243.798 58.2301 239.292 56.3398 234.014 56.3398C228.425 56.3398 223.643 58.2991 220.257 61.6863C216.872 65.0734 214.912 69.8586 214.912 75.4557C214.912 81.0251 216.965 85.7958 220.537 89.1724C224.108 92.5472 229.166 94.5 235.128 94.5C239.532 94.5 244.761 93.3335 250.045 90.7993L250.477 90.592L250.288 90.1514L246.665 81.7026L246.451 81.2019L245.97 81.4587C242.528 83.2984 239.336 84.2637 236.661 84.2637C232.502 84.2637 229.397 82.2711 228.34 79.1777H251.292ZM127.134 84.8364C124.738 84.8364 123.175 83.3991 123.175 81.6849C123.175 80.6188 123.684 79.7465 124.624 79.1208C125.58 78.4846 126.989 78.1037 128.736 78.1037C130.079 78.1037 131.374 78.2738 132.625 78.5151V79.3937C132.625 82.5515 130.344 84.8364 127.134 84.8364ZM228.324 70.8029C229.133 68.2154 231.267 66.5762 234.014 66.5762C236.623 66.5762 238.57 68.2064 239.133 70.8029H228.324Z" fill="#00C4D9" stroke="#0076CF"/>
<path d="M108.437 62.3825V61.8825H107.937H86.8967H86.3967V62.3825V71.6983V72.1983H86.8967H95.7324V79.5419C94.0042 80.1419 92.1478 80.444 90.1015 80.444C85.8963 80.444 82.3706 79.031 79.898 76.5871C77.4262 74.1441 75.9709 70.6353 75.9709 66.375C75.9709 62.2223 77.4247 58.7115 79.8998 56.2399C82.3749 53.7683 85.9013 52.306 90.1015 52.306C93.951 52.306 97.6263 53.662 102.064 55.9622L102.501 56.1888L102.734 55.7552L107.332 47.21L107.569 46.7693L107.128 46.5325C100.936 43.2077 94.6552 41.5 88.5687 41.5C80.9656 41.5 74.4453 44.0613 69.8223 48.4673C65.1977 52.8748 62.5 59.102 62.5 66.375C62.5 73.6512 65.2524 79.8796 69.9742 84.2863C74.6935 88.6908 81.352 91.25 89.1261 91.25C95.758 91.25 101.886 89.6886 108.13 87.0788L108.437 86.9504V86.6175V62.3825ZM129.3 63.9332C132.48 63.9332 134.59 65.6152 134.778 67.7441C132.925 67.45 131.036 67.2759 129.37 67.2759C124.292 67.2759 120.169 68.3558 117.302 70.4355C114.414 72.5302 112.846 75.6082 112.846 79.4731C112.846 82.939 114.21 85.8957 116.558 87.9807C118.901 90.0617 122.196 91.25 126.025 91.25C129.732 91.25 133.82 89.9331 137.052 87.4869C138.727 89.8848 141.483 91.25 144.836 91.25C146.959 91.25 148.943 91.0366 150.717 90.6798L151.156 90.5917L151.117 90.1464L150.351 81.321L150.305 80.7941L149.781 80.8693C149.297 80.9388 148.77 81.0043 148.25 81.0043C147.842 81.0043 147.54 80.8698 147.342 80.6702C147.143 80.4703 147.008 80.1657 147.008 79.7532V68.3362C147.008 64.0374 145.405 60.4132 142.557 57.8684C139.713 55.3281 135.667 53.8976 130.833 53.8976C125.819 53.8976 120.534 54.8919 114.911 57.0117L114.449 57.1857L114.617 57.6496L117.683 66.1248L117.86 66.6164L118.344 66.4169C122.204 64.8227 125.97 63.9332 129.3 63.9332ZM153.913 89.9095V90.4095H154.413H166.674H167.174V89.9095V70.7877C167.174 69.038 167.731 67.5893 168.661 66.583C169.588 65.5801 170.915 64.9838 172.527 64.9838C173.833 64.9838 174.92 65.446 175.68 66.218C176.441 66.9904 176.903 68.1031 176.903 69.4569V89.9095V90.4095H177.403H189.665H190.165V89.9095V70.7877C190.165 69.0379 190.722 67.5883 191.645 66.5815C192.565 65.578 193.874 64.9838 195.448 64.9838C196.791 64.9838 197.876 65.4476 198.626 66.2162C199.376 66.9861 199.825 68.0982 199.825 69.4569V89.9095V90.4095H200.325H212.587H213.087V89.9095V67.4256C213.087 63.4861 211.682 60.0972 209.245 57.6927C206.809 55.2886 203.369 53.8976 199.349 53.8976C194.845 53.8976 190.825 55.6461 187.172 58.8355C184.853 55.7359 180.944 53.8976 176.428 53.8976C172.482 53.8976 168.921 55.2592 165.879 57.9043L164.624 55.0377L164.493 54.7381H164.166H154.413H153.913V55.2381V89.9095ZM253.458 76.2608H253.903L253.954 75.8189C254.096 74.6074 254.167 73.3272 254.167 72.0485C254.167 66.7129 252.33 62.169 249.145 58.9573C245.959 55.7454 241.455 53.8976 236.18 53.8976C230.594 53.8976 225.814 55.813 222.427 59.1272C219.04 62.4421 217.078 67.1274 217.078 72.6088C217.078 78.0636 219.133 82.7346 222.707 86.039C226.279 89.3408 231.335 91.25 237.294 91.25C241.696 91.25 246.923 90.1093 252.207 87.6305L252.648 87.4235L252.453 86.9771L248.83 78.712L248.615 78.2215L248.14 78.4696C244.698 80.2694 241.505 81.2144 238.827 81.2144C234.669 81.2144 231.572 79.2688 230.511 76.2608H253.458ZM129.3 81.7748C126.892 81.7748 125.341 80.3626 125.341 78.7026C125.341 77.6688 125.845 76.8187 126.786 76.2061C127.743 75.5833 129.153 75.2101 130.902 75.2101C132.246 75.2101 133.54 75.3765 134.791 75.6124V76.4612C134.791 79.534 132.521 81.7748 129.3 81.7748ZM230.494 68.0463C231.305 65.5333 233.432 63.9332 236.18 63.9332C238.791 63.9332 240.731 65.5255 241.296 68.0463H230.494Z" fill="white" stroke="#00C4D9"/>
<path d="M72.2335 95.6902L72.4883 95.284L72.0932 95.0124C67.5869 91.9145 62.5609 90.3261 57.6489 90.3261C51.4093 90.3261 46.1126 92.5962 42.3773 96.5165C38.6438 100.435 36.5 105.97 36.5 112.451C36.5 118.931 38.6438 124.466 42.3773 128.385C46.1126 132.305 51.4093 134.575 57.6489 134.575C62.5609 134.575 67.5869 132.987 72.0932 129.889L72.4883 129.617L72.2335 129.211L70.0501 125.731L69.7684 125.282L69.3367 125.59C65.9154 128.024 62.0847 129.35 58.3351 129.35C53.6928 129.35 49.8215 127.63 47.1076 124.68C44.3905 121.726 42.8026 117.503 42.8026 112.451C42.8026 107.398 44.3905 103.175 47.1076 100.221C49.8215 97.271 53.6928 95.5516 58.3351 95.5516C62.0847 95.5516 65.9154 96.8774 69.3367 99.3116L69.7684 99.6188L70.0501 99.17L72.2335 95.6902ZM78.7014 133.329V133.829H79.2014H84.1297H84.6297V133.329V116.303C84.6297 110.778 88.358 107.047 93.3001 107.047C95.522 107.047 97.3884 107.813 98.6973 109.095C100.005 110.376 100.785 112.202 100.785 114.377V133.329V133.829H101.285H106.276H106.776V133.329V113.631C106.776 110.182 105.527 107.237 103.38 105.155C101.234 103.075 98.2192 101.884 94.7349 101.884C90.5747 101.884 86.9265 103.641 84.6297 106.707V89.5833V89.0833H84.1297H79.2014H78.7014V89.5833V133.329ZM133.537 112.761V115.228C131.342 114.709 129.21 114.498 127.237 114.498C122.871 114.498 119.293 115.427 116.793 117.217C114.272 119.022 112.888 121.677 112.888 125.003C112.888 130.504 117.739 134.575 123.931 134.575C127.883 134.575 131.631 132.965 134.181 130.169C134.498 131.352 135.093 132.351 135.945 133.099C137.042 134.063 138.523 134.575 140.275 134.575C141.433 134.575 142.587 134.447 143.611 134.256L144.063 134.171L144.017 133.714L143.642 129.986L143.589 129.455L143.063 129.543C142.675 129.607 141.972 129.722 141.523 129.722C140.751 129.722 140.205 129.491 139.851 129.133C139.497 128.774 139.278 128.228 139.278 127.488V112.886C139.278 109.614 138.039 106.851 135.884 104.91C133.735 102.973 130.708 101.884 127.175 101.884C123.234 101.884 119.305 102.708 115.019 104.34L114.552 104.518L114.73 104.985L116.102 108.589L116.287 109.076L116.766 108.871C120.209 107.401 123.449 106.675 126.613 106.675C128.726 106.675 130.456 107.326 131.653 108.396C132.845 109.463 133.537 110.972 133.537 112.761ZM148.578 133.329V133.829H149.078H154.006H154.506V133.329V116.303C154.506 110.778 158.235 107.047 163.177 107.047C165.399 107.047 167.265 107.813 168.574 109.095C169.882 110.376 170.662 112.202 170.662 114.377V133.329V133.829H171.162H176.153H176.653V133.329V113.631C176.653 110.182 175.404 107.237 173.257 105.155C171.111 103.075 168.096 101.884 164.612 101.884C160.183 101.884 156.335 103.779 154.026 107.136L153.568 103.074L153.517 102.63H153.071H149.078H148.578V103.13V133.329ZM212.524 103.13V102.63H212.024H208.031H207.589L207.535 103.068L207.078 106.756C204.74 103.599 201.163 101.884 196.989 101.884C188.664 101.884 182.765 108.764 182.765 118.23C182.765 127.695 188.664 134.575 196.989 134.575C200.886 134.575 204.263 133 206.533 130.186V134.075C206.533 136.571 205.52 138.669 203.798 140.151C202.071 141.637 199.604 142.523 196.677 142.523C193.956 142.523 190.469 141.737 186.769 140.141L186.298 139.937L186.107 140.413L184.61 144.142L184.426 144.599L184.881 144.789C189.234 146.612 193.417 147.5 197.052 147.5C205.933 147.5 212.524 141.869 212.524 133.889V103.13ZM248.082 119.972H248.534L248.579 119.522C248.644 118.876 248.644 118.295 248.644 117.68V117.67C248.644 113.062 247.207 109.115 244.695 106.314C242.18 103.509 238.611 101.884 234.42 101.884C229.953 101.884 226.122 103.567 223.41 106.47C220.701 109.37 219.135 113.459 219.135 118.23C219.135 123.01 220.817 127.103 223.71 130.001C226.604 132.899 230.681 134.575 235.418 134.575C238.876 134.575 242.82 133.619 246.87 131.602L247.302 131.387L247.102 130.947L245.542 127.529L245.321 127.044L244.851 127.296C241.668 129.004 238.567 129.785 235.917 129.785C232.855 129.785 230.269 128.725 228.396 126.919C226.631 125.216 225.476 122.826 225.171 119.972H248.082ZM254.825 133.329V133.829H255.325H260.253H260.753V133.329V116.987C260.753 114.037 261.614 111.596 263.059 109.901C264.498 108.212 266.542 107.234 268.987 107.234C270.124 107.234 271.334 107.413 272.503 107.658L273.027 107.768L273.1 107.238L273.662 103.199L273.725 102.748L273.282 102.643C271.944 102.326 270.532 102.133 269.361 102.133C265.432 102.133 262.105 103.971 260.251 107.074L259.815 103.075L259.766 102.63H259.318H255.325H254.825V103.13V133.329ZM125.116 129.971C121.379 129.971 118.754 127.633 118.754 124.692C118.754 122.807 119.561 121.314 121.065 120.272C122.59 119.216 124.864 118.605 127.799 118.605C129.691 118.605 131.587 118.82 133.537 119.25V121.399C133.537 123.953 132.659 126.091 131.185 127.588C129.712 129.085 127.614 129.971 125.116 129.971ZM198.174 129.536C195.457 129.536 193.148 128.393 191.51 126.423C189.866 124.447 188.88 121.615 188.88 118.23C188.88 111.516 192.795 106.923 198.174 106.923C200.665 106.923 202.761 107.851 204.237 109.408C205.715 110.967 206.595 113.185 206.595 115.806V120.653C206.595 123.306 205.714 125.523 204.238 127.074C202.763 128.622 200.667 129.536 198.174 129.536ZM242.816 115.803H225.178C225.498 113.098 226.52 110.873 228.034 109.302C229.645 107.632 231.838 106.675 234.42 106.675C239.05 106.675 242.45 110.316 242.816 115.803Z" fill="#00C4D9" stroke="#0076CF"/>
<path d="M73.3165 92.4402L73.5714 92.034L73.1762 91.7624C68.6699 88.6645 63.6439 87.0761 58.7319 87.0761C52.4923 87.0761 47.1956 89.3462 43.4603 93.2665C39.7268 97.1849 37.583 102.72 37.583 109.201C37.583 115.681 39.7268 121.216 43.4603 125.135C47.1956 129.055 52.4923 131.325 58.7319 131.325C63.6439 131.325 68.6699 129.737 73.1762 126.639L73.5714 126.367L73.3165 125.961L71.1331 122.481L70.8514 122.032L70.4197 122.34C66.9984 124.774 63.1677 126.1 59.4181 126.1C54.7759 126.1 50.9045 124.38 48.1906 121.43C45.4735 118.476 43.8856 114.253 43.8856 109.201C43.8856 104.148 45.4735 99.9253 48.1906 96.9714C50.9045 94.021 54.7759 92.3016 59.4181 92.3016C63.1677 92.3016 66.9984 93.6274 70.4197 96.0616L70.8514 96.3688L71.1331 95.92L73.3165 92.4402ZM79.7844 130.079V130.579H80.2844H85.2127H85.7127V130.079V113.053C85.7127 107.528 89.441 103.797 94.3831 103.797C96.605 103.797 98.4714 104.563 99.7803 105.845C101.088 107.126 101.868 108.952 101.868 111.127V130.079V130.579H102.368H107.359H107.859V130.079V110.381C107.859 106.932 106.61 103.987 104.463 101.905C102.317 99.8247 99.3022 98.634 95.8179 98.634C91.6577 98.634 88.0095 100.391 85.7127 103.457V86.3333V85.8333H85.2127H80.2844H79.7844V86.3333V130.079ZM134.62 109.511V111.978C132.425 111.459 130.293 111.248 128.32 111.248C123.954 111.248 120.376 112.177 117.876 113.967C115.355 115.772 113.971 118.427 113.971 121.753C113.971 127.254 118.822 131.325 125.014 131.325C128.966 131.325 132.714 129.715 135.264 126.919C135.581 128.102 136.176 129.101 137.028 129.849C138.125 130.813 139.606 131.325 141.358 131.325C142.516 131.325 143.67 131.197 144.694 131.006L145.146 130.921L145.1 130.464L144.725 126.736L144.672 126.205L144.146 126.293C143.758 126.357 143.055 126.472 142.606 126.472C141.834 126.472 141.288 126.241 140.934 125.883C140.58 125.524 140.361 124.978 140.361 124.238V109.636C140.361 106.364 139.122 103.601 136.967 101.66C134.818 99.7226 131.791 98.634 128.258 98.634C124.317 98.634 120.388 99.4578 116.102 101.09L115.635 101.268L115.813 101.735L117.185 105.339L117.37 105.826L117.849 105.621C121.292 104.151 124.532 103.425 127.696 103.425C129.809 103.425 131.539 104.076 132.736 105.146C133.928 106.213 134.62 107.722 134.62 109.511ZM149.661 130.079V130.579H150.161H155.089H155.589V130.079V113.053C155.589 107.528 159.318 103.797 164.26 103.797C166.482 103.797 168.348 104.563 169.657 105.845C170.965 107.126 171.745 108.952 171.745 111.127V130.079V130.579H172.245H177.236H177.736V130.079V110.381C177.736 106.932 176.487 103.987 174.34 101.905C172.194 99.8247 169.179 98.634 165.695 98.634C161.266 98.634 157.418 100.529 155.109 103.886L154.651 99.8236L154.601 99.3797H154.154H150.161H149.661V99.8797V130.079ZM213.607 99.8797V99.3797H213.107H209.114H208.672L208.618 99.8182L208.161 103.506C205.823 100.349 202.246 98.634 198.072 98.634C189.747 98.634 183.848 105.514 183.848 114.98C183.848 124.445 189.747 131.325 198.072 131.325C201.969 131.325 205.346 129.75 207.616 126.936V130.825C207.616 133.321 206.603 135.419 204.881 136.901C203.154 138.387 200.687 139.273 197.76 139.273C195.039 139.273 191.552 138.487 187.852 136.891L187.381 136.687L187.19 137.163L185.693 140.892L185.509 141.349L185.964 141.539C190.317 143.362 194.5 144.25 198.135 144.25C207.016 144.25 213.607 138.619 213.607 130.639V99.8797ZM249.165 116.722H249.617L249.662 116.272C249.727 115.626 249.727 115.045 249.727 114.43V114.42C249.727 109.812 248.29 105.865 245.778 103.064C243.263 100.259 239.694 98.634 235.503 98.634C231.036 98.634 227.205 100.317 224.493 103.22C221.784 106.12 220.218 110.209 220.218 114.98C220.218 119.76 221.9 123.853 224.793 126.751C227.687 129.649 231.764 131.325 236.501 131.325C239.959 131.325 243.903 130.369 247.953 128.352L248.385 128.137L248.185 127.697L246.625 124.279L246.404 123.794L245.934 124.046C242.751 125.754 239.65 126.535 237 126.535C233.938 126.535 231.352 125.475 229.479 123.669C227.714 121.966 226.559 119.576 226.254 116.722H249.165ZM255.908 130.079V130.579H256.408H261.336H261.836V130.079V113.737C261.836 110.787 262.697 108.346 264.142 106.651C265.581 104.962 267.625 103.984 270.07 103.984C271.207 103.984 272.417 104.163 273.586 104.408L274.11 104.518L274.183 103.988L274.745 99.9485L274.808 99.4981L274.365 99.3932C273.027 99.076 271.615 98.8826 270.444 98.8826C266.515 98.8826 263.188 100.721 261.334 103.824L260.898 99.8254L260.849 99.3797H260.401H256.408H255.908V99.8797V130.079ZM126.199 126.721C122.462 126.721 119.837 124.383 119.837 121.442C119.837 119.557 120.644 118.064 122.148 117.022C123.673 115.966 125.947 115.355 128.882 115.355C130.775 115.355 132.67 115.57 134.62 116V118.149C134.62 120.703 133.742 122.841 132.268 124.338C130.795 125.835 128.697 126.721 126.199 126.721ZM199.257 126.286C196.54 126.286 194.231 125.143 192.593 123.173C190.949 121.197 189.963 118.365 189.963 114.98C189.963 108.266 193.878 103.673 199.257 103.673C201.748 103.673 203.844 104.601 205.32 106.158C206.798 107.717 207.678 109.935 207.678 112.556V117.403C207.678 120.056 206.797 122.273 205.321 123.824C203.846 125.372 201.75 126.286 199.257 126.286ZM243.899 112.553H226.261C226.581 109.848 227.603 107.623 229.117 106.052C230.728 104.382 232.921 103.425 235.503 103.425C240.133 103.425 243.533 107.066 243.899 112.553Z" fill="#DCF94D" stroke="#00C4D9"/>
<defs>
<filter id="filter0_i_1998_2392" x="20.3936" y="21.9103" width="272.212" height="146.455" filterUnits="userSpaceOnUse" color-interpolation-filters="sRGB">
<feFlood flood-opacity="0" result="BackgroundImageFix"/>
<feBlend mode="normal" in="SourceGraphic" in2="BackgroundImageFix" result="shape"/>
<feColorMatrix in="SourceAlpha" type="matrix" values="0 0 0 0 0 0 0 0 0 0 0 0 0 0 0 0 0 0 127 0" result="hardAlpha"/>
<feOffset dx="1" dy="1"/>
<feGaussianBlur stdDeviation="5"/>
<feComposite in2="hardAlpha" operator="arithmetic" k2="-1" k3="1"/>
<feColorMatrix type="matrix" values="0 0 0 0 0 0 0 0 0 0.180773 0 0 0 0 0.359167 0 0 0 0.5 0"/>
<feBlend mode="normal" in2="shape" result="effect1_innerShadow_1998_2392"/>
</filter>
<filter id="filter1_dd_1998_2392" x="0" y="110" width="27" height="27" filterUnits="userSpaceOnUse" color-interpolation-filters="sRGB">
<feFlood flood-opacity="0" result="BackgroundImageFix"/>
<feColorMatrix in="SourceAlpha" type="matrix" values="0 0 0 0 0 0 0 0 0 0 0 0 0 0 0 0 0 0 127 0" result="hardAlpha"/>
<feOffset/>
<feGaussianBlur stdDeviation="5"/>
<feComposite in2="hardAlpha" operator="out"/>
<feColorMatrix type="matrix" values="0 0 0 0 0.964706 0 0 0 0 1 0 0 0 0 0.8 0 0 0 1 0"/>
<feBlend mode="normal" in2="BackgroundImageFix" result="effect1_dropShadow_1998_2392"/>
<feColorMatrix in="SourceAlpha" type="matrix" values="0 0 0 0 0 0 0 0 0 0 0 0 0 0 0 0 0 0 127 0" result="hardAlpha"/>
<feOffset/>
<feGaussianBlur stdDeviation="1.5"/>
<feComposite in2="hardAlpha" operator="out"/>
<feColorMatrix type="matrix" values="0 0 0 0 0.964706 0 0 0 0 1 0 0 0 0 0.8 0 0 0 1 0"/>
<feBlend mode="normal" in2="effect1_dropShadow_1998_2392" result="effect2_dropShadow_1998_2392"/>
<feBlend mode="normal" in="SourceGraphic" in2="effect2_dropShadow_1998_2392" result="shape"/>
</filter>
<filter id="filter2_dd_1998_2392" x="0" y="53" width="27" height="27" filterUnits="userSpaceOnUse" color-interpolation-filters="sRGB">
<feFlood flood-opacity="0" result="BackgroundImageFix"/>
<feColorMatrix in="SourceAlpha" type="matrix" values="0 0 0 0 0 0 0 0 0 0 0 0 0 0 0 0 0 0 127 0" result="hardAlpha"/>
<feOffset/>
<feGaussianBlur stdDeviation="5"/>
<feComposite in2="hardAlpha" operator="out"/>
<feColorMatrix type="matrix" values="0 0 0 0 0.964706 0 0 0 0 1 0 0 0 0 0.8 0 0 0 1 0"/>
<feBlend mode="normal" in2="BackgroundImageFix" result="effect1_dropShadow_1998_2392"/>
<feColorMatrix in="SourceAlpha" type="matrix" values="0 0 0 0 0 0 0 0 0 0 0 0 0 0 0 0 0 0 127 0" result="hardAlpha"/>
<feOffset/>
<feGaussianBlur stdDeviation="1.5"/>
<feComposite in2="hardAlpha" operator="out"/>
<feColorMatrix type="matrix" values="0 0 0 0 0.964706 0 0 0 0 1 0 0 0 0 0.8 0 0 0 1 0"/>
<feBlend mode="normal" in2="effect1_dropShadow_1998_2392" result="effect2_dropShadow_1998_2392"/>
<feBlend mode="normal" in="SourceGraphic" in2="effect2_dropShadow_1998_2392" result="shape"/>
</filter>
<filter id="filter3_dd_1998_2392" x="285" y="110" width="27" height="27" filterUnits="userSpaceOnUse" color-interpolation-filters="sRGB">
<feFlood flood-opacity="0" result="BackgroundImageFix"/>
<feColorMatrix in="SourceAlpha" type="matrix" values="0 0 0 0 0 0 0 0 0 0 0 0 0 0 0 0 0 0 127 0" result="hardAlpha"/>
<feOffset/>
<feGaussianBlur stdDeviation="5"/>
<feComposite in2="hardAlpha" operator="out"/>
<feColorMatrix type="matrix" values="0 0 0 0 0.964706 0 0 0 0 1 0 0 0 0 0.8 0 0 0 1 0"/>
<feBlend mode="normal" in2="BackgroundImageFix" result="effect1_dropShadow_1998_2392"/>
<feColorMatrix in="SourceAlpha" type="matrix" values="0 0 0 0 0 0 0 0 0 0 0 0 0 0 0 0 0 0 127 0" result="hardAlpha"/>
<feOffset/>
<feGaussianBlur stdDeviation="1.5"/>
<feComposite in2="hardAlpha" operator="out"/>
<feColorMatrix type="matrix" values="0 0 0 0 0.964706 0 0 0 0 1 0 0 0 0 0.8 0 0 0 1 0"/>
<feBlend mode="normal" in2="effect1_dropShadow_1998_2392" result="effect2_dropShadow_1998_2392"/>
<feBlend mode="normal" in="SourceGraphic" in2="effect2_dropShadow_1998_2392" result="shape"/>
</filter>
<filter id="filter4_dd_1998_2392" x="285" y="53" width="27" height="27" filterUnits="userSpaceOnUse" color-interpolation-filters="sRGB">
<feFlood flood-opacity="0" result="BackgroundImageFix"/>
<feColorMatrix in="SourceAlpha" type="matrix" values="0 0 0 0 0 0 0 0 0 0 0 0 0 0 0 0 0 0 127 0" result="hardAlpha"/>
<feOffset/>
<feGaussianBlur stdDeviation="5"/>
<feComposite in2="hardAlpha" operator="out"/>
<feColorMatrix type="matrix" values="0 0 0 0 0.964706 0 0 0 0 1 0 0 0 0 0.8 0 0 0 1 0"/>
<feBlend mode="normal" in2="BackgroundImageFix" result="effect1_dropShadow_1998_2392"/>
<feColorMatrix in="SourceAlpha" type="matrix" values="0 0 0 0 0 0 0 0 0 0 0 0 0 0 0 0 0 0 127 0" result="hardAlpha"/>
<feOffset/>
<feGaussianBlur stdDeviation="1.5"/>
<feComposite in2="hardAlpha" operator="out"/>
<feColorMatrix type="matrix" values="0 0 0 0 0.964706 0 0 0 0 1 0 0 0 0 0.8 0 0 0 1 0"/>
<feBlend mode="normal" in2="effect1_dropShadow_1998_2392" result="effect2_dropShadow_1998_2392"/>
<feBlend mode="normal" in="SourceGraphic" in2="effect2_dropShadow_1998_2392" result="shape"/>
</filter>
<filter id="filter5_dd_1998_2392" x="26.3027" y="0.696976" width="27" height="27" filterUnits="userSpaceOnUse" color-interpolation-filters="sRGB">
<feFlood flood-opacity="0" result="BackgroundImageFix"/>
<feColorMatrix in="SourceAlpha" type="matrix" values="0 0 0 0 0 0 0 0 0 0 0 0 0 0 0 0 0 0 127 0" result="hardAlpha"/>
<feOffset/>
<feGaussianBlur stdDeviation="5"/>
<feComposite in2="hardAlpha" operator="out"/>
<feColorMatrix type="matrix" values="0 0 0 0 0.964706 0 0 0 0 1 0 0 0 0 0.8 0 0 0 1 0"/>
<feBlend mode="normal" in2="BackgroundImageFix" result="effect1_dropShadow_1998_2392"/>
<feColorMatrix in="SourceAlpha" type="matrix" values="0 0 0 0 0 0 0 0 0 0 0 0 0 0 0 0 0 0 127 0" result="hardAlpha"/>
<feOffset/>
<feGaussianBlur stdDeviation="1.5"/>
<feComposite in2="hardAlpha" operator="out"/>
<feColorMatrix type="matrix" values="0 0 0 0 0.964706 0 0 0 0 1 0 0 0 0 0.8 0 0 0 1 0"/>
<feBlend mode="normal" in2="effect1_dropShadow_1998_2392" result="effect2_dropShadow_1998_2392"/>
<feBlend mode="normal" in="SourceGraphic" in2="effect2_dropShadow_1998_2392" result="shape"/>
</filter>
<filter id="filter6_dd_1998_2392" x="72.7812" y="0.696976" width="27" height="27" filterUnits="userSpaceOnUse" color-interpolation-filters="sRGB">
<feFlood flood-opacity="0" result="BackgroundImageFix"/>
<feColorMatrix in="SourceAlpha" type="matrix" values="0 0 0 0 0 0 0 0 0 0 0 0 0 0 0 0 0 0 127 0" result="hardAlpha"/>
<feOffset/>
<feGaussianBlur stdDeviation="5"/>
<feComposite in2="hardAlpha" operator="out"/>
<feColorMatrix type="matrix" values="0 0 0 0 0.964706 0 0 0 0 1 0 0 0 0 0.8 0 0 0 1 0"/>
<feBlend mode="normal" in2="BackgroundImageFix" result="effect1_dropShadow_1998_2392"/>
<feColorMatrix in="SourceAlpha" type="matrix" values="0 0 0 0 0 0 0 0 0 0 0 0 0 0 0 0 0 0 127 0" result="hardAlpha"/>
<feOffset/>
<feGaussianBlur stdDeviation="1.5"/>
<feComposite in2="hardAlpha" operator="out"/>
<feColorMatrix type="matrix" values="0 0 0 0 0.964706 0 0 0 0 1 0 0 0 0 0.8 0 0 0 1 0"/>
<feBlend mode="normal" in2="effect1_dropShadow_1998_2392" result="effect2_dropShadow_1998_2392"/>
<feBlend mode="normal" in="SourceGraphic" in2="effect2_dropShadow_1998_2392" result="shape"/>
</filter>
<filter id="filter7_dd_1998_2392" x="119.261" y="0.696976" width="27" height="27" filterUnits="userSpaceOnUse" color-interpolation-filters="sRGB">
<feFlood flood-opacity="0" result="BackgroundImageFix"/>
<feColorMatrix in="SourceAlpha" type="matrix" values="0 0 0 0 0 0 0 0 0 0 0 0 0 0 0 0 0 0 127 0" result="hardAlpha"/>
<feOffset/>
<feGaussianBlur stdDeviation="5"/>
<feComposite in2="hardAlpha" operator="out"/>
<feColorMatrix type="matrix" values="0 0 0 0 0.964706 0 0 0 0 1 0 0 0 0 0.8 0 0 0 1 0"/>
<feBlend mode="normal" in2="BackgroundImageFix" result="effect1_dropShadow_1998_2392"/>
<feColorMatrix in="SourceAlpha" type="matrix" values="0 0 0 0 0 0 0 0 0 0 0 0 0 0 0 0 0 0 127 0" result="hardAlpha"/>
<feOffset/>
<feGaussianBlur stdDeviation="1.5"/>
<feComposite in2="hardAlpha" operator="out"/>
<feColorMatrix type="matrix" values="0 0 0 0 0.964706 0 0 0 0 1 0 0 0 0 0.8 0 0 0 1 0"/>
<feBlend mode="normal" in2="effect1_dropShadow_1998_2392" result="effect2_dropShadow_1998_2392"/>
<feBlend mode="normal" in="SourceGraphic" in2="effect2_dropShadow_1998_2392" result="shape"/>
</filter>
<filter id="filter8_dd_1998_2392" x="165.739" y="0.696976" width="27" height="27" filterUnits="userSpaceOnUse" color-interpolation-filters="sRGB">
<feFlood flood-opacity="0" result="BackgroundImageFix"/>
<feColorMatrix in="SourceAlpha" type="matrix" values="0 0 0 0 0 0 0 0 0 0 0 0 0 0 0 0 0 0 127 0" result="hardAlpha"/>
<feOffset/>
<feGaussianBlur stdDeviation="5"/>
<feComposite in2="hardAlpha" operator="out"/>
<feColorMatrix type="matrix" values="0 0 0 0 0.964706 0 0 0 0 1 0 0 0 0 0.8 0 0 0 1 0"/>
<feBlend mode="normal" in2="BackgroundImageFix" result="effect1_dropShadow_1998_2392"/>
<feColorMatrix in="SourceAlpha" type="matrix" values="0 0 0 0 0 0 0 0 0 0 0 0 0 0 0 0 0 0 127 0" result="hardAlpha"/>
<feOffset/>
<feGaussianBlur stdDeviation="1.5"/>
<feComposite in2="hardAlpha" operator="out"/>
<feColorMatrix type="matrix" values="0 0 0 0 0.964706 0 0 0 0 1 0 0 0 0 0.8 0 0 0 1 0"/>
<feBlend mode="normal" in2="effect1_dropShadow_1998_2392" result="effect2_dropShadow_1998_2392"/>
<feBlend mode="normal" in="SourceGraphic" in2="effect2_dropShadow_1998_2392" result="shape"/>
</filter>
<filter id="filter9_dd_1998_2392" x="212.218" y="0.696976" width="27" height="27" filterUnits="userSpaceOnUse" color-interpolation-filters="sRGB">
<feFlood flood-opacity="0" result="BackgroundImageFix"/>
<feColorMatrix in="SourceAlpha" type="matrix" values="0 0 0 0 0 0 0 0 0 0 0 0 0 0 0 0 0 0 127 0" result="hardAlpha"/>
<feOffset/>
<feGaussianBlur stdDeviation="5"/>
<feComposite in2="hardAlpha" operator="out"/>
<feColorMatrix type="matrix" values="0 0 0 0 0.964706 0 0 0 0 1 0 0 0 0 0.8 0 0 0 1 0"/>
<feBlend mode="normal" in2="BackgroundImageFix" result="effect1_dropShadow_1998_2392"/>
<feColorMatrix in="SourceAlpha" type="matrix" values="0 0 0 0 0 0 0 0 0 0 0 0 0 0 0 0 0 0 127 0" result="hardAlpha"/>
<feOffset/>
<feGaussianBlur stdDeviation="1.5"/>
<feComposite in2="hardAlpha" operator="out"/>
<feColorMatrix type="matrix" values="0 0 0 0 0.964706 0 0 0 0 1 0 0 0 0 0.8 0 0 0 1 0"/>
<feBlend mode="normal" in2="effect1_dropShadow_1998_2392" result="effect2_dropShadow_1998_2392"/>
<feBlend mode="normal" in="SourceGraphic" in2="effect2_dropShadow_1998_2392" result="shape"/>
</filter>
<filter id="filter10_dd_1998_2392" x="258.696" y="0.696976" width="27" height="27" filterUnits="userSpaceOnUse" color-interpolation-filters="sRGB">
<feFlood flood-opacity="0" result="BackgroundImageFix"/>
<feColorMatrix in="SourceAlpha" type="matrix" values="0 0 0 0 0 0 0 0 0 0 0 0 0 0 0 0 0 0 127 0" result="hardAlpha"/>
<feOffset/>
<feGaussianBlur stdDeviation="5"/>
<feComposite in2="hardAlpha" operator="out"/>
<feColorMatrix type="matrix" values="0 0 0 0 0.964706 0 0 0 0 1 0 0 0 0 0.8 0 0 0 1 0"/>
<feBlend mode="normal" in2="BackgroundImageFix" result="effect1_dropShadow_1998_2392"/>
<feColorMatrix in="SourceAlpha" type="matrix" values="0 0 0 0 0 0 0 0 0 0 0 0 0 0 0 0 0 0 127 0" result="hardAlpha"/>
<feOffset/>
<feGaussianBlur stdDeviation="1.5"/>
<feComposite in2="hardAlpha" operator="out"/>
<feColorMatrix type="matrix" values="0 0 0 0 0.964706 0 0 0 0 1 0 0 0 0 0.8 0 0 0 1 0"/>
<feBlend mode="normal" in2="effect1_dropShadow_1998_2392" result="effect2_dropShadow_1998_2392"/>
<feBlend mode="normal" in="SourceGraphic" in2="effect2_dropShadow_1998_2392" result="shape"/>
</filter>
<filter id="filter11_dd_1998_2392" x="26.3027" y="161.303" width="27" height="27" filterUnits="userSpaceOnUse" color-interpolation-filters="sRGB">
<feFlood flood-opacity="0" result="BackgroundImageFix"/>
<feColorMatrix in="SourceAlpha" type="matrix" values="0 0 0 0 0 0 0 0 0 0 0 0 0 0 0 0 0 0 127 0" result="hardAlpha"/>
<feOffset/>
<feGaussianBlur stdDeviation="5"/>
<feComposite in2="hardAlpha" operator="out"/>
<feColorMatrix type="matrix" values="0 0 0 0 0.964706 0 0 0 0 1 0 0 0 0 0.8 0 0 0 1 0"/>
<feBlend mode="normal" in2="BackgroundImageFix" result="effect1_dropShadow_1998_2392"/>
<feColorMatrix in="SourceAlpha" type="matrix" values="0 0 0 0 0 0 0 0 0 0 0 0 0 0 0 0 0 0 127 0" result="hardAlpha"/>
<feOffset/>
<feGaussianBlur stdDeviation="1.5"/>
<feComposite in2="hardAlpha" operator="out"/>
<feColorMatrix type="matrix" values="0 0 0 0 0.964706 0 0 0 0 1 0 0 0 0 0.8 0 0 0 1 0"/>
<feBlend mode="normal" in2="effect1_dropShadow_1998_2392" result="effect2_dropShadow_1998_2392"/>
<feBlend mode="normal" in="SourceGraphic" in2="effect2_dropShadow_1998_2392" result="shape"/>
</filter>
<filter id="filter12_dd_1998_2392" x="72.7812" y="161.303" width="27" height="27" filterUnits="userSpaceOnUse" color-interpolation-filters="sRGB">
<feFlood flood-opacity="0" result="BackgroundImageFix"/>
<feColorMatrix in="SourceAlpha" type="matrix" values="0 0 0 0 0 0 0 0 0 0 0 0 0 0 0 0 0 0 127 0" result="hardAlpha"/>
<feOffset/>
<feGaussianBlur stdDeviation="5"/>
<feComposite in2="hardAlpha" operator="out"/>
<feColorMatrix type="matrix" values="0 0 0 0 0.964706 0 0 0 0 1 0 0 0 0 0.8 0 0 0 1 0"/>
<feBlend mode="normal" in2="BackgroundImageFix" result="effect1_dropShadow_1998_2392"/>
<feColorMatrix in="SourceAlpha" type="matrix" values="0 0 0 0 0 0 0 0 0 0 0 0 0 0 0 0 0 0 127 0" result="hardAlpha"/>
<feOffset/>
<feGaussianBlur stdDeviation="1.5"/>
<feComposite in2="hardAlpha" operator="out"/>
<feColorMatrix type="matrix" values="0 0 0 0 0.964706 0 0 0 0 1 0 0 0 0 0.8 0 0 0 1 0"/>
<feBlend mode="normal" in2="effect1_dropShadow_1998_2392" result="effect2_dropShadow_1998_2392"/>
<feBlend mode="normal" in="SourceGraphic" in2="effect2_dropShadow_1998_2392" result="shape"/>
</filter>
<filter id="filter13_dd_1998_2392" x="119.261" y="161.303" width="27" height="27" filterUnits="userSpaceOnUse" color-interpolation-filters="sRGB">
<feFlood flood-opacity="0" result="BackgroundImageFix"/>
<feColorMatrix in="SourceAlpha" type="matrix" values="0 0 0 0 0 0 0 0 0 0 0 0 0 0 0 0 0 0 127 0" result="hardAlpha"/>
<feOffset/>
<feGaussianBlur stdDeviation="5"/>
<feComposite in2="hardAlpha" operator="out"/>
<feColorMatrix type="matrix" values="0 0 0 0 0.964706 0 0 0 0 1 0 0 0 0 0.8 0 0 0 1 0"/>
<feBlend mode="normal" in2="BackgroundImageFix" result="effect1_dropShadow_1998_2392"/>
<feColorMatrix in="SourceAlpha" type="matrix" values="0 0 0 0 0 0 0 0 0 0 0 0 0 0 0 0 0 0 127 0" result="hardAlpha"/>
<feOffset/>
<feGaussianBlur stdDeviation="1.5"/>
<feComposite in2="hardAlpha" operator="out"/>
<feColorMatrix type="matrix" values="0 0 0 0 0.964706 0 0 0 0 1 0 0 0 0 0.8 0 0 0 1 0"/>
<feBlend mode="normal" in2="effect1_dropShadow_1998_2392" result="effect2_dropShadow_1998_2392"/>
<feBlend mode="normal" in="SourceGraphic" in2="effect2_dropShadow_1998_2392" result="shape"/>
</filter>
<filter id="filter14_dd_1998_2392" x="165.739" y="161.303" width="27" height="27" filterUnits="userSpaceOnUse" color-interpolation-filters="sRGB">
<feFlood flood-opacity="0" result="BackgroundImageFix"/>
<feColorMatrix in="SourceAlpha" type="matrix" values="0 0 0 0 0 0 0 0 0 0 0 0 0 0 0 0 0 0 127 0" result="hardAlpha"/>
<feOffset/>
<feGaussianBlur stdDeviation="5"/>
<feComposite in2="hardAlpha" operator="out"/>
<feColorMatrix type="matrix" values="0 0 0 0 0.964706 0 0 0 0 1 0 0 0 0 0.8 0 0 0 1 0"/>
<feBlend mode="normal" in2="BackgroundImageFix" result="effect1_dropShadow_1998_2392"/>
<feColorMatrix in="SourceAlpha" type="matrix" values="0 0 0 0 0 0 0 0 0 0 0 0 0 0 0 0 0 0 127 0" result="hardAlpha"/>
<feOffset/>
<feGaussianBlur stdDeviation="1.5"/>
<feComposite in2="hardAlpha" operator="out"/>
<feColorMatrix type="matrix" values="0 0 0 0 0.964706 0 0 0 0 1 0 0 0 0 0.8 0 0 0 1 0"/>
<feBlend mode="normal" in2="effect1_dropShadow_1998_2392" result="effect2_dropShadow_1998_2392"/>
<feBlend mode="normal" in="SourceGraphic" in2="effect2_dropShadow_1998_2392" result="shape"/>
</filter>
<filter id="filter15_dd_1998_2392" x="212.218" y="161.303" width="27" height="27" filterUnits="userSpaceOnUse" color-interpolation-filters="sRGB">
<feFlood flood-opacity="0" result="BackgroundImageFix"/>
<feColorMatrix in="SourceAlpha" type="matrix" values="0 0 0 0 0 0 0 0 0 0 0 0 0 0 0 0 0 0 127 0" result="hardAlpha"/>
<feOffset/>
<feGaussianBlur stdDeviation="5"/>
<feComposite in2="hardAlpha" operator="out"/>
<feColorMatrix type="matrix" values="0 0 0 0 0.964706 0 0 0 0 1 0 0 0 0 0.8 0 0 0 1 0"/>
<feBlend mode="normal" in2="BackgroundImageFix" result="effect1_dropShadow_1998_2392"/>
<feColorMatrix in="SourceAlpha" type="matrix" values="0 0 0 0 0 0 0 0 0 0 0 0 0 0 0 0 0 0 127 0" result="hardAlpha"/>
<feOffset/>
<feGaussianBlur stdDeviation="1.5"/>
<feComposite in2="hardAlpha" operator="out"/>
<feColorMatrix type="matrix" values="0 0 0 0 0.964706 0 0 0 0 1 0 0 0 0 0.8 0 0 0 1 0"/>
<feBlend mode="normal" in2="effect1_dropShadow_1998_2392" result="effect2_dropShadow_1998_2392"/>
<feBlend mode="normal" in="SourceGraphic" in2="effect2_dropShadow_1998_2392" result="shape"/>
</filter>
<filter id="filter16_dd_1998_2392" x="258.696" y="161.303" width="27" height="27" filterUnits="userSpaceOnUse" color-interpolation-filters="sRGB">
<feFlood flood-opacity="0" result="BackgroundImageFix"/>
<feColorMatrix in="SourceAlpha" type="matrix" values="0 0 0 0 0 0 0 0 0 0 0 0 0 0 0 0 0 0 127 0" result="hardAlpha"/>
<feOffset/>
<feGaussianBlur stdDeviation="5"/>
<feComposite in2="hardAlpha" operator="out"/>
<feColorMatrix type="matrix" values="0 0 0 0 0.964706 0 0 0 0 1 0 0 0 0 0.8 0 0 0 1 0"/>
<feBlend mode="normal" in2="BackgroundImageFix" result="effect1_dropShadow_1998_2392"/>
<feColorMatrix in="SourceAlpha" type="matrix" values="0 0 0 0 0 0 0 0 0 0 0 0 0 0 0 0 0 0 127 0" result="hardAlpha"/>
<feOffset/>
<feGaussianBlur stdDeviation="1.5"/>
<feComposite in2="hardAlpha" operator="out"/>
<feColorMatrix type="matrix" values="0 0 0 0 0.964706 0 0 0 0 1 0 0 0 0 0.8 0 0 0 1 0"/>
<feBlend mode="normal" in2="effect1_dropShadow_1998_2392" result="effect2_dropShadow_1998_2392"/>
<feBlend mode="normal" in="SourceGraphic" in2="effect2_dropShadow_1998_2392" result="shape"/>
</filter>
<linearGradient id="paint0_linear_1998_2392" x1="6.00001" y1="123.28" x2="102.489" y2="-48.5272" gradientUnits="userSpaceOnUse">
<stop offset="0.25" stop-color="#004C97"/>
<stop offset="1" stop-color="#0076CF"/>
</linearGradient>
<linearGradient id="paint1_linear_1998_2392" x1="6.00001" y1="123.28" x2="102.489" y2="-48.5272" gradientUnits="userSpaceOnUse">
<stop offset="0.25" stop-color="#003865"/>
<stop offset="1" stop-color="#004C97"/>
</linearGradient>
</defs>
</svg>
