<svg width="634" height="66" viewBox="0 0 634 66" fill="none" xmlns="http://www.w3.org/2000/svg">
<g clip-path="url(#clip0_1866_60)">
<g clip-path="url(#clip1_1866_60)">
<path d="M6.99996 0V3.88H3.38755V7.76H-0.224854V58.24H3.38755V62.12H6.99996V66H626.766V62.12H630.387V58.24H634V7.76H630.387V3.88H626.766V0H6.99996Z" fill="#00C4D9"/>
<path d="M7.22471 3.88V7.76H3.6123V11.65H7.22471V7.76H626.378V11.65H630V7.76H626.378V3.88L7.22471 3.88Z" fill="white"/>
<path d="M7.22471 7.76001V11.65H3.6123V54.14H7.22471V58.03H626.5V54.14H630.122V11.65H626.5V7.76001H7.22471Z" fill="#55FFF5"/>
<path d="M23.5618 42V21.84H31.8118C36.0118 21.84 38.9818 24.6 38.9818 28.47C38.9818 32.37 36.0118 35.13 31.8118 35.13H27.4018V42H23.5618ZM27.4018 24.9V32.04H31.2118C33.4918 32.04 35.0518 30.57 35.0518 28.47C35.0518 26.4 33.4918 24.9 31.2118 24.9H27.4018ZM45.6697 20.88V37.8C45.6697 38.73 46.2697 39.3 47.1697 39.3C47.5297 39.3 48.0097 39.21 48.4897 39.12L48.9097 42.03C47.9497 42.24 47.0197 42.36 46.2397 42.36C43.5397 42.36 41.8297 40.74 41.8297 38.19V20.88H45.6697ZM50.1589 37.74C50.1589 34.65 52.6789 32.85 56.9389 32.85C57.8389 32.85 58.8289 32.94 59.7889 33.15V32.37C59.7889 30.87 58.5889 29.79 56.7589 29.79C55.2589 29.79 53.6389 30.15 51.9289 30.84L50.9689 28.17C53.1589 27.33 55.2289 26.94 57.2089 26.94C60.9289 26.94 63.3889 29.16 63.3889 32.43V38.4C63.3889 39.03 63.7789 39.45 64.4089 39.45C64.7089 39.45 65.0389 39.39 65.1589 39.36L65.4289 42.15C64.7989 42.27 64.1089 42.36 63.3889 42.36C61.8889 42.36 60.7489 41.61 60.2389 40.38C58.9789 41.64 57.2089 42.36 55.4089 42.36C52.3489 42.36 50.1589 40.44 50.1589 37.74ZM53.8489 37.53C53.8489 38.73 54.9589 39.66 56.3989 39.66C58.4389 39.66 59.7889 38.25 59.7889 36.24V35.37C59.0089 35.16 58.1989 35.07 57.3889 35.07C55.1989 35.07 53.8489 36 53.8489 37.53ZM80.6799 27.3L74.1399 43.65C72.8199 46.98 70.9599 48.6 68.2599 48.6C67.6299 48.6 66.8199 48.51 65.9799 48.33L66.4899 45.33C66.9999 45.45 67.5099 45.54 67.8999 45.54C69.2199 45.54 69.9999 44.82 70.6899 43.11L71.1999 41.82L65.1399 27.3H69.1599L72.9699 37.65L76.6899 27.3H80.6799ZM107.341 30.87V40.65C104.821 41.73 102.331 42.36 99.7215 42.36C93.3315 42.36 88.8915 38.04 88.8915 31.92C88.8915 25.8 93.2415 21.48 99.4815 21.48C101.941 21.48 104.461 22.2 106.951 23.55L105.481 26.22C103.501 25.17 101.731 24.54 99.9315 24.54C95.7015 24.54 92.7915 27.6 92.7915 31.92C92.7915 36.3 95.7615 39.3 100.021 39.3C101.311 39.3 102.541 39.03 103.651 38.55V33.81H99.1215V30.87H107.341ZM110.188 37.74C110.188 34.65 112.708 32.85 116.968 32.85C117.868 32.85 118.858 32.94 119.818 33.15V32.37C119.818 30.87 118.618 29.79 116.788 29.79C115.288 29.79 113.668 30.15 111.958 30.84L110.998 28.17C113.188 27.33 115.258 26.94 117.238 26.94C120.958 26.94 123.418 29.16 123.418 32.43V38.4C123.418 39.03 123.808 39.45 124.438 39.45C124.738 39.45 125.068 39.39 125.188 39.36L125.458 42.15C124.828 42.27 124.138 42.36 123.418 42.36C121.918 42.36 120.778 41.61 120.268 40.38C119.008 41.64 117.238 42.36 115.438 42.36C112.378 42.36 110.188 40.44 110.188 37.74ZM113.878 37.53C113.878 38.73 114.988 39.66 116.428 39.66C118.468 39.66 119.818 38.25 119.818 36.24V35.37C119.038 35.16 118.228 35.07 117.418 35.07C115.228 35.07 113.878 36 113.878 37.53ZM127.582 42V27.3H130.642L131.122 29.31C132.292 27.78 134.002 26.94 135.952 26.94C138.082 26.94 139.822 27.96 140.662 29.64C142.012 27.9 143.842 26.94 145.972 26.94C149.182 26.94 151.462 29.16 151.462 32.31V42H147.622V32.91C147.622 31.26 146.452 30.09 144.772 30.09C142.822 30.09 141.442 31.56 141.442 33.66V42H137.602V32.91C137.602 31.26 136.432 30.09 134.782 30.09C132.802 30.09 131.422 31.56 131.422 33.66V42H127.582ZM154.28 34.65C154.28 30.12 157.37 26.94 161.81 26.94C165.98 26.94 168.89 29.97 168.89 34.38C168.89 34.8 168.86 35.22 168.83 35.61H158.12C158.39 37.95 160.25 39.51 162.77 39.51C164.03 39.51 165.47 39.12 167 38.28L168.17 40.89C166.1 41.91 164.03 42.36 162.29 42.36C157.55 42.36 154.28 39.18 154.28 34.65ZM161.81 29.79C159.83 29.79 158.36 31.2 158.12 33.3H165.2C165.08 31.2 163.73 29.79 161.81 29.79ZM178.1 31.92C178.1 25.77 182.33 21.48 188.45 21.48C190.88 21.48 193.4 22.26 195.68 23.76L194.06 26.43C192.41 25.29 190.7 24.66 188.96 24.66C184.94 24.66 182.15 27.63 182.15 31.92C182.15 36.21 184.94 39.18 188.96 39.18C190.7 39.18 192.41 38.55 194.06 37.41L195.68 40.08C193.4 41.58 190.88 42.36 188.45 42.36C182.33 42.36 178.1 38.04 178.1 31.92ZM198.392 42V20.88H202.232V29.19C203.282 27.75 205.022 26.94 207.002 26.94C210.362 26.94 212.732 29.25 212.732 32.55V42H208.892V33.15C208.892 31.35 207.602 30.09 205.832 30.09C203.762 30.09 202.232 31.65 202.232 33.9V42H198.392ZM215.54 37.74C215.54 34.65 218.06 32.85 222.32 32.85C223.22 32.85 224.21 32.94 225.17 33.15V32.37C225.17 30.87 223.97 29.79 222.14 29.79C220.64 29.79 219.02 30.15 217.31 30.84L216.35 28.17C218.54 27.33 220.61 26.94 222.59 26.94C226.31 26.94 228.77 29.16 228.77 32.43V38.4C228.77 39.03 229.16 39.45 229.79 39.45C230.09 39.45 230.42 39.39 230.54 39.36L230.81 42.15C230.18 42.27 229.49 42.36 228.77 42.36C227.27 42.36 226.13 41.61 225.62 40.38C224.36 41.64 222.59 42.36 220.79 42.36C217.73 42.36 215.54 40.44 215.54 37.74ZM219.23 37.53C219.23 38.73 220.34 39.66 221.78 39.66C223.82 39.66 225.17 38.25 225.17 36.24V35.37C224.39 35.16 223.58 35.07 222.77 35.07C220.58 35.07 219.23 36 219.23 37.53ZM232.933 42V27.3H235.993L236.473 29.43C237.583 27.84 239.413 26.94 241.543 26.94C244.903 26.94 247.273 29.25 247.273 32.55V42H243.433V33.15C243.433 31.35 242.143 30.09 240.373 30.09C238.303 30.09 236.773 31.65 236.773 33.9V42H232.933ZM265.051 27.3V41.73C265.051 45.72 261.721 48.6 257.131 48.6C255.241 48.6 253.111 48.18 250.891 47.25L251.941 44.4C253.801 45.24 255.481 45.6 256.831 45.6C259.411 45.6 261.211 44.07 261.211 41.88V40.32C260.161 41.64 258.631 42.36 256.801 42.36C252.871 42.36 250.081 39.18 250.081 34.65C250.081 30.12 252.871 26.94 256.801 26.94C258.781 26.94 260.431 27.75 261.511 29.19L261.991 27.3H265.051ZM253.981 34.65C253.981 37.38 255.571 39.33 257.791 39.33C259.861 39.33 261.301 37.77 261.301 35.64V33.66C261.301 31.5 259.861 29.97 257.791 29.97C255.571 29.97 253.981 31.89 253.981 34.65ZM268.098 34.65C268.098 30.12 271.188 26.94 275.628 26.94C279.798 26.94 282.708 29.97 282.708 34.38C282.708 34.8 282.678 35.22 282.648 35.61H271.938C272.208 37.95 274.068 39.51 276.588 39.51C277.848 39.51 279.288 39.12 280.818 38.28L281.988 40.89C279.918 41.91 277.848 42.36 276.108 42.36C271.368 42.36 268.098 39.18 268.098 34.65ZM275.628 29.79C273.648 29.79 272.178 31.2 271.938 33.3H279.018C278.898 31.2 277.548 29.79 275.628 29.79ZM285.492 42V27.3H288.552L289.032 29.58C289.872 27.99 291.462 27.06 293.382 27.06C293.892 27.06 294.552 27.12 295.152 27.27L294.792 30.33C294.282 30.21 293.652 30.12 293.082 30.12C290.802 30.12 289.332 31.89 289.332 34.41V42H285.492ZM306.778 49.392V17.712H308.164V49.392H306.778ZM326.144 42V25.424L321.272 28.224L320.488 26.656L326.508 23.184H328.384V42H326.144ZM347.177 23.184V25.004H338.805V31.024C339.757 30.828 340.737 30.716 341.549 30.716C345.441 30.716 347.849 33.012 347.849 36.484C347.849 39.9 345.217 42.336 341.297 42.336C339.337 42.336 337.377 41.748 335.613 40.684L336.481 39.004C338.021 39.956 339.617 40.46 341.129 40.46C343.873 40.46 345.637 38.864 345.637 36.456C345.637 33.936 343.901 32.368 340.905 32.368C339.701 32.368 338.385 32.508 336.789 32.872V23.184H347.177ZM351.13 32.592C351.13 26.6 353.79 22.848 358.046 22.848C362.302 22.848 364.962 26.6 364.962 32.592C364.962 38.584 362.302 42.336 358.046 42.336C353.79 42.336 351.13 38.584 351.13 32.592ZM353.258 32.592C353.258 37.408 355.106 40.46 358.046 40.46C360.986 40.46 362.834 37.408 362.834 32.592C362.834 27.748 360.986 24.724 358.046 24.724C355.106 24.724 353.258 27.748 353.258 32.592ZM375.053 47.824V28.392H376.845L377.125 30.66C378.077 28.98 379.757 28.056 381.801 28.056C385.357 28.056 387.933 31.024 387.933 35.196C387.933 39.368 385.357 42.336 381.801 42.336C379.841 42.336 378.245 41.44 377.265 39.872V47.824H375.053ZM385.665 35.196C385.665 32.088 383.817 29.876 381.269 29.876C378.889 29.876 377.237 31.64 377.237 34.104V36.288C377.237 38.78 378.889 40.516 381.269 40.516C383.817 40.516 385.665 38.332 385.665 35.196ZM391.377 42V28.392H393.169L393.449 30.968C394.121 29.232 395.717 28.168 397.677 28.168C398.181 28.168 398.797 28.252 399.385 28.392L399.133 30.212C398.601 30.1 398.041 30.016 397.509 30.016C395.185 30.016 393.589 31.892 393.589 34.636V42H391.377ZM402.096 42V28.392H404.308V42H402.096ZM401.704 24.248C401.704 23.38 402.32 22.764 403.216 22.764C404.084 22.764 404.7 23.38 404.7 24.248C404.7 25.116 404.084 25.732 403.216 25.732C402.32 25.732 401.704 25.116 401.704 24.248ZM407.761 42V40.74L415.601 30.156H407.985V28.392H418.541V29.68L410.701 40.264H418.765V42H407.761ZM420.913 35.196C420.913 30.996 423.657 28.056 427.549 28.056C431.189 28.056 433.709 30.884 433.709 34.944C433.709 35.224 433.709 35.476 433.681 35.756H423.153C423.349 38.64 425.365 40.628 428.221 40.628C429.453 40.628 430.881 40.264 432.337 39.48L433.037 41.02C431.245 41.916 429.509 42.336 427.997 42.336C423.853 42.336 420.913 39.396 420.913 35.196ZM427.549 29.764C425.113 29.764 423.377 31.584 423.153 34.328H431.553C431.469 31.64 429.845 29.764 427.549 29.764ZM436.064 31.864C436.064 29.652 438.108 28.056 441.02 28.056C442.448 28.056 444.016 28.364 445.612 29.008L445.108 30.66C443.708 30.072 442.364 29.764 441.188 29.764C439.424 29.764 438.276 30.604 438.276 31.864C438.276 35.224 446.06 33.208 446.06 38.416C446.06 40.712 444.016 42.336 441.02 42.336C439.452 42.336 437.744 42 435.952 41.3L436.484 39.648C438.052 40.292 439.536 40.628 440.852 40.628C442.672 40.628 443.876 39.732 443.876 38.416C443.876 34.972 436.064 36.96 436.064 31.864ZM468.165 28.392V42H466.373L466.093 39.508C465.141 41.3 463.321 42.336 461.165 42.336C458.141 42.336 456.013 40.264 456.013 37.268V28.392H458.225V36.96C458.225 39.032 459.737 40.46 461.809 40.46C464.161 40.46 465.925 38.668 465.925 36.064V28.392H468.165ZM472.561 47.824V28.392H474.353L474.633 30.66C475.585 28.98 477.265 28.056 479.309 28.056C482.865 28.056 485.441 31.024 485.441 35.196C485.441 39.368 482.865 42.336 479.309 42.336C477.349 42.336 475.753 41.44 474.773 39.872V47.824H472.561ZM483.173 35.196C483.173 32.088 481.325 29.876 478.777 29.876C476.397 29.876 474.745 31.64 474.745 34.104V36.288C474.745 38.78 476.397 40.516 478.777 40.516C481.325 40.516 483.173 38.332 483.173 35.196ZM496.518 42V30.156H493.69V28.392H496.518V25.928C496.518 23.576 498.17 21.952 500.606 21.952C501.474 21.952 502.37 22.064 503.322 22.316L503.014 24.052C502.314 23.884 501.67 23.772 501.082 23.772C499.682 23.772 498.73 24.724 498.73 26.124V28.392H502.566V30.156H498.73V42H496.518ZM503.846 35.196C503.846 30.996 506.73 28.056 510.79 28.056C514.822 28.056 517.706 30.996 517.706 35.196C517.706 39.396 514.822 42.336 510.79 42.336C506.73 42.336 503.846 39.396 503.846 35.196ZM506.142 35.196C506.142 38.36 508.046 40.544 510.79 40.544C513.506 40.544 515.438 38.36 515.438 35.196C515.438 32.06 513.506 29.848 510.79 29.848C508.046 29.848 506.142 32.06 506.142 35.196ZM521.151 42V28.392H522.943L523.223 30.968C523.895 29.232 525.491 28.168 527.451 28.168C527.955 28.168 528.571 28.252 529.159 28.392L528.907 30.212C528.375 30.1 527.815 30.016 527.283 30.016C524.959 30.016 523.363 31.892 523.363 34.636V42H521.151ZM550.086 28.392V42.252C550.086 45.696 547.258 48.16 543.366 48.16C541.77 48.16 539.922 47.768 537.99 46.956L538.662 45.276C540.342 46.004 541.938 46.368 543.198 46.368C545.914 46.368 547.846 44.716 547.846 42.336V39.872C546.894 41.44 545.27 42.336 543.338 42.336C539.754 42.336 537.178 39.368 537.178 35.196C537.178 31.024 539.754 28.056 543.338 28.056C545.354 28.056 547.034 28.98 548.014 30.66L548.294 28.392H550.086ZM539.474 35.196C539.474 38.332 541.294 40.516 543.87 40.516C546.222 40.516 547.874 38.78 547.874 36.288V34.104C547.874 31.64 546.222 29.876 543.87 29.876C541.294 29.876 539.474 32.088 539.474 35.196ZM554.483 42V28.392H556.275L556.555 30.968C557.227 29.232 558.823 28.168 560.783 28.168C561.287 28.168 561.903 28.252 562.491 28.392L562.239 30.212C561.707 30.1 561.147 30.016 560.615 30.016C558.291 30.016 556.695 31.892 556.695 34.636V42H554.483ZM563.893 38.248C563.893 35.392 566.245 33.74 570.109 33.74C571.061 33.74 572.097 33.852 573.161 34.132V32.732C573.161 30.996 571.817 29.764 569.829 29.764C568.373 29.764 566.889 30.1 565.321 30.772L564.705 29.148C566.609 28.42 568.345 28.056 570.081 28.056C573.161 28.056 575.289 29.96 575.289 32.788V39.368C575.289 40.124 575.737 40.6 576.521 40.6C576.745 40.6 577.081 40.544 577.249 40.516L577.417 42.196C576.969 42.28 576.465 42.336 575.961 42.336C574.477 42.336 573.525 41.468 573.357 40.068C572.265 41.496 570.501 42.336 568.625 42.336C565.937 42.336 563.893 40.572 563.893 38.248ZM566.077 38.108C566.077 39.592 567.393 40.712 569.157 40.712C571.509 40.712 573.161 39.032 573.161 36.624V35.476C572.209 35.252 571.285 35.14 570.361 35.14C567.673 35.14 566.077 36.26 566.077 38.108ZM579.912 42V22.288H582.124V30.548C583.104 28.952 584.7 28.056 586.66 28.056C590.216 28.056 592.792 31.024 592.792 35.196C592.792 39.368 590.216 42.336 586.66 42.336C584.616 42.336 582.936 41.412 581.984 39.732L581.704 42H579.912ZM590.524 35.196C590.524 32.088 588.676 29.876 586.128 29.876C583.748 29.876 582.096 31.64 582.096 34.104V36.288C582.096 38.78 583.748 40.516 586.128 40.516C588.676 40.516 590.524 38.332 590.524 35.196ZM595.369 31.864C595.369 29.652 597.413 28.056 600.325 28.056C601.753 28.056 603.321 28.364 604.917 29.008L604.413 30.66C603.013 30.072 601.669 29.764 600.493 29.764C598.729 29.764 597.581 30.604 597.581 31.864C597.581 35.224 605.365 33.208 605.365 38.416C605.365 40.712 603.321 42.336 600.325 42.336C598.757 42.336 597.049 42 595.257 41.3L595.789 39.648C597.357 40.292 598.841 40.628 600.157 40.628C601.977 40.628 603.181 39.732 603.181 38.416C603.181 34.972 595.369 36.96 595.369 31.864ZM609.347 36.148L609.151 23.184H611.419L611.223 36.148H609.347ZM608.787 40.768C608.787 39.9 609.403 39.284 610.299 39.284C611.167 39.284 611.783 39.9 611.783 40.768C611.783 41.636 611.167 42.252 610.299 42.252C609.375 42.252 608.787 41.636 608.787 40.768Z" fill="#004C97"/>
</g>
</g>
<defs>
<clipPath id="clip0_1866_60">
<rect width="634" height="66" fill="white"/>
</clipPath>
<clipPath id="clip1_1866_60">
<rect width="634" height="66" fill="white"/>
</clipPath>
</defs>
</svg>
