<svg width="399" height="179" viewBox="0 0 399 179" fill="none" xmlns="http://www.w3.org/2000/svg">
<g clip-path="url(#clip0_2459_10580)">
<g filter="url(#filter0_d_2459_10580)">
<path d="M344.286 203.357C344.286 203.357 341.305 171.917 334.896 139.167C329.889 137.466 310.515 135.858 299.747 134.613C296.552 155.194 304.876 339.199 304.876 339.199L304.929 339.218C304.859 338.968 304.857 338.735 304.934 338.523C305.553 336.81 310.987 337.224 317.072 339.451C322.802 341.548 327.151 345.768 327.157 347.021C328.02 343.446 340.374 292.021 340.837 277.992C341.07 270.94 335.27 249.503 335.27 249.503L344.286 203.357Z" fill="#141C41"/>
<path d="M408.767 340.935C413.989 338.828 417.895 337.535 418.569 339.227L395.891 254.295L378.682 182.512C378.682 182.512 365.88 143.409 360.647 137.724C350.57 141.738 329.963 138.751 325.566 141.702C324.176 169.885 326.95 179.344 326.95 179.344L360.596 253.657C360.596 253.657 366.541 278.155 368.584 284.906C372.796 298.818 399.179 346.463 399.179 346.463C398.863 345.749 403.545 343.041 408.767 340.935Z" fill="#1C2757"/>
<path d="M298.664 139.802L298.521 169.07C298.521 169.07 307.466 180.679 315.748 178.817C324.03 176.955 325.874 144.154 325.874 144.154L298.664 139.802Z" fill="#FBFBFB"/>
<path d="M363.469 140.095C363.469 140.095 369.462 155.677 370.916 159.437C372.369 163.197 340.933 182.44 334.71 177.333C328.486 172.228 321.652 143.627 321.652 143.627L363.469 140.095Z" fill="#FBFBFB"/>
<path d="M326.963 153.826C328.982 158.589 331.004 163.348 333.181 168.008C333.735 169.167 334.304 170.317 334.903 171.44C335.205 171.999 335.518 172.551 335.85 173.078C336.182 173.592 336.545 174.127 336.917 174.476C337.129 174.679 337.163 174.665 337.385 174.707C337.619 174.726 337.909 174.711 338.199 174.675C338.785 174.608 339.396 174.461 340 174.314C341.21 173.997 342.415 173.596 343.609 173.16C346.001 172.303 348.35 171.295 350.661 170.208C352.982 169.138 355.247 167.949 357.484 166.707C361.934 164.187 366.252 161.391 370.132 157.986C366.624 161.788 362.438 164.943 358.029 167.649C353.614 170.363 348.954 172.666 344.075 174.474C342.85 174.91 341.609 175.313 340.328 175.635C339.683 175.788 339.04 175.939 338.347 176.013C338 176.052 337.647 176.076 337.239 176.038C337.15 176.038 337.017 176.002 336.903 175.975C336.786 175.947 336.67 175.914 336.56 175.844C336.454 175.782 336.326 175.714 336.247 175.645L336.019 175.439C335.469 174.885 335.131 174.318 334.774 173.745C334.433 173.172 334.124 172.591 333.828 172.005C333.232 170.838 332.702 169.648 332.196 168.453C330.166 163.673 328.477 158.774 326.961 153.824L326.963 153.826Z" fill="#F1F4FB"/>
<path d="M322.8 153.826C322.252 157.388 321.51 160.919 320.544 164.397C320.07 166.14 319.521 167.863 318.901 169.572C318.594 170.428 318.233 171.268 317.852 172.104C317.463 172.939 317.04 173.766 316.476 174.562C316.173 174.952 315.869 175.347 315.389 175.683C315.186 175.853 314.829 176.002 314.552 176.075C314.273 176.14 314.006 176.159 313.738 176.166C312.689 176.149 311.765 175.863 310.896 175.511C309.167 174.78 307.617 173.796 306.171 172.689C303.306 170.473 300.703 167.813 299.018 164.611C300.083 166.06 301.303 167.361 302.635 168.533C303.948 169.723 305.346 170.813 306.801 171.803C308.266 172.767 309.778 173.687 311.374 174.28C312.163 174.574 312.981 174.807 313.727 174.803C313.907 174.793 314.084 174.78 314.241 174.74C314.387 174.684 314.459 174.671 314.602 174.555C314.86 174.381 315.118 174.056 315.359 173.741C316.322 172.393 317.015 170.726 317.681 169.098C318.356 167.46 318.926 165.766 319.516 164.08C320.645 160.688 321.732 157.268 322.802 153.828L322.8 153.826Z" fill="#F1F4FB"/>
<path d="M297.25 139.164C297.25 139.164 296.328 148.813 296.847 150.559C297.367 152.304 309.099 156.097 330.778 155.398C352.458 154.699 365.582 145.588 365.582 145.588L362.812 137.726L297.25 139.164Z" fill="url(#paint0_linear_2459_10580)"/>
<path d="M281.494 127.858C281.494 127.858 268.413 122.895 268.093 117.655C267.396 106.234 275.341 94.0753 282.145 84.4332C288.879 74.8903 294.227 62.2633 311.224 60.3096C315.514 59.8169 307.314 85.0099 304.705 90.254C299.466 100.788 281.494 127.858 281.494 127.858Z" fill="url(#paint1_linear_2459_10580)"/>
<path d="M297.138 140.401C298.552 141.039 304.961 145.475 321.893 146.787C337.522 147.998 355.504 144.75 356.39 142.088C357.661 138.274 356.716 138.95 358.777 131.307C362.275 118.333 366.116 103.208 367.586 97.3658C369.279 90.6474 379.151 83.5394 379.099 76.9509C379.067 72.6769 375.673 69.6023 371.055 67.8778C359.928 63.7242 345.421 59.0759 337.179 57.6608C325.957 55.7339 309.446 60.0881 303.304 62.2594C298.233 64.0527 295.626 66.8771 295.626 66.8771C295.626 66.8771 296.326 68.4908 296.7 78.3297C296.908 83.8125 297.098 89.2075 296.743 95.1467C296.387 101.115 295.667 113.278 295.053 127.224C294.594 137.644 294.387 139.158 297.138 140.399V140.401Z" fill="url(#paint2_linear_2459_10580)"/>
<path d="M320.298 58.0982C320.298 58.0982 320.21 75.0488 327.098 81.2745C333.985 87.4983 353.574 61.91 353.574 61.91L336.547 55.0713L320.3 58.0982H320.298Z" fill="#FBFBFB"/>
<path d="M356.067 36.1346C361.224 27.3861 357.401 24.871 354.667 23.9467C356.19 22.4476 357.754 20.24 356.896 17.9942C355.746 14.9863 349.411 12.9563 344.986 15.0341C344.468 11.2032 345.1 4.25756 335.602 5.19141C322.472 6.48238 325.455 20.5704 327.439 22.4151C327.439 22.4151 323.489 22.4362 322.557 26.3683C321.92 29.0591 323.965 29.9853 324.136 29.8134C323.728 30.2851 322.588 33.629 324.521 36.6139C326.504 39.6733 336.403 44.9823 336.403 44.9823C336.403 44.9823 349.698 46.9436 356.069 36.1346H356.067Z" fill="#411610"/>
<path d="M338.198 58.866L339.708 58.971C342.782 59.1868 345.599 58.3313 345.823 55.5221L346.73 41.0617C346.954 38.2525 344.643 35.8004 341.567 35.5846L340.057 35.4796C336.983 35.2638 334.31 37.3664 334.086 40.1756L332.915 54.9262C332.691 57.7354 335.122 58.6502 338.196 58.866H338.198Z" fill="#D1634E"/>
<path d="M345.364 37.8764C345.689 33.8201 345.383 35.8845 341.51 35.6115C337.638 35.3384 334.234 38.4054 333.91 42.4635L333.189 52.4036C333.067 53.9619 338.459 54.4776 342.093 50.4538C345.96 46.1722 345.364 37.8764 345.364 37.8764Z" fill="#AC2A1C"/>
<path d="M346.933 31.3144C347.026 25.6407 346.369 18.1011 335.712 19.352C332.71 19.7053 329.815 20.2858 328.741 22.6233C327.356 25.6368 327.249 34.7672 327.141 38.3995C326.986 43.5481 326.788 46.1548 328.819 47.6425C330.811 49.1015 337.319 49.5981 341.136 47.822C344.565 46.2255 345.794 44.3024 346.396 38.7891C346.933 33.8658 346.897 33.7016 346.935 31.3144H346.933Z" fill="#D1634E"/>
<path d="M346.933 31.3144C347.02 26.0015 346.451 19.0502 337.625 19.2163C337.503 19.2182 335.228 19.3443 334.871 21.3151C333.481 29.0112 333.02 48.9716 335.156 48.9582C337.26 48.9449 339.457 48.603 341.135 47.822C344.563 46.2254 345.793 44.3023 346.394 38.789C346.931 33.8657 346.895 33.7015 346.933 31.3144Z" fill="#BF513F"/>
<path d="M336.273 36.4553C336.273 36.4553 334.691 34.2897 333.368 34.5437C332.046 34.7977 331.575 36.3483 331.575 36.3483L336.273 36.4553Z" fill="#A30404"/>
<path d="M336.501 36.3504C335.854 35.4776 334.788 34.3242 333.61 34.3605C332.509 34.3929 331.646 35.3802 331.329 36.3714C331.302 36.4573 331.426 36.5089 331.486 36.5108C333.052 36.5471 334.617 36.5834 336.184 36.6177C336.401 36.6235 336.697 36.2988 336.365 36.2912C335.735 36.2759 335.107 36.2625 334.477 36.2473C333.685 36.2301 332.667 36.0276 331.891 36.1881C331.853 36.1957 331.716 36.2014 331.678 36.1823C331.944 36.3141 331.788 36.253 331.944 36.0334C332.371 35.4261 332.733 34.6202 333.647 34.6908C334.611 34.7653 335.505 35.8214 336.05 36.5566C336.169 36.717 336.642 36.5356 336.503 36.3485L336.501 36.3504Z" fill="#A30404"/>
<path d="M340.286 33.2661C340.271 33.902 340.554 34.4234 340.92 34.4329C341.286 34.4425 341.594 33.9345 341.611 33.2986C341.626 32.6626 341.343 32.1413 340.977 32.1317C340.611 32.1222 340.304 32.6302 340.286 33.2661Z" fill="#3D0601"/>
<path d="M329.817 33.0066C329.801 33.6425 330.084 34.1639 330.45 34.1734C330.816 34.183 331.124 33.675 331.141 33.039C331.156 32.4031 330.873 31.8818 330.507 31.8722C330.141 31.8627 329.834 32.3706 329.817 33.0066Z" fill="#3D0601"/>
<path d="M338.406 29.9796C337.344 29.8879 337.444 29.2558 337.858 28.8796C338.249 28.5244 340.797 27.5924 342.021 28.0622C344.478 29.0056 344.087 30.6652 344.116 31.0299C344.144 31.3947 342.04 30.2889 338.404 29.9777L338.406 29.9796Z" fill="#411610"/>
<path d="M328.081 30.4666C328.179 29.8918 328.916 29.1756 329.728 28.9637C330.54 28.7517 332.033 29.6435 332.128 30.1229C332.223 30.6022 331.255 30.6347 330.16 30.7397C328.726 30.8772 327.942 31.2668 328.079 30.4685L328.081 30.4666Z" fill="#411610"/>
<path d="M352.388 38.5434C354.018 36.6706 354.255 34.1955 352.917 33.0152C351.579 31.8348 349.172 32.3962 347.542 34.269C345.911 36.1417 345.674 38.6168 347.012 39.7971C348.35 40.9775 350.757 40.4161 352.388 38.5434Z" fill="#BF513F"/>
<path d="M352.948 34.3205C352.504 34.0206 351.976 33.9118 351.468 33.9194C350.959 33.9213 350.441 34.0378 350.009 34.2632C349.128 34.7272 348.451 35.5847 347.948 36.4574L347.787 36.1213C348.117 36.1977 348.423 36.3047 348.724 36.4746C348.872 36.5606 349.022 36.6656 349.14 36.8279C349.199 36.9062 349.248 37.0036 349.269 37.1125C349.288 37.2137 349.292 37.2844 349.293 37.376C349.297 37.5479 349.271 37.7484 349.159 37.9107C349.047 38.0731 348.886 38.1571 348.738 38.2239C348.438 38.3519 348.14 38.4378 347.836 38.5295C348.104 38.3614 348.394 38.2258 348.646 38.0578C348.914 37.8859 349.037 37.6854 348.982 37.397C348.96 37.2385 348.937 37.1373 348.853 37.0647C348.77 36.9826 348.654 36.91 348.529 36.847C348.275 36.7267 347.977 36.6408 347.698 36.5797H347.692C347.569 36.551 347.489 36.4269 347.516 36.3028C347.519 36.2818 347.527 36.2627 347.536 36.2436C347.8 35.7413 348.123 35.304 348.498 34.8934C348.878 34.4904 349.32 34.1314 349.84 33.9003C350.373 33.6826 350.931 33.6196 351.481 33.6654C352.026 33.7285 352.576 33.9271 352.95 34.3205H352.948Z" fill="#AC2A1C"/>
<path d="M332.12 16.0271C332.12 16.0271 339.08 28.9616 347.273 28.0927C355.466 27.2219 338.556 12.1905 332.12 16.0271Z" fill="#411610"/>
<path d="M348.55 32.2845L348.369 30.688C344.88 33.6232 344.131 42.8357 341.892 43.2539C340.839 43.4506 340.573 41.2277 339.22 39.1385C337.486 36.4592 334.814 37.2288 332.549 37.6909C331.331 37.9392 329.995 38.5083 328.923 40.0322C328.257 40.9795 327.158 42.9446 327.107 43.9242C327.031 45.3642 327.255 48.6412 329.117 49.4032C334.302 51.5249 341.541 49.7737 343.123 48.6527C344.705 47.5317 349.064 44.3195 347.751 41.5065C346.523 38.8749 348.544 32.2864 348.544 32.2864L348.55 32.2845Z" fill="#411610"/>
<path d="M330.621 39.7649C330.621 39.7649 337.216 38.4472 337.474 38.7012C337.651 38.8731 337.116 42.0661 334.306 42.5417C333.012 42.7613 331.063 41.5066 330.621 39.7649Z" fill="white"/>
<path d="M343.595 8.20118C342.895 7.07253 341.797 6.19406 340.508 5.79302C339.22 5.37861 337.833 5.35379 336.475 5.43591C335.112 5.5524 333.756 5.78157 332.501 6.24181C331.245 6.69059 330.109 7.37236 329.175 8.23364C328.232 9.09301 327.542 10.1644 327.079 11.3197C326.597 12.4713 326.365 13.7145 326.284 14.9616C326.221 16.2105 326.288 17.4786 326.532 18.7123C326.652 19.3291 326.806 19.9421 327.018 20.5265C327.223 21.0975 327.506 21.7086 327.826 22.0543L327.84 22.0676C328.041 22.2834 328.014 22.61 327.783 22.7952C327.684 22.8735 327.564 22.9155 327.443 22.9213C326.646 22.9537 325.732 23.1982 325.03 23.6355C324.303 24.0633 323.732 24.6935 323.364 25.4383C323.005 26.1831 322.756 27.0291 322.861 27.8159C322.908 28.2093 323.049 28.5874 323.28 28.9082C323.396 29.0687 323.534 29.2157 323.694 29.3322C323.77 29.3933 323.855 29.4449 323.935 29.4831C323.976 29.506 324.013 29.5174 324.043 29.527C324.066 29.5365 324.056 29.5327 324.056 29.5327C324.043 29.5327 324.085 29.5346 324.02 29.5404C323.975 29.548 323.927 29.5786 323.904 29.6129L324.381 29.9949C324.261 30.1476 324.132 30.4437 324.041 30.6996C323.944 30.9669 323.863 31.2438 323.8 31.5246C323.675 32.086 323.61 32.6627 323.616 33.2433C323.633 34.4006 323.935 35.5598 324.521 36.6139C324.18 36.1155 323.87 35.5903 323.663 35.0212C323.462 34.4521 323.328 33.862 323.265 33.2605C323.208 32.6589 323.221 32.0516 323.303 31.4482C323.405 30.8313 323.481 30.2718 323.891 29.6301L324.367 30.0121C324.316 30.056 324.242 30.0961 324.168 30.1152C324.077 30.1362 324.087 30.1228 324.043 30.1266C323.982 30.1247 323.914 30.1171 323.882 30.1056C323.796 30.0865 323.718 30.0598 323.656 30.0292C323.519 29.972 323.4 29.9051 323.29 29.8268C323.064 29.6759 322.874 29.4926 322.713 29.2921C322.386 28.8891 322.185 28.4098 322.1 27.9228C321.927 26.9374 322.163 25.9864 322.531 25.1003C322.91 24.2084 323.58 23.3892 324.466 22.8468C325.35 22.2892 326.331 21.9779 327.439 21.9072L327.056 22.7742C326.445 22.1421 326.206 21.5119 325.952 20.8645C325.711 20.219 325.542 19.5659 325.407 18.9051C325.14 17.5874 325.037 16.2411 325.128 14.8986C325.227 13.5579 325.487 12.2116 326.031 10.9416C326.559 9.66975 327.38 8.48763 328.458 7.54614C329.523 6.59319 330.834 5.89997 332.209 5.48174C333.587 5.04823 335.019 4.87636 336.439 4.81907C337.86 4.77896 339.326 4.92219 340.649 5.46264C341.981 5.984 343.047 7.00187 343.595 8.19927V8.20118Z" fill="#6E3831"/>
<path d="M332.627 15.6624C332.93 16.5275 333.304 17.362 333.737 18.1622C334.15 18.97 334.621 19.7472 335.152 20.4787C336.186 21.9606 337.408 23.3031 338.824 24.4108C339.516 24.9818 340.262 25.4859 341.028 25.9538C341.806 26.4026 342.618 26.7979 343.444 27.1531C345.1 27.833 346.876 28.3524 348.703 28.1844C346.899 28.595 345.005 28.1863 343.282 27.5752C341.539 26.966 339.916 26.0207 338.452 24.8825C337.004 23.7175 335.752 22.312 334.761 20.746C333.773 19.182 333.004 17.467 332.627 15.6643V15.6624Z" fill="#6E3831"/>
<path d="M327.1 44.6079C327.276 45.706 327.506 46.8041 327.952 47.7742C328.193 48.2536 328.462 48.6832 328.887 48.9353C329.316 49.2065 329.817 49.4051 330.325 49.5617C331.348 49.8845 332.43 50.0411 333.513 50.1595C334.6 50.2702 335.701 50.2931 336.811 50.3046C335.723 50.5433 334.608 50.6388 333.486 50.6254C332.367 50.614 331.24 50.4688 330.147 50.1404C329.604 49.9608 329.066 49.7489 328.568 49.4108C328.05 49.0576 327.715 48.4923 327.527 47.9576C327.136 46.8633 327.032 45.727 327.098 44.6098L327.1 44.6079Z" fill="#9E5046"/>
<path d="M350.03 139.802C350.03 139.802 355.652 145.754 361.441 143.516C373.345 138.914 381.369 134.502 382.462 108.61C383.033 95.099 383.285 75.4728 375.189 70.0244C375.189 70.0244 364.894 81.2478 359.832 95.0494C356.149 105.091 350.032 139.802 350.032 139.802H350.03Z" fill="url(#paint3_linear_2459_10580)"/>
<path d="M363.345 102.106C364.563 101.166 366.146 111.908 365.922 112.411C365.034 114.395 361.48 119.119 356.534 118.835C355.917 118.799 353.999 112.51 355.551 110.281C357.029 108.16 360.869 104.016 363.343 102.106H363.345Z" fill="#D1634E"/>
<path d="M356.947 102.473L357.164 102.327C358.52 102.637 358.706 104.014 358.31 105.448L357.659 106.985L357.316 111.099C357.316 111.099 355.991 114.676 355.327 114.225C354.134 113.415 355.185 106.892 355.185 106.892L356.947 102.471V102.473Z" fill="#D1634E"/>
<path d="M372.405 102.377C372.443 103.372 371.324 103.803 369.84 103.697C369.341 103.66 367.967 103.517 367.967 103.517L362.262 104.974L363.442 102.056L368.869 101.162L372.405 102.379V102.377Z" fill="#D1634E"/>
<path d="M375.756 107.619C375.476 108.746 374.512 109.078 372.603 108.574C371.962 108.404 369.385 107.468 369.385 107.468L363.239 107.858L363.247 105.049L370.206 104.518L375.754 107.619H375.756Z" fill="#D1634E"/>
<path d="M371.95 108.459L374.164 110.239C373.87 111.576 371.918 111.479 370.316 110.51C369.648 110.105 368.049 109.682 368.049 109.682L363.135 109.905L363.712 107.281L369.586 107.306L371.95 108.459Z" fill="#D1634E"/>
<path d="M372.305 111.954C372.237 112.991 370.941 113.363 370.402 113.266C370.032 113.201 368.356 112.819 368.356 112.819L364.393 112.842L364.886 110.503L369.246 111.087L372.307 111.952L372.305 111.954Z" fill="#D1634E"/>
<path d="M355.395 111.693L337.901 115.113L347.772 125.288L361.097 116.335L355.395 111.693Z" fill="#D1634E"/>
<mask id="mask0_2459_10580" style="mask-type:luminance" maskUnits="userSpaceOnUse" x="320" y="55" width="34" height="28">
<path d="M320.298 58.0982C320.298 58.0982 320.21 75.0488 327.098 81.2745C333.985 87.4983 353.574 61.91 353.574 61.91L336.547 55.0713L320.3 58.0982H320.298Z" fill="white"/>
</mask>
<g mask="url(#mask0_2459_10580)">
<path d="M331.47 63.6001C331.47 63.6001 321.501 74.1895 321.131 79.0764C320.761 83.9634 329.559 88.1056 334.107 85.8349C338.655 83.5662 334.037 63.9878 334.037 63.9878L331.471 63.6001H331.47Z" fill="url(#paint4_linear_2459_10580)"/>
</g>
<path d="M340.643 129.39C326.033 140.193 288.264 136.935 273.316 126.946C261.24 118.875 272.377 100.234 272.377 100.234C272.377 100.234 279.688 99.3616 288.549 101.474C302.982 104.917 323.024 112.246 333.405 114.141C337.596 114.907 339.226 114.748 339.226 114.748C339.226 114.748 344.309 126.678 340.643 129.39Z" fill="url(#paint5_linear_2459_10580)"/>
<path d="M310.177 123.218C310.177 123.218 311.008 129.696 308.234 134.611C305.46 139.529 322.166 136.108 322.166 136.108L324.189 121.703L310.177 123.218Z" fill="#F1F4FB"/>
<path d="M295.624 103.261C302.755 109.3 307.452 121.125 315.344 127.381C329.999 139.001 337.568 141.505 349.233 143.902C367.45 147.643 372.635 131.084 365.695 127.043C354.874 120.745 346.561 113.392 325.874 107.443C322.049 106.343 307.274 101.739 302.498 101.01C300.499 100.704 294.273 102.117 295.624 103.261Z" fill="#D1634E"/>
<path d="M317.165 126.967C315.706 129.17 316.446 130.797 318.326 133.009C323.956 139.63 347.667 146.619 357.023 145.447C377.95 142.829 380.232 124.906 380.232 124.906C380.232 124.906 348.825 114.521 334.617 109.638C331.726 108.645 324.381 106.762 324.381 106.762C324.381 106.762 327.438 111.456 317.165 126.967Z" fill="url(#paint6_linear_2459_10580)"/>
<path d="M309.274 122.058C309.274 122.058 312.256 126.132 316.395 129.739C318.216 131.326 322.485 123.284 324.13 117.521C325.542 112.575 325.523 106.989 325.523 106.989C325.523 106.989 319.36 104.817 317.366 104.371C316.67 104.214 315.708 114.907 309.274 122.058Z" fill="#FBFBFB"/>
<path d="M314.843 122.916C313.742 123.256 312.683 122.731 312.478 121.741C312.274 120.752 313 119.677 314.101 119.337C315.201 118.997 316.26 119.522 316.465 120.512C316.67 121.501 315.943 122.576 314.843 122.916Z" fill="#DCE5F7"/>
<g opacity="0.56">
<path d="M317.857 58.7915C318.131 61.6427 318.48 64.4806 318.996 67.284C319.489 70.0894 320.113 72.8718 320.96 75.5665C321.834 78.2324 322.899 80.9003 324.62 82.9972C325.048 83.5166 325.53 83.9769 326.045 84.3722C326.566 84.7713 327.119 85.0807 327.709 85.2449C328.9 85.602 330.244 85.4321 331.519 85.0406C334.093 84.2328 336.48 82.6725 338.71 80.9862C340.96 79.3019 343.06 77.3979 345.115 75.4461C347.157 73.4791 349.136 71.4357 351.058 69.337C353.005 67.2573 354.858 65.0917 356.684 62.8955C353.483 67.6354 349.874 72.1061 345.886 76.231C343.895 78.2993 341.78 80.251 339.514 82.048C337.224 83.7973 334.792 85.4645 331.917 86.3735C330.49 86.7956 328.885 87.019 327.329 86.5492C325.75 86.0699 324.567 84.9928 323.62 83.8279C321.76 81.4408 320.73 78.6545 319.943 75.8777C318.421 70.2842 317.884 64.5207 317.855 58.7953L317.857 58.7915Z" fill="#0073BD"/>
</g>
<path d="M332.264 65.2101C330.376 64.6544 329.295 62.6645 329.847 60.7643L330.927 57.0499C330.978 56.8761 331.16 56.7749 331.333 56.8265L337.539 58.6541C337.712 58.7056 337.812 58.889 337.761 59.0627L336.681 62.7771C336.129 64.6773 334.152 65.7658 332.264 65.2101Z" fill="url(#paint7_linear_2459_10580)"/>
<path d="M336.852 66.4954C336.852 66.4954 342.053 66.3636 346.453 63.4799C348.047 62.4353 350.011 60.4798 350.011 60.4798L346.02 52.4036C346.02 52.4036 344.436 55.2662 341.943 56.2994C337.457 58.1556 334.365 56.9773 334.365 56.9773L336.854 66.4954H336.852Z" fill="#F1F4FB"/>
<path d="M327.621 62.8746C327.621 62.8746 327.322 60.7204 327.413 59.4485C327.574 57.1741 327.72 56.647 327.72 56.647L333.131 51.4812C333.131 51.4812 333.145 53.5361 333.19 54.2121C333.338 56.3701 335.103 57.5675 335.103 57.5675L327.623 62.8746H327.621Z" fill="#F1F4FB"/>
<path d="M318.751 128.666C320.309 130.079 321.967 131.359 323.711 132.506C325.436 133.677 327.225 134.745 329.058 135.724C330.892 136.696 332.761 137.602 334.683 138.381C336.592 139.189 338.547 139.884 340.526 140.499C344.482 141.738 348.55 142.62 352.669 143.147C354.731 143.403 356.805 143.585 358.885 143.648C359.924 143.688 360.968 143.684 362.01 143.65C363.051 143.596 364.093 143.52 365.135 143.392C361.051 144.436 356.761 144.503 352.563 144.198C348.347 143.888 344.167 143.067 340.116 141.83C336.07 140.569 332.149 138.877 328.517 136.689C324.889 134.515 321.48 131.893 318.747 128.672L318.751 128.666Z" fill="#0F428F"/>
</g>
<g clip-path="url(#clip1_2459_10580)" filter="url(#filter1_d_2459_10580)">
<path d="M85.3288 52.9204C85.3288 52.9204 104.266 53.6338 107.196 63.118C113.197 82.5485 37.1529 107.271 15.6911 83.2483C-0.187507 65.4687 37.1326 60.054 37.1326 60.054C37.1326 60.054 41.3926 41.9143 43.1749 36.5811C46.5909 26.3767 51.1344 17.3544 56.6433 16.1859C60.0999 15.4521 63.9345 20.8736 70.5304 17.5175C78.3347 13.5498 85.7811 23.3194 85.5516 33.7752C85.3423 43.1576 85.3221 52.9136 85.3221 52.9136L85.3288 52.9204Z" fill="#321815"/>
<path d="M101.079 128.095C104.327 135.806 121.677 136.689 121.677 136.689C121.677 136.689 112.556 108.032 109.336 97.7533C106.858 89.852 103.894 73.9475 99.6615 67.1401C97.9603 64.4089 94.1391 63.1589 87.8809 61.3313L91.864 75.415C91.864 75.415 91.3374 104.975 101.079 128.095Z" fill="#6D98DD"/>
<path d="M133.363 162.927C137.299 157.05 138.501 149.964 132.101 140.385C128.853 135.521 113.123 121.104 106.399 120.126C100.6 119.283 100.202 128.272 95.2598 132.477C95.2598 132.477 110.605 152.899 113.461 156.738C119.172 164.435 120.617 169.728 120.617 169.728C120.617 169.728 129.927 168.05 133.363 162.934V162.927Z" fill="#6D98DD"/>
<path d="M86.8006 116.702C82.1355 129.59 60.8763 174.253 82.5541 183.832C91.7626 187.901 136.934 200.667 136.934 200.667C136.934 200.667 190.167 210.546 179.898 181.542C175.254 168.417 109.64 151.609 109.64 151.609L101.808 110.139C101.808 110.139 90.0681 114.908 86.7938 116.695L86.8006 116.702Z" fill="#141623"/>
<path d="M155.243 183.9C155.243 183.9 135.699 190.877 128.961 194.057C115.324 200.491 87.1923 236.451 87.1923 236.451L86.8142 244.956C86.8142 244.956 179.851 218.664 180.749 187.888C181.242 171.093 155.237 183.9 155.237 183.9H155.243Z" fill="#141623"/>
<path d="M68.6806 115.044C64.7717 121.471 34.4659 169.68 41.7774 184.987C43.3977 188.384 46.4694 193.072 50.1623 198.208C61.2476 213.603 77.9566 232.938 77.9566 232.938C77.9566 232.938 78.1186 247.219 81.2309 254.522C88.5424 271.69 130.885 322.346 130.885 322.346L145.366 312.535C145.366 312.535 121.414 244.902 112.995 223.875C105.508 205.172 86.7195 162.757 86.7195 162.757C86.7195 162.757 87.5229 155.474 88.4411 142.776C89.0217 134.719 90.1626 123.964 91.4858 113.923C87.4352 116.545 80.9338 114.113 68.6806 115.044Z" fill="#1F254C"/>
<path d="M66.0178 41.4888L65.8243 41.5185C63.845 41.8226 62.4854 43.6838 62.7876 45.6756L64.7845 58.8391C65.0867 60.831 66.9362 62.1991 68.9155 61.8951L69.109 61.8653C71.0883 61.5613 72.4479 59.7 72.1457 57.7082L70.1488 44.5447C69.8466 42.5529 67.9971 41.1847 66.0178 41.4888Z" fill="#FB8875"/>
<path d="M62.537 44.5844C62.1319 41.9348 63.8939 41.8125 65.926 41.5C67.9581 41.1875 69.9362 43.083 70.3345 45.7326L71.3877 52.6624C71.6104 54.1095 69.1058 55.8555 65.8247 51.2221C64.2045 48.9325 62.537 44.5844 62.537 44.5844Z" fill="#E54945"/>
<path d="M103.699 121.641C103.699 121.641 100.877 121.641 87.8807 122.993C71.2393 124.725 61.6797 126.729 61.6797 126.729L46.1454 89.7976L36.8289 74.8919C36.8289 74.8919 38.4491 70.6321 51.2222 64.3953C54.0104 63.0297 66.9321 56.8677 66.9321 56.8677C66.9321 56.8677 76.7144 58.3623 80.6233 59.1029C80.9744 59.1708 82.3516 59.4629 82.5879 59.5377C92.9711 62.6289 94.247 63.0365 96.3399 64.3953C97.3998 65.0815 100.141 71.9297 101.417 76.1623C105.211 88.7853 103.699 121.641 103.699 121.641Z" fill="#E5F4FD"/>
<path d="M52.5321 135.887C51.8503 144.237 34.2366 139.08 34.2366 139.08C34.2366 139.08 33.6628 116.389 32.5083 105.675C31.0433 92.0735 33.0484 77.9355 38.3143 72.874L49.5414 87.6507C49.5414 87.6507 54.5777 110.852 52.5254 135.887H52.5321Z" fill="#A5D6FF"/>
<path d="M55.5093 62.3097C55.5093 62.3097 66.9659 72.1269 76.3229 72.3307C85.6732 72.5277 80.6302 59.103 80.6302 59.103L67.7963 56.4602L55.5093 62.3165V62.3097Z" fill="#FB8875"/>
<path d="M77.6799 33.388C77.6866 32.6271 77.5989 31.8798 77.4503 31.1596C76.8562 28.0752 74.8377 25.5003 72.1035 24.1619C72.0562 24.1347 72.0089 24.1144 71.9617 24.0872C71.7524 23.9921 71.5431 23.9037 71.3271 23.8154C71.2191 23.7747 71.111 23.7339 71.003 23.6931C70.8207 23.632 70.6385 23.5776 70.4562 23.5233C70.3279 23.4893 70.1929 23.4486 70.0646 23.4214C69.8756 23.3738 69.6798 23.3399 69.4908 23.3059C69.3693 23.2855 69.2477 23.2651 69.1262 23.2515C68.8899 23.2176 68.6536 23.1972 68.4173 23.1836C68.3768 23.1836 68.3363 23.1768 68.2958 23.17C68.2688 23.17 68.2486 23.17 68.2283 23.17C67.9988 23.1632 67.7625 23.1564 67.5262 23.1632C62.1928 23.3059 58.0004 27.8374 57.9531 33.2046C57.9531 33.2046 58.1219 40.7254 58.2569 42.4307C58.5 45.5015 61.3624 47.8522 63.9144 49.7409C65.0215 50.5629 66.338 50.9502 67.6545 50.9162C68.9642 50.9706 70.2874 50.6105 71.4148 49.8088C74.0073 47.9677 77.106 45.1754 77.5246 42.3491C77.9094 39.7335 77.7339 33.0076 77.6866 33.3812L77.6799 33.388Z" fill="#FA6E5C"/>
<path d="M68.4106 23.1768C68.3701 23.1768 68.3296 23.17 68.2891 23.1632C68.2621 23.1632 68.2418 23.1632 68.2216 23.1632C67.992 23.1564 67.7557 23.1496 67.5195 23.1564C62.1861 23.2991 57.9936 27.8306 57.9464 33.1977C57.8789 32.6067 57.9194 38.7823 58.2569 42.485C58.527 45.4743 61.3557 47.8454 63.9144 49.7341C65.0216 50.5561 66.338 50.9434 67.6545 50.9094C68.3634 50.9434 70.652 46.8127 70.7397 35.7454C70.8208 26.0981 68.5254 23.17 68.4174 23.1632L68.4106 23.1768Z" fill="#FB8875"/>
<path d="M67.0334 40.1003C67.0334 40.1003 68.1271 38.8026 68.6267 38.8774C69.0925 38.9521 70.0647 40.1003 69.8757 40.1275C69.6799 40.1614 67.0402 40.0935 67.0402 40.0935L67.0334 40.1003Z" fill="#E54945"/>
<path d="M69.484 40.2362C68.7414 40.2362 67.2426 40.2022 67.0334 40.1954C66.9996 40.1954 66.9658 40.1751 66.9523 40.1411C66.9388 40.1071 66.9456 40.0731 66.9658 40.046C67.0806 39.9101 68.1068 38.7076 68.6401 38.7959C69.0992 38.8706 69.9903 39.8489 69.9903 40.1071C69.9903 40.1683 69.9498 40.2226 69.8891 40.2294C69.8486 40.2362 69.7 40.2362 69.4908 40.2362H69.484ZM67.2291 40.012C68.181 40.0324 69.4503 40.0528 69.7811 40.046C69.6528 39.8014 68.9709 39.0269 68.6064 38.9725C68.5929 38.9725 68.5861 38.9725 68.5726 38.9725C68.2621 38.9725 67.6342 39.5568 67.2291 40.0188V40.012Z" fill="#E54945"/>
<path d="M63.1448 37.0161C63.138 37.58 62.8409 38.0352 62.4899 38.0352C62.1321 38.0352 61.8485 37.5664 61.862 37.0025C61.8688 36.4386 62.1658 35.9834 62.5169 35.9834C62.8747 35.9834 63.1583 36.4522 63.1448 37.0161Z" fill="#293159"/>
<path d="M59.1075 33.986C58.905 33.9724 61.0316 33.3949 62.0577 33.3406C64.5691 33.2115 64.9742 34.4344 64.8392 34.7061C64.6974 34.9847 61.7067 34.1287 59.1075 33.986Z" fill="#321815"/>
<path d="M63.8265 36.5201C63.8265 36.5201 62.6046 35.1817 61.5041 35.6369C60.4037 36.0921 59.7556 36.1261 59.5396 36.0989C59.5396 36.0989 61.1666 36.8122 61.7067 36.4929C62.2535 36.1736 62.7463 36.2144 63.8198 36.5133L63.8265 36.5201Z" fill="#111523"/>
<path d="M73.6157 38.4902C73.9699 38.4902 74.2571 38.0309 74.2571 37.4644C74.2571 36.8978 73.9699 36.4385 73.6157 36.4385C73.2615 36.4385 72.9744 36.8978 72.9744 37.4644C72.9744 38.0309 73.2615 38.4902 73.6157 38.4902Z" fill="#293159"/>
<path d="M77.0117 34.475C77.2142 34.4682 75.0943 33.8568 74.0682 33.7956C71.5635 33.6394 71.1382 34.8487 71.2732 35.1272C71.4082 35.4058 74.4125 34.5905 77.0117 34.4818V34.475Z" fill="#321815"/>
<path d="M72.252 36.955C72.252 36.955 73.4807 35.6302 74.5676 36.0989C75.6545 36.5677 76.2959 36.6085 76.5052 36.5813C76.5052 36.5813 74.8849 37.2811 74.3515 36.955C73.8182 36.6289 73.3254 36.6696 72.2587 36.955H72.252Z" fill="#111523"/>
<path d="M59.1955 39.686C58.9592 40.3994 59.7288 41.3029 60.9103 41.697C62.0917 42.091 63.2461 41.8397 63.4824 41.1263C63.7187 40.4129 62.9491 39.5094 61.7676 39.1153C60.5862 38.7145 59.4318 38.9726 59.1955 39.686Z" fill="#FA6E5C"/>
<path d="M75.2166 42.3124C76.4018 41.9159 77.172 41.0171 76.9367 40.305C76.7015 39.5929 75.5499 39.3371 74.3646 39.7336C73.1794 40.1302 72.4092 41.0289 72.6445 41.741C72.8797 42.4532 74.0313 42.709 75.2166 42.3124Z" fill="#E54945"/>
<path d="M64.8123 42.4987C64.8123 42.4987 67.4182 43.0898 68.1203 43.0626C69.5718 42.9947 71.6714 42.5803 71.6714 42.5803C71.6714 42.5803 69.3017 40.1209 64.8123 42.4987Z" fill="#E54945"/>
<path d="M64.8123 42.4988C64.8123 42.4988 69.6461 43.3616 71.6714 42.5803C71.6714 42.5803 70.2807 45.8957 68.0933 45.6783C66.311 45.4949 64.8123 42.4988 64.8123 42.4988Z" fill="white"/>
<path d="M67.1753 46.2421C67.5534 46.3712 67.8977 46.4935 68.242 46.4663C68.5863 46.4799 68.9036 46.3236 69.2681 46.147C69.1736 46.3304 69.0386 46.4935 68.8563 46.6022C68.6808 46.7245 68.4648 46.7788 68.2487 46.7924C67.8166 46.7924 67.3981 46.5886 67.1753 46.2421Z" fill="#E54945"/>
<path d="M72.8664 37.6344C72.7989 38.4225 73.1297 39.1086 73.5955 39.163C74.0681 39.2241 74.5002 38.6331 74.5677 37.845C74.6352 37.0569 74.3044 36.3707 73.8386 36.3164C73.366 36.2552 72.9339 36.8463 72.8664 37.6344Z" fill="#111523"/>
<path d="M63.3947 37.3014C63.4082 38.0895 63.0369 38.7553 62.5643 38.7757C62.0917 38.8029 61.7001 38.1846 61.6866 37.3965C61.6731 36.6084 62.0444 35.9426 62.517 35.9222C62.9896 35.8951 63.3812 36.5133 63.3947 37.3014Z" fill="#111523"/>
<path d="M70.4832 26.6621C70.4832 26.6621 74.0275 22.7556 75.3845 24.984C79.7119 32.0836 78.1727 23.2448 77.106 20.2351C75.2629 15.0378 72.8393 13.5703 71.7389 18.4211C70.6384 23.2719 70.4832 26.6689 70.4832 26.6689V26.6621Z" fill="#321815"/>
<path d="M69.4773 26.4108C69.0992 24.3387 68.2081 19.7324 64.1641 19.9294C64.1641 19.9294 60.1675 20.833 59.1818 22.0491C58.1962 23.2652 62.7262 11.7292 69.9228 15.1058C75.4857 17.7146 72.1372 24.2639 70.4899 26.6622C70.1929 27.097 69.5718 26.9407 69.4773 26.4108Z" fill="#49312F"/>
<path d="M63.9483 14.4535C65.6293 14.6234 67.5533 15.065 69.4302 18.8424C70.8344 21.6618 69.0588 27.3008 68.7821 26.995C66.9322 24.9229 64.171 19.481 57.9735 28.3674C51.776 37.2538 59.56 17.8505 60.3769 16.2879C60.998 15.1125 62.8006 14.338 63.9415 14.4535H63.9483Z" fill="#321815"/>
<path d="M66.257 26.0982C66.4122 26.4583 66.0409 26.8456 65.6966 26.6621C63.6915 25.6159 61.7607 25.5683 60.4577 27.491C59.3708 29.1011 58.6687 33.6326 57.8653 36.9752C57.8653 36.9752 57.6155 29.9028 58.4459 25.1879C59.04 21.8113 60.4375 19.5353 62.5438 20.8601C64.1304 21.8588 65.6966 24.7802 66.2637 26.0914L66.257 26.0982Z" fill="#49312F"/>
<path d="M71.9347 26.7776C71.8199 27.0358 72.0967 27.2804 72.3398 27.1445C73.2984 26.601 74.9322 25.1675 76.2217 28.3946C76.6942 29.5699 77.3896 34.6857 77.7609 37.1111C77.7609 37.1111 80.2251 18.6997 75.2968 22.0491C73.7373 23.1089 72.4613 25.5955 71.9347 26.7776Z" fill="#49312F"/>
<path d="M54.3481 40.1955C55.5835 41.7242 57.3861 42.2065 58.3785 41.2758C59.3709 40.345 59.1684 38.3544 57.9329 36.8258C56.6974 35.2971 54.8949 34.8148 53.9025 35.7455C52.9101 36.6763 53.1126 38.6669 54.3481 40.1955Z" fill="#FB8875"/>
<path d="M54.1726 37.0907C54.4359 36.8189 54.8342 36.7034 55.219 36.6898C55.6106 36.683 55.9954 36.7713 56.36 36.9684C56.7043 37.179 56.9946 37.4643 57.2174 37.7768C57.4469 38.0961 57.6292 38.4223 57.771 38.7959C57.8317 38.9522 57.7507 39.1288 57.5954 39.1832C57.5684 39.19 57.5482 39.1968 57.5212 39.2036C57.3456 39.2171 57.1431 39.2443 56.9811 39.2919C56.9001 39.3191 56.8258 39.353 56.7853 39.3734C56.765 39.387 56.7515 39.4006 56.738 39.4074C56.7245 39.4345 56.7043 39.4889 56.6975 39.5229C56.6368 39.6859 56.657 39.7742 56.8055 39.9305L57.2714 40.3653C57.0621 40.2974 56.8596 40.2362 56.657 40.1275C56.5558 40.0732 56.441 40.0052 56.36 39.8694C56.279 39.7335 56.2722 39.5704 56.279 39.4481C56.279 39.3802 56.2925 39.3326 56.3127 39.2579C56.3397 39.1696 56.387 39.0881 56.441 39.0269C56.549 38.9046 56.6638 38.8367 56.7785 38.7823C57.0148 38.6736 57.2309 38.6193 57.4739 38.5921L57.2174 38.9997C56.9541 38.4019 56.5895 37.7768 56.0899 37.3964C55.8469 37.2129 55.5296 37.0771 55.1988 37.0091C54.8747 36.9412 54.5169 36.9412 54.1794 37.0771L54.1726 37.0907Z" fill="#FA6E5C"/>
<path d="M81.4471 40.3789C80.1508 41.9279 78.4226 42.3967 77.5922 41.432C76.7618 40.4673 77.1331 38.4359 78.4293 36.8869C79.7255 35.3379 81.4538 34.8691 82.2842 35.8338C83.1146 36.7986 82.7433 38.8299 81.4471 40.3789Z" fill="#FA6E5C"/>
<path d="M81.8319 37.1179C81.4944 36.9344 81.123 36.8869 80.7652 36.9208C80.4142 36.9548 80.0564 37.0567 79.7728 37.2334C79.199 37.5934 78.7737 38.2389 78.4766 38.8707L78.2808 38.5174C78.5306 38.565 78.7534 38.6397 78.9829 38.762C79.0977 38.8231 79.2125 38.8979 79.3137 39.0202C79.4218 39.1424 79.4623 39.3327 79.469 39.4414C79.4825 39.5705 79.469 39.7267 79.3948 39.8626C79.3205 40.0053 79.1922 40.08 79.0842 40.1276C78.8614 40.2295 78.6521 40.2906 78.4293 40.3586C78.6049 40.2091 78.8074 40.0936 78.9694 39.9509C79.145 39.8015 79.1652 39.686 79.1112 39.4957C79.0842 39.3802 79.064 39.3463 79.0099 39.3055C78.9559 39.2579 78.8749 39.2172 78.7872 39.1764C78.6116 39.1085 78.3956 39.0541 78.1998 39.0202C78.0648 38.993 77.9703 38.8639 77.9905 38.7212C77.9905 38.7008 77.9973 38.6805 78.004 38.6669C78.1661 38.2796 78.3686 37.9467 78.6251 37.6274C78.8817 37.3149 79.1855 37.0296 79.5635 36.8393C79.9551 36.6559 80.3602 36.6015 80.7652 36.6355C81.1635 36.6831 81.5619 36.8257 81.8319 37.1179Z" fill="#E54945"/>
<path d="M123.034 159.17C123.871 159.333 124.695 158.735 124.87 157.832L125.579 154.17C125.579 154.17 124.229 153.497 123.905 153.735C123.243 154.231 123.041 159.17 123.041 159.17H123.034Z" fill="#FB8875"/>
<path d="M119.294 160.196C120.144 160.597 121.245 160.033 121.751 158.939L122.581 156.833L123.905 153.735C123.905 153.735 122.446 152.784 122.129 153.069C121.765 153.402 120.934 156.194 120.934 156.194L119.294 160.196Z" fill="#FB8875"/>
<path d="M117.674 160.488C118.592 160.705 119.53 160.352 119.78 159.292L120.3 157.084L122.129 153.225C122.129 153.225 120.941 152.261 120.523 152.458C119.49 152.94 118.517 156.717 118.517 156.717L117.68 160.481L117.674 160.488Z" fill="#FB8875"/>
<path d="M114.872 156.786C115.655 157.309 116.776 156.996 117.37 156.093L118.328 154.632L120.664 152.791C120.664 152.791 119.233 151.921 118.74 152.05C118.16 152.2 116.85 153.823 116.85 153.823L114.879 156.786H114.872Z" fill="#FB8875"/>
<path d="M118.733 152.05C118.733 152.05 126.571 149.638 128.401 156.228C128.401 156.228 120.57 154.87 118.733 152.05Z" fill="#FB8875"/>
<path d="M78.0376 44.1361C78.5777 44.041 79.0098 43.8575 79.3271 43.613C79.6376 43.3616 79.7794 43.0559 79.8469 42.7026C79.9347 42.03 79.6174 41.2283 78.4832 41.0924C78.8882 40.7188 79.6444 40.6644 80.1844 41.0788C80.7245 41.4661 81.0081 42.193 80.8933 42.8588C80.8055 43.5178 80.306 44.1429 79.7051 44.3467C79.1178 44.5573 78.4764 44.4758 78.0376 44.1293V44.1361Z" fill="white"/>
<path d="M57.8585 44.1361C57.4197 44.4758 56.7784 44.5641 56.191 44.3535C55.5902 44.1497 55.0838 43.5315 55.0028 42.8657C54.8948 42.1931 55.1716 41.4729 55.7117 41.0857C56.2518 40.6712 57.0079 40.7256 57.413 41.0993C56.2855 41.2351 55.9615 42.0368 56.0492 42.7094C56.11 43.0627 56.2518 43.3616 56.5691 43.6198C56.8864 43.8644 57.3185 44.0546 57.8585 44.1429V44.1361Z" fill="white"/>
<path d="M30.6315 91.5233C28.2686 91.0274 25.926 90.348 23.6913 89.3629C21.45 88.4049 19.3166 87.148 17.3926 85.5923C16.4271 84.8177 15.536 83.9413 14.7259 83.0038C13.909 82.0662 13.1529 81.0675 12.5183 79.9669C11.8904 78.8663 11.3638 77.6638 11.1478 76.3526C10.9115 75.0481 10.9993 73.6622 11.4111 72.3849C11.8296 71.1009 12.5453 69.9595 13.3891 68.9744C14.2398 67.9961 15.2052 67.1469 16.2381 66.4131C18.2972 64.9456 20.5318 63.8382 22.8137 62.8939C25.0956 61.9563 27.4382 61.2022 29.8078 60.5704C32.1842 59.9385 34.5471 59.4154 37.0045 59.0214L36.1404 59.8162C37.3488 54.6189 38.6518 49.4488 39.9953 44.2786C40.6839 41.697 41.386 39.1289 42.2299 36.5404C43.1008 33.9859 44.0729 31.479 45.2206 29.0332C46.3616 26.5874 47.6443 24.2027 49.197 21.9675C49.9869 20.8601 50.8375 19.7867 51.803 18.8084C52.7751 17.8368 53.8553 16.94 55.1178 16.315C55.7524 16.0025 56.414 15.7715 57.1431 15.6492C57.906 15.5405 58.6148 15.6764 59.2832 15.853C60.6267 16.2267 61.8419 16.8925 62.922 17.7145C64.009 18.5366 64.9204 19.5761 65.636 20.7107C66.3516 21.8452 66.9389 23.0477 67.4723 24.2706C66.8444 23.0953 66.1693 21.9471 65.3727 20.8941C64.5963 19.8207 63.6782 18.8831 62.5912 18.1765C61.5178 17.4564 60.3229 16.9129 59.0874 16.6479C58.4798 16.5256 57.8385 16.4645 57.2916 16.58C56.7245 16.7158 56.1304 16.9604 55.5971 17.2662C53.4165 18.5094 51.7625 20.6087 50.3582 22.776C48.954 24.9636 47.7725 27.3211 46.7396 29.7329C45.7135 32.1516 44.7953 34.6313 43.9987 37.1383C43.229 39.6316 42.5944 42.2269 41.9328 44.795C40.6096 49.9447 39.4012 55.1353 38.1522 60.3054C38.0509 60.7334 37.7066 61.0324 37.3016 61.1003H37.2948C32.6298 61.8408 27.9445 63.0433 23.5293 64.7214C21.3284 65.5775 19.1816 66.5965 17.271 67.9078C15.3875 69.219 13.6524 70.8495 12.9166 72.9149C12.1469 74.9666 12.606 77.3037 13.6794 79.3419C14.7664 81.3868 16.2989 83.2619 18.0339 84.8653C21.531 88.106 26.0272 90.1441 30.6382 91.5437L30.6315 91.5233Z" fill="#49312F"/>
<path d="M65.6225 133.367C64.4815 135.337 63.3946 137.335 62.3549 139.352C61.8419 140.365 61.3288 141.377 60.8562 142.41C60.3634 143.429 59.884 144.455 59.4182 145.494C58.4866 147.559 57.6157 149.652 56.8055 151.758C56.0021 153.871 55.2663 155.997 54.6114 158.151C53.3287 162.458 52.3701 166.861 52.1 171.284L52.0055 172.941C51.9785 173.492 52.0325 174.008 52.0325 174.545C52.1135 175.611 52.2418 176.685 52.4848 177.758C52.9304 179.898 53.5447 182.045 54.3481 184.131C55.8334 188.357 57.8452 192.426 59.9718 196.428C62.1187 200.423 64.4815 204.316 67.0267 208.079C72.1103 215.614 77.8285 222.734 83.8707 229.487C83.9922 229.623 84.053 229.793 84.0598 229.962V230.01C84.1475 232.177 84.3163 234.378 84.5458 236.546C84.7889 238.72 85.0252 240.894 85.3897 243.041C85.7273 245.194 86.1729 247.321 86.6994 249.42C86.983 250.46 87.2328 251.513 87.5838 252.518C87.7526 253.021 87.9011 253.544 88.0902 254.04L88.6775 255.514C88.853 256.017 89.1096 256.472 89.3391 256.941C89.5889 257.396 89.7712 257.906 90.0682 258.313L90.8919 259.604C91.1957 260.039 91.54 260.474 91.864 260.915C93.1738 262.661 94.524 264.401 95.8742 266.14L103.915 276.609C109.241 283.621 114.561 290.639 119.8 297.718C125.025 304.811 130.251 311.903 135.328 319.119L135.112 319.288C129.333 312.63 123.723 305.837 118.133 299.029C112.556 292.208 107.068 285.319 101.64 278.376C98.9325 274.897 96.2523 271.405 93.6058 267.872C92.2894 266.106 90.9796 264.333 89.6767 262.532C89.3526 262.077 89.0286 261.642 88.7045 261.167L87.7796 259.652C87.4421 259.156 87.253 258.612 86.9897 258.096C86.7467 257.573 86.4767 257.05 86.2944 256.513L85.6868 254.903C85.491 254.366 85.3492 253.816 85.1804 253.272C84.8294 252.192 84.5931 251.085 84.3163 249.991C83.8437 247.79 83.4657 245.575 83.1956 243.36C82.6285 238.924 82.4125 234.48 82.4732 230.01L82.669 230.533C79.7796 226.973 77.0386 223.332 74.3179 219.67C71.604 216.008 68.9238 212.312 66.3111 208.575C61.1397 201.068 55.9144 193.513 52.2688 184.946C51.3844 182.799 50.6215 180.578 50.1219 178.254C49.8586 177.099 49.7034 175.903 49.6021 174.701C49.5886 174.096 49.5278 173.471 49.5616 172.887L49.6831 171.127C50.0274 166.44 51.1008 161.881 52.5861 157.499C53.3085 155.304 54.1726 153.158 55.0907 151.051C56.0089 148.939 57.0148 146.873 58.095 144.849C59.1549 142.81 60.3229 140.84 61.5313 138.897C62.7465 136.954 64.0022 135.045 65.3862 133.218L65.609 133.374L65.6225 133.367Z" fill="#141623"/>
<path d="M90.6894 175.944C94.578 177.595 98.4802 179.192 102.409 180.727C106.332 182.263 110.274 183.737 114.251 185.102C118.214 186.495 122.224 187.738 126.254 188.866C130.291 189.967 134.369 190.891 138.48 191.489H138.494C139.034 191.57 139.412 192.073 139.331 192.623C139.291 192.888 139.149 193.119 138.953 193.269C137.61 194.308 136.259 195.388 134.936 196.475C133.599 197.549 132.269 198.643 130.953 199.75C128.327 201.972 125.714 204.207 123.155 206.51C120.604 208.82 118.092 211.164 115.641 213.582C113.211 216.021 110.841 218.522 108.58 221.137C110.538 218.284 112.718 215.58 114.993 212.964C117.289 210.369 119.685 207.862 122.156 205.43C124.634 203.011 127.166 200.647 129.772 198.364C132.371 196.068 135.004 193.839 137.745 191.686L138.217 193.466C136.097 193.18 133.991 192.807 131.905 192.352C129.826 191.89 127.766 191.346 125.721 190.775C121.63 189.627 117.626 188.207 113.663 186.706C109.714 185.17 105.812 183.513 101.977 181.719C98.1493 179.919 94.3552 178.037 90.6826 175.938L90.6894 175.944Z" fill="#1F254C"/>
<path d="M60.8561 124.745C60.8561 124.745 74.6014 124.27 87.0099 123.094C99.4117 121.919 103.786 119.548 103.786 119.548L104.705 125.445C104.705 125.445 94.8277 132.456 59.4722 130.629L60.8561 124.752V124.745Z" fill="#486CA0"/>
<path d="M84.7079 130.568C84.5121 130.507 84.3703 130.337 84.3501 130.126L83.5534 123.271C83.5332 123.115 83.5804 122.952 83.6817 122.816C83.783 122.687 83.9247 122.612 84.0868 122.578L91.9451 121.579C94.3687 121.274 96.4683 123.02 96.6168 125.479C96.6911 126.702 96.3535 127.979 95.4759 128.89C93.3898 131.064 86.2606 131.05 84.7079 130.561V130.568Z" fill="#DFEA60"/>
<path d="M63.1313 124.65L64.2385 131.091H68.4175L69.7272 124.29L63.1313 124.65Z" fill="#1F254C"/>
<path d="M75.614 58.2673C76.0123 59.4562 76.3363 60.849 76.2486 62.1059C76.0055 65.6727 72.2182 65.0408 69.8418 64.0353C67.3236 62.9755 64.9607 61.2634 62.9624 59.3951C62.5776 59.035 61.6257 59.6125 62.1118 60.0677C64.9067 62.6901 68.8561 65.5911 72.819 65.727C77.5785 65.8968 77.9634 61.6846 76.7279 57.9752C76.5524 57.4385 75.4384 57.7442 75.614 58.2741V58.2673Z" fill="#FBFBFB"/>
<path d="M74.5069 63.9402C74.5069 63.9402 75.4791 63.7908 76.4175 65.5232C77.3559 67.2556 76.9846 68.3223 76.2892 68.7027C75.5938 69.0832 73.6765 67.2828 73.366 65.1903C73.366 65.1903 73.0689 63.6685 74.5069 63.9402Z" fill="#FBFBFB"/>
<path d="M57.9194 61.1614C57.9194 61.1614 71.0098 93.0043 73.717 117.422C76.4242 141.839 70.6182 172.201 62.787 171.358C54.9489 170.516 41.656 163.083 42.5404 160.019C43.4315 156.955 60.8561 124.752 60.8561 124.752C60.8561 124.752 46.267 87.4673 36.8357 74.8986C36.8357 74.8986 40.4745 67.4525 57.9262 61.1682L57.9194 61.1614Z" fill="url(#paint8_linear_2459_10580)"/>
<path d="M38.2263 193.534C55.4484 195.66 55.6645 186.176 55.1379 174.653C54.8003 167.302 53.3826 136.288 51.9581 128.469C50.8307 122.273 41.9935 130.894 35.7419 129.223C35.7419 129.223 30.5773 157.737 29.5849 163.634C28.1874 171.949 26.5267 180.564 25.7841 184.341C25.5343 185.605 25.9933 186.903 26.9857 187.725C29.3351 189.668 33.9056 193.004 38.2196 193.54L38.2263 193.534Z" fill="#A5D6FF"/>
<path d="M83.4587 59.7891C83.4587 59.7891 95.6242 68.4581 99.8167 105.233C104.009 142.009 106.44 148.565 109.646 151.615L104.704 119.541C104.704 119.541 107.607 77.2358 96.5964 64.4429C96.5964 64.4429 96.2048 63.8382 92.9238 62.6085C90.5947 61.7321 83.4655 59.7959 83.4655 59.7959L83.4587 59.7891Z" fill="url(#paint9_linear_2459_10580)"/>
<path d="M64.6098 57.948C64.6098 57.948 56.7988 60.7675 54.4764 62.663C52.1338 64.5788 47.6916 70.6186 47.327 72.4394C46.9624 74.2601 54.8275 76.0401 54.8275 76.0401C54.8275 76.0401 49.3523 79.4235 49.7034 80.4901C49.9532 81.251 61.6123 97.9504 71.5297 122.687C73.204 126.865 74.2977 132.762 74.2977 132.762C74.2977 132.762 79.2125 111.097 62.7938 67.9418C60.2891 61.3517 64.6031 57.9548 64.6031 57.9548L64.6098 57.948Z" fill="#6D98DD"/>
<path d="M72.0968 57.3432C72.0968 57.3432 74.0209 57.2549 76.2488 57.3432C79.1517 57.4451 82.1087 57.6014 83.6952 57.9547C86.6387 58.6137 94.8413 61.2089 95.9755 62.6696C97.1097 64.1303 92.8362 68.1727 92.8362 68.1727C92.8362 68.1727 99.1958 70.9242 99.3511 72.0384C99.4658 72.8333 101.565 84.5119 102.355 113.033C102.484 117.537 102.801 128.475 102.801 128.475C102.801 128.475 101.991 123.475 99.2295 111.803C96.9207 102.033 93.4573 87.5352 85.9636 67.8805C82.0817 57.7033 72.0901 57.3432 72.0901 57.3432H72.0968Z" fill="#6D98DD"/>
</g>
</g>
<defs>
<filter id="filter0_d_2459_10580" x="259.694" y="4.81274" width="177.805" height="381.828" filterUnits="userSpaceOnUse" color-interpolation-filters="sRGB">
<feFlood flood-opacity="0" result="BackgroundImageFix"/>
<feColorMatrix in="SourceAlpha" type="matrix" values="0 0 0 0 0 0 0 0 0 0 0 0 0 0 0 0 0 0 127 0" result="hardAlpha"/>
<feOffset dx="-3" dy="5"/>
<feGaussianBlur stdDeviation="2.5"/>
<feColorMatrix type="matrix" values="0 0 0 0 0.145098 0 0 0 0 0.239216 0 0 0 0 0.423529 0 0 0 0.2 0"/>
<feBlend mode="normal" in2="BackgroundImageFix" result="effect1_dropShadow_2459_10580"/>
<feBlend mode="normal" in="SourceGraphic" in2="effect1_dropShadow_2459_10580" result="shape"/>
</filter>
<filter id="filter1_d_2459_10580" x="3.0127" y="14.4399" width="180.202" height="333.695" filterUnits="userSpaceOnUse" color-interpolation-filters="sRGB">
<feFlood flood-opacity="0" result="BackgroundImageFix"/>
<feColorMatrix in="SourceAlpha" type="matrix" values="0 0 0 0 0 0 0 0 0 0 0 0 0 0 0 0 0 0 127 0" result="hardAlpha"/>
<feOffset dx="-3" dy="5"/>
<feGaussianBlur stdDeviation="2.5"/>
<feColorMatrix type="matrix" values="0 0 0 0 0.145098 0 0 0 0 0.239216 0 0 0 0 0.423529 0 0 0 0.25 0"/>
<feBlend mode="normal" in2="BackgroundImageFix" result="effect1_dropShadow_2459_10580"/>
<feBlend mode="normal" in="SourceGraphic" in2="effect1_dropShadow_2459_10580" result="shape"/>
</filter>
<linearGradient id="paint0_linear_2459_10580" x1="296.688" y1="149.525" x2="302.049" y2="127.923" gradientUnits="userSpaceOnUse">
<stop offset="0.25" stop-color="#003865"/>
<stop offset="1" stop-color="#004C97"/>
</linearGradient>
<linearGradient id="paint1_linear_2459_10580" x1="268.05" y1="105.19" x2="308.673" y2="77.4631" gradientUnits="userSpaceOnUse">
<stop offset="0.25" stop-color="#003865"/>
<stop offset="1" stop-color="#004C97"/>
</linearGradient>
<linearGradient id="paint2_linear_2459_10580" x1="294.778" y1="116.894" x2="352.786" y2="60.36" gradientUnits="userSpaceOnUse">
<stop offset="0.25" stop-color="#003865"/>
<stop offset="1" stop-color="#004C97"/>
</linearGradient>
<linearGradient id="paint3_linear_2459_10580" x1="350.03" y1="119.191" x2="386.243" y2="102.58" gradientUnits="userSpaceOnUse">
<stop offset="0.25" stop-color="#003865"/>
<stop offset="1" stop-color="#004C97"/>
</linearGradient>
<linearGradient id="paint4_linear_2459_10580" x1="321.119" y1="78.7987" x2="334.86" y2="69.445" gradientUnits="userSpaceOnUse">
<stop offset="0.25" stop-color="#003865"/>
<stop offset="1" stop-color="#004C97"/>
</linearGradient>
<linearGradient id="paint5_linear_2459_10580" x1="267.694" y1="124.012" x2="285.553" y2="85.7972" gradientUnits="userSpaceOnUse">
<stop offset="0.25" stop-color="#003865"/>
<stop offset="1" stop-color="#004C97"/>
</linearGradient>
<linearGradient id="paint6_linear_2459_10580" x1="316.395" y1="132.552" x2="338.249" y2="95.2197" gradientUnits="userSpaceOnUse">
<stop offset="0.25" stop-color="#003865"/>
<stop offset="1" stop-color="#004C97"/>
</linearGradient>
<linearGradient id="paint7_linear_2459_10580" x1="329.703" y1="62.489" x2="335.218" y2="57.0765" gradientUnits="userSpaceOnUse">
<stop offset="0.25" stop-color="#003865"/>
<stop offset="1" stop-color="#004C97"/>
</linearGradient>
<linearGradient id="paint8_linear_2459_10580" x1="38.9555" y1="70.734" x2="67.0328" y2="163.923" gradientUnits="userSpaceOnUse">
<stop stop-color="#A5D6FF"/>
<stop offset="1" stop-color="#6D98DD"/>
</linearGradient>
<linearGradient id="paint9_linear_2459_10580" x1="84.1474" y1="68.6211" x2="116.367" y2="134.749" gradientUnits="userSpaceOnUse">
<stop stop-color="#A5D6FF"/>
<stop offset="1" stop-color="#6D98DD"/>
</linearGradient>
<clipPath id="clip0_2459_10580">
<rect width="399" height="179" fill="white"/>
</clipPath>
<clipPath id="clip1_2459_10580">
<rect width="170.202" height="323.695" fill="white" transform="translate(11.0127 14.4399)"/>
</clipPath>
</defs>
</svg>
