<svg width="479" height="852" viewBox="0 0 479 852" fill="none" xmlns="http://www.w3.org/2000/svg">
<g opacity="0.6" clip-path="url(#clip0_2002_3361)">
<mask id="mask0_2002_3361" style="mask-type:luminance" maskUnits="userSpaceOnUse" x="0" y="-1" width="480" height="853">
<path d="M479.34 851.59L479.34 -0.410004L0.339813 -0.410004L0.339813 851.59H479.34Z" fill="white"/>
</mask>
<g mask="url(#mask0_2002_3361)">
<path d="M334.009 762.87L578.449 518.3C588.269 508.48 604.239 508.48 614.059 518.3C623.879 528.12 623.879 544.1 614.059 553.93L369.619 798.5C359.799 808.32 343.829 808.32 334.009 798.5C329.099 793.59 326.649 787.14 326.649 780.69C326.649 774.24 329.099 767.79 334.009 762.88V762.87ZM334.759 797.74L335.509 796.99C344.499 805.99 359.129 805.99 368.119 796.99L612.559 552.42C621.549 543.42 621.549 528.79 612.559 519.79C608.199 515.43 602.409 513.03 596.249 513.03C590.089 513.03 584.299 515.43 579.939 519.79L335.499 764.36C326.509 773.36 326.509 787.99 335.499 796.99L334.749 797.74H334.759Z" fill="url(#paint0_linear_2002_3361)"/>
<path d="M220.239 648.83C246.049 674.65 287.889 674.65 313.699 648.83L587.549 374.84C613.359 349.02 613.359 307.15 587.549 281.33C561.739 255.51 519.899 255.51 494.089 281.33L220.239 555.32C194.429 581.14 194.429 623.01 220.239 648.83Z" fill="url(#paint1_linear_2002_3361)"/>
<path d="M-136.641 682.45C-110.831 708.27 -68.9905 708.27 -43.1805 682.45L230.669 408.46C256.479 382.64 256.479 340.77 230.669 314.95C204.859 289.13 163.019 289.13 137.209 314.95L-136.641 588.94C-162.451 614.76 -162.451 656.63 -136.641 682.45Z" fill="url(#paint2_linear_2002_3361)"/>
<path d="M315.185 655.252L120.245 850.292C86.585 883.962 86.585 938.563 120.245 972.233C153.905 1005.9 208.465 1005.9 242.125 972.233L437.065 777.193C470.725 743.523 470.725 688.922 437.065 655.252C403.405 621.583 348.845 621.583 315.185 655.252ZM376.125 671.712C388.005 671.712 399.175 676.342 407.585 684.752C415.985 693.162 420.615 704.342 420.615 716.222C420.615 728.102 415.985 739.293 407.585 747.693L212.645 942.733C204.245 951.143 193.075 955.772 181.185 955.772C169.305 955.772 158.135 951.143 149.725 942.733C141.325 934.323 136.695 923.152 136.695 911.262C136.695 899.372 141.325 888.192 149.725 879.792L344.665 684.752C353.065 676.342 364.235 671.712 376.125 671.712Z" fill="url(#paint3_linear_2002_3361)"/>
<path d="M145.52 312.65C133.76 300.88 114.68 300.88 102.92 312.65L-53.2901 468.94C-65.0501 480.71 -65.0501 499.79 -53.2901 511.56C-41.5302 523.33 -22.4502 523.33 -10.6902 511.56L145.52 355.27C157.28 343.5 157.28 324.42 145.52 312.65Z" fill="url(#paint4_linear_2002_3361)"/>
<path d="M392.32 555.68C376.9 540.25 351.89 540.25 336.47 555.68L131.68 760.58C116.26 776.01 116.26 801.03 131.68 816.46C147.1 831.89 172.11 831.89 187.53 816.46L392.32 611.56C407.74 596.13 407.74 571.11 392.32 555.68Z" fill="url(#paint5_linear_2002_3361)"/>
<path d="M577.435 11.6475C562.015 -3.78253 537.005 -3.78254 521.585 11.6475L316.795 216.547C301.375 231.977 301.375 256.997 316.795 272.427C332.215 287.857 357.225 287.857 372.645 272.427L577.435 67.5275C592.855 52.0975 592.855 27.0775 577.435 11.6475Z" fill="url(#paint6_linear_2002_3361)"/>
<path d="M316.009 -123.151L131.849 61.0116C100.05 92.8105 100.05 144.36 131.849 176.151C163.648 207.95 215.192 207.95 246.991 176.151L431.151 -8.01161C462.95 -39.8105 462.95 -91.3603 431.151 -123.151C399.352 -154.95 347.808 -154.95 316.009 -123.151ZM373.576 -107.603C384.801 -107.603 395.356 -103.233 403.289 -95.2954C411.23 -87.3582 415.595 -76.8004 415.595 -65.5812C415.595 -54.362 411.222 -43.8042 403.289 -35.8671L219.129 148.295C211.188 156.233 200.641 160.603 189.416 160.603C178.191 160.603 167.636 156.233 159.694 148.295C151.753 140.358 147.38 129.809 147.38 118.581C147.38 107.354 151.753 96.8042 159.694 88.8671L343.862 -95.2954C351.804 -103.233 362.351 -107.603 373.584 -107.603H373.576Z" fill="url(#paint7_linear_2002_3361)"/>
<path d="M320.79 409.27L565.23 164.7C575.05 154.88 591.02 154.88 600.84 164.7C605.6 169.46 608.21 175.78 608.21 182.51C608.21 189.24 605.59 195.56 600.84 200.32L356.4 444.89C346.58 454.71 330.61 454.71 320.79 444.89C315.88 439.98 313.43 433.53 313.43 427.08C313.43 420.63 315.88 414.18 320.79 409.27ZM599.35 166.2C590.36 157.2 575.73 157.2 566.74 166.2L322.3 410.77C317.8 415.27 315.56 421.18 315.56 427.08C315.56 432.99 317.81 438.9 322.3 443.39C331.29 452.39 345.92 452.39 354.91 443.39L599.35 198.82C603.71 194.46 606.1 188.67 606.1 182.51C606.1 176.35 603.7 170.55 599.35 166.2Z" fill="url(#paint8_linear_2002_3361)"/>
<path d="M-105.98 919.99L226.95 586.88C234.32 579.5 244.12 575.44 254.55 575.44C264.98 575.44 274.78 579.5 282.15 586.88C289.52 594.26 293.58 604.06 293.58 614.49C293.58 624.92 289.52 634.73 282.15 642.1L-50.7802 975.21C-58.1502 982.59 -67.9502 986.65 -78.3802 986.65C-88.8102 986.65 -98.6102 982.59 -105.98 975.21C-113.35 967.83 -117.41 958.03 -117.41 947.6C-117.41 937.17 -113.35 927.36 -105.98 919.99ZM280.65 588.38C273.68 581.4 264.41 577.56 254.55 577.56C244.69 577.56 235.42 581.4 228.45 588.38L-104.48 921.49C-111.45 928.47 -115.29 937.74 -115.29 947.6C-115.29 957.46 -111.45 966.74 -104.48 973.71C-97.5102 980.69 -88.2402 984.53 -78.3802 984.53C-68.5202 984.53 -59.2502 980.69 -52.2802 973.71L280.65 640.6C287.62 633.62 291.46 624.35 291.46 614.49C291.46 604.63 287.62 595.35 280.65 588.38Z" fill="url(#paint9_linear_2002_3361)"/>
<path d="M74.1593 241.24C82.6393 241.24 89.5393 248.14 89.5393 256.62C89.5393 265.1 82.6393 272 74.1593 272C65.6793 272 58.7793 265.1 58.7793 256.62C58.7793 248.14 65.6793 241.24 74.1593 241.24ZM74.1593 243.36C66.8493 243.36 60.8993 249.31 60.8993 256.62C60.8993 263.93 66.8493 269.88 74.1593 269.88C81.4693 269.88 87.4193 263.93 87.4193 256.62C87.4193 249.31 81.4693 243.36 74.1593 243.36Z" fill="url(#paint10_linear_2002_3361)"/>
<path d="M88.089 628.69C96.569 628.69 103.469 635.59 103.469 644.07C103.469 652.55 96.569 659.45 88.089 659.45C79.609 659.45 72.709 652.55 72.709 644.07C72.709 635.59 79.609 628.69 88.089 628.69ZM88.089 630.81C80.779 630.81 74.829 636.76 74.829 644.07C74.829 651.38 80.779 657.33 88.089 657.33C95.399 657.33 101.349 651.38 101.349 644.07C101.349 636.76 95.399 630.81 88.089 630.81Z" fill="url(#paint11_linear_2002_3361)"/>
<path d="M176.496 135L258.918 52.5926C270.356 41.1358 288.985 41.1358 300.422 52.5926C311.859 64.0493 311.859 82.6844 300.422 94.1412L218 176.549C212.456 182.095 205.089 185.153 197.248 185.153C189.407 185.153 182.041 182.095 176.496 176.549C170.778 170.828 167.91 163.301 167.91 155.774C167.91 148.247 170.778 140.736 176.496 135ZM298.046 54.9695C287.908 44.828 271.417 44.828 261.279 54.9695L178.857 137.377C168.718 147.518 168.718 164.03 178.857 174.172C183.767 179.084 190.294 181.794 197.232 181.794C204.171 181.794 210.697 179.084 215.608 174.172L298.03 91.7643C303.099 86.6935 305.634 80.0223 305.634 73.3669C305.634 66.7115 303.099 60.0403 298.03 54.9695H298.046Z" fill="url(#paint12_linear_2002_3361)"/>
</g>
</g>
<defs>
<linearGradient id="paint0_linear_2002_3361" x1="326.649" y1="706.903" x2="516.954" y2="509.343" gradientUnits="userSpaceOnUse">
<stop offset="0.25" stop-color="#004C97"/>
<stop offset="1" stop-color="#0076CF"/>
</linearGradient>
<linearGradient id="paint1_linear_2002_3361" x1="200.882" y1="531.887" x2="463.003" y2="259.767" gradientUnits="userSpaceOnUse">
<stop offset="0.25" stop-color="#004C97"/>
<stop offset="1" stop-color="#0076CF"/>
</linearGradient>
<linearGradient id="paint2_linear_2002_3361" x1="-155.998" y1="565.507" x2="106.123" y2="293.387" gradientUnits="userSpaceOnUse">
<stop offset="0.25" stop-color="#004C97"/>
<stop offset="1" stop-color="#0076CF"/>
</linearGradient>
<linearGradient id="paint3_linear_2002_3361" x1="95" y1="874.178" x2="332.121" y2="628.005" gradientUnits="userSpaceOnUse">
<stop offset="0.25" stop-color="#004C97"/>
<stop offset="1" stop-color="#0076CF"/>
</linearGradient>
<linearGradient id="paint4_linear_2002_3361" x1="154.34" y1="376.49" x2="14.6004" y2="521.556" gradientUnits="userSpaceOnUse">
<stop offset="0.25" stop-color="#004C97"/>
<stop offset="1" stop-color="#0076CF"/>
</linearGradient>
<linearGradient id="paint5_linear_2002_3361" x1="403.885" y1="639.377" x2="220.681" y2="829.561" gradientUnits="userSpaceOnUse">
<stop offset="0.25" stop-color="#004C97"/>
<stop offset="1" stop-color="#0076CF"/>
</linearGradient>
<linearGradient id="paint6_linear_2002_3361" x1="589" y1="95.3443" x2="405.796" y2="285.529" gradientUnits="userSpaceOnUse">
<stop offset="0.25" stop-color="#004C97"/>
<stop offset="1" stop-color="#0076CF"/>
</linearGradient>
<linearGradient id="paint7_linear_2002_3361" x1="108" y1="83.5663" x2="331.899" y2="-148.991" gradientUnits="userSpaceOnUse">
<stop offset="0.25" stop-color="#004C97"/>
<stop offset="1" stop-color="#0076CF"/>
</linearGradient>
<linearGradient id="paint8_linear_2002_3361" x1="313.43" y1="353.296" x2="503.728" y2="155.733" gradientUnits="userSpaceOnUse">
<stop offset="0.25" stop-color="#004C97"/>
<stop offset="1" stop-color="#0076CF"/>
</linearGradient>
<linearGradient id="paint9_linear_2002_3361" x1="-117.41" y1="848.671" x2="147.925" y2="573.223" gradientUnits="userSpaceOnUse">
<stop offset="0.25" stop-color="#004C97"/>
<stop offset="1" stop-color="#0076CF"/>
</linearGradient>
<linearGradient id="paint10_linear_2002_3361" x1="58.7793" y1="261.679" x2="78.6269" y2="241.064" gradientUnits="userSpaceOnUse">
<stop offset="0.25" stop-color="#004C97"/>
<stop offset="1" stop-color="#0076CF"/>
</linearGradient>
<linearGradient id="paint11_linear_2002_3361" x1="72.709" y1="649.129" x2="92.5566" y2="628.514" gradientUnits="userSpaceOnUse">
<stop offset="0.25" stop-color="#004C97"/>
<stop offset="1" stop-color="#0076CF"/>
</linearGradient>
<linearGradient id="paint12_linear_2002_3361" x1="167.91" y1="137.79" x2="258.989" y2="43.231" gradientUnits="userSpaceOnUse">
<stop offset="0.25" stop-color="#004C97"/>
<stop offset="1" stop-color="#0076CF"/>
</linearGradient>
<clipPath id="clip0_2002_3361">
<rect width="479" height="852" fill="white"/>
</clipPath>
</defs>
</svg>
