<svg width="634" height="66" viewBox="0 0 634 66" fill="none" xmlns="http://www.w3.org/2000/svg">
<g clip-path="url(#clip0_1866_67)">
<g clip-path="url(#clip1_1866_67)">
<path d="M7.22481 0V3.88H3.6124V7.76H0V58.24H3.6124V62.12H7.22481V66H627.266V62.12H630.888V58.24H634.5V7.76H630.888V3.88H627.266V0H7.22481Z" fill="#BBD53C"/>
<path d="M7.22471 3.88V7.76H3.6123V11.65H7.22471V7.76H626.878V11.65H630.5V7.76H626.878V3.88L7.22471 3.88Z" fill="white"/>
<path d="M7.22471 7.76001V11.65H3.6123V54.14H7.22471V58.03H626.878V54.14H630.5V11.65H626.878V7.76001H7.22471Z" fill="#DCF94D"/>
<path d="M24.0618 42V21.84H32.3118C36.5118 21.84 39.4818 24.6 39.4818 28.47C39.4818 32.37 36.5118 35.13 32.3118 35.13H27.9018V42H24.0618ZM27.9018 24.9V32.04H31.7118C33.9918 32.04 35.5518 30.57 35.5518 28.47C35.5518 26.4 33.9918 24.9 31.7118 24.9H27.9018ZM46.1697 20.88V37.8C46.1697 38.73 46.7697 39.3 47.6697 39.3C48.0297 39.3 48.5097 39.21 48.9897 39.12L49.4097 42.03C48.4497 42.24 47.5197 42.36 46.7397 42.36C44.0397 42.36 42.3297 40.74 42.3297 38.19V20.88H46.1697ZM50.6589 37.74C50.6589 34.65 53.1789 32.85 57.4389 32.85C58.3389 32.85 59.3289 32.94 60.2889 33.15V32.37C60.2889 30.87 59.0889 29.79 57.2589 29.79C55.7589 29.79 54.1389 30.15 52.4289 30.84L51.4689 28.17C53.6589 27.33 55.7289 26.94 57.7089 26.94C61.4289 26.94 63.8889 29.16 63.8889 32.43V38.4C63.8889 39.03 64.2789 39.45 64.9089 39.45C65.2089 39.45 65.5389 39.39 65.6589 39.36L65.9289 42.15C65.2989 42.27 64.6089 42.36 63.8889 42.36C62.3889 42.36 61.2489 41.61 60.7389 40.38C59.4789 41.64 57.7089 42.36 55.9089 42.36C52.8489 42.36 50.6589 40.44 50.6589 37.74ZM54.3489 37.53C54.3489 38.73 55.4589 39.66 56.8989 39.66C58.9389 39.66 60.2889 38.25 60.2889 36.24V35.37C59.5089 35.16 58.6989 35.07 57.8889 35.07C55.6989 35.07 54.3489 36 54.3489 37.53ZM81.1799 27.3L74.6399 43.65C73.3199 46.98 71.4599 48.6 68.7599 48.6C68.1299 48.6 67.3199 48.51 66.4799 48.33L66.9899 45.33C67.4999 45.45 68.0099 45.54 68.3999 45.54C69.7199 45.54 70.4999 44.82 71.1899 43.11L71.6999 41.82L65.6399 27.3H69.6599L73.4699 37.65L77.1899 27.3H81.1799ZM107.841 30.87V40.65C105.321 41.73 102.831 42.36 100.221 42.36C93.8315 42.36 89.3915 38.04 89.3915 31.92C89.3915 25.8 93.7415 21.48 99.9815 21.48C102.441 21.48 104.961 22.2 107.451 23.55L105.981 26.22C104.001 25.17 102.231 24.54 100.431 24.54C96.2015 24.54 93.2915 27.6 93.2915 31.92C93.2915 36.3 96.2615 39.3 100.521 39.3C101.811 39.3 103.041 39.03 104.151 38.55V33.81H99.6215V30.87H107.841ZM110.688 37.74C110.688 34.65 113.208 32.85 117.468 32.85C118.368 32.85 119.358 32.94 120.318 33.15V32.37C120.318 30.87 119.118 29.79 117.288 29.79C115.788 29.79 114.168 30.15 112.458 30.84L111.498 28.17C113.688 27.33 115.758 26.94 117.738 26.94C121.458 26.94 123.918 29.16 123.918 32.43V38.4C123.918 39.03 124.308 39.45 124.938 39.45C125.238 39.45 125.568 39.39 125.688 39.36L125.958 42.15C125.328 42.27 124.638 42.36 123.918 42.36C122.418 42.36 121.278 41.61 120.768 40.38C119.508 41.64 117.738 42.36 115.938 42.36C112.878 42.36 110.688 40.44 110.688 37.74ZM114.378 37.53C114.378 38.73 115.488 39.66 116.928 39.66C118.968 39.66 120.318 38.25 120.318 36.24V35.37C119.538 35.16 118.728 35.07 117.918 35.07C115.728 35.07 114.378 36 114.378 37.53ZM128.082 42V27.3H131.142L131.622 29.31C132.792 27.78 134.502 26.94 136.452 26.94C138.582 26.94 140.322 27.96 141.162 29.64C142.512 27.9 144.342 26.94 146.472 26.94C149.682 26.94 151.962 29.16 151.962 32.31V42H148.122V32.91C148.122 31.26 146.952 30.09 145.272 30.09C143.322 30.09 141.942 31.56 141.942 33.66V42H138.102V32.91C138.102 31.26 136.932 30.09 135.282 30.09C133.302 30.09 131.922 31.56 131.922 33.66V42H128.082ZM154.78 34.65C154.78 30.12 157.87 26.94 162.31 26.94C166.48 26.94 169.39 29.97 169.39 34.38C169.39 34.8 169.36 35.22 169.33 35.61H158.62C158.89 37.95 160.75 39.51 163.27 39.51C164.53 39.51 165.97 39.12 167.5 38.28L168.67 40.89C166.6 41.91 164.53 42.36 162.79 42.36C158.05 42.36 154.78 39.18 154.78 34.65ZM162.31 29.79C160.33 29.79 158.86 31.2 158.62 33.3H165.7C165.58 31.2 164.23 29.79 162.31 29.79ZM178.6 31.92C178.6 25.77 182.83 21.48 188.95 21.48C191.38 21.48 193.9 22.26 196.18 23.76L194.56 26.43C192.91 25.29 191.2 24.66 189.46 24.66C185.44 24.66 182.65 27.63 182.65 31.92C182.65 36.21 185.44 39.18 189.46 39.18C191.2 39.18 192.91 38.55 194.56 37.41L196.18 40.08C193.9 41.58 191.38 42.36 188.95 42.36C182.83 42.36 178.6 38.04 178.6 31.92ZM198.892 42V20.88H202.732V29.19C203.782 27.75 205.522 26.94 207.502 26.94C210.862 26.94 213.232 29.25 213.232 32.55V42H209.392V33.15C209.392 31.35 208.102 30.09 206.332 30.09C204.262 30.09 202.732 31.65 202.732 33.9V42H198.892ZM216.04 37.74C216.04 34.65 218.56 32.85 222.82 32.85C223.72 32.85 224.71 32.94 225.67 33.15V32.37C225.67 30.87 224.47 29.79 222.64 29.79C221.14 29.79 219.52 30.15 217.81 30.84L216.85 28.17C219.04 27.33 221.11 26.94 223.09 26.94C226.81 26.94 229.27 29.16 229.27 32.43V38.4C229.27 39.03 229.66 39.45 230.29 39.45C230.59 39.45 230.92 39.39 231.04 39.36L231.31 42.15C230.68 42.27 229.99 42.36 229.27 42.36C227.77 42.36 226.63 41.61 226.12 40.38C224.86 41.64 223.09 42.36 221.29 42.36C218.23 42.36 216.04 40.44 216.04 37.74ZM219.73 37.53C219.73 38.73 220.84 39.66 222.28 39.66C224.32 39.66 225.67 38.25 225.67 36.24V35.37C224.89 35.16 224.08 35.07 223.27 35.07C221.08 35.07 219.73 36 219.73 37.53ZM233.433 42V27.3H236.493L236.973 29.43C238.083 27.84 239.913 26.94 242.043 26.94C245.403 26.94 247.773 29.25 247.773 32.55V42H243.933V33.15C243.933 31.35 242.643 30.09 240.873 30.09C238.803 30.09 237.273 31.65 237.273 33.9V42H233.433ZM265.551 27.3V41.73C265.551 45.72 262.221 48.6 257.631 48.6C255.741 48.6 253.611 48.18 251.391 47.25L252.441 44.4C254.301 45.24 255.981 45.6 257.331 45.6C259.911 45.6 261.711 44.07 261.711 41.88V40.32C260.661 41.64 259.131 42.36 257.301 42.36C253.371 42.36 250.581 39.18 250.581 34.65C250.581 30.12 253.371 26.94 257.301 26.94C259.281 26.94 260.931 27.75 262.011 29.19L262.491 27.3H265.551ZM254.481 34.65C254.481 37.38 256.071 39.33 258.291 39.33C260.361 39.33 261.801 37.77 261.801 35.64V33.66C261.801 31.5 260.361 29.97 258.291 29.97C256.071 29.97 254.481 31.89 254.481 34.65ZM268.598 34.65C268.598 30.12 271.688 26.94 276.128 26.94C280.298 26.94 283.208 29.97 283.208 34.38C283.208 34.8 283.178 35.22 283.148 35.61H272.438C272.708 37.95 274.568 39.51 277.088 39.51C278.348 39.51 279.788 39.12 281.318 38.28L282.488 40.89C280.418 41.91 278.348 42.36 276.608 42.36C271.868 42.36 268.598 39.18 268.598 34.65ZM276.128 29.79C274.148 29.79 272.678 31.2 272.438 33.3H279.518C279.398 31.2 278.048 29.79 276.128 29.79ZM285.992 42V27.3H289.052L289.532 29.58C290.372 27.99 291.962 27.06 293.882 27.06C294.392 27.06 295.052 27.12 295.652 27.27L295.292 30.33C294.782 30.21 294.152 30.12 293.582 30.12C291.302 30.12 289.832 31.89 289.832 34.41V42H285.992ZM307.278 49.392V17.712H308.664V49.392H307.278ZM326.644 42V25.424L321.772 28.224L320.988 26.656L327.008 23.184H328.884V42H326.644ZM347.677 23.184V25.004H339.305V31.024C340.257 30.828 341.237 30.716 342.049 30.716C345.941 30.716 348.349 33.012 348.349 36.484C348.349 39.9 345.717 42.336 341.797 42.336C339.837 42.336 337.877 41.748 336.113 40.684L336.981 39.004C338.521 39.956 340.117 40.46 341.629 40.46C344.373 40.46 346.137 38.864 346.137 36.456C346.137 33.936 344.401 32.368 341.405 32.368C340.201 32.368 338.885 32.508 337.289 32.872V23.184H347.677ZM351.63 32.592C351.63 26.6 354.29 22.848 358.546 22.848C362.802 22.848 365.462 26.6 365.462 32.592C365.462 38.584 362.802 42.336 358.546 42.336C354.29 42.336 351.63 38.584 351.63 32.592ZM353.758 32.592C353.758 37.408 355.606 40.46 358.546 40.46C361.486 40.46 363.334 37.408 363.334 32.592C363.334 27.748 361.486 24.724 358.546 24.724C355.606 24.724 353.758 27.748 353.758 32.592ZM375.553 47.824V28.392H377.345L377.625 30.66C378.577 28.98 380.257 28.056 382.301 28.056C385.857 28.056 388.433 31.024 388.433 35.196C388.433 39.368 385.857 42.336 382.301 42.336C380.341 42.336 378.745 41.44 377.765 39.872V47.824H375.553ZM386.165 35.196C386.165 32.088 384.317 29.876 381.769 29.876C379.389 29.876 377.737 31.64 377.737 34.104V36.288C377.737 38.78 379.389 40.516 381.769 40.516C384.317 40.516 386.165 38.332 386.165 35.196ZM391.877 42V28.392H393.669L393.949 30.968C394.621 29.232 396.217 28.168 398.177 28.168C398.681 28.168 399.297 28.252 399.885 28.392L399.633 30.212C399.101 30.1 398.541 30.016 398.009 30.016C395.685 30.016 394.089 31.892 394.089 34.636V42H391.877ZM402.596 42V28.392H404.808V42H402.596ZM402.204 24.248C402.204 23.38 402.82 22.764 403.716 22.764C404.584 22.764 405.2 23.38 405.2 24.248C405.2 25.116 404.584 25.732 403.716 25.732C402.82 25.732 402.204 25.116 402.204 24.248ZM408.261 42V40.74L416.101 30.156H408.485V28.392H419.041V29.68L411.201 40.264H419.265V42H408.261ZM421.413 35.196C421.413 30.996 424.157 28.056 428.049 28.056C431.689 28.056 434.209 30.884 434.209 34.944C434.209 35.224 434.209 35.476 434.181 35.756H423.653C423.849 38.64 425.865 40.628 428.721 40.628C429.953 40.628 431.381 40.264 432.837 39.48L433.537 41.02C431.745 41.916 430.009 42.336 428.497 42.336C424.353 42.336 421.413 39.396 421.413 35.196ZM428.049 29.764C425.613 29.764 423.877 31.584 423.653 34.328H432.053C431.969 31.64 430.345 29.764 428.049 29.764ZM436.564 31.864C436.564 29.652 438.608 28.056 441.52 28.056C442.948 28.056 444.516 28.364 446.112 29.008L445.608 30.66C444.208 30.072 442.864 29.764 441.688 29.764C439.924 29.764 438.776 30.604 438.776 31.864C438.776 35.224 446.56 33.208 446.56 38.416C446.56 40.712 444.516 42.336 441.52 42.336C439.952 42.336 438.244 42 436.452 41.3L436.984 39.648C438.552 40.292 440.036 40.628 441.352 40.628C443.172 40.628 444.376 39.732 444.376 38.416C444.376 34.972 436.564 36.96 436.564 31.864ZM468.665 28.392V42H466.873L466.593 39.508C465.641 41.3 463.821 42.336 461.665 42.336C458.641 42.336 456.513 40.264 456.513 37.268V28.392H458.725V36.96C458.725 39.032 460.237 40.46 462.309 40.46C464.661 40.46 466.425 38.668 466.425 36.064V28.392H468.665ZM473.061 47.824V28.392H474.853L475.133 30.66C476.085 28.98 477.765 28.056 479.809 28.056C483.365 28.056 485.941 31.024 485.941 35.196C485.941 39.368 483.365 42.336 479.809 42.336C477.849 42.336 476.253 41.44 475.273 39.872V47.824H473.061ZM483.673 35.196C483.673 32.088 481.825 29.876 479.277 29.876C476.897 29.876 475.245 31.64 475.245 34.104V36.288C475.245 38.78 476.897 40.516 479.277 40.516C481.825 40.516 483.673 38.332 483.673 35.196ZM497.018 42V30.156H494.19V28.392H497.018V25.928C497.018 23.576 498.67 21.952 501.106 21.952C501.974 21.952 502.87 22.064 503.822 22.316L503.514 24.052C502.814 23.884 502.17 23.772 501.582 23.772C500.182 23.772 499.23 24.724 499.23 26.124V28.392H503.066V30.156H499.23V42H497.018ZM504.346 35.196C504.346 30.996 507.23 28.056 511.29 28.056C515.322 28.056 518.206 30.996 518.206 35.196C518.206 39.396 515.322 42.336 511.29 42.336C507.23 42.336 504.346 39.396 504.346 35.196ZM506.642 35.196C506.642 38.36 508.546 40.544 511.29 40.544C514.006 40.544 515.938 38.36 515.938 35.196C515.938 32.06 514.006 29.848 511.29 29.848C508.546 29.848 506.642 32.06 506.642 35.196ZM521.651 42V28.392H523.443L523.723 30.968C524.395 29.232 525.991 28.168 527.951 28.168C528.455 28.168 529.071 28.252 529.659 28.392L529.407 30.212C528.875 30.1 528.315 30.016 527.783 30.016C525.459 30.016 523.863 31.892 523.863 34.636V42H521.651ZM550.586 28.392V42.252C550.586 45.696 547.758 48.16 543.866 48.16C542.27 48.16 540.422 47.768 538.49 46.956L539.162 45.276C540.842 46.004 542.438 46.368 543.698 46.368C546.414 46.368 548.346 44.716 548.346 42.336V39.872C547.394 41.44 545.77 42.336 543.838 42.336C540.254 42.336 537.678 39.368 537.678 35.196C537.678 31.024 540.254 28.056 543.838 28.056C545.854 28.056 547.534 28.98 548.514 30.66L548.794 28.392H550.586ZM539.974 35.196C539.974 38.332 541.794 40.516 544.37 40.516C546.722 40.516 548.374 38.78 548.374 36.288V34.104C548.374 31.64 546.722 29.876 544.37 29.876C541.794 29.876 539.974 32.088 539.974 35.196ZM554.983 42V28.392H556.775L557.055 30.968C557.727 29.232 559.323 28.168 561.283 28.168C561.787 28.168 562.403 28.252 562.991 28.392L562.739 30.212C562.207 30.1 561.647 30.016 561.115 30.016C558.791 30.016 557.195 31.892 557.195 34.636V42H554.983ZM564.393 38.248C564.393 35.392 566.745 33.74 570.609 33.74C571.561 33.74 572.597 33.852 573.661 34.132V32.732C573.661 30.996 572.317 29.764 570.329 29.764C568.873 29.764 567.389 30.1 565.821 30.772L565.205 29.148C567.109 28.42 568.845 28.056 570.581 28.056C573.661 28.056 575.789 29.96 575.789 32.788V39.368C575.789 40.124 576.237 40.6 577.021 40.6C577.245 40.6 577.581 40.544 577.749 40.516L577.917 42.196C577.469 42.28 576.965 42.336 576.461 42.336C574.977 42.336 574.025 41.468 573.857 40.068C572.765 41.496 571.001 42.336 569.125 42.336C566.437 42.336 564.393 40.572 564.393 38.248ZM566.577 38.108C566.577 39.592 567.893 40.712 569.657 40.712C572.009 40.712 573.661 39.032 573.661 36.624V35.476C572.709 35.252 571.785 35.14 570.861 35.14C568.173 35.14 566.577 36.26 566.577 38.108ZM580.412 42V22.288H582.624V30.548C583.604 28.952 585.2 28.056 587.16 28.056C590.716 28.056 593.292 31.024 593.292 35.196C593.292 39.368 590.716 42.336 587.16 42.336C585.116 42.336 583.436 41.412 582.484 39.732L582.204 42H580.412ZM591.024 35.196C591.024 32.088 589.176 29.876 586.628 29.876C584.248 29.876 582.596 31.64 582.596 34.104V36.288C582.596 38.78 584.248 40.516 586.628 40.516C589.176 40.516 591.024 38.332 591.024 35.196ZM595.869 31.864C595.869 29.652 597.913 28.056 600.825 28.056C602.253 28.056 603.821 28.364 605.417 29.008L604.913 30.66C603.513 30.072 602.169 29.764 600.993 29.764C599.229 29.764 598.081 30.604 598.081 31.864C598.081 35.224 605.865 33.208 605.865 38.416C605.865 40.712 603.821 42.336 600.825 42.336C599.257 42.336 597.549 42 595.757 41.3L596.289 39.648C597.857 40.292 599.341 40.628 600.657 40.628C602.477 40.628 603.681 39.732 603.681 38.416C603.681 34.972 595.869 36.96 595.869 31.864ZM609.847 36.148L609.651 23.184H611.919L611.723 36.148H609.847ZM609.287 40.768C609.287 39.9 609.903 39.284 610.799 39.284C611.667 39.284 612.283 39.9 612.283 40.768C612.283 41.636 611.667 42.252 610.799 42.252C609.875 42.252 609.287 41.636 609.287 40.768Z" fill="#004C97"/>
</g>
</g>
<defs>
<clipPath id="clip0_1866_67">
<rect width="634" height="66" fill="white"/>
</clipPath>
<clipPath id="clip1_1866_67">
<rect width="635" height="66" fill="white"/>
</clipPath>
</defs>
</svg>
