<svg width="313" height="187" viewBox="0 0 313 187" fill="none" xmlns="http://www.w3.org/2000/svg">
<rect x="5" y="5" width="302" height="177" rx="36" fill="url(#paint0_linear_2009_413)" stroke="url(#paint1_linear_2009_413)" stroke-width="2"/>
<g filter="url(#filter0_i_2009_413)">
<rect x="20.3936" y="20.9103" width="271.212" height="145.455" rx="25" fill="#E5F4FD"/>
</g>
<g filter="url(#filter1_dd_2009_413)">
<circle cx="62.5" cy="13.5" r="3.5" fill="white"/>
</g>
<g filter="url(#filter2_dd_2009_413)">
<circle cx="109.25" cy="13.5" r="3.5" fill="white"/>
</g>
<g filter="url(#filter3_dd_2009_413)">
<circle cx="156" cy="13.5" r="3.5" fill="white"/>
</g>
<g filter="url(#filter4_dd_2009_413)">
<circle cx="202.75" cy="13.5" r="3.5" fill="white"/>
</g>
<g filter="url(#filter5_dd_2009_413)">
<circle cx="249.5" cy="13.5" r="3.5" fill="white"/>
</g>
<g filter="url(#filter6_dd_2009_413)">
<circle cx="62.5" cy="173.5" r="3.5" fill="white"/>
</g>
<g filter="url(#filter7_dd_2009_413)">
<circle cx="109.25" cy="173.5" r="3.5" fill="white"/>
</g>
<g filter="url(#filter8_dd_2009_413)">
<circle cx="156" cy="173.5" r="3.5" fill="white"/>
</g>
<g filter="url(#filter9_dd_2009_413)">
<circle cx="202.75" cy="173.5" r="3.5" fill="white"/>
</g>
<g filter="url(#filter10_dd_2009_413)">
<circle cx="249.5" cy="173.5" r="3.5" fill="white"/>
</g>
<g filter="url(#filter11_dd_2009_413)">
<circle cx="298.803" cy="145.682" r="3.5" transform="rotate(-90 298.803 145.682)" fill="white"/>
</g>
<g filter="url(#filter12_dd_2009_413)">
<circle cx="298.803" cy="93.8788" r="3.5" transform="rotate(-90 298.803 93.8788)" fill="white"/>
</g>
<g filter="url(#filter13_dd_2009_413)">
<circle cx="298.803" cy="42.0757" r="3.5" transform="rotate(-90 298.803 42.0757)" fill="white"/>
</g>
<g filter="url(#filter14_dd_2009_413)">
<circle cx="13.5" cy="145.682" r="3.5" transform="rotate(-90 13.5 145.682)" fill="white"/>
</g>
<g filter="url(#filter15_dd_2009_413)">
<circle cx="13.5" cy="93.8788" r="3.5" transform="rotate(-90 13.5 93.8788)" fill="white"/>
</g>
<g filter="url(#filter16_dd_2009_413)">
<circle cx="13.5" cy="42.0757" r="3.5" transform="rotate(-90 13.5 42.0757)" fill="white"/>
</g>
<path d="M106.271 64.0022V63.5022H105.771H84.7307H84.2307V64.0022V73.5249V74.0249H84.7307H93.5664V81.5533C91.8382 82.1671 89.9819 82.4761 87.9355 82.4761C83.7336 82.4761 80.2091 81.0331 77.7359 78.5342C75.2625 76.0352 73.8048 72.4442 73.8048 68.0834C73.8048 63.8324 75.261 60.2393 77.7377 57.7112C80.2136 55.1839 83.7387 53.6906 87.9355 53.6906C91.7823 53.6906 95.4561 55.0758 99.8935 57.4272L100.337 57.662L100.57 57.2183L105.168 48.4832L105.397 48.0484L104.966 47.8119C98.774 44.413 92.4914 42.6667 86.4027 42.6667C78.7963 42.6667 72.2747 45.2862 67.6523 49.7895C63.0291 54.2937 60.334 60.6552 60.334 68.0834C60.334 75.5147 63.0837 81.8774 67.8042 86.3808C72.523 90.8827 79.1828 93.5 86.9601 93.5C93.5938 93.5 99.7228 91.9034 105.967 89.2354L106.271 89.1057V88.7756V64.0022ZM127.134 65.5762C130.309 65.5762 132.431 67.2968 132.613 69.494C130.759 69.1934 128.87 69.0153 127.204 69.0153C122.124 69.0153 117.999 70.1198 115.132 72.2462C112.244 74.387 110.68 77.5296 110.68 81.4725C110.68 85.0086 112.041 88.0269 114.388 90.1572C116.731 92.2842 120.027 93.5 123.859 93.5C127.567 93.5 131.654 92.1543 134.884 89.6565C136.558 92.1031 139.313 93.5 142.67 93.5C144.794 93.5 146.779 93.2818 148.553 92.917L148.989 92.8275L148.951 92.3849L148.185 83.3633L148.14 82.8338L147.614 82.911C147.13 82.982 146.603 83.0489 146.084 83.0489C145.679 83.0489 145.379 82.9128 145.18 82.7079C144.979 82.5019 144.842 82.1863 144.842 81.7589V70.0881C144.842 65.7005 143.242 61.9998 140.395 59.3996C137.551 56.8031 133.504 55.3398 128.667 55.3398C123.651 55.3398 118.365 56.3565 112.741 58.5236L112.288 58.6985L112.45 59.157L115.515 67.8205L115.692 68.3207L116.181 68.1144C120.042 66.4849 123.806 65.5762 127.134 65.5762ZM151.746 92.1408V92.6408H152.246H164.508H165.008V92.1408V72.5941C165.008 70.8002 165.567 69.315 166.499 68.2844C167.427 67.258 168.753 66.6502 170.361 66.6502C171.663 66.6502 172.749 67.1212 173.51 67.9111C174.272 68.7023 174.737 69.844 174.737 71.2337V92.1408V92.6408H175.237H187.499H187.999V92.1408V72.5941C187.999 70.8001 188.558 69.314 189.483 68.2829C190.403 67.2558 191.712 66.6502 193.282 66.6502C194.622 66.6502 195.706 67.1227 196.456 67.9093C197.208 68.6981 197.659 69.8392 197.659 71.2337V92.1408V92.6408H198.159H210.421H210.921V92.1408V69.1573C210.921 65.1364 209.519 61.6763 207.083 59.2199C204.647 56.7631 201.206 55.3398 197.183 55.3398C192.678 55.3398 188.658 57.127 185.007 60.384C182.689 57.2198 178.781 55.3398 174.262 55.3398C170.315 55.3398 166.754 56.7314 163.714 59.4317L162.46 56.5022L162.33 56.199H162H152.246H151.746V56.699V92.1408ZM251.292 78.1777H251.738L251.788 77.7346C251.93 76.4971 252.001 75.1892 252.001 73.8829C252.001 68.4347 250.167 63.7939 246.983 60.5126C243.798 57.2301 239.292 55.3398 234.014 55.3398C228.425 55.3398 223.643 57.2991 220.257 60.6863C216.872 64.0734 214.912 68.8587 214.912 74.4557C214.912 80.0251 216.965 84.7959 220.537 88.1724C224.108 91.5472 229.166 93.5 235.128 93.5C239.532 93.5 244.761 92.3335 250.045 89.7993L250.477 89.592L250.288 89.1514L246.665 80.7026L246.451 80.2019L245.97 80.4587C242.528 82.2984 239.336 83.2637 236.661 83.2637C232.502 83.2637 229.397 81.2711 228.34 78.1777H251.292ZM127.134 83.8365C124.738 83.8365 123.175 82.3992 123.175 80.6849C123.175 79.6188 123.684 78.7465 124.624 78.1208C125.58 77.4846 126.989 77.1037 128.736 77.1037C130.079 77.1037 131.374 77.2738 132.625 77.5151V78.3937C132.625 81.5515 130.344 83.8365 127.134 83.8365ZM228.324 69.8029C229.133 67.2154 231.267 65.5762 234.014 65.5762C236.623 65.5762 238.57 67.2064 239.133 69.8029H228.324Z" fill="#00C4D9" stroke="#0076CF"/>
<path d="M108.437 61.3825V60.8825H107.937H86.8967H86.3967V61.3825V70.6983V71.1983H86.8967H95.7324V78.5419C94.0042 79.1419 92.1478 79.444 90.1015 79.444C85.8963 79.444 82.3706 78.031 79.898 75.5871C77.4262 73.1441 75.9709 69.6353 75.9709 65.375C75.9709 61.2223 77.4247 57.7115 79.8998 55.2399C82.3749 52.7683 85.9013 51.306 90.1015 51.306C93.951 51.306 97.6263 52.662 102.064 54.9622L102.501 55.1888L102.734 54.7552L107.332 46.21L107.569 45.7693L107.128 45.5325C100.936 42.2077 94.6552 40.5 88.5687 40.5C80.9656 40.5 74.4453 43.0613 69.8223 47.4673C65.1977 51.8748 62.5 58.102 62.5 65.375C62.5 72.6512 65.2524 78.8796 69.9742 83.2863C74.6935 87.6908 81.352 90.25 89.1261 90.25C95.758 90.25 101.886 88.6886 108.13 86.0788L108.437 85.9504V85.6175V61.3825ZM129.3 62.9332C132.48 62.9332 134.59 64.6152 134.778 66.7441C132.925 66.45 131.036 66.2759 129.37 66.2759C124.292 66.2759 120.169 67.3558 117.302 69.4355C114.414 71.5302 112.846 74.6082 112.846 78.4731C112.846 81.939 114.21 84.8957 116.558 86.9807C118.901 89.0617 122.196 90.25 126.025 90.25C129.732 90.25 133.82 88.9331 137.052 86.4869C138.727 88.8848 141.483 90.25 144.836 90.25C146.959 90.25 148.943 90.0366 150.717 89.6798L151.156 89.5917L151.117 89.1464L150.351 80.321L150.305 79.7941L149.781 79.8693C149.297 79.9388 148.77 80.0043 148.25 80.0043C147.842 80.0043 147.54 79.8698 147.342 79.6702C147.143 79.4703 147.008 79.1657 147.008 78.7532V67.3362C147.008 63.0374 145.405 59.4132 142.557 56.8684C139.713 54.3281 135.667 52.8976 130.833 52.8976C125.819 52.8976 120.534 53.8919 114.911 56.0117L114.449 56.1857L114.617 56.6496L117.683 65.1248L117.86 65.6164L118.344 65.4169C122.204 63.8227 125.97 62.9332 129.3 62.9332ZM153.913 88.9095V89.4095H154.413H166.674H167.174V88.9095V69.7877C167.174 68.038 167.731 66.5893 168.661 65.583C169.588 64.5801 170.915 63.9838 172.527 63.9838C173.833 63.9838 174.92 64.446 175.68 65.218C176.441 65.9904 176.903 67.1031 176.903 68.4569V88.9095V89.4095H177.403H189.665H190.165V88.9095V69.7877C190.165 68.0379 190.722 66.5883 191.645 65.5815C192.565 64.578 193.874 63.9838 195.448 63.9838C196.791 63.9838 197.876 64.4476 198.626 65.2162C199.376 65.9861 199.825 67.0982 199.825 68.4569V88.9095V89.4095H200.325H212.587H213.087V88.9095V66.4256C213.087 62.4861 211.682 59.0972 209.245 56.6927C206.809 54.2886 203.369 52.8976 199.349 52.8976C194.845 52.8976 190.825 54.6461 187.172 57.8355C184.853 54.7359 180.944 52.8976 176.428 52.8976C172.482 52.8976 168.921 54.2592 165.879 56.9043L164.624 54.0377L164.493 53.7381H164.166H154.413H153.913V54.2381V88.9095ZM253.458 75.2608H253.903L253.954 74.8189C254.096 73.6074 254.167 72.3272 254.167 71.0485C254.167 65.7129 252.33 61.169 249.145 57.9573C245.959 54.7454 241.455 52.8976 236.18 52.8976C230.594 52.8976 225.814 54.813 222.427 58.1272C219.04 61.4421 217.078 66.1274 217.078 71.6088C217.078 77.0636 219.133 81.7346 222.707 85.039C226.279 88.3408 231.335 90.25 237.294 90.25C241.696 90.25 246.923 89.1093 252.207 86.6305L252.648 86.4235L252.453 85.9771L248.83 77.712L248.615 77.2215L248.14 77.4696C244.698 79.2694 241.505 80.2144 238.827 80.2144C234.669 80.2144 231.572 78.2688 230.511 75.2608H253.458ZM129.3 80.7748C126.892 80.7748 125.341 79.3626 125.341 77.7026C125.341 76.6688 125.845 75.8187 126.786 75.2061C127.743 74.5833 129.153 74.2101 130.902 74.2101C132.246 74.2101 133.54 74.3765 134.791 74.6124V75.4612C134.791 78.534 132.521 80.7748 129.3 80.7748ZM230.494 67.0463C231.305 64.5333 233.432 62.9332 236.18 62.9332C238.791 62.9332 240.731 64.5255 241.296 67.0463H230.494Z" fill="white" stroke="#00C4D9"/>
<path d="M72.2335 94.6902L72.4883 94.284L72.0932 94.0124C67.5869 90.9146 62.5609 89.3261 57.6489 89.3261C51.4093 89.3261 46.1126 91.5962 42.3773 95.5165C38.6438 99.4349 36.5 104.97 36.5 111.451C36.5 117.931 38.6438 123.466 42.3773 127.385C46.1126 131.305 51.4093 133.575 57.6489 133.575C62.5609 133.575 67.5869 131.987 72.0932 128.889L72.4883 128.617L72.2335 128.211L70.0501 124.731L69.7684 124.282L69.3367 124.59C65.9154 127.024 62.0847 128.35 58.3351 128.35C53.6928 128.35 49.8215 126.63 47.1076 123.68C44.3905 120.726 42.8026 116.503 42.8026 111.451C42.8026 106.398 44.3905 102.175 47.1076 99.2214C49.8215 96.271 53.6928 94.5516 58.3351 94.5516C62.0847 94.5516 65.9154 95.8774 69.3367 98.3116L69.7684 98.6188L70.0501 98.17L72.2335 94.6902ZM78.7014 132.329V132.829H79.2014H84.1297H84.6297V132.329V115.303C84.6297 109.778 88.358 106.047 93.3001 106.047C95.522 106.047 97.3884 106.813 98.6973 108.095C100.005 109.376 100.785 111.202 100.785 113.377V132.329V132.829H101.285H106.276H106.776V132.329V112.631C106.776 109.182 105.527 106.237 103.38 104.155C101.234 102.075 98.2192 100.884 94.7349 100.884C90.5747 100.884 86.9265 102.641 84.6297 105.707V88.5833V88.0833H84.1297H79.2014H78.7014V88.5833V132.329ZM133.537 111.761V114.228C131.342 113.709 129.21 113.498 127.237 113.498C122.871 113.498 119.293 114.427 116.793 116.217C114.272 118.022 112.888 120.677 112.888 124.003C112.888 129.504 117.739 133.575 123.931 133.575C127.883 133.575 131.631 131.965 134.181 129.169C134.498 130.352 135.093 131.351 135.945 132.099C137.042 133.063 138.523 133.575 140.275 133.575C141.433 133.575 142.587 133.447 143.611 133.256L144.063 133.172L144.017 132.714L143.642 128.986L143.589 128.455L143.063 128.543C142.675 128.607 141.972 128.722 141.523 128.722C140.751 128.722 140.205 128.491 139.851 128.133C139.497 127.774 139.278 127.228 139.278 126.488V111.886C139.278 108.614 138.039 105.851 135.884 103.91C133.735 101.973 130.708 100.884 127.175 100.884C123.234 100.884 119.305 101.708 115.019 103.34L114.552 103.518L114.73 103.985L116.102 107.589L116.287 108.076L116.766 107.871C120.209 106.401 123.449 105.675 126.613 105.675C128.726 105.675 130.456 106.326 131.653 107.396C132.845 108.463 133.537 109.972 133.537 111.761ZM148.578 132.329V132.829H149.078H154.006H154.506V132.329V115.303C154.506 109.778 158.235 106.047 163.177 106.047C165.399 106.047 167.265 106.813 168.574 108.095C169.882 109.376 170.662 111.202 170.662 113.377V132.329V132.829H171.162H176.153H176.653V132.329V112.631C176.653 109.182 175.404 106.237 173.257 104.155C171.111 102.075 168.096 100.884 164.612 100.884C160.183 100.884 156.335 102.779 154.026 106.136L153.568 102.074L153.517 101.63H153.071H149.078H148.578V102.13V132.329ZM212.524 102.13V101.63H212.024H208.031H207.589L207.535 102.068L207.078 105.756C204.74 102.599 201.163 100.884 196.989 100.884C188.664 100.884 182.765 107.764 182.765 117.23C182.765 126.695 188.664 133.575 196.989 133.575C200.886 133.575 204.263 132 206.533 129.186V133.075C206.533 135.571 205.52 137.669 203.798 139.151C202.071 140.637 199.604 141.523 196.677 141.523C193.956 141.523 190.469 140.737 186.769 139.141L186.298 138.937L186.107 139.413L184.61 143.142L184.426 143.599L184.881 143.789C189.234 145.612 193.417 146.5 197.052 146.5C205.933 146.5 212.524 140.869 212.524 132.889V102.13ZM248.082 118.972H248.534L248.579 118.522C248.644 117.876 248.644 117.295 248.644 116.68V116.67C248.644 112.062 247.207 108.115 244.695 105.314C242.18 102.509 238.611 100.884 234.42 100.884C229.953 100.884 226.122 102.567 223.41 105.47C220.701 108.37 219.135 112.459 219.135 117.23C219.135 122.01 220.817 126.103 223.71 129.001C226.604 131.899 230.681 133.575 235.418 133.575C238.876 133.575 242.82 132.619 246.87 130.602L247.302 130.387L247.102 129.947L245.542 126.529L245.321 126.044L244.851 126.296C241.668 128.004 238.567 128.785 235.917 128.785C232.855 128.785 230.269 127.725 228.396 125.919C226.631 124.216 225.476 121.826 225.171 118.972H248.082ZM254.825 132.329V132.829H255.325H260.253H260.753V132.329V115.987C260.753 113.037 261.614 110.596 263.059 108.901C264.498 107.212 266.542 106.234 268.987 106.234C270.124 106.234 271.334 106.413 272.503 106.658L273.027 106.768L273.1 106.238L273.662 102.199L273.725 101.748L273.282 101.643C271.944 101.326 270.532 101.133 269.361 101.133C265.432 101.133 262.105 102.971 260.251 106.075L259.815 102.075L259.766 101.63H259.318H255.325H254.825V102.13V132.329ZM125.116 128.971C121.379 128.971 118.754 126.633 118.754 123.692C118.754 121.807 119.561 120.314 121.065 119.272C122.59 118.216 124.864 117.605 127.799 117.605C129.691 117.605 131.587 117.82 133.537 118.25V120.399C133.537 122.953 132.659 125.091 131.185 126.588C129.712 128.085 127.614 128.971 125.116 128.971ZM198.174 128.536C195.457 128.536 193.148 127.393 191.51 125.423C189.866 123.447 188.88 120.615 188.88 117.23C188.88 110.516 192.795 105.923 198.174 105.923C200.665 105.923 202.761 106.851 204.237 108.408C205.715 109.967 206.595 112.185 206.595 114.806V119.653C206.595 122.306 205.714 124.523 204.238 126.074C202.763 127.622 200.667 128.536 198.174 128.536ZM242.816 114.803H225.178C225.498 112.098 226.52 109.873 228.034 108.302C229.645 106.632 231.838 105.675 234.42 105.675C239.05 105.675 242.45 109.316 242.816 114.803Z" fill="#00C4D9" stroke="#0076CF"/>
<path d="M73.3165 91.4402L73.5714 91.034L73.1762 90.7624C68.6699 87.6646 63.6439 86.0761 58.7319 86.0761C52.4923 86.0761 47.1956 88.3462 43.4603 92.2665C39.7268 96.1849 37.583 101.72 37.583 108.201C37.583 114.681 39.7268 120.216 43.4603 124.135C47.1956 128.055 52.4923 130.325 58.7319 130.325C63.6439 130.325 68.6699 128.737 73.1762 125.639L73.5714 125.367L73.3165 124.961L71.1331 121.481L70.8514 121.032L70.4197 121.34C66.9984 123.774 63.1677 125.1 59.4181 125.1C54.7759 125.1 50.9045 123.38 48.1906 120.43C45.4735 117.476 43.8856 113.253 43.8856 108.201C43.8856 103.148 45.4735 98.9253 48.1906 95.9714C50.9045 93.021 54.7759 91.3016 59.4181 91.3016C63.1677 91.3016 66.9984 92.6274 70.4197 95.0616L70.8514 95.3688L71.1331 94.92L73.3165 91.4402ZM79.7844 129.079V129.579H80.2844H85.2127H85.7127V129.079V112.053C85.7127 106.528 89.441 102.797 94.3831 102.797C96.605 102.797 98.4714 103.563 99.7803 104.845C101.088 106.126 101.868 107.952 101.868 110.127V129.079V129.579H102.368H107.359H107.859V129.079V109.381C107.859 105.932 106.61 102.987 104.463 100.905C102.317 98.8247 99.3022 97.634 95.8179 97.634C91.6577 97.634 88.0095 99.3915 85.7127 102.457V85.3333V84.8333H85.2127H80.2844H79.7844V85.3333V129.079ZM134.62 108.511V110.978C132.425 110.459 130.293 110.248 128.32 110.248C123.954 110.248 120.376 111.177 117.876 112.967C115.355 114.772 113.971 117.427 113.971 120.753C113.971 126.254 118.822 130.325 125.014 130.325C128.966 130.325 132.714 128.715 135.264 125.919C135.581 127.102 136.176 128.101 137.028 128.849C138.125 129.813 139.606 130.325 141.358 130.325C142.516 130.325 143.67 130.197 144.694 130.006L145.146 129.922L145.1 129.464L144.725 125.736L144.672 125.205L144.146 125.293C143.758 125.357 143.055 125.472 142.606 125.472C141.834 125.472 141.288 125.241 140.934 124.883C140.58 124.524 140.361 123.978 140.361 123.238V108.636C140.361 105.364 139.122 102.601 136.967 100.66C134.818 98.7227 131.791 97.634 128.258 97.634C124.317 97.634 120.388 98.4578 116.102 100.09L115.635 100.268L115.813 100.735L117.185 104.339L117.37 104.826L117.849 104.621C121.292 103.151 124.532 102.425 127.696 102.425C129.809 102.425 131.539 103.076 132.736 104.146C133.928 105.213 134.62 106.722 134.62 108.511ZM149.661 129.079V129.579H150.161H155.089H155.589V129.079V112.053C155.589 106.528 159.318 102.797 164.26 102.797C166.482 102.797 168.348 103.563 169.657 104.845C170.965 106.126 171.745 107.952 171.745 110.127V129.079V129.579H172.245H177.236H177.736V129.079V109.381C177.736 105.932 176.487 102.987 174.34 100.905C172.194 98.8247 169.179 97.634 165.695 97.634C161.266 97.634 157.418 99.5286 155.109 102.886L154.651 98.8237L154.601 98.3797H154.154H150.161H149.661V98.8797V129.079ZM213.607 98.8797V98.3797H213.107H209.114H208.672L208.618 98.8182L208.161 102.506C205.823 99.3488 202.246 97.634 198.072 97.634C189.747 97.634 183.848 104.514 183.848 113.98C183.848 123.445 189.747 130.325 198.072 130.325C201.969 130.325 205.346 128.75 207.616 125.936V129.825C207.616 132.321 206.603 134.419 204.881 135.901C203.154 137.387 200.687 138.273 197.76 138.273C195.039 138.273 191.552 137.487 187.852 135.891L187.381 135.687L187.19 136.163L185.693 139.892L185.509 140.349L185.964 140.539C190.317 142.362 194.5 143.25 198.135 143.25C207.016 143.25 213.607 137.619 213.607 129.639V98.8797ZM249.165 115.722H249.617L249.662 115.272C249.727 114.626 249.727 114.045 249.727 113.43V113.42C249.727 108.812 248.29 104.865 245.778 102.064C243.263 99.2594 239.694 97.634 235.503 97.634C231.036 97.634 227.205 99.3174 224.493 102.22C221.784 105.12 220.218 109.209 220.218 113.98C220.218 118.76 221.9 122.853 224.793 125.751C227.687 128.649 231.764 130.325 236.501 130.325C239.959 130.325 243.903 129.369 247.953 127.352L248.385 127.137L248.185 126.697L246.625 123.279L246.404 122.794L245.934 123.046C242.751 124.754 239.65 125.535 237 125.535C233.938 125.535 231.352 124.475 229.479 122.669C227.714 120.966 226.559 118.576 226.254 115.722H249.165ZM255.908 129.079V129.579H256.408H261.336H261.836V129.079V112.737C261.836 109.787 262.697 107.346 264.142 105.651C265.581 103.962 267.625 102.984 270.07 102.984C271.207 102.984 272.417 103.163 273.586 103.408L274.11 103.518L274.183 102.988L274.745 98.9485L274.808 98.4981L274.365 98.3932C273.027 98.076 271.615 97.8826 270.444 97.8826C266.515 97.8826 263.188 99.7207 261.334 102.825L260.898 98.8255L260.849 98.3797H260.401H256.408H255.908V98.8797V129.079ZM126.199 125.721C122.462 125.721 119.837 123.383 119.837 120.442C119.837 118.557 120.644 117.064 122.148 116.022C123.673 114.966 125.947 114.355 128.882 114.355C130.775 114.355 132.67 114.57 134.62 115V117.149C134.62 119.703 133.742 121.841 132.268 123.338C130.795 124.835 128.697 125.721 126.199 125.721ZM199.257 125.286C196.54 125.286 194.231 124.143 192.593 122.173C190.949 120.197 189.963 117.365 189.963 113.98C189.963 107.266 193.878 102.673 199.257 102.673C201.748 102.673 203.844 103.601 205.32 105.158C206.798 106.717 207.678 108.935 207.678 111.556V116.403C207.678 119.056 206.797 121.273 205.321 122.824C203.846 124.372 201.75 125.286 199.257 125.286ZM243.899 111.553H226.261C226.581 108.848 227.603 106.623 229.117 105.052C230.728 103.382 232.921 102.425 235.503 102.425C240.133 102.425 243.533 106.066 243.899 111.553Z" fill="#DCF94D" stroke="#00C4D9"/>
<defs>
<filter id="filter0_i_2009_413" x="20.3936" y="20.9103" width="272.212" height="146.455" filterUnits="userSpaceOnUse" color-interpolation-filters="sRGB">
<feFlood flood-opacity="0" result="BackgroundImageFix"/>
<feBlend mode="normal" in="SourceGraphic" in2="BackgroundImageFix" result="shape"/>
<feColorMatrix in="SourceAlpha" type="matrix" values="0 0 0 0 0 0 0 0 0 0 0 0 0 0 0 0 0 0 127 0" result="hardAlpha"/>
<feOffset dx="1" dy="1"/>
<feGaussianBlur stdDeviation="5"/>
<feComposite in2="hardAlpha" operator="arithmetic" k2="-1" k3="1"/>
<feColorMatrix type="matrix" values="0 0 0 0 0 0 0 0 0 0.180773 0 0 0 0 0.359167 0 0 0 0.5 0"/>
<feBlend mode="normal" in2="shape" result="effect1_innerShadow_2009_413"/>
</filter>
<filter id="filter1_dd_2009_413" x="49" y="0" width="27" height="27" filterUnits="userSpaceOnUse" color-interpolation-filters="sRGB">
<feFlood flood-opacity="0" result="BackgroundImageFix"/>
<feColorMatrix in="SourceAlpha" type="matrix" values="0 0 0 0 0 0 0 0 0 0 0 0 0 0 0 0 0 0 127 0" result="hardAlpha"/>
<feOffset/>
<feGaussianBlur stdDeviation="5"/>
<feComposite in2="hardAlpha" operator="out"/>
<feColorMatrix type="matrix" values="0 0 0 0 0.964706 0 0 0 0 1 0 0 0 0 0.8 0 0 0 1 0"/>
<feBlend mode="normal" in2="BackgroundImageFix" result="effect1_dropShadow_2009_413"/>
<feColorMatrix in="SourceAlpha" type="matrix" values="0 0 0 0 0 0 0 0 0 0 0 0 0 0 0 0 0 0 127 0" result="hardAlpha"/>
<feOffset/>
<feGaussianBlur stdDeviation="1.5"/>
<feComposite in2="hardAlpha" operator="out"/>
<feColorMatrix type="matrix" values="0 0 0 0 0.964706 0 0 0 0 1 0 0 0 0 0.8 0 0 0 1 0"/>
<feBlend mode="normal" in2="effect1_dropShadow_2009_413" result="effect2_dropShadow_2009_413"/>
<feBlend mode="normal" in="SourceGraphic" in2="effect2_dropShadow_2009_413" result="shape"/>
</filter>
<filter id="filter2_dd_2009_413" x="95.75" y="0" width="27" height="27" filterUnits="userSpaceOnUse" color-interpolation-filters="sRGB">
<feFlood flood-opacity="0" result="BackgroundImageFix"/>
<feColorMatrix in="SourceAlpha" type="matrix" values="0 0 0 0 0 0 0 0 0 0 0 0 0 0 0 0 0 0 127 0" result="hardAlpha"/>
<feOffset/>
<feGaussianBlur stdDeviation="5"/>
<feComposite in2="hardAlpha" operator="out"/>
<feColorMatrix type="matrix" values="0 0 0 0 0.964706 0 0 0 0 1 0 0 0 0 0.8 0 0 0 1 0"/>
<feBlend mode="normal" in2="BackgroundImageFix" result="effect1_dropShadow_2009_413"/>
<feColorMatrix in="SourceAlpha" type="matrix" values="0 0 0 0 0 0 0 0 0 0 0 0 0 0 0 0 0 0 127 0" result="hardAlpha"/>
<feOffset/>
<feGaussianBlur stdDeviation="1.5"/>
<feComposite in2="hardAlpha" operator="out"/>
<feColorMatrix type="matrix" values="0 0 0 0 0.964706 0 0 0 0 1 0 0 0 0 0.8 0 0 0 1 0"/>
<feBlend mode="normal" in2="effect1_dropShadow_2009_413" result="effect2_dropShadow_2009_413"/>
<feBlend mode="normal" in="SourceGraphic" in2="effect2_dropShadow_2009_413" result="shape"/>
</filter>
<filter id="filter3_dd_2009_413" x="142.5" y="0" width="27" height="27" filterUnits="userSpaceOnUse" color-interpolation-filters="sRGB">
<feFlood flood-opacity="0" result="BackgroundImageFix"/>
<feColorMatrix in="SourceAlpha" type="matrix" values="0 0 0 0 0 0 0 0 0 0 0 0 0 0 0 0 0 0 127 0" result="hardAlpha"/>
<feOffset/>
<feGaussianBlur stdDeviation="5"/>
<feComposite in2="hardAlpha" operator="out"/>
<feColorMatrix type="matrix" values="0 0 0 0 0.964706 0 0 0 0 1 0 0 0 0 0.8 0 0 0 1 0"/>
<feBlend mode="normal" in2="BackgroundImageFix" result="effect1_dropShadow_2009_413"/>
<feColorMatrix in="SourceAlpha" type="matrix" values="0 0 0 0 0 0 0 0 0 0 0 0 0 0 0 0 0 0 127 0" result="hardAlpha"/>
<feOffset/>
<feGaussianBlur stdDeviation="1.5"/>
<feComposite in2="hardAlpha" operator="out"/>
<feColorMatrix type="matrix" values="0 0 0 0 0.964706 0 0 0 0 1 0 0 0 0 0.8 0 0 0 1 0"/>
<feBlend mode="normal" in2="effect1_dropShadow_2009_413" result="effect2_dropShadow_2009_413"/>
<feBlend mode="normal" in="SourceGraphic" in2="effect2_dropShadow_2009_413" result="shape"/>
</filter>
<filter id="filter4_dd_2009_413" x="189.25" y="0" width="27" height="27" filterUnits="userSpaceOnUse" color-interpolation-filters="sRGB">
<feFlood flood-opacity="0" result="BackgroundImageFix"/>
<feColorMatrix in="SourceAlpha" type="matrix" values="0 0 0 0 0 0 0 0 0 0 0 0 0 0 0 0 0 0 127 0" result="hardAlpha"/>
<feOffset/>
<feGaussianBlur stdDeviation="5"/>
<feComposite in2="hardAlpha" operator="out"/>
<feColorMatrix type="matrix" values="0 0 0 0 0.964706 0 0 0 0 1 0 0 0 0 0.8 0 0 0 1 0"/>
<feBlend mode="normal" in2="BackgroundImageFix" result="effect1_dropShadow_2009_413"/>
<feColorMatrix in="SourceAlpha" type="matrix" values="0 0 0 0 0 0 0 0 0 0 0 0 0 0 0 0 0 0 127 0" result="hardAlpha"/>
<feOffset/>
<feGaussianBlur stdDeviation="1.5"/>
<feComposite in2="hardAlpha" operator="out"/>
<feColorMatrix type="matrix" values="0 0 0 0 0.964706 0 0 0 0 1 0 0 0 0 0.8 0 0 0 1 0"/>
<feBlend mode="normal" in2="effect1_dropShadow_2009_413" result="effect2_dropShadow_2009_413"/>
<feBlend mode="normal" in="SourceGraphic" in2="effect2_dropShadow_2009_413" result="shape"/>
</filter>
<filter id="filter5_dd_2009_413" x="236" y="0" width="27" height="27" filterUnits="userSpaceOnUse" color-interpolation-filters="sRGB">
<feFlood flood-opacity="0" result="BackgroundImageFix"/>
<feColorMatrix in="SourceAlpha" type="matrix" values="0 0 0 0 0 0 0 0 0 0 0 0 0 0 0 0 0 0 127 0" result="hardAlpha"/>
<feOffset/>
<feGaussianBlur stdDeviation="5"/>
<feComposite in2="hardAlpha" operator="out"/>
<feColorMatrix type="matrix" values="0 0 0 0 0.964706 0 0 0 0 1 0 0 0 0 0.8 0 0 0 1 0"/>
<feBlend mode="normal" in2="BackgroundImageFix" result="effect1_dropShadow_2009_413"/>
<feColorMatrix in="SourceAlpha" type="matrix" values="0 0 0 0 0 0 0 0 0 0 0 0 0 0 0 0 0 0 127 0" result="hardAlpha"/>
<feOffset/>
<feGaussianBlur stdDeviation="1.5"/>
<feComposite in2="hardAlpha" operator="out"/>
<feColorMatrix type="matrix" values="0 0 0 0 0.964706 0 0 0 0 1 0 0 0 0 0.8 0 0 0 1 0"/>
<feBlend mode="normal" in2="effect1_dropShadow_2009_413" result="effect2_dropShadow_2009_413"/>
<feBlend mode="normal" in="SourceGraphic" in2="effect2_dropShadow_2009_413" result="shape"/>
</filter>
<filter id="filter6_dd_2009_413" x="49" y="160" width="27" height="27" filterUnits="userSpaceOnUse" color-interpolation-filters="sRGB">
<feFlood flood-opacity="0" result="BackgroundImageFix"/>
<feColorMatrix in="SourceAlpha" type="matrix" values="0 0 0 0 0 0 0 0 0 0 0 0 0 0 0 0 0 0 127 0" result="hardAlpha"/>
<feOffset/>
<feGaussianBlur stdDeviation="5"/>
<feComposite in2="hardAlpha" operator="out"/>
<feColorMatrix type="matrix" values="0 0 0 0 0.964706 0 0 0 0 1 0 0 0 0 0.8 0 0 0 1 0"/>
<feBlend mode="normal" in2="BackgroundImageFix" result="effect1_dropShadow_2009_413"/>
<feColorMatrix in="SourceAlpha" type="matrix" values="0 0 0 0 0 0 0 0 0 0 0 0 0 0 0 0 0 0 127 0" result="hardAlpha"/>
<feOffset/>
<feGaussianBlur stdDeviation="1.5"/>
<feComposite in2="hardAlpha" operator="out"/>
<feColorMatrix type="matrix" values="0 0 0 0 0.964706 0 0 0 0 1 0 0 0 0 0.8 0 0 0 1 0"/>
<feBlend mode="normal" in2="effect1_dropShadow_2009_413" result="effect2_dropShadow_2009_413"/>
<feBlend mode="normal" in="SourceGraphic" in2="effect2_dropShadow_2009_413" result="shape"/>
</filter>
<filter id="filter7_dd_2009_413" x="95.75" y="160" width="27" height="27" filterUnits="userSpaceOnUse" color-interpolation-filters="sRGB">
<feFlood flood-opacity="0" result="BackgroundImageFix"/>
<feColorMatrix in="SourceAlpha" type="matrix" values="0 0 0 0 0 0 0 0 0 0 0 0 0 0 0 0 0 0 127 0" result="hardAlpha"/>
<feOffset/>
<feGaussianBlur stdDeviation="5"/>
<feComposite in2="hardAlpha" operator="out"/>
<feColorMatrix type="matrix" values="0 0 0 0 0.964706 0 0 0 0 1 0 0 0 0 0.8 0 0 0 1 0"/>
<feBlend mode="normal" in2="BackgroundImageFix" result="effect1_dropShadow_2009_413"/>
<feColorMatrix in="SourceAlpha" type="matrix" values="0 0 0 0 0 0 0 0 0 0 0 0 0 0 0 0 0 0 127 0" result="hardAlpha"/>
<feOffset/>
<feGaussianBlur stdDeviation="1.5"/>
<feComposite in2="hardAlpha" operator="out"/>
<feColorMatrix type="matrix" values="0 0 0 0 0.964706 0 0 0 0 1 0 0 0 0 0.8 0 0 0 1 0"/>
<feBlend mode="normal" in2="effect1_dropShadow_2009_413" result="effect2_dropShadow_2009_413"/>
<feBlend mode="normal" in="SourceGraphic" in2="effect2_dropShadow_2009_413" result="shape"/>
</filter>
<filter id="filter8_dd_2009_413" x="142.5" y="160" width="27" height="27" filterUnits="userSpaceOnUse" color-interpolation-filters="sRGB">
<feFlood flood-opacity="0" result="BackgroundImageFix"/>
<feColorMatrix in="SourceAlpha" type="matrix" values="0 0 0 0 0 0 0 0 0 0 0 0 0 0 0 0 0 0 127 0" result="hardAlpha"/>
<feOffset/>
<feGaussianBlur stdDeviation="5"/>
<feComposite in2="hardAlpha" operator="out"/>
<feColorMatrix type="matrix" values="0 0 0 0 0.964706 0 0 0 0 1 0 0 0 0 0.8 0 0 0 1 0"/>
<feBlend mode="normal" in2="BackgroundImageFix" result="effect1_dropShadow_2009_413"/>
<feColorMatrix in="SourceAlpha" type="matrix" values="0 0 0 0 0 0 0 0 0 0 0 0 0 0 0 0 0 0 127 0" result="hardAlpha"/>
<feOffset/>
<feGaussianBlur stdDeviation="1.5"/>
<feComposite in2="hardAlpha" operator="out"/>
<feColorMatrix type="matrix" values="0 0 0 0 0.964706 0 0 0 0 1 0 0 0 0 0.8 0 0 0 1 0"/>
<feBlend mode="normal" in2="effect1_dropShadow_2009_413" result="effect2_dropShadow_2009_413"/>
<feBlend mode="normal" in="SourceGraphic" in2="effect2_dropShadow_2009_413" result="shape"/>
</filter>
<filter id="filter9_dd_2009_413" x="189.25" y="160" width="27" height="27" filterUnits="userSpaceOnUse" color-interpolation-filters="sRGB">
<feFlood flood-opacity="0" result="BackgroundImageFix"/>
<feColorMatrix in="SourceAlpha" type="matrix" values="0 0 0 0 0 0 0 0 0 0 0 0 0 0 0 0 0 0 127 0" result="hardAlpha"/>
<feOffset/>
<feGaussianBlur stdDeviation="5"/>
<feComposite in2="hardAlpha" operator="out"/>
<feColorMatrix type="matrix" values="0 0 0 0 0.964706 0 0 0 0 1 0 0 0 0 0.8 0 0 0 1 0"/>
<feBlend mode="normal" in2="BackgroundImageFix" result="effect1_dropShadow_2009_413"/>
<feColorMatrix in="SourceAlpha" type="matrix" values="0 0 0 0 0 0 0 0 0 0 0 0 0 0 0 0 0 0 127 0" result="hardAlpha"/>
<feOffset/>
<feGaussianBlur stdDeviation="1.5"/>
<feComposite in2="hardAlpha" operator="out"/>
<feColorMatrix type="matrix" values="0 0 0 0 0.964706 0 0 0 0 1 0 0 0 0 0.8 0 0 0 1 0"/>
<feBlend mode="normal" in2="effect1_dropShadow_2009_413" result="effect2_dropShadow_2009_413"/>
<feBlend mode="normal" in="SourceGraphic" in2="effect2_dropShadow_2009_413" result="shape"/>
</filter>
<filter id="filter10_dd_2009_413" x="236" y="160" width="27" height="27" filterUnits="userSpaceOnUse" color-interpolation-filters="sRGB">
<feFlood flood-opacity="0" result="BackgroundImageFix"/>
<feColorMatrix in="SourceAlpha" type="matrix" values="0 0 0 0 0 0 0 0 0 0 0 0 0 0 0 0 0 0 127 0" result="hardAlpha"/>
<feOffset/>
<feGaussianBlur stdDeviation="5"/>
<feComposite in2="hardAlpha" operator="out"/>
<feColorMatrix type="matrix" values="0 0 0 0 0.964706 0 0 0 0 1 0 0 0 0 0.8 0 0 0 1 0"/>
<feBlend mode="normal" in2="BackgroundImageFix" result="effect1_dropShadow_2009_413"/>
<feColorMatrix in="SourceAlpha" type="matrix" values="0 0 0 0 0 0 0 0 0 0 0 0 0 0 0 0 0 0 127 0" result="hardAlpha"/>
<feOffset/>
<feGaussianBlur stdDeviation="1.5"/>
<feComposite in2="hardAlpha" operator="out"/>
<feColorMatrix type="matrix" values="0 0 0 0 0.964706 0 0 0 0 1 0 0 0 0 0.8 0 0 0 1 0"/>
<feBlend mode="normal" in2="effect1_dropShadow_2009_413" result="effect2_dropShadow_2009_413"/>
<feBlend mode="normal" in="SourceGraphic" in2="effect2_dropShadow_2009_413" result="shape"/>
</filter>
<filter id="filter11_dd_2009_413" x="285.303" y="132.182" width="27" height="27" filterUnits="userSpaceOnUse" color-interpolation-filters="sRGB">
<feFlood flood-opacity="0" result="BackgroundImageFix"/>
<feColorMatrix in="SourceAlpha" type="matrix" values="0 0 0 0 0 0 0 0 0 0 0 0 0 0 0 0 0 0 127 0" result="hardAlpha"/>
<feOffset/>
<feGaussianBlur stdDeviation="5"/>
<feComposite in2="hardAlpha" operator="out"/>
<feColorMatrix type="matrix" values="0 0 0 0 0.964706 0 0 0 0 1 0 0 0 0 0.8 0 0 0 1 0"/>
<feBlend mode="normal" in2="BackgroundImageFix" result="effect1_dropShadow_2009_413"/>
<feColorMatrix in="SourceAlpha" type="matrix" values="0 0 0 0 0 0 0 0 0 0 0 0 0 0 0 0 0 0 127 0" result="hardAlpha"/>
<feOffset/>
<feGaussianBlur stdDeviation="1.5"/>
<feComposite in2="hardAlpha" operator="out"/>
<feColorMatrix type="matrix" values="0 0 0 0 0.964706 0 0 0 0 1 0 0 0 0 0.8 0 0 0 1 0"/>
<feBlend mode="normal" in2="effect1_dropShadow_2009_413" result="effect2_dropShadow_2009_413"/>
<feBlend mode="normal" in="SourceGraphic" in2="effect2_dropShadow_2009_413" result="shape"/>
</filter>
<filter id="filter12_dd_2009_413" x="285.303" y="80.3788" width="27" height="27" filterUnits="userSpaceOnUse" color-interpolation-filters="sRGB">
<feFlood flood-opacity="0" result="BackgroundImageFix"/>
<feColorMatrix in="SourceAlpha" type="matrix" values="0 0 0 0 0 0 0 0 0 0 0 0 0 0 0 0 0 0 127 0" result="hardAlpha"/>
<feOffset/>
<feGaussianBlur stdDeviation="5"/>
<feComposite in2="hardAlpha" operator="out"/>
<feColorMatrix type="matrix" values="0 0 0 0 0.964706 0 0 0 0 1 0 0 0 0 0.8 0 0 0 1 0"/>
<feBlend mode="normal" in2="BackgroundImageFix" result="effect1_dropShadow_2009_413"/>
<feColorMatrix in="SourceAlpha" type="matrix" values="0 0 0 0 0 0 0 0 0 0 0 0 0 0 0 0 0 0 127 0" result="hardAlpha"/>
<feOffset/>
<feGaussianBlur stdDeviation="1.5"/>
<feComposite in2="hardAlpha" operator="out"/>
<feColorMatrix type="matrix" values="0 0 0 0 0.964706 0 0 0 0 1 0 0 0 0 0.8 0 0 0 1 0"/>
<feBlend mode="normal" in2="effect1_dropShadow_2009_413" result="effect2_dropShadow_2009_413"/>
<feBlend mode="normal" in="SourceGraphic" in2="effect2_dropShadow_2009_413" result="shape"/>
</filter>
<filter id="filter13_dd_2009_413" x="285.303" y="28.5757" width="27" height="27" filterUnits="userSpaceOnUse" color-interpolation-filters="sRGB">
<feFlood flood-opacity="0" result="BackgroundImageFix"/>
<feColorMatrix in="SourceAlpha" type="matrix" values="0 0 0 0 0 0 0 0 0 0 0 0 0 0 0 0 0 0 127 0" result="hardAlpha"/>
<feOffset/>
<feGaussianBlur stdDeviation="5"/>
<feComposite in2="hardAlpha" operator="out"/>
<feColorMatrix type="matrix" values="0 0 0 0 0.964706 0 0 0 0 1 0 0 0 0 0.8 0 0 0 1 0"/>
<feBlend mode="normal" in2="BackgroundImageFix" result="effect1_dropShadow_2009_413"/>
<feColorMatrix in="SourceAlpha" type="matrix" values="0 0 0 0 0 0 0 0 0 0 0 0 0 0 0 0 0 0 127 0" result="hardAlpha"/>
<feOffset/>
<feGaussianBlur stdDeviation="1.5"/>
<feComposite in2="hardAlpha" operator="out"/>
<feColorMatrix type="matrix" values="0 0 0 0 0.964706 0 0 0 0 1 0 0 0 0 0.8 0 0 0 1 0"/>
<feBlend mode="normal" in2="effect1_dropShadow_2009_413" result="effect2_dropShadow_2009_413"/>
<feBlend mode="normal" in="SourceGraphic" in2="effect2_dropShadow_2009_413" result="shape"/>
</filter>
<filter id="filter14_dd_2009_413" x="0" y="132.182" width="27" height="27" filterUnits="userSpaceOnUse" color-interpolation-filters="sRGB">
<feFlood flood-opacity="0" result="BackgroundImageFix"/>
<feColorMatrix in="SourceAlpha" type="matrix" values="0 0 0 0 0 0 0 0 0 0 0 0 0 0 0 0 0 0 127 0" result="hardAlpha"/>
<feOffset/>
<feGaussianBlur stdDeviation="5"/>
<feComposite in2="hardAlpha" operator="out"/>
<feColorMatrix type="matrix" values="0 0 0 0 0.964706 0 0 0 0 1 0 0 0 0 0.8 0 0 0 1 0"/>
<feBlend mode="normal" in2="BackgroundImageFix" result="effect1_dropShadow_2009_413"/>
<feColorMatrix in="SourceAlpha" type="matrix" values="0 0 0 0 0 0 0 0 0 0 0 0 0 0 0 0 0 0 127 0" result="hardAlpha"/>
<feOffset/>
<feGaussianBlur stdDeviation="1.5"/>
<feComposite in2="hardAlpha" operator="out"/>
<feColorMatrix type="matrix" values="0 0 0 0 0.964706 0 0 0 0 1 0 0 0 0 0.8 0 0 0 1 0"/>
<feBlend mode="normal" in2="effect1_dropShadow_2009_413" result="effect2_dropShadow_2009_413"/>
<feBlend mode="normal" in="SourceGraphic" in2="effect2_dropShadow_2009_413" result="shape"/>
</filter>
<filter id="filter15_dd_2009_413" x="0" y="80.3788" width="27" height="27" filterUnits="userSpaceOnUse" color-interpolation-filters="sRGB">
<feFlood flood-opacity="0" result="BackgroundImageFix"/>
<feColorMatrix in="SourceAlpha" type="matrix" values="0 0 0 0 0 0 0 0 0 0 0 0 0 0 0 0 0 0 127 0" result="hardAlpha"/>
<feOffset/>
<feGaussianBlur stdDeviation="5"/>
<feComposite in2="hardAlpha" operator="out"/>
<feColorMatrix type="matrix" values="0 0 0 0 0.964706 0 0 0 0 1 0 0 0 0 0.8 0 0 0 1 0"/>
<feBlend mode="normal" in2="BackgroundImageFix" result="effect1_dropShadow_2009_413"/>
<feColorMatrix in="SourceAlpha" type="matrix" values="0 0 0 0 0 0 0 0 0 0 0 0 0 0 0 0 0 0 127 0" result="hardAlpha"/>
<feOffset/>
<feGaussianBlur stdDeviation="1.5"/>
<feComposite in2="hardAlpha" operator="out"/>
<feColorMatrix type="matrix" values="0 0 0 0 0.964706 0 0 0 0 1 0 0 0 0 0.8 0 0 0 1 0"/>
<feBlend mode="normal" in2="effect1_dropShadow_2009_413" result="effect2_dropShadow_2009_413"/>
<feBlend mode="normal" in="SourceGraphic" in2="effect2_dropShadow_2009_413" result="shape"/>
</filter>
<filter id="filter16_dd_2009_413" x="0" y="28.5757" width="27" height="27" filterUnits="userSpaceOnUse" color-interpolation-filters="sRGB">
<feFlood flood-opacity="0" result="BackgroundImageFix"/>
<feColorMatrix in="SourceAlpha" type="matrix" values="0 0 0 0 0 0 0 0 0 0 0 0 0 0 0 0 0 0 127 0" result="hardAlpha"/>
<feOffset/>
<feGaussianBlur stdDeviation="5"/>
<feComposite in2="hardAlpha" operator="out"/>
<feColorMatrix type="matrix" values="0 0 0 0 0.964706 0 0 0 0 1 0 0 0 0 0.8 0 0 0 1 0"/>
<feBlend mode="normal" in2="BackgroundImageFix" result="effect1_dropShadow_2009_413"/>
<feColorMatrix in="SourceAlpha" type="matrix" values="0 0 0 0 0 0 0 0 0 0 0 0 0 0 0 0 0 0 127 0" result="hardAlpha"/>
<feOffset/>
<feGaussianBlur stdDeviation="1.5"/>
<feComposite in2="hardAlpha" operator="out"/>
<feColorMatrix type="matrix" values="0 0 0 0 0.964706 0 0 0 0 1 0 0 0 0 0.8 0 0 0 1 0"/>
<feBlend mode="normal" in2="effect1_dropShadow_2009_413" result="effect2_dropShadow_2009_413"/>
<feBlend mode="normal" in="SourceGraphic" in2="effect2_dropShadow_2009_413" result="shape"/>
</filter>
<linearGradient id="paint0_linear_2009_413" x1="6.00001" y1="122.28" x2="102.489" y2="-49.5272" gradientUnits="userSpaceOnUse">
<stop offset="0.25" stop-color="#004C97"/>
<stop offset="1" stop-color="#0076CF"/>
</linearGradient>
<linearGradient id="paint1_linear_2009_413" x1="6.00001" y1="122.28" x2="102.489" y2="-49.5272" gradientUnits="userSpaceOnUse">
<stop offset="0.25" stop-color="#003865"/>
<stop offset="1" stop-color="#004C97"/>
</linearGradient>
</defs>
</svg>
