<svg width="437" height="139" viewBox="0 0 437 139" fill="none" xmlns="http://www.w3.org/2000/svg">
<path d="M90.3646 56.8482L90.4686 56.261H89.8723H73.7355H73.3148L73.2428 56.6755L72.2115 62.6206L72.11 63.2061H72.7042H80.7824L79.1771 72.2292C77.2953 72.9374 75.2017 73.3684 72.9469 73.3684C69.4112 73.3684 66.4923 72.2648 64.4619 70.364C62.4346 68.4661 61.2533 65.7369 61.2533 62.4028C61.2533 57.1649 62.8598 52.6767 65.6124 49.5057C68.3603 46.3401 72.2715 44.4607 76.9507 44.4607C80.4755 44.4607 84.2732 45.756 87.872 47.7354L88.2893 47.9649L88.5388 47.5593L91.9361 42.0389L92.2097 41.5941L91.7535 41.34C86.8934 38.6331 81.8965 37.2729 76.7687 37.2729C62.5085 37.2729 52.3062 48.388 52.3062 63.2521C52.3062 68.4169 54.2081 72.7432 57.6072 75.7734C61.0009 78.7987 65.8449 80.4955 71.6729 80.4955C76.7776 80.4955 81.7583 79.4497 86.49 77.4219L86.7383 77.3155L86.7854 77.0495L90.3646 56.8482ZM94.1278 79.1811L94.0248 79.7675H94.6202H122.89H123.308L123.382 79.3561L124.474 73.2897L124.58 72.7011H123.982H104.375L106.264 61.8715H123.133H123.553L123.625 61.4569L124.657 55.5118L124.758 54.9263H124.164H107.472L109.234 45.0674H128.046H128.469L128.539 44.6512L129.571 38.5847L129.67 38.0009H129.078H101.779H101.359L101.286 38.4144L94.1278 79.1811ZM139.004 79.1811L138.902 79.7675H139.497H147.565H147.985L148.058 79.3539L154.052 45.1887H166.311H166.73L166.803 44.7756L167.895 38.5878L167.999 38.0009H167.403H134.037H133.622L133.546 38.4094L132.393 44.5971L132.283 45.1887H132.884H144.968L139.004 79.1811ZM84.4545 89.3332L84.6503 88.8778L84.1967 88.6781C79.0411 86.4071 73.6342 85.2991 68.8897 85.2991C59.9101 85.2991 53.2842 90.7162 53.2842 98.2353C53.2842 101.535 54.5143 103.864 56.3615 105.597C58.1868 107.31 60.5994 108.426 62.9411 109.361C63.5433 109.602 64.1382 109.83 64.7187 110.052C66.4327 110.708 68.0208 111.316 69.2975 112.061C70.984 113.045 71.9689 114.178 71.9689 115.828C71.9689 117.391 71.2765 118.702 70.0239 119.636C68.7598 120.579 66.9022 121.152 64.5825 121.152C61.0345 121.152 56.3168 120.024 51.6373 117.744L51.1717 117.518L50.9614 117.991L48.2921 123.997L48.0981 124.433L48.5254 124.647C53.8166 127.293 59.839 128.522 64.8858 128.522C69.4973 128.522 73.4538 127.206 76.2674 124.889C79.0882 122.566 80.7339 119.255 80.7339 115.343C80.7339 111.957 79.5078 109.568 77.6605 107.797C75.8342 106.046 73.4202 104.917 71.0757 103.989C70.3996 103.721 69.7332 103.471 69.0862 103.228C67.4512 102.614 65.9405 102.047 64.7132 101.359C63.0216 100.411 62.0493 99.3299 62.0493 97.75C62.0493 96.287 62.7337 95.0353 63.9609 94.134C65.1976 93.2256 66.9973 92.6689 69.193 92.6689C72.4388 92.6689 76.6757 93.6756 81.1852 95.6598L81.6467 95.8628L81.8459 95.3996L84.4545 89.3332ZM85.4487 127.207L85.3457 127.794H85.9412H114.211H114.629L114.703 127.382L115.795 121.316L115.901 120.727H115.303H95.6962L97.5845 109.898H114.454H114.874L114.946 109.483L115.977 103.538L116.079 102.952H115.485H98.7927L100.555 93.0935H119.367H119.79L119.86 92.6773L120.892 86.6109L120.991 86.0271H120.399H93.0996H92.6797L92.6071 86.4406L85.4487 127.207ZM130.325 127.207L130.222 127.794H130.818H138.886H139.306L139.379 127.38L145.373 93.2149H157.632H158.051L158.124 92.8017L159.216 86.614L159.319 86.0271H158.724H125.358H124.943L124.866 86.4355L123.714 92.6233L123.604 93.2149H124.205H136.289L130.325 127.207ZM150.241 137.275L150.49 137.653L150.89 137.443C157.243 134.112 161.168 128.692 161.168 123.229C161.168 121.631 160.752 120.261 159.928 119.282C159.094 118.293 157.886 117.755 156.421 117.755C152.99 117.755 150.401 120.344 150.401 123.775C150.401 125.004 150.785 126.042 151.49 126.8C152.053 127.405 152.797 127.807 153.652 127.994C152.713 130.046 150.948 131.856 148.381 133.549L147.963 133.825L148.239 134.242L150.241 137.275Z" fill="#00C4D9" stroke="#0076CF"/>
<path d="M93.664 54.2336L90.0848 74.4349C85.4136 76.4369 80.4998 77.4682 75.4646 77.4682C63.999 77.4682 56.598 70.7951 56.598 60.7247C56.598 46.1046 66.6076 35.2456 80.5605 35.2456C85.5956 35.2456 90.5095 36.5802 95.302 39.2495L91.9047 44.7699C88.2649 42.768 84.3823 41.4334 80.7425 41.4334C71.0968 41.4334 64.545 49.1985 64.545 59.8754C64.545 66.7912 69.4588 71.341 76.7386 71.341C79.1652 71.341 81.4098 70.8557 83.4117 70.0671L85.171 60.1788H76.4959L77.5272 54.2336H93.664Z" fill="white"/>
<path d="M98.412 76.7402L105.57 35.9736H132.869L131.838 42.04H112.607L110.666 52.899H127.956L126.924 58.8441H109.635L107.572 70.6737H127.774L126.682 76.7402H98.412Z" fill="white"/>
<path d="M143.289 76.7402L149.355 42.1614H136.676L137.829 35.9736H171.194L170.102 42.1614H157.423L151.357 76.7402H143.289Z" fill="white"/>
<path d="M57.5759 95.708C57.5759 88.5496 63.885 83.2717 72.6814 83.2717C77.3526 83.2717 82.6911 84.3637 87.7869 86.6083L85.1783 92.6748C80.6285 90.6728 76.3213 89.6415 72.9847 89.6415C68.4349 89.6415 65.341 91.9468 65.341 95.2227C65.341 102.624 84.0257 99.8332 84.0257 112.815C84.0257 120.338 77.7166 125.494 68.6776 125.494C63.7031 125.494 57.7579 124.281 52.5408 121.672L55.21 115.667C59.9419 117.972 64.7344 119.125 68.3742 119.125C73.1667 119.125 76.2606 116.759 76.2606 113.301C76.2606 105.657 57.5759 108.326 57.5759 95.708Z" fill="white"/>
<path d="M89.7329 124.766L96.8913 83.9997H124.19L123.159 90.0662H103.928L101.987 100.925H119.277L118.245 106.87H100.956L98.8933 118.7H119.095L118.003 124.766H89.7329Z" fill="white"/>
<path d="M134.61 124.766L140.676 90.1875H127.997L129.15 83.9997H162.515L161.423 90.1875H148.744L142.678 124.766H134.61Z" fill="white"/>
<path d="M154.692 121.248C154.692 118.093 157.058 115.727 160.213 115.727C162.882 115.727 164.459 117.669 164.459 120.702C164.459 125.919 160.698 131.197 154.45 134.473L152.448 131.439C155.299 129.559 157.24 127.496 158.15 125.07C156.088 124.888 154.692 123.492 154.692 121.248Z" fill="white"/>
<path d="M257.038 73.9214L257.143 73.3333H256.546H219.389H218.968L218.896 73.7481L215.989 90.5573L215.888 91.1425H216.482H231.682L229.062 105.671C226.265 106.498 223.13 107.078 219.768 107.078C213.298 107.078 207.896 105.088 204.118 101.632C200.343 98.1802 198.15 93.2312 198.15 87.2301C198.15 77.8577 201.149 69.8626 206.267 64.2164C211.383 58.5738 218.64 55.2493 227.224 55.2493C234.315 55.2493 242.066 57.8651 249.1 61.7587L249.517 61.9899L249.767 61.5835L259.499 45.7854L259.778 45.3332L259.309 45.0824C248.626 39.3593 237.803 36.5554 226.719 36.5554C196.734 36.5554 174.528 59.1582 174.528 89.7578C174.528 100.445 178.564 109.402 185.806 115.681C193.042 121.954 203.436 125.519 216.103 125.519C227.167 125.519 238.229 123.23 248.778 118.781L249.028 118.676L249.076 118.409L257.038 73.9214ZM364.701 93.6053L364.62 94.1757H365.196H383.774H384.181L384.264 93.7779L395.765 38.6742L395.891 38.072H395.275H373.032H372.598L372.537 38.5016L364.701 93.6053ZM315.947 36.5554C285.829 36.5554 264.009 59.0383 264.009 90.2633C264.009 100.948 267.98 109.778 274.969 115.931C281.951 122.079 291.903 125.519 303.814 125.519C334.058 125.519 355.879 103.037 355.879 71.8112C355.879 61.1262 351.908 52.2961 344.903 46.1428C337.905 39.9952 327.921 36.5554 315.947 36.5554ZM306.216 106.446C300.828 106.446 296.449 104.715 293.416 101.575C290.381 98.4336 288.643 93.8293 288.643 87.9884C288.643 69.3116 299.648 55.6284 313.672 55.6284C319.061 55.6284 323.44 57.3599 326.473 60.4996C329.507 63.6409 331.245 68.2452 331.245 74.0861C331.245 92.7629 320.24 106.446 306.216 106.446ZM373.284 98.2311C364.543 98.2311 357.745 105.024 357.745 113.644C357.745 117.109 358.923 120.084 361.001 122.194C363.079 124.306 366.024 125.519 369.493 125.519C378.237 125.519 385.033 118.723 385.033 109.979C385.033 106.514 383.854 103.569 381.774 101.49C379.694 99.4101 376.75 98.2311 373.284 98.2311Z" fill="#00C4D9" stroke="#0076CF"/>
<path d="M260.337 68.7779L252.375 113.265C241.885 117.689 230.89 119.964 219.894 119.964C194.744 119.964 178.819 105.809 178.819 84.7024C178.819 54.3701 200.81 32 230.51 32C241.506 32 252.249 34.7805 262.865 40.4678L253.133 56.2658C246.056 52.3479 238.22 49.6938 231.016 49.6938C213.575 49.6938 201.442 63.217 201.442 82.1747C201.442 94.434 210.415 102.523 223.559 102.523C227.098 102.523 230.384 101.891 233.291 101.006L236.071 85.5871H220.273L223.18 68.7779H260.337Z" fill="#DCF94D"/>
<path d="M268.3 85.2079C268.3 54.2437 289.912 32 319.739 32C343.499 32 359.171 45.6495 359.171 66.7558C359.171 97.72 337.559 119.964 307.606 119.964C283.972 119.964 268.3 106.314 268.3 85.2079ZM291.934 82.933C291.934 94.8131 299.012 101.891 310.007 101.891C324.415 101.891 335.537 87.862 335.537 69.0307C335.537 57.1505 328.459 50.073 317.464 50.073C303.056 50.073 291.934 64.1017 291.934 82.933Z" fill="#DCF94D"/>
<path d="M368.987 88.6203L376.823 33.5166H399.067L387.566 88.6203H368.987ZM362.036 108.589C362.036 100.248 368.608 93.6757 377.076 93.6757C383.774 93.6757 388.324 98.2255 388.324 104.924C388.324 113.392 381.752 119.964 373.284 119.964C366.586 119.964 362.036 115.287 362.036 108.589Z" fill="#DCF94D"/>
</svg>
