<svg width="427" height="147" viewBox="0 0 427 147" fill="none" xmlns="http://www.w3.org/2000/svg">
<path d="M118.806 66.447L118.911 65.8597H118.314H107.125H106.705L106.633 66.2743L105.918 70.3968L105.816 70.9823H106.41H111.829L110.763 76.9728C109.495 77.4398 108.09 77.7226 106.579 77.7226C104.159 77.7226 102.175 76.9677 100.8 75.6806C99.4287 74.3965 98.6241 72.546 98.6241 70.2719C98.6241 66.6707 99.7284 63.5959 101.609 61.4292C103.485 59.2679 106.154 57.9837 109.355 57.9837C111.763 57.9837 114.371 58.8698 116.853 60.2354L117.271 60.465L117.52 60.0594L119.876 56.2313L120.149 55.7866L119.693 55.5325C116.303 53.6439 112.812 52.6929 109.229 52.6929C99.2469 52.6929 92.1139 60.479 92.1139 70.8609C92.1139 74.4821 93.4484 77.5251 95.8407 79.6579C98.2276 81.7859 101.625 82.9713 105.695 82.9713C109.256 82.9713 112.73 82.2417 116.029 80.8275L116.278 80.7211L116.325 80.4552L118.806 66.447ZM121.114 81.88L121.011 82.4665H121.606H141.207H141.625L141.699 82.0551L142.457 77.8484L142.563 77.2598H141.965H128.552L129.808 70.0568H141.376H141.796L141.868 69.6423L142.583 65.5197L142.685 64.9343H142.091H130.7L131.867 58.4043H144.783H145.205L145.276 57.9881L145.991 53.7815L146.09 53.1977H145.498H126.57H126.15L126.077 53.6112L121.114 81.88ZM152.23 81.8801L152.127 82.4665H152.722H158.316H158.736L158.809 82.0529L162.943 58.4885H171.314H171.733L171.806 58.0754L172.563 53.7846L172.667 53.1977H172.071H148.936H148.521L148.445 53.6061L147.646 57.8969L147.535 58.4885H148.137H156.333L152.23 81.8801ZM114.699 89.0068L114.894 88.5516L114.441 88.3518C110.848 86.769 107.078 85.9957 103.766 85.9957C97.4833 85.9957 92.792 89.7948 92.792 95.1193C92.792 97.4518 93.664 99.1066 94.9741 100.336C96.2623 101.545 97.9586 102.328 99.5842 102.977C100.008 103.146 100.424 103.306 100.829 103.461C102.014 103.914 103.098 104.329 103.971 104.839C105.12 105.509 105.747 106.254 105.747 107.319C105.747 108.352 105.292 109.216 104.46 109.836C103.617 110.465 102.364 110.857 100.779 110.857C98.3472 110.857 95.0992 110.083 91.8705 108.51L91.405 108.283L91.1946 108.756L89.3439 112.921L89.1498 113.357L89.5772 113.571C93.2686 115.417 97.468 116.274 100.989 116.274C104.215 116.274 106.995 115.354 108.978 113.72C110.969 112.081 112.131 109.742 112.131 106.982C112.131 104.592 111.263 102.895 109.953 101.639C108.664 100.403 106.966 99.6114 105.338 98.9663C104.861 98.7776 104.395 98.6025 103.944 98.4333C102.815 98.0098 101.785 97.623 100.945 97.152C99.7903 96.5047 99.176 95.7955 99.176 94.7828C99.176 93.8219 99.6233 92.9979 100.439 92.3989C101.264 91.7927 102.478 91.4127 103.976 91.4127C106.199 91.4127 109.115 92.1032 112.229 93.4737L112.691 93.6768L112.89 93.2135L114.699 89.0068ZM115.096 115.183L114.993 115.769H115.588H135.19H135.608L135.682 115.358L136.439 111.151L136.545 110.563H135.947H122.535L123.79 103.36H135.358H135.779L135.851 102.945L136.566 98.8225L136.667 98.2371H136.073H124.682L125.85 91.7071H138.765H139.187L139.258 91.2909L139.973 87.0843L140.072 86.5005H139.48H120.552H120.132L120.059 86.914L115.096 115.183ZM146.212 115.183L146.109 115.769H146.704H152.299H152.719L152.791 115.356L156.925 91.7913H165.296H165.715L165.788 91.3782L166.546 87.0873L166.649 86.5005H166.053H142.919H142.503L142.427 86.9089L141.628 91.1997L141.518 91.7913H142.119H150.315L146.212 115.183ZM160.043 122.275L160.292 122.653L160.693 122.443C165.13 120.116 167.901 116.314 167.901 112.451C167.901 111.318 167.607 110.329 167.005 109.615C166.395 108.891 165.513 108.501 164.457 108.501C161.993 108.501 160.129 110.366 160.129 112.829C160.129 113.714 160.406 114.473 160.925 115.031C161.298 115.432 161.775 115.708 162.318 115.859C161.665 117.178 160.493 118.361 158.797 119.479L158.38 119.755L158.655 120.172L160.043 122.275Z" fill="#00C4D9" stroke="#0076CF"/>
<path d="M120.943 64.6071L118.462 78.6153C115.223 80.0035 111.816 80.7186 108.325 80.7186C100.375 80.7186 95.243 76.0913 95.243 69.1082C95.243 58.9701 102.183 51.4402 111.858 51.4402C115.349 51.4402 118.756 52.3657 122.079 54.2166L119.723 58.0447C117.2 56.6565 114.508 55.731 111.984 55.731C105.296 55.731 100.753 61.1155 100.753 68.5193C100.753 73.3149 104.16 76.4699 109.208 76.4699C110.89 76.4699 112.447 76.1333 113.835 75.5865L115.055 68.7296H109.04L109.755 64.6071H120.943Z" fill="white"/>
<path d="M124.235 80.2138L129.199 51.945H148.127L147.412 56.1517H134.078L132.732 63.6816H144.72L144.005 67.8041H132.017L130.587 76.0071H144.594L143.837 80.2138H124.235Z" fill="white"/>
<path d="M155.351 80.2138L159.557 56.2358H150.766L151.566 51.945H174.7L173.943 56.2358H165.152L160.946 80.2138H155.351Z" fill="white"/>
<path d="M95.9211 93.3667C95.9211 88.4028 100.296 84.743 106.395 84.743C109.634 84.743 113.335 85.5002 116.868 87.0566L115.06 91.2633C111.905 89.8751 108.918 89.16 106.605 89.16C103.45 89.16 101.305 90.7585 101.305 93.0301C101.305 98.1623 114.26 96.2272 114.26 105.229C114.26 110.446 109.886 114.021 103.619 114.021C100.169 114.021 96.0473 113.18 92.4299 111.371L94.2807 107.207C97.5616 108.805 100.885 109.604 103.408 109.604C106.731 109.604 108.876 107.964 108.876 105.566C108.876 100.266 95.9211 102.117 95.9211 93.3667Z" fill="white"/>
<path d="M118.218 113.517L123.181 85.2478H142.109L141.394 89.4545H128.06L126.714 96.9844H138.702L137.987 101.107H125.999L124.569 109.31H138.576L137.819 113.517H118.218Z" fill="white"/>
<path d="M149.333 113.517L153.54 89.5386H144.749L145.548 85.2478H168.682L167.925 89.5386H159.134L154.928 113.517H149.333Z" fill="white"/>
<path d="M163.258 111.077C163.258 108.889 164.899 107.249 167.086 107.249C168.937 107.249 170.03 108.595 170.03 110.698C170.03 114.316 167.422 117.976 163.09 120.247L161.702 118.144C163.679 116.84 165.025 115.41 165.656 113.727C164.226 113.601 163.258 112.633 163.258 111.077Z" fill="white"/>
<path d="M234.372 78.2863L234.477 77.6982H233.879H208.116H207.695L207.623 78.113L205.608 89.769L205.507 90.3542H206.1H216.456L214.689 100.155C212.784 100.711 210.656 101.098 208.379 101.098C203.924 101.098 200.218 99.728 197.631 97.3618C195.048 94.9994 193.544 91.61 193.544 87.488C193.544 81.0215 195.612 75.5157 199.132 71.6325C202.649 67.7529 207.639 65.4648 213.549 65.4648C218.43 65.4648 223.779 67.2669 228.642 69.9594L229.06 70.1906L229.31 69.7842L236.058 58.8293L236.336 58.3772L235.868 58.1264C228.44 54.1468 220.911 52.1953 213.199 52.1953C192.32 52.1953 176.858 67.9402 176.858 89.2407C176.858 96.6927 179.673 102.947 184.731 107.333C189.782 111.712 197.027 114.192 205.838 114.192C213.531 114.192 221.221 112.6 228.553 109.508L228.803 109.402L228.851 109.135L234.372 78.2863ZM308.718 91.8872L308.637 92.4576H309.213H322.095H322.502L322.585 92.0597L330.559 53.8491L330.685 53.247H330.07H314.647H314.213L314.152 53.6766L308.718 91.8872ZM275.066 52.1953C254.094 52.1953 238.901 67.859 238.901 89.5913C238.901 97.0409 241.67 103.207 246.552 107.505C251.427 111.798 258.366 114.192 266.654 114.192C287.713 114.192 302.907 98.5291 302.907 76.796C302.907 69.3464 300.137 63.18 295.245 58.8816C290.358 54.589 283.397 52.1953 275.066 52.1953ZM268.319 100.66C264.617 100.66 261.623 99.4706 259.554 97.3286C257.483 95.185 256.288 92.0337 256.288 88.0138C256.288 75.11 263.883 65.7277 273.489 65.7277C277.191 65.7277 280.185 66.9168 282.254 69.0587C284.325 71.2023 285.52 74.3536 285.52 78.3735C285.52 91.2773 277.925 100.66 268.319 100.66ZM314.822 94.9631C308.677 94.9631 303.894 99.7415 303.894 105.805C303.894 108.242 304.724 110.345 306.195 111.841C307.668 113.337 309.751 114.192 312.193 114.192C318.34 114.192 323.121 109.411 323.121 103.263C323.121 100.825 322.291 98.742 320.817 97.2677C319.342 95.7934 317.26 94.9631 314.822 94.9631Z" fill="#00C4D9" stroke="#0076CF"/>
<path d="M236.508 74.6926L230.988 105.542C223.714 108.609 216.09 110.186 208.466 110.186C191.028 110.186 179.987 100.371 179.987 85.7351C179.987 64.7018 195.234 49.1897 215.827 49.1897C223.451 49.1897 230.9 51.1177 238.261 55.0615L231.513 66.0164C226.606 63.2996 221.173 61.4591 216.178 61.4591C204.085 61.4591 195.672 70.8365 195.672 83.9824C195.672 92.4833 201.894 98.0922 211.008 98.0922C213.461 98.0922 215.74 97.654 217.755 97.0406L219.683 86.3486H208.729L210.745 74.6926H236.508Z" fill="#DCF94D"/>
<path d="M242.03 86.0857C242.03 64.6141 257.014 49.1897 277.695 49.1897C294.17 49.1897 305.036 58.6547 305.036 73.2904C305.036 94.7619 290.051 110.186 269.283 110.186C252.896 110.186 242.03 100.721 242.03 86.0857ZM258.417 84.5082C258.417 92.7462 263.324 97.654 270.948 97.654C280.938 97.654 288.649 87.9261 288.649 74.8679C288.649 66.6298 283.742 61.7221 276.118 61.7221C266.128 61.7221 258.417 71.45 258.417 84.5082Z" fill="#DCF94D"/>
<path d="M311.842 88.4519L317.275 50.2414H332.698L324.724 88.4519H311.842ZM307.023 102.299C307.023 96.5147 311.579 91.9575 317.451 91.9575C322.095 91.9575 325.25 95.1125 325.25 99.7574C325.25 105.629 320.693 110.186 314.822 110.186C310.177 110.186 307.023 106.944 307.023 102.299Z" fill="#DCF94D"/>
<g clip-path="url(#clip0_2514_7648)">
<g filter="url(#filter0_d_2514_7648)">
<path d="M384.964 182.996C384.964 182.996 382.747 159.719 377.98 135.472C374.256 134.212 359.847 133.022 351.839 132.1C349.462 147.338 355.653 283.57 355.653 283.57L355.692 283.584C355.64 283.399 355.639 283.226 355.697 283.069C356.157 281.801 360.198 282.108 364.724 283.757C368.985 285.309 372.22 288.434 372.224 289.361C372.866 286.715 382.054 248.641 382.398 238.254C382.572 233.033 378.258 217.162 378.258 217.162L384.964 182.996Z" fill="#141C41"/>
<path d="M432.92 284.855C436.804 283.296 439.709 282.338 440.21 283.591L423.344 220.709L410.545 167.564C410.545 167.564 401.024 138.613 397.132 134.403C389.637 137.375 374.311 135.164 371.041 137.348C370.007 158.215 372.07 165.218 372.07 165.218L397.094 220.237C397.094 220.237 401.515 238.375 403.035 243.373C406.168 253.673 425.79 288.948 425.79 288.948C425.554 288.42 429.037 286.415 432.92 284.855Z" fill="#1C2757"/>
<path d="M351.033 135.942L350.927 157.611C350.927 157.611 357.579 166.206 363.739 164.828C369.898 163.449 371.27 139.164 371.27 139.164L351.033 135.942Z" fill="#FBFBFB"/>
<path d="M399.23 136.159C399.23 136.159 403.688 147.695 404.769 150.479C405.85 153.263 382.47 167.51 377.842 163.729C373.213 159.95 368.13 138.774 368.13 138.774L399.23 136.159Z" fill="#FBFBFB"/>
<path d="M372.08 146.325C373.581 149.852 375.086 153.375 376.704 156.825C377.116 157.683 377.54 158.534 377.985 159.366C378.21 159.78 378.443 160.189 378.69 160.579C378.937 160.959 379.206 161.355 379.483 161.614C379.641 161.764 379.666 161.754 379.831 161.785C380.005 161.799 380.221 161.788 380.437 161.761C380.873 161.711 381.327 161.603 381.776 161.494C382.676 161.259 383.572 160.962 384.46 160.64C386.239 160.005 387.986 159.258 389.705 158.454C391.431 157.662 393.116 156.781 394.779 155.862C398.089 153.996 401.3 151.926 404.186 149.405C401.577 152.22 398.464 154.556 395.184 156.559C391.901 158.568 388.435 160.274 384.807 161.612C383.895 161.935 382.972 162.233 382.02 162.472C381.54 162.585 381.062 162.697 380.547 162.752C380.288 162.78 380.026 162.799 379.723 162.77C379.656 162.77 379.557 162.744 379.473 162.724C379.385 162.703 379.299 162.679 379.217 162.626C379.138 162.581 379.044 162.53 378.985 162.479L378.815 162.327C378.406 161.916 378.155 161.497 377.889 161.072C377.635 160.648 377.405 160.218 377.185 159.784C376.742 158.92 376.348 158.04 375.972 157.154C374.462 153.615 373.206 149.989 372.078 146.324L372.08 146.325Z" fill="#F1F4FB"/>
<path d="M368.984 146.325C368.576 148.962 368.024 151.576 367.306 154.151C366.953 155.442 366.545 156.717 366.084 157.983C365.855 158.616 365.587 159.238 365.304 159.858C365.014 160.476 364.7 161.088 364.281 161.677C364.055 161.966 363.829 162.258 363.472 162.507C363.321 162.633 363.056 162.743 362.85 162.797C362.642 162.845 362.443 162.859 362.244 162.865C361.464 162.852 360.777 162.64 360.13 162.38C358.845 161.839 357.692 161.11 356.617 160.29C354.486 158.65 352.55 156.681 351.297 154.31C352.088 155.383 352.996 156.346 353.986 157.214C354.963 158.095 356.003 158.902 357.085 159.634C358.175 160.348 359.299 161.03 360.486 161.468C361.073 161.686 361.681 161.858 362.236 161.855C362.37 161.848 362.501 161.839 362.618 161.809C362.727 161.768 362.781 161.758 362.886 161.672C363.078 161.543 363.27 161.303 363.449 161.069C364.166 160.071 364.681 158.837 365.177 157.632C365.679 156.419 366.102 155.165 366.541 153.916C367.381 151.405 368.189 148.873 368.985 146.327L368.984 146.325Z" fill="#F1F4FB"/>
<path d="M349.981 135.469C349.981 135.469 349.296 142.614 349.682 143.906C350.069 145.199 358.794 148.007 374.918 147.489C391.041 146.972 400.802 140.226 400.802 140.226L398.742 134.405L349.981 135.469Z" fill="url(#paint0_linear_2514_7648)"/>
<path d="M338.263 127.099C338.263 127.099 328.535 123.424 328.296 119.545C327.779 111.09 333.687 102.087 338.747 94.9484C343.756 87.8832 347.734 78.5345 360.375 77.088C363.565 76.7233 357.466 95.3754 355.526 99.258C351.63 107.057 338.263 127.099 338.263 127.099Z" fill="url(#paint1_linear_2514_7648)"/>
<path d="M349.898 136.386C350.949 136.858 355.716 140.142 368.309 141.114C379.933 142.01 393.306 139.605 393.965 137.634C394.911 134.81 394.208 135.311 395.741 129.653C398.343 120.046 401.199 108.848 402.293 104.523C403.551 99.5491 410.893 94.2866 410.855 89.4086C410.831 86.2443 408.307 83.9679 404.872 82.6912C396.597 79.616 385.808 76.1745 379.678 75.1268C371.332 73.7002 359.052 76.9239 354.484 78.5315C350.712 79.8591 348.773 81.9503 348.773 81.9503C348.773 81.9503 349.294 83.1451 349.572 90.4295C349.727 94.4888 349.868 98.4831 349.605 102.88C349.339 107.299 348.804 116.304 348.347 126.63C348.006 134.344 347.852 135.465 349.898 136.384V136.386Z" fill="url(#paint2_linear_2514_7648)"/>
<path d="M367.123 75.4507C367.123 75.4507 367.058 88.0005 372.18 92.6099C377.303 97.2178 391.871 78.2729 391.871 78.2729L379.208 73.2097L367.124 75.4507H367.123Z" fill="#FBFBFB"/>
<path d="M393.725 59.1893C397.561 52.7122 394.717 50.8501 392.684 50.1657C393.817 49.0558 394.98 47.4214 394.342 45.7586C393.487 43.5317 388.775 42.0287 385.484 43.5671C385.099 40.7308 385.569 35.5884 378.505 36.2798C368.74 37.2356 370.958 47.666 372.434 49.0318C372.434 49.0318 369.496 49.0474 368.803 51.9586C368.329 53.9508 369.85 54.6365 369.977 54.5093C369.674 54.8585 368.826 57.3342 370.264 59.5442C371.738 61.8092 379.1 65.7399 379.1 65.7399C379.1 65.7399 388.988 67.192 393.727 59.1893H393.725Z" fill="#411610"/>
<path d="M380.435 76.019L381.559 76.0968C383.845 76.2566 385.94 75.6231 386.107 73.5433L386.781 62.8372C386.948 60.7574 385.229 58.9419 382.942 58.7822L381.818 58.7044C379.532 58.5446 377.544 60.1013 377.377 62.1812L376.507 73.1022C376.34 75.182 378.148 75.8593 380.434 76.019H380.435Z" fill="#D1634E"/>
<path d="M385.765 60.4789C386.007 57.4758 385.779 59.0042 382.899 58.802C380.019 58.5998 377.488 60.8706 377.246 63.8751L376.71 71.2345C376.62 72.3882 380.63 72.77 383.332 69.7909C386.208 66.6209 385.765 60.4789 385.765 60.4789Z" fill="#AC2A1C"/>
<path d="M386.932 55.6207C387.001 51.42 386.513 45.8379 378.587 46.764C376.354 47.0256 374.201 47.4554 373.402 49.186C372.372 51.4171 372.293 58.177 372.212 60.8662C372.097 64.6781 371.95 66.6081 373.46 67.7095C374.942 68.7898 379.782 69.1574 382.621 67.8424C385.171 66.6604 386.085 65.2366 386.533 61.1547C386.932 57.5096 386.905 57.388 386.934 55.6207H386.932Z" fill="#D1634E"/>
<path d="M386.932 55.6206C386.997 51.6871 386.574 46.5405 380.009 46.6635C379.919 46.665 378.227 46.7583 377.962 48.2174C376.927 53.9154 376.584 68.6935 378.173 68.6836C379.738 68.6738 381.372 68.4207 382.62 67.8424C385.17 66.6604 386.084 65.2366 386.531 61.1546C386.931 57.5096 386.904 57.388 386.932 55.6206Z" fill="#BF513F"/>
<path d="M379.004 59.427C379.004 59.427 377.828 57.8236 376.844 58.0117C375.86 58.1997 375.51 59.3478 375.51 59.3478L379.004 59.427Z" fill="#A30404"/>
<path d="M379.174 59.3491C378.693 58.703 377.899 57.849 377.023 57.8759C376.205 57.8999 375.563 58.6309 375.327 59.3647C375.307 59.4283 375.399 59.4665 375.444 59.4679C376.608 59.4948 377.772 59.5216 378.938 59.5471C379.099 59.5513 379.319 59.311 379.072 59.3053C378.604 59.294 378.137 59.2841 377.668 59.2728C377.08 59.2601 376.322 59.1102 375.745 59.229C375.716 59.2346 375.615 59.2389 375.587 59.2247C375.784 59.3223 375.668 59.277 375.784 59.1144C376.102 58.6648 376.371 58.0682 377.051 58.1205C377.768 58.1756 378.433 58.9575 378.838 59.5019C378.927 59.6206 379.278 59.4863 379.175 59.3477L379.174 59.3491Z" fill="#A30404"/>
<path d="M381.989 57.0658C381.978 57.5366 382.188 57.9226 382.46 57.9297C382.733 57.9367 382.961 57.5607 382.974 57.0898C382.985 56.619 382.775 56.233 382.503 56.2259C382.23 56.2189 382.002 56.595 381.989 57.0658Z" fill="#3D0601"/>
<path d="M374.202 56.8734C374.191 57.3442 374.401 57.7302 374.674 57.7373C374.946 57.7444 375.175 57.3683 375.187 56.8974C375.199 56.4266 374.988 56.0406 374.716 56.0335C374.444 56.0265 374.215 56.4026 374.202 56.8734Z" fill="#3D0601"/>
<path d="M380.591 54.6325C379.8 54.5646 379.875 54.0966 380.183 53.818C380.474 53.5551 382.369 52.8651 383.279 53.2129C385.106 53.9114 384.816 55.14 384.837 55.4101C384.858 55.6802 383.293 54.8615 380.589 54.631L380.591 54.6325Z" fill="#411610"/>
<path d="M372.911 54.9929C372.985 54.5673 373.532 54.0371 374.136 53.8802C374.74 53.7232 375.851 54.3835 375.921 54.7384C375.992 55.0933 375.272 55.1173 374.458 55.1951C373.391 55.2969 372.808 55.5853 372.91 54.9943L372.911 54.9929Z" fill="#411610"/>
<path d="M390.989 60.9727C392.202 59.5861 392.378 57.7537 391.383 56.8798C390.388 56.0059 388.598 56.4215 387.385 57.808C386.172 59.1946 385.996 61.027 386.991 61.9009C387.986 62.7748 389.776 62.3592 390.989 60.9727Z" fill="#BF513F"/>
<path d="M391.405 57.8462C391.075 57.6242 390.683 57.5436 390.305 57.5493C389.927 57.5507 389.541 57.637 389.22 57.8038C388.565 58.1474 388.061 58.7822 387.687 59.4284L387.567 59.1795C387.813 59.2361 388.04 59.3153 388.264 59.4411C388.374 59.5047 388.486 59.5825 388.573 59.7027C388.617 59.7606 388.654 59.8327 388.669 59.9133C388.683 59.9883 388.686 60.0406 388.688 60.1085C388.69 60.2357 388.671 60.3842 388.587 60.5044C388.504 60.6245 388.384 60.6867 388.274 60.7362C388.051 60.831 387.83 60.8946 387.604 60.9625C387.803 60.838 388.019 60.7376 388.206 60.6132C388.405 60.486 388.497 60.3375 388.456 60.124C388.439 60.0067 388.422 59.9317 388.36 59.878C388.298 59.8172 388.212 59.7635 388.119 59.7168C387.93 59.6277 387.708 59.5641 387.501 59.5189H387.497C387.405 59.4977 387.346 59.4057 387.365 59.3138C387.368 59.2983 387.374 59.2842 387.381 59.27C387.577 58.8982 387.817 58.5744 388.096 58.2704C388.379 57.9721 388.707 57.7062 389.094 57.5352C389.491 57.374 389.905 57.3273 390.315 57.3612C390.72 57.4079 391.129 57.555 391.407 57.8462H391.405Z" fill="#AC2A1C"/>
<path d="M375.916 44.3025C375.916 44.3025 381.092 53.8788 387.185 53.2355C393.278 52.5907 380.702 41.4619 375.916 44.3025Z" fill="#411610"/>
<path d="M388.135 56.339L388.001 55.157C385.405 57.3301 384.848 64.1508 383.183 64.4605C382.4 64.6061 382.202 62.9603 381.196 61.4135C379.906 59.4298 377.919 59.9996 376.234 60.3418C375.328 60.5256 374.335 60.9469 373.538 62.0752C373.042 62.7765 372.225 64.2314 372.187 64.9567C372.131 66.0228 372.297 68.4491 373.682 69.0132C377.538 70.5841 382.922 69.2875 384.099 68.4576C385.276 67.6276 388.517 65.2494 387.54 63.1667C386.627 61.2184 388.13 56.3404 388.13 56.3404L388.135 56.339Z" fill="#411610"/>
<path d="M374.801 61.8773C374.801 61.8773 379.706 60.9017 379.898 61.0897C380.029 61.217 379.631 63.581 377.541 63.9331C376.579 64.0957 375.129 63.1668 374.801 61.8773Z" fill="white"/>
<path d="M384.45 38.5082C383.929 37.6726 383.112 37.0222 382.154 36.7253C381.196 36.4185 380.164 36.4001 379.154 36.4609C378.141 36.5471 377.132 36.7168 376.199 37.0576C375.265 37.3898 374.42 37.8946 373.725 38.5322C373.024 39.1685 372.51 39.9617 372.166 40.8171C371.808 41.6697 371.635 42.5901 371.575 43.5134C371.528 44.4381 371.578 45.3769 371.76 46.2903C371.848 46.747 371.963 47.2009 372.121 47.6335C372.273 48.0563 372.483 48.5087 372.722 48.7647L372.732 48.7746C372.881 48.9343 372.862 49.1761 372.689 49.3133C372.616 49.3712 372.527 49.4023 372.437 49.4066C371.844 49.4306 371.164 49.6116 370.642 49.9354C370.101 50.2521 369.677 50.7187 369.403 51.2701C369.136 51.8215 368.951 52.4479 369.029 53.0304C369.064 53.3217 369.169 53.6016 369.341 53.8391C369.427 53.9579 369.53 54.0668 369.648 54.153C369.705 54.1983 369.768 54.2365 369.828 54.2647C369.859 54.2817 369.886 54.2902 369.908 54.2973C369.925 54.3043 369.918 54.3015 369.918 54.3015C369.908 54.3015 369.939 54.3029 369.891 54.3072C369.857 54.3128 369.822 54.3354 369.805 54.3609L370.159 54.6437C370.07 54.7568 369.974 54.9759 369.907 55.1654C369.835 55.3633 369.774 55.5684 369.728 55.7762C369.634 56.1919 369.586 56.6189 369.591 57.0487C369.603 57.9055 369.828 58.7638 370.264 59.5442C370.01 59.1752 369.78 58.7864 369.626 58.365C369.476 57.9437 369.376 57.5068 369.33 57.0614C369.287 56.6161 369.297 56.1664 369.358 55.7196C369.434 55.2629 369.49 54.8487 369.795 54.3736L370.149 54.6564C370.111 54.6889 370.056 54.7186 370.001 54.7327C369.934 54.7483 369.941 54.7384 369.908 54.7412C369.863 54.7398 369.812 54.7342 369.788 54.7257C369.725 54.7115 369.667 54.6917 369.62 54.6691C369.519 54.6267 369.43 54.5772 369.348 54.5192C369.18 54.4075 369.039 54.2718 368.919 54.1233C368.676 53.825 368.527 53.4701 368.463 53.1096C368.335 52.38 368.51 51.6759 368.783 51.0198C369.066 50.3595 369.564 49.753 370.223 49.3514C370.88 48.9386 371.61 48.7081 372.434 48.6558L372.149 49.2977C371.695 48.8297 371.517 48.3631 371.328 47.8838C371.149 47.4059 371.023 46.9223 370.923 46.4331C370.724 45.4575 370.648 44.4607 370.715 43.4668C370.789 42.4742 370.982 41.4774 371.387 40.5372C371.779 39.5955 372.39 38.7203 373.192 38.0232C373.984 37.3177 374.959 36.8045 375.982 36.4948C377.006 36.1739 378.072 36.0466 379.127 36.0042C380.184 35.9745 381.275 36.0805 382.258 36.4807C383.249 36.8667 384.042 37.6203 384.45 38.5068V38.5082Z" fill="#6E3831"/>
<path d="M376.292 44.0322C376.518 44.6727 376.796 45.2906 377.118 45.883C377.425 46.4811 377.775 47.0566 378.17 47.5981C378.94 48.6953 379.848 49.6892 380.901 50.5093C381.416 50.9321 381.971 51.3053 382.541 51.6517C383.119 51.984 383.723 52.2767 384.337 52.5397C385.569 53.043 386.89 53.4276 388.249 53.3032C386.907 53.6072 385.499 53.3046 384.217 52.8521C382.92 52.4011 381.714 51.7012 380.624 50.8585C379.548 49.9961 378.616 48.9554 377.88 47.796C377.145 46.638 376.573 45.3684 376.292 44.0336V44.0322Z" fill="#6E3831"/>
<path d="M372.182 65.4629C372.313 66.2759 372.484 67.0889 372.815 67.8071C372.995 68.162 373.195 68.4802 373.511 68.6668C373.83 68.8676 374.203 69.0146 374.581 69.1306C375.341 69.3695 376.146 69.4854 376.951 69.5731C377.76 69.6551 378.578 69.6721 379.404 69.6806C378.595 69.8573 377.766 69.928 376.932 69.9181C376.099 69.9096 375.261 69.8022 374.448 69.559C374.044 69.4261 373.644 69.2691 373.274 69.0189C372.889 68.7573 372.639 68.3388 372.499 67.9429C372.209 67.1327 372.131 66.2914 372.18 65.4643L372.182 65.4629Z" fill="#9E5046"/>
<path d="M389.235 135.942C389.235 135.942 393.417 140.349 397.722 138.692C406.576 135.284 412.543 132.018 413.356 112.848C413.781 102.845 413.968 88.3144 407.947 84.2805C407.947 84.2805 400.29 92.59 396.525 102.808C393.786 110.243 389.237 135.942 389.237 135.942H389.235Z" fill="url(#paint3_linear_2514_7648)"/>
<path d="M399.139 108.033C400.045 107.337 401.222 115.29 401.055 115.662C400.395 117.131 397.752 120.629 394.073 120.418C393.614 120.391 392.187 115.736 393.342 114.086C394.441 112.515 397.297 109.446 399.137 108.033H399.139Z" fill="#D1634E"/>
<path d="M394.38 108.304L394.541 108.197C395.55 108.426 395.688 109.445 395.393 110.507L394.909 111.645L394.654 114.691C394.654 114.691 393.669 117.339 393.175 117.005C392.288 116.406 393.069 111.576 393.069 111.576L394.38 108.303V108.304Z" fill="#D1634E"/>
<path d="M405.877 108.233C405.905 108.97 405.073 109.29 403.969 109.21C403.598 109.184 402.576 109.078 402.576 109.078L398.333 110.156L399.211 107.996L403.247 107.334L405.877 108.235V108.233Z" fill="#D1634E"/>
<path d="M408.369 112.115C408.16 112.949 407.443 113.195 406.024 112.821C405.547 112.696 403.63 112.003 403.63 112.003L399.06 112.291L399.065 110.211L404.241 109.818L408.367 112.115H408.369Z" fill="#D1634E"/>
<path d="M405.538 112.737L407.185 114.054C406.966 115.044 405.514 114.972 404.323 114.255C403.826 113.955 402.637 113.642 402.637 113.642L398.982 113.807L399.411 111.864L403.78 111.883L405.538 112.737Z" fill="#D1634E"/>
<path d="M405.802 115.324C405.751 116.092 404.788 116.368 404.387 116.295C404.112 116.247 402.866 115.965 402.866 115.965L399.918 115.982L400.285 114.25L403.527 114.682L405.804 115.323L405.802 115.324Z" fill="#D1634E"/>
<path d="M393.226 115.13L380.215 117.663L387.556 125.196L397.466 118.568L393.226 115.13Z" fill="#D1634E"/>
<mask id="mask0_2514_7648" style="mask-type:luminance" maskUnits="userSpaceOnUse" x="367" y="73" width="25" height="21">
<path d="M367.123 75.4507C367.123 75.4507 367.058 88.0005 372.18 92.6099C377.303 97.2178 391.871 78.2729 391.871 78.2729L379.208 73.2097L367.124 75.4507H367.123Z" fill="white"/>
</mask>
<g mask="url(#mask0_2514_7648)">
<path d="M375.431 79.5242C375.431 79.5242 368.017 87.3643 367.742 90.9824C367.467 94.6006 374.01 97.6674 377.393 95.9862C380.775 94.3065 377.341 79.8112 377.341 79.8112L375.433 79.5242H375.431Z" fill="url(#paint4_linear_2514_7648)"/>
</g>
<path d="M382.254 128.233C371.388 136.231 343.298 133.819 332.181 126.423C323.199 120.448 331.483 106.647 331.483 106.647C331.483 106.647 336.92 106.001 343.51 107.565C354.244 110.114 369.15 115.54 376.871 116.943C379.988 117.51 381.2 117.393 381.2 117.393C381.2 117.393 384.981 126.225 382.254 128.233Z" fill="url(#paint5_linear_2514_7648)"/>
<path d="M359.596 123.663C359.596 123.663 360.214 128.459 358.151 132.099C356.088 135.739 368.513 133.207 368.513 133.207L370.017 122.542L359.596 123.663Z" fill="#F1F4FB"/>
<path d="M348.772 108.888C354.075 113.359 357.569 122.114 363.438 126.746C374.338 135.349 379.967 137.203 388.643 138.977C402.191 141.747 406.048 129.487 400.886 126.495C392.838 121.832 386.656 116.389 371.27 111.984C368.425 111.17 357.437 107.761 353.885 107.221C352.397 106.995 347.767 108.041 348.772 108.888Z" fill="#D1634E"/>
<path d="M364.793 126.439C363.708 128.07 364.258 129.275 365.656 130.912C369.843 135.814 387.478 140.989 394.437 140.121C410 138.183 411.698 124.913 411.698 124.913C411.698 124.913 388.339 117.224 377.773 113.609C375.622 112.874 370.159 111.48 370.159 111.48C370.159 111.48 372.433 114.955 364.793 126.439Z" fill="url(#paint6_linear_2514_7648)"/>
<path d="M358.924 122.805C358.924 122.805 361.142 125.821 364.22 128.492C365.575 129.667 368.75 123.713 369.973 119.446C371.023 115.784 371.009 111.648 371.009 111.648C371.009 111.648 366.425 110.04 364.942 109.71C364.424 109.594 363.709 117.51 358.924 122.805Z" fill="#FBFBFB"/>
<path d="M363.066 123.44C362.247 123.692 361.46 123.303 361.307 122.57C361.155 121.838 361.695 121.042 362.514 120.79C363.332 120.539 364.12 120.927 364.272 121.66C364.424 122.392 363.884 123.188 363.066 123.44Z" fill="#DCE5F7"/>
<g opacity="0.56">
<path d="M365.308 75.9639C365.511 78.0748 365.771 80.1759 366.154 82.2515C366.521 84.3285 366.986 86.3886 367.615 88.3836C368.266 90.3574 369.057 92.3326 370.337 93.8851C370.656 94.2697 371.014 94.6104 371.397 94.9031C371.785 95.1986 372.196 95.4276 372.634 95.5492C373.521 95.8136 374.52 95.6878 375.468 95.3979C377.383 94.7999 379.158 93.6447 380.816 92.3962C382.49 91.1492 384.052 89.7395 385.58 88.2945C387.099 86.8382 388.571 85.3253 390 83.7714C391.448 82.2317 392.827 80.6283 394.184 79.0023C391.803 82.5116 389.119 85.8216 386.153 88.8756C384.673 90.4069 383.1 91.8519 381.415 93.1824C379.711 94.4775 377.902 95.7118 375.764 96.3848C374.703 96.6973 373.509 96.8627 372.352 96.5149C371.178 96.16 370.298 95.3626 369.593 94.5001C368.211 92.7327 367.444 90.6699 366.859 88.614C365.727 84.4727 365.328 80.2056 365.306 75.9667L365.308 75.9639Z" fill="#0073BD"/>
</g>
<path d="M376.023 80.716C374.619 80.3046 373.814 78.8313 374.225 77.4245L375.028 74.6744C375.066 74.5458 375.201 74.4708 375.33 74.509L379.946 75.8621C380.074 75.9003 380.149 76.036 380.111 76.1647L379.308 78.9147C378.897 80.3215 377.427 81.1275 376.023 80.716Z" fill="url(#paint7_linear_2514_7648)"/>
<path d="M379.435 81.6676C379.435 81.6676 383.303 81.57 386.575 79.435C387.76 78.6616 389.221 77.2138 389.221 77.2138L386.253 71.2344C386.253 71.2344 385.075 73.3538 383.221 74.1187C379.885 75.493 377.585 74.6207 377.585 74.6207L379.436 81.6676H379.435Z" fill="#F1F4FB"/>
<path d="M372.57 78.9869C372.57 78.9869 372.347 77.392 372.414 76.4503C372.534 74.7664 372.643 74.3761 372.643 74.3761L376.668 70.5515C376.668 70.5515 376.677 72.0729 376.711 72.5734C376.821 74.1711 378.134 75.0576 378.134 75.0576L372.571 78.9869H372.57Z" fill="#F1F4FB"/>
<path d="M365.973 127.697C367.131 128.743 368.364 129.691 369.661 130.54C370.944 131.407 372.275 132.197 373.638 132.923C375.002 133.642 376.392 134.313 377.822 134.89C379.242 135.488 380.695 136.002 382.167 136.458C385.109 137.375 388.135 138.028 391.198 138.419C392.732 138.608 394.274 138.742 395.821 138.789C396.594 138.819 397.371 138.816 398.145 138.79C398.92 138.751 399.695 138.694 400.469 138.6C397.433 139.373 394.242 139.423 391.119 139.196C387.984 138.967 384.875 138.359 381.862 137.443C378.853 136.51 375.937 135.257 373.236 133.637C370.538 132.028 368.002 130.087 365.97 127.701L365.973 127.697Z" fill="#0F428F"/>
</g>
<g clip-path="url(#clip1_2514_7648)" filter="url(#filter1_d_2514_7648)">
<path d="M60.2713 66.4899C60.2713 66.4899 74.3552 67.018 76.5343 74.0399C80.998 88.4257 24.4414 106.73 8.47963 88.9438C-3.32978 75.7803 24.4263 71.7714 24.4263 71.7714C24.4263 71.7714 27.5946 58.3413 28.9201 54.3927C31.4608 46.8377 34.8399 40.1578 38.937 39.2927C41.5078 38.7494 44.3597 42.7634 49.2652 40.2785C55.0695 37.341 60.6077 44.5742 60.437 52.3153C60.2813 59.2618 60.2663 66.4849 60.2663 66.4849L60.2713 66.4899Z" fill="#321815"/>
<path d="M71.9853 122.147C74.4004 127.856 87.3043 128.51 87.3043 128.51C87.3043 128.51 80.521 107.293 78.1259 99.6829C76.2832 93.833 74.079 82.0578 70.9308 77.0177C69.6655 74.9956 66.8237 74.0701 62.1692 72.717L65.1316 83.1442C65.1316 83.1442 64.7399 105.03 71.9853 122.147Z" fill="#6D98DD"/>
<path d="M95.9958 147.936C98.923 143.585 99.8168 138.339 95.0569 131.246C92.6417 127.645 80.9428 116.971 75.9419 116.247C71.6288 115.623 71.3326 122.278 67.6572 125.391C67.6572 125.391 79.07 140.512 81.1939 143.353C85.4416 149.052 86.5161 152.971 86.5161 152.971C86.5161 152.971 93.4401 151.728 95.9958 147.941V147.936Z" fill="#6D98DD"/>
<path d="M61.3658 113.712C57.8962 123.253 42.0851 156.321 58.2075 163.413C65.0562 166.426 98.6517 175.877 98.6517 175.877C98.6517 175.877 138.242 183.191 130.605 161.718C127.151 152 78.3518 139.556 78.3518 139.556L72.5275 108.853C72.5275 108.853 63.7959 112.384 61.3607 113.706L61.3658 113.712Z" fill="#141623"/>
<path d="M47.8895 112.484C44.9823 117.243 22.443 152.936 27.8808 164.268C29.0858 166.783 31.3704 170.254 34.1168 174.057C42.3613 185.455 54.7883 199.77 54.7883 199.77C54.7883 199.77 54.9088 210.343 57.2235 215.75C62.6613 228.461 94.153 265.965 94.153 265.965L104.923 258.701C104.923 258.701 87.1085 208.628 80.8473 193.06C75.279 179.212 61.3056 147.81 61.3056 147.81C61.3056 147.81 61.9031 142.418 62.5859 133.017C63.0177 127.051 63.8663 119.089 64.8504 111.654C61.8378 113.596 57.0026 111.795 47.8895 112.484Z" fill="#1F254C"/>
<path d="M45.9092 58.0264L45.7653 58.0484C44.2932 58.2735 43.282 59.6515 43.5068 61.1262L44.992 70.8721C45.2167 72.3468 46.5922 73.3598 48.0643 73.1347L48.2082 73.1126C49.6803 72.8875 50.6914 71.5095 50.4667 70.0348L48.9815 60.2889C48.7568 58.8142 47.3812 57.8013 45.9092 58.0264Z" fill="#FB8875"/>
<path d="M43.3203 60.3181C43.0191 58.3564 44.3295 58.2659 45.8409 58.0345C47.3522 57.8031 48.8233 59.2065 49.1196 61.1682L49.9029 66.2988C50.0685 67.3702 48.2058 68.6629 45.7655 65.2324C44.5605 63.5373 43.3203 60.3181 43.3203 60.3181Z" fill="#E54945"/>
<path d="M73.9335 117.368C73.9335 117.368 71.8347 117.368 62.1693 118.369C49.7925 119.652 42.6828 121.136 42.6828 121.136L31.1294 93.7928L24.2004 82.757C24.2004 82.757 25.4055 79.6031 34.9052 74.9856C36.9789 73.9746 46.5891 69.4124 46.5891 69.4124C46.5891 69.4124 53.8645 70.519 56.7717 71.0672C57.0328 71.1175 58.0571 71.3338 58.2328 71.3891C65.9551 73.6778 66.9041 73.9796 68.4606 74.9856C69.2489 75.4936 71.2874 80.5639 72.2364 83.6976C75.0582 93.0433 73.9335 117.368 73.9335 117.368Z" fill="#E5F4FD"/>
<path d="M35.8792 127.916C35.372 134.098 22.2722 130.281 22.2722 130.281C22.2722 130.281 21.8454 113.48 20.9869 105.548C19.8973 95.478 21.3885 85.0105 25.3049 81.2632L33.6548 92.2034C33.6548 92.2034 37.4005 109.381 35.8741 127.916H35.8792Z" fill="#A5D6FF"/>
<path d="M38.0935 73.4414C38.0935 73.4414 46.6141 80.7098 53.5733 80.8607C60.5273 81.0066 56.7767 71.0673 56.7767 71.0673L47.2317 69.1106L38.0935 73.4465V73.4414Z" fill="#FB8875"/>
<path d="M54.5823 52.0288C54.5873 51.4654 54.522 50.9121 54.4116 50.3789C53.9697 48.0953 52.4684 46.1889 50.4349 45.198C50.3998 45.1779 50.3646 45.1628 50.3295 45.1427C50.1738 45.0723 50.0182 45.0069 49.8575 44.9415C49.7772 44.9113 49.6968 44.8811 49.6165 44.851C49.4809 44.8057 49.3454 44.7655 49.2098 44.7252C49.1144 44.7001 49.014 44.6699 48.9186 44.6498C48.778 44.6146 48.6324 44.5894 48.4918 44.5643C48.4014 44.5492 48.311 44.5341 48.2207 44.524C48.0449 44.4989 47.8692 44.4838 47.6934 44.4737C47.6633 44.4737 47.6332 44.4687 47.6031 44.4637C47.583 44.4637 47.5679 44.4637 47.5529 44.4637C47.3821 44.4586 47.2064 44.4536 47.0307 44.4586C43.0641 44.5643 39.946 47.9193 39.9109 51.893C39.9109 51.893 40.0364 57.4612 40.1368 58.7237C40.3176 60.9973 42.4465 62.7377 44.3444 64.136C45.1679 64.7446 46.147 65.0313 47.1261 65.0062C48.1001 65.0464 49.0843 64.7798 49.9228 64.1863C51.8508 62.8232 54.1555 60.7558 54.4668 58.6634C54.753 56.7268 54.6224 51.7471 54.5873 52.0238L54.5823 52.0288Z" fill="#FA6E5C"/>
<path d="M47.6885 44.4686C47.6583 44.4686 47.6282 44.4636 47.5981 44.4585C47.578 44.4585 47.5629 44.4585 47.5479 44.4585C47.3772 44.4535 47.2014 44.4485 47.0257 44.4535C43.0591 44.5591 39.9411 47.9141 39.9059 51.8878C39.8557 51.4502 39.8858 56.0225 40.1369 58.7639C40.3377 60.9771 42.4415 62.7325 44.3445 64.1309C45.1679 64.7395 46.147 65.0262 47.1261 65.0011C47.6533 65.0262 49.3554 61.968 49.4207 53.7741C49.481 46.6315 47.7738 44.4636 47.6935 44.4585L47.6885 44.4686Z" fill="#FB8875"/>
<path d="M46.6643 56.9985C46.6643 56.9985 47.4777 56.0378 47.8493 56.0931C48.1957 56.1485 48.9187 56.9985 48.7781 57.0186C48.6325 57.0438 46.6693 56.9935 46.6693 56.9935L46.6643 56.9985Z" fill="#E54945"/>
<path d="M48.487 57.0991C47.9347 57.0991 46.82 57.0739 46.6644 57.0689C46.6393 57.0689 46.6141 57.0538 46.6041 57.0287C46.5941 57.0035 46.5991 56.9784 46.6141 56.9582C46.6995 56.8576 47.4627 55.9673 47.8594 56.0327C48.2008 56.0881 48.8636 56.8124 48.8636 57.0035C48.8636 57.0488 48.8334 57.089 48.7882 57.0941C48.7581 57.0991 48.6477 57.0991 48.492 57.0991H48.487ZM46.81 56.9331C47.5179 56.9482 48.4619 56.9633 48.7079 56.9582C48.6125 56.7772 48.1054 56.2037 47.8342 56.1635C47.8242 56.1635 47.8192 56.1635 47.8091 56.1635C47.5782 56.1635 47.1112 56.5961 46.81 56.9381V56.9331Z" fill="#E54945"/>
<path d="M43.7722 54.7148C43.7672 55.1322 43.5463 55.4693 43.2852 55.4693C43.0191 55.4693 42.8082 55.1222 42.8182 54.7047C42.8232 54.2872 43.0442 53.9502 43.3053 53.9502C43.5714 53.9502 43.7823 54.2973 43.7722 54.7148Z" fill="#293159"/>
<path d="M40.7696 52.4715C40.6189 52.4614 42.2006 52.0339 42.9637 51.9936C44.8316 51.898 45.1328 52.8034 45.0324 53.0046C44.927 53.2109 42.7027 52.5771 40.7696 52.4715Z" fill="#321815"/>
<path d="M44.2794 54.3476C44.2794 54.3476 43.3706 53.3567 42.5522 53.6937C41.7338 54.0307 41.2517 54.0558 41.0911 54.0357C41.0911 54.0357 42.3011 54.5639 42.7028 54.3275C43.1095 54.0911 43.476 54.1212 44.2744 54.3426L44.2794 54.3476Z" fill="#111523"/>
<path d="M51.5598 55.8062C51.8232 55.8062 52.0368 55.4661 52.0368 55.0466C52.0368 54.6272 51.8232 54.2871 51.5598 54.2871C51.2963 54.2871 51.0828 54.6272 51.0828 55.0466C51.0828 55.4661 51.2963 55.8062 51.5598 55.8062Z" fill="#293159"/>
<path d="M54.0854 52.8336C54.236 52.8286 52.6595 52.3759 51.8963 52.3306C50.0335 52.2149 49.7171 53.1102 49.8176 53.3165C49.918 53.5227 52.1523 52.9191 54.0854 52.8386V52.8336Z" fill="#321815"/>
<path d="M50.5454 54.6695C50.5454 54.6695 51.4592 53.6887 52.2676 54.0358C53.076 54.3828 53.553 54.413 53.7086 54.3929C53.7086 54.3929 52.5036 54.911 52.1069 54.6695C51.7103 54.4281 51.3438 54.4583 50.5504 54.6695H50.5454Z" fill="#111523"/>
<path d="M40.8349 56.6916C40.6592 57.2198 41.2316 57.8888 42.1103 58.1805C42.9889 58.4723 43.8475 58.2861 44.0233 57.758C44.199 57.2298 43.6266 56.5608 42.7479 56.2691C41.8693 55.9723 41.0107 56.1635 40.8349 56.6916Z" fill="#FA6E5C"/>
<path d="M52.7505 58.6362C53.632 58.3426 54.2048 57.6772 54.0298 57.15C53.8549 56.6227 52.9984 56.4333 52.1169 56.7269C51.2354 57.0205 50.6626 57.6859 50.8376 58.2132C51.0125 58.7404 51.869 58.9298 52.7505 58.6362Z" fill="#E54945"/>
<path d="M45.0125 58.7739C45.0125 58.7739 46.9506 59.2115 47.4727 59.1914C48.5523 59.1411 50.1138 58.8343 50.1138 58.8343C50.1138 58.8343 48.3514 57.0134 45.0125 58.7739Z" fill="#E54945"/>
<path d="M45.0125 58.7739C45.0125 58.7739 48.6075 59.4127 50.1138 58.8343C50.1138 58.8343 49.0795 61.2889 47.4527 61.128C46.1271 60.9922 45.0125 58.7739 45.0125 58.7739Z" fill="white"/>
<path d="M46.7698 61.5455C47.051 61.6411 47.307 61.7316 47.5631 61.7115C47.8192 61.7216 48.0552 61.6059 48.3263 61.4751C48.256 61.6109 48.1556 61.7316 48.02 61.8121C47.8895 61.9026 47.7288 61.9429 47.5681 61.9529C47.2468 61.9529 46.9355 61.8021 46.7698 61.5455Z" fill="#E54945"/>
<path d="M51.0024 55.1724C50.9521 55.7559 51.1982 56.2639 51.5446 56.3042C51.8961 56.3494 52.2174 55.9118 52.2676 55.3283C52.3179 54.7448 52.0718 54.2368 51.7254 54.1966C51.3739 54.1513 51.0526 54.5889 51.0024 55.1724Z" fill="#111523"/>
<path d="M43.9581 54.926C43.9681 55.5095 43.692 56.0024 43.3405 56.0175C42.989 56.0377 42.6978 55.5799 42.6878 54.9964C42.6777 54.413 42.9539 53.92 43.3054 53.9049C43.6568 53.8848 43.948 54.3425 43.9581 54.926Z" fill="#111523"/>
<path d="M49.23 47.0491C49.23 47.0491 51.866 44.1569 52.8752 45.8067C56.0937 51.0631 54.9489 44.519 54.1556 42.2907C52.7849 38.4428 50.9823 37.3563 50.1639 40.9477C49.3455 44.5392 49.23 47.0542 49.23 47.0542V47.0491Z" fill="#321815"/>
<path d="M48.4819 46.8629C48.2008 45.3287 47.538 41.9184 44.5304 42.0643C44.5304 42.0643 41.558 42.7333 40.8249 43.6336C40.0918 44.534 43.4609 35.9931 48.8133 38.493C52.9506 40.4245 50.4602 45.2734 49.2351 47.049C49.0142 47.3709 48.5522 47.2552 48.4819 46.8629Z" fill="#49312F"/>
<path d="M44.3696 38.0101C45.6199 38.1359 47.0509 38.4628 48.4467 41.2595C49.4911 43.347 48.1705 47.5219 47.9647 47.2955C46.5889 45.7614 44.5353 41.7323 39.9261 48.3116C35.3168 54.8908 41.106 40.5251 41.7135 39.3682C42.1755 38.498 43.5161 37.9246 44.3646 38.0101H44.3696Z" fill="#321815"/>
<path d="M46.0869 46.6316C46.2024 46.8981 45.9262 47.1849 45.6702 47.049C44.1789 46.2744 42.7429 46.2392 41.7739 47.6627C40.9655 48.8548 40.4433 52.2098 39.8458 54.6846C39.8458 54.6846 39.66 49.4484 40.2776 45.9575C40.7194 43.4576 41.7588 41.7726 43.3254 42.7534C44.5053 43.4928 45.6702 45.6557 46.0919 46.6265L46.0869 46.6316Z" fill="#49312F"/>
<path d="M50.3095 47.1347C50.2241 47.3258 50.43 47.5069 50.6107 47.4063C51.3237 47.0039 52.5388 45.9426 53.4978 48.3318C53.8493 49.202 54.3664 52.9896 54.6426 54.7853C54.6426 54.7853 56.4752 41.154 52.8099 43.6338C51.6501 44.4185 50.7011 46.2594 50.3095 47.1347Z" fill="#49312F"/>
<path d="M37.2298 57.0688C38.1487 58.2005 39.4893 58.5577 40.2274 57.8686C40.9655 57.1794 40.8148 55.7057 39.896 54.5739C38.9771 53.4422 37.6365 53.085 36.8984 53.7741C36.1604 54.4632 36.311 55.937 37.2298 57.0688Z" fill="#FB8875"/>
<path d="M37.0994 54.7702C37.2952 54.569 37.5914 54.4835 37.8776 54.4734C38.1688 54.4684 38.455 54.5338 38.7262 54.6796C38.9822 54.8356 39.1981 55.0468 39.3638 55.2782C39.5346 55.5146 39.6701 55.7561 39.7756 56.0327C39.8208 56.1484 39.7605 56.2792 39.645 56.3194C39.6249 56.3245 39.6099 56.3295 39.5898 56.3345C39.4592 56.3446 39.3086 56.3647 39.1881 56.3999C39.1279 56.42 39.0726 56.4452 39.0425 56.4603C39.0274 56.4703 39.0174 56.4804 39.0074 56.4854C38.9973 56.5055 38.9822 56.5458 38.9772 56.5709C38.932 56.6916 38.9471 56.757 39.0576 56.8727L39.404 57.1946C39.2484 57.1443 39.0977 57.0991 38.9471 57.0186C38.8718 56.9784 38.7864 56.9281 38.7262 56.8275C38.6659 56.7269 38.6609 56.6061 38.6659 56.5156C38.6659 56.4653 38.676 56.4301 38.691 56.3748C38.7111 56.3094 38.7463 56.249 38.7864 56.2037C38.8668 56.1132 38.9521 56.0629 39.0375 56.0227C39.2132 55.9422 39.3739 55.9019 39.5546 55.8818L39.3638 56.1836C39.168 55.741 38.8969 55.2782 38.5253 54.9965C38.3446 54.8607 38.1086 54.7601 37.8626 54.7098C37.6215 54.6595 37.3554 54.6595 37.1044 54.7601L37.0994 54.7702Z" fill="#FA6E5C"/>
<path d="M57.3841 57.2047C56.4201 58.3516 55.1347 58.6986 54.5171 57.9844C53.8995 57.2701 54.1757 55.7662 55.1397 54.6193C56.1037 53.4725 57.3891 53.1254 58.0067 53.8397C58.6243 54.5539 58.3481 56.0579 57.3841 57.2047Z" fill="#FA6E5C"/>
<path d="M57.6703 54.7902C57.4192 54.6544 57.1431 54.6192 56.8769 54.6443C56.6159 54.6695 56.3497 54.7449 56.1389 54.8757C55.7121 55.1423 55.3958 55.6202 55.1748 56.0879L55.0292 55.8264C55.215 55.8616 55.3807 55.9169 55.5514 56.0075C55.6368 56.0527 55.7221 56.1081 55.7974 56.1986C55.8778 56.2892 55.9079 56.43 55.9129 56.5105C55.923 56.606 55.9129 56.7217 55.8577 56.8223C55.8025 56.928 55.7071 56.9833 55.6267 57.0185C55.461 57.094 55.3054 57.1392 55.1397 57.1895C55.2702 57.0789 55.4209 56.9934 55.5414 56.8877C55.6719 56.7771 55.687 56.6916 55.6468 56.5507C55.6267 56.4652 55.6117 56.44 55.5715 56.4099C55.5313 56.3747 55.4711 56.3445 55.4058 56.3143C55.2752 56.264 55.1146 56.2238 54.969 56.1986C54.8685 56.1785 54.7982 56.0829 54.8133 55.9773C54.8133 55.9622 54.8183 55.9471 54.8234 55.9371C54.9439 55.6503 55.0945 55.4039 55.2853 55.1675C55.4761 54.9361 55.702 54.7248 55.9832 54.584C56.2744 54.4482 56.5757 54.4079 56.8769 54.4331C57.1732 54.4683 57.4694 54.5739 57.6703 54.7902Z" fill="#E54945"/>
<path d="M88.3135 145.154C88.9361 145.275 89.5486 144.832 89.6792 144.163L90.2064 141.452C90.2064 141.452 89.2022 140.954 88.9612 141.13C88.4691 141.497 88.3185 145.154 88.3185 145.154H88.3135Z" fill="#FB8875"/>
<path d="M85.532 145.914C86.1646 146.21 86.9831 145.793 87.3596 144.983L87.9772 143.424L88.9613 141.13C88.9613 141.13 87.8768 140.426 87.6408 140.637C87.3697 140.884 86.7521 142.951 86.7521 142.951L85.532 145.914Z" fill="#FB8875"/>
<path d="M84.3269 146.13C85.0098 146.291 85.7077 146.029 85.8935 145.245L86.2801 143.61L87.6408 140.753C87.6408 140.753 86.7571 140.039 86.4458 140.184C85.6776 140.542 84.9545 143.338 84.9545 143.338L84.3319 146.125L84.3269 146.13Z" fill="#FB8875"/>
<path d="M82.2432 143.389C82.8256 143.776 83.6591 143.545 84.1009 142.876L84.8139 141.794L86.5512 140.431C86.5512 140.431 85.4867 139.787 85.1202 139.883C84.6884 139.993 83.7143 141.196 83.7143 141.196L82.2482 143.389H82.2432Z" fill="#FB8875"/>
<path d="M85.1152 139.883C85.1152 139.883 90.9446 138.097 92.3053 142.976C92.3053 142.976 86.4809 141.97 85.1152 139.883Z" fill="#FB8875"/>
<path d="M54.8486 59.9862C55.2503 59.9158 55.5717 59.78 55.8076 59.5989C56.0386 59.4128 56.1441 59.1865 56.1943 58.9249C56.2595 58.4269 56.0235 57.8334 55.18 57.7328C55.4813 57.4561 56.0436 57.4159 56.4453 57.7227C56.847 58.0094 57.0579 58.5476 56.9725 59.0406C56.9072 59.5285 56.5357 59.9913 56.0888 60.1422C55.652 60.2981 55.175 60.2377 54.8486 59.9812V59.9862Z" fill="white"/>
<path d="M39.8408 59.9861C39.5144 60.2376 39.0374 60.303 38.6006 60.147C38.1537 59.9961 37.7771 59.5384 37.7169 59.0455C37.6365 58.5475 37.8424 58.0143 38.2441 57.7276C38.6458 57.4208 39.2081 57.461 39.5094 57.7377C38.6709 57.8383 38.4299 58.4318 38.4951 58.9298C38.5403 59.1913 38.6458 59.4127 38.8818 59.6038C39.1177 59.7849 39.4391 59.9257 39.8408 59.9911V59.9861Z" fill="white"/>
<path d="M19.5911 95.0703C17.8338 94.7031 16.0915 94.2001 14.4295 93.4708C12.7626 92.7615 11.1759 91.831 9.74493 90.6791C9.02693 90.1057 8.36415 89.4568 7.76163 88.7627C7.15409 88.0685 6.59174 87.3291 6.11976 86.5143C5.65281 85.6994 5.26117 84.8091 5.1005 83.8383C4.92476 82.8725 4.99004 81.8464 5.29632 80.9008C5.60762 79.9501 6.13985 79.1051 6.76747 78.3757C7.40012 77.6514 8.11812 77.0227 8.88634 76.4794C10.4177 75.3929 12.0797 74.573 13.7768 73.8739C15.4739 73.1797 17.2162 72.6214 18.9786 72.1536C20.7459 71.6858 22.5033 71.2985 24.3309 71.0068L23.6883 71.5953C24.587 67.7473 25.5561 63.9195 26.5553 60.0917C27.0674 58.1803 27.5896 56.2789 28.2172 54.3625C28.8649 52.4712 29.5879 50.6151 30.4415 48.8043C31.2901 46.9935 32.2441 45.228 33.3989 43.5731C33.9863 42.7532 34.619 41.9585 35.337 41.2342C36.06 40.5149 36.8634 39.8509 37.8023 39.3882C38.2743 39.1568 38.7663 38.9858 39.3086 38.8952C39.876 38.8147 40.4032 38.9153 40.9003 39.0461C41.8994 39.3228 42.8032 39.8157 43.6066 40.4243C44.415 41.033 45.0928 41.8026 45.625 42.6426C46.1573 43.4826 46.5941 44.3729 46.9907 45.2783C46.5238 44.4081 46.0217 43.558 45.4292 42.7784C44.8518 41.9836 44.1689 41.2895 43.3606 40.7664C42.5622 40.2332 41.6735 39.8308 40.7547 39.6346C40.3028 39.5441 39.8258 39.4988 39.4191 39.5843C38.9973 39.6849 38.5555 39.866 38.1588 40.0924C36.537 41.0129 35.3069 42.5671 34.2625 44.1717C33.2181 45.7914 32.3394 47.5368 31.5712 49.3224C30.808 51.1131 30.1252 52.9491 29.5327 54.8051C28.9603 56.6511 28.4883 58.5726 27.9963 60.4739C27.0122 64.2867 26.1134 68.1296 25.1845 71.9574C25.1092 72.2743 24.8531 72.4956 24.5519 72.5459H24.5469C21.0773 73.0942 17.5928 73.9845 14.309 75.2269C12.6722 75.8607 11.0755 76.6152 9.65455 77.586C8.25369 78.5568 6.96329 79.764 6.416 81.2931C5.84361 82.8122 6.18504 84.5425 6.98338 86.0515C7.79176 87.5655 8.93153 88.9538 10.2219 90.1409C12.8228 92.5402 16.1668 94.0492 19.5961 95.0854L19.5911 95.0703Z" fill="#49312F"/>
<path d="M45.6148 126.05C44.7663 127.509 43.9579 128.988 43.1847 130.482C42.8031 131.231 42.4215 131.98 42.07 132.745C41.7035 133.5 41.347 134.259 41.0005 135.029C40.3076 136.558 39.6599 138.107 39.0574 139.666C38.4599 141.231 37.9126 142.805 37.4256 144.4C36.4716 147.589 35.7586 150.848 35.5577 154.123L35.4875 155.35C35.4674 155.757 35.5075 156.14 35.5075 156.537C35.5678 157.327 35.6632 158.121 35.8439 158.916C36.1753 160.501 36.6322 162.09 37.2297 163.634C38.3344 166.763 39.8306 169.776 41.4122 172.739C43.0089 175.696 44.7663 178.578 46.6592 181.365C50.44 186.943 54.6928 192.215 59.1866 197.215C59.277 197.315 59.3222 197.441 59.3272 197.567V197.602C59.3924 199.206 59.518 200.836 59.6887 202.441C59.8694 204.05 60.0452 205.66 60.3163 207.249C60.5674 208.844 60.8988 210.418 61.2904 211.973C61.5013 212.742 61.687 213.522 61.9481 214.266C62.0737 214.639 62.1841 215.026 62.3247 215.393L62.7615 216.485C62.8921 216.857 63.0829 217.194 63.2536 217.541C63.4394 217.878 63.5749 218.255 63.7959 218.557L64.4084 219.513C64.6344 219.835 64.8905 220.156 65.1315 220.483C66.1055 221.776 67.1097 223.064 68.1139 224.351L74.094 232.103C78.0555 237.294 82.0121 242.49 85.9084 247.731C89.7946 252.982 93.6809 258.234 97.4567 263.575L97.296 263.701C92.998 258.772 88.8256 253.742 84.6682 248.702C80.5208 243.652 76.4388 238.551 72.4019 233.411C70.3885 230.835 68.3951 228.25 66.4269 225.634C65.4478 224.326 64.4737 223.014 63.5047 221.681C63.2636 221.344 63.0226 221.022 62.7816 220.67L62.0938 219.548C61.8427 219.181 61.7021 218.778 61.5063 218.396C61.3255 218.009 61.1247 217.621 60.9891 217.224L60.5372 216.032C60.3916 215.634 60.2862 215.227 60.1607 214.825C59.8996 214.025 59.7238 213.205 59.518 212.395C59.1665 210.765 58.8853 209.126 58.6845 207.486C58.2627 204.201 58.1021 200.912 58.1472 197.602L58.2929 197.989C56.1439 195.354 54.1053 192.657 52.0819 189.946C50.0634 187.235 48.0701 184.499 46.127 181.732C42.2809 176.174 38.3946 170.581 35.6833 164.238C35.0255 162.648 34.4581 161.004 34.0866 159.283C33.8908 158.428 33.7753 157.543 33.7 156.653C33.6899 156.205 33.6447 155.742 33.6698 155.31L33.7602 154.007C34.0163 150.536 34.8146 147.161 35.9193 143.917C36.4565 142.292 37.0992 140.703 37.7821 139.143C38.4649 137.579 39.213 136.05 40.0164 134.551C40.8047 133.042 41.6733 131.583 42.5721 130.145C43.4759 128.706 44.4098 127.293 45.4391 125.939L45.6048 126.055L45.6148 126.05Z" fill="#141623"/>
<path d="M42.0701 119.667C42.0701 119.667 52.2928 119.315 61.5215 118.445C70.745 117.575 73.9986 115.819 73.9986 115.819L74.6815 120.185C74.6815 120.185 67.3358 125.376 41.0408 124.023L42.0701 119.672V119.667Z" fill="#486CA0"/>
<path d="M59.8093 123.978C59.6637 123.933 59.5582 123.807 59.5432 123.651L58.9507 118.576C58.9356 118.46 58.9708 118.339 59.0461 118.239C59.1214 118.143 59.2268 118.088 59.3473 118.062L65.1918 117.323C66.9943 117.097 68.5559 118.389 68.6663 120.21C68.7216 121.116 68.4705 122.061 67.8178 122.735C66.2663 124.345 60.9641 124.335 59.8093 123.973V123.978Z" fill="#DFEA60"/>
<path d="M43.7622 119.597L44.5857 124.365H47.6937L48.6677 119.33L43.7622 119.597Z" fill="#1F254C"/>
<path d="M53.0459 70.4486C53.3421 71.3288 53.5831 72.36 53.5178 73.2905C53.3371 75.9313 50.5203 75.4635 48.7529 74.719C46.8801 73.9344 45.1227 72.6668 43.6365 71.2835C43.3503 71.017 42.6424 71.4445 43.0039 71.7815C45.0826 73.7231 48.0198 75.8709 50.9672 75.9715C54.507 76.0973 54.7932 72.9787 53.8743 70.2323C53.7438 69.8349 52.9153 70.0613 53.0459 70.4536V70.4486Z" fill="#FBFBFB"/>
<path d="M52.2227 74.6486C52.2227 74.6486 52.9457 74.5379 53.6436 75.8206C54.3415 77.1032 54.0654 77.8929 53.5482 78.1746C53.031 78.4563 51.6051 77.1233 51.3741 75.5741C51.3741 75.5741 51.1532 74.4474 52.2227 74.6486Z" fill="#FBFBFB"/>
<path d="M39.8859 72.5913C39.8859 72.5913 49.6216 96.1669 51.6351 114.245C53.6485 132.323 49.3304 154.802 43.5061 154.178C37.6767 153.554 27.7903 148.051 28.4481 145.783C29.1108 143.514 42.0701 119.672 42.0701 119.672C42.0701 119.672 31.2197 92.0675 24.2053 82.762C24.2053 82.762 26.9116 77.2491 39.8909 72.5963L39.8859 72.5913Z" fill="url(#paint8_linear_2514_7648)"/>
<path d="M25.2396 170.596C38.0482 172.17 38.2088 165.148 37.8172 156.617C37.5662 151.175 36.5117 128.213 35.4523 122.423C34.6138 117.836 28.0413 124.219 23.3919 122.982C23.3919 122.982 19.5508 144.093 18.8127 148.459C17.7734 154.615 16.5382 160.994 15.9859 163.79C15.8001 164.726 16.1415 165.687 16.8796 166.295C18.6269 167.734 22.0261 170.203 25.2346 170.601L25.2396 170.596Z" fill="#A5D6FF"/>
<path d="M58.8804 71.5752C58.8804 71.5752 67.9282 77.9935 71.0463 105.221C74.1643 132.448 75.9719 137.302 78.3569 139.561L74.6815 115.814C74.6815 115.814 76.8405 84.4922 68.6512 75.0207C68.6512 75.0207 68.36 74.5731 65.9198 73.6626C64.1876 73.0138 58.8854 71.5802 58.8854 71.5802L58.8804 71.5752Z" fill="url(#paint9_linear_2514_7648)"/>
<path d="M44.8617 70.2122C44.8617 70.2122 39.0524 72.2996 37.3252 73.703C35.5829 75.1214 32.2791 79.5931 32.0079 80.9412C31.7368 82.2892 37.5863 83.6071 37.5863 83.6071C37.5863 83.6071 33.5142 86.112 33.7753 86.9017C33.9611 87.4651 42.6324 99.8288 50.0082 118.143C51.2534 121.237 52.0668 125.603 52.0668 125.603C52.0668 125.603 55.7221 109.562 43.511 77.6113C41.6482 72.7322 44.8567 70.2172 44.8567 70.2172L44.8617 70.2122Z" fill="#6D98DD"/>
<path d="M50.4301 69.7644C50.4301 69.7644 51.8611 69.699 53.518 69.7644C55.677 69.8399 57.8762 69.9556 59.0562 70.2171C61.2453 70.705 67.3458 72.6265 68.1894 73.7079C69.0329 74.7894 65.8546 77.7822 65.8546 77.7822C65.8546 77.7822 70.5844 79.8194 70.6999 80.6443C70.7852 81.2328 72.3468 89.8794 72.9342 110.995C73.0296 114.33 73.2656 122.429 73.2656 122.429C73.2656 122.429 72.6631 118.726 70.6095 110.085C68.8923 102.852 66.3165 92.1178 60.7432 77.566C57.8561 70.031 50.425 69.7644 50.425 69.7644H50.4301Z" fill="#6D98DD"/>
</g>
</g>
<defs>
<filter id="filter0_d_2514_7648" x="320" y="35.9995" width="134.802" height="285.292" filterUnits="userSpaceOnUse" color-interpolation-filters="sRGB">
<feFlood flood-opacity="0" result="BackgroundImageFix"/>
<feColorMatrix in="SourceAlpha" type="matrix" values="0 0 0 0 0 0 0 0 0 0 0 0 0 0 0 0 0 0 127 0" result="hardAlpha"/>
<feOffset dx="-3" dy="5"/>
<feGaussianBlur stdDeviation="2.5"/>
<feColorMatrix type="matrix" values="0 0 0 0 0.145098 0 0 0 0 0.239216 0 0 0 0 0.423529 0 0 0 0.2 0"/>
<feBlend mode="normal" in2="BackgroundImageFix" result="effect1_dropShadow_2514_7648"/>
<feBlend mode="normal" in="SourceGraphic" in2="effect1_dropShadow_2514_7648" result="shape"/>
</filter>
<filter id="filter1_d_2514_7648" x="-3" y="38" width="136.584" height="249.655" filterUnits="userSpaceOnUse" color-interpolation-filters="sRGB">
<feFlood flood-opacity="0" result="BackgroundImageFix"/>
<feColorMatrix in="SourceAlpha" type="matrix" values="0 0 0 0 0 0 0 0 0 0 0 0 0 0 0 0 0 0 127 0" result="hardAlpha"/>
<feOffset dx="-3" dy="5"/>
<feGaussianBlur stdDeviation="2.5"/>
<feColorMatrix type="matrix" values="0 0 0 0 0.145098 0 0 0 0 0.239216 0 0 0 0 0.423529 0 0 0 0.25 0"/>
<feBlend mode="normal" in2="BackgroundImageFix" result="effect1_dropShadow_2514_7648"/>
<feBlend mode="normal" in="SourceGraphic" in2="effect1_dropShadow_2514_7648" result="shape"/>
</filter>
<linearGradient id="paint0_linear_2514_7648" x1="349.564" y1="143.14" x2="353.517" y2="127.139" gradientUnits="userSpaceOnUse">
<stop offset="0.25" stop-color="#003865"/>
<stop offset="1" stop-color="#004C97"/>
</linearGradient>
<linearGradient id="paint1_linear_2514_7648" x1="328.265" y1="110.316" x2="358.39" y2="89.661" gradientUnits="userSpaceOnUse">
<stop offset="0.25" stop-color="#003865"/>
<stop offset="1" stop-color="#004C97"/>
</linearGradient>
<linearGradient id="paint2_linear_2514_7648" x1="348.143" y1="118.981" x2="391.095" y2="76.9309" gradientUnits="userSpaceOnUse">
<stop offset="0.25" stop-color="#003865"/>
<stop offset="1" stop-color="#004C97"/>
</linearGradient>
<linearGradient id="paint3_linear_2514_7648" x1="389.235" y1="120.682" x2="416.126" y2="108.291" gradientUnits="userSpaceOnUse">
<stop offset="0.25" stop-color="#003865"/>
<stop offset="1" stop-color="#004C97"/>
</linearGradient>
<linearGradient id="paint4_linear_2514_7648" x1="367.734" y1="90.7768" x2="377.924" y2="83.8087" gradientUnits="userSpaceOnUse">
<stop offset="0.25" stop-color="#003865"/>
<stop offset="1" stop-color="#004C97"/>
</linearGradient>
<linearGradient id="paint5_linear_2514_7648" x1="328" y1="124.251" x2="341.183" y2="95.9123" gradientUnits="userSpaceOnUse">
<stop offset="0.25" stop-color="#003865"/>
<stop offset="1" stop-color="#004C97"/>
</linearGradient>
<linearGradient id="paint6_linear_2514_7648" x1="364.22" y1="130.574" x2="380.364" y2="102.871" gradientUnits="userSpaceOnUse">
<stop offset="0.25" stop-color="#003865"/>
<stop offset="1" stop-color="#004C97"/>
</linearGradient>
<linearGradient id="paint7_linear_2514_7648" x1="374.118" y1="78.7014" x2="378.201" y2="74.6756" gradientUnits="userSpaceOnUse">
<stop offset="0.25" stop-color="#003865"/>
<stop offset="1" stop-color="#004C97"/>
</linearGradient>
<linearGradient id="paint8_linear_2514_7648" x1="25.7819" y1="79.6786" x2="46.4912" y2="148.725" gradientUnits="userSpaceOnUse">
<stop stop-color="#A5D6FF"/>
<stop offset="1" stop-color="#6D98DD"/>
</linearGradient>
<linearGradient id="paint9_linear_2514_7648" x1="59.3925" y1="78.1142" x2="83.1806" y2="127.159" gradientUnits="userSpaceOnUse">
<stop stop-color="#A5D6FF"/>
<stop offset="1" stop-color="#6D98DD"/>
</linearGradient>
<clipPath id="clip0_2514_7648">
<rect width="427" height="147" fill="white"/>
</clipPath>
<clipPath id="clip1_2514_7648">
<rect width="126.585" height="239.655" fill="white" transform="translate(5 38)"/>
</clipPath>
</defs>
</svg>
