<svg width="445" height="126" viewBox="0 0 445 126" fill="none" xmlns="http://www.w3.org/2000/svg">
<rect x="6" y="7" width="433" height="113" rx="31" fill="url(#paint0_linear_2113_2706)" stroke="url(#paint1_linear_2113_2706)" stroke-width="2"/>
<g filter="url(#filter0_i_2113_2706)">
<rect x="18" y="18" width="409" height="90" rx="20" fill="#E5F4FD"/>
</g>
<g filter="url(#filter1_dd_2113_2706)">
<circle cx="44.5" cy="12.5" r="2.5" fill="white"/>
</g>
<g filter="url(#filter2_dd_2113_2706)">
<circle cx="89" cy="12.5" r="2.5" fill="white"/>
</g>
<g filter="url(#filter3_dd_2113_2706)">
<circle cx="133.5" cy="12.5" r="2.5" fill="white"/>
</g>
<g filter="url(#filter4_dd_2113_2706)">
<circle cx="178" cy="12.5" r="2.5" fill="white"/>
</g>
<g filter="url(#filter5_dd_2113_2706)">
<circle cx="222.5" cy="12.5" r="2.5" fill="white"/>
</g>
<g filter="url(#filter6_dd_2113_2706)">
<circle cx="267" cy="12.5" r="2.5" fill="white"/>
</g>
<g filter="url(#filter7_dd_2113_2706)">
<circle cx="311.5" cy="12.5" r="2.5" fill="white"/>
</g>
<g filter="url(#filter8_dd_2113_2706)">
<circle cx="356" cy="12.5" r="2.5" fill="white"/>
</g>
<g filter="url(#filter9_dd_2113_2706)">
<circle cx="400.5" cy="12.5" r="2.5" fill="white"/>
</g>
<g filter="url(#filter10_dd_2113_2706)">
<circle cx="44.5" cy="113.5" r="2.5" fill="white"/>
</g>
<g filter="url(#filter11_dd_2113_2706)">
<circle cx="89" cy="113.5" r="2.5" fill="white"/>
</g>
<g filter="url(#filter12_dd_2113_2706)">
<circle cx="133.5" cy="113.5" r="2.5" fill="white"/>
</g>
<g filter="url(#filter13_dd_2113_2706)">
<circle cx="178" cy="113.5" r="2.5" fill="white"/>
</g>
<g filter="url(#filter14_dd_2113_2706)">
<circle cx="222.5" cy="113.5" r="2.5" fill="white"/>
</g>
<g filter="url(#filter15_dd_2113_2706)">
<circle cx="267" cy="113.5" r="2.5" fill="white"/>
</g>
<g filter="url(#filter16_dd_2113_2706)">
<circle cx="311.5" cy="113.5" r="2.5" fill="white"/>
</g>
<g filter="url(#filter17_dd_2113_2706)">
<circle cx="356" cy="113.5" r="2.5" fill="white"/>
</g>
<g filter="url(#filter18_dd_2113_2706)">
<circle cx="400.5" cy="113.5" r="2.5" fill="white"/>
</g>
<g filter="url(#filter19_dd_2113_2706)">
<circle cx="12.5" cy="83.5" r="2.5" transform="rotate(-90 12.5 83.5)" fill="white"/>
</g>
<g filter="url(#filter20_dd_2113_2706)">
<circle cx="12.5" cy="42.5" r="2.5" transform="rotate(-90 12.5 42.5)" fill="white"/>
</g>
<g filter="url(#filter21_dd_2113_2706)">
<circle cx="432.5" cy="83.5" r="2.5" transform="rotate(-90 432.5 83.5)" fill="white"/>
</g>
<g filter="url(#filter22_dd_2113_2706)">
<circle cx="432.5" cy="42.5" r="2.5" transform="rotate(-90 432.5 42.5)" fill="white"/>
</g>
<path d="M106.194 59V46.904H108.588V51.89H114.762V46.904H117.156V59H114.762V53.726H108.588V59H106.194ZM119.844 59V50.18H122.148V59H119.844ZM119.628 47.66C119.628 46.85 120.204 46.274 120.996 46.274C121.806 46.274 122.382 46.85 122.382 47.66C122.382 48.47 121.806 49.046 120.996 49.046C120.204 49.046 119.628 48.47 119.628 47.66ZM132.962 50.18V58.838C132.962 61.232 130.964 62.96 128.21 62.96C127.076 62.96 125.798 62.708 124.466 62.15L125.096 60.44C126.212 60.944 127.22 61.16 128.03 61.16C129.578 61.16 130.658 60.242 130.658 58.928V57.992C130.028 58.784 129.11 59.216 128.012 59.216C125.654 59.216 123.98 57.308 123.98 54.59C123.98 51.872 125.654 49.964 128.012 49.964C129.2 49.964 130.19 50.45 130.838 51.314L131.126 50.18H132.962ZM126.32 54.59C126.32 56.228 127.274 57.398 128.606 57.398C129.848 57.398 130.712 56.462 130.712 55.184V53.996C130.712 52.7 129.848 51.782 128.606 51.782C127.274 51.782 126.32 52.934 126.32 54.59ZM135.313 59V46.328H137.617V51.314C138.247 50.45 139.291 49.964 140.479 49.964C142.495 49.964 143.917 51.35 143.917 53.33V59H141.613V53.69C141.613 52.61 140.839 51.854 139.777 51.854C138.535 51.854 137.617 52.79 137.617 54.14V59H135.313ZM148.427 46.328V56.48C148.427 57.038 148.787 57.38 149.327 57.38C149.543 57.38 149.831 57.326 150.119 57.272L150.371 59.018C149.795 59.144 149.237 59.216 148.769 59.216C147.149 59.216 146.123 58.244 146.123 56.714V46.328H148.427ZM151.643 59V50.18H153.947V59H151.643ZM151.427 47.66C151.427 46.85 152.003 46.274 152.795 46.274C153.605 46.274 154.181 46.85 154.181 47.66C154.181 48.47 153.605 49.046 152.795 49.046C152.003 49.046 151.427 48.47 151.427 47.66ZM164.761 50.18V58.838C164.761 61.232 162.763 62.96 160.009 62.96C158.875 62.96 157.597 62.708 156.265 62.15L156.895 60.44C158.011 60.944 159.019 61.16 159.829 61.16C161.377 61.16 162.457 60.242 162.457 58.928V57.992C161.827 58.784 160.909 59.216 159.811 59.216C157.453 59.216 155.779 57.308 155.779 54.59C155.779 51.872 157.453 49.964 159.811 49.964C160.999 49.964 161.989 50.45 162.637 51.314L162.925 50.18H164.761ZM158.119 54.59C158.119 56.228 159.073 57.398 160.405 57.398C161.647 57.398 162.511 56.462 162.511 55.184V53.996C162.511 52.7 161.647 51.782 160.405 51.782C159.073 51.782 158.119 52.934 158.119 54.59ZM167.111 59V46.328H169.415V51.314C170.045 50.45 171.089 49.964 172.277 49.964C174.293 49.964 175.715 51.35 175.715 53.33V59H173.411V53.69C173.411 52.61 172.637 51.854 171.575 51.854C170.333 51.854 169.415 52.79 169.415 54.14V59H167.111ZM180.879 47.588V50.18H183.327V51.926H180.879V56.138C180.879 56.876 181.383 57.38 182.121 57.38C182.463 57.38 182.841 57.326 183.255 57.218L183.561 58.946C182.859 59.126 182.193 59.216 181.563 59.216C179.799 59.216 178.575 58.064 178.575 56.372V51.926H176.937V50.18H178.575V47.588H180.879ZM189.225 59V50.18H191.529V59H189.225ZM189.009 47.66C189.009 46.85 189.585 46.274 190.377 46.274C191.187 46.274 191.763 46.85 191.763 47.66C191.763 48.47 191.187 49.046 190.377 49.046C189.585 49.046 189.009 48.47 189.009 47.66ZM193.883 59V50.18H195.719L196.007 51.458C196.673 50.504 197.771 49.964 199.049 49.964C201.065 49.964 202.487 51.35 202.487 53.33V59H200.183V53.69C200.183 52.61 199.409 51.854 198.347 51.854C197.105 51.854 196.187 52.79 196.187 54.14V59H193.883ZM217.052 50.18L213.128 59.99C212.336 61.988 211.22 62.96 209.6 62.96C209.222 62.96 208.736 62.906 208.232 62.798L208.538 60.998C208.844 61.07 209.15 61.124 209.384 61.124C210.176 61.124 210.644 60.692 211.058 59.666L211.364 58.892L207.728 50.18H210.14L212.426 56.39L214.658 50.18H217.052ZM217.671 54.59C217.671 51.872 219.525 49.964 222.189 49.964C224.691 49.964 226.437 51.782 226.437 54.428C226.437 54.68 226.419 54.932 226.401 55.166H219.975C220.137 56.57 221.253 57.506 222.765 57.506C223.521 57.506 224.385 57.272 225.303 56.768L226.005 58.334C224.763 58.946 223.521 59.216 222.477 59.216C219.633 59.216 217.671 57.308 217.671 54.59ZM222.189 51.674C221.001 51.674 220.119 52.52 219.975 53.78H224.223C224.151 52.52 223.341 51.674 222.189 51.674ZM230.412 46.328V56.48C230.412 57.038 230.772 57.38 231.312 57.38C231.528 57.38 231.816 57.326 232.104 57.272L232.356 59.018C231.78 59.144 231.222 59.216 230.754 59.216C229.134 59.216 228.108 58.244 228.108 56.714V46.328H230.412ZM235.72 46.328V56.48C235.72 57.038 236.08 57.38 236.62 57.38C236.836 57.38 237.124 57.326 237.412 57.272L237.664 59.018C237.088 59.144 236.53 59.216 236.062 59.216C234.442 59.216 233.416 58.244 233.416 56.714V46.328H235.72ZM238.203 54.59C238.203 51.872 240.165 49.964 242.955 49.964C245.763 49.964 247.725 51.872 247.725 54.59C247.725 57.308 245.763 59.216 242.955 59.216C240.165 59.216 238.203 57.308 238.203 54.59ZM240.543 54.59C240.543 56.246 241.551 57.416 242.955 57.416C244.377 57.416 245.385 56.246 245.385 54.59C245.385 52.916 244.377 51.764 242.955 51.764C241.551 51.764 240.543 52.916 240.543 54.59ZM262.104 50.18L259.242 59H257.01L255.282 52.808L253.572 59H251.34L248.46 50.18H250.782L252.492 56.372L254.22 50.18H256.362L258.072 56.372L259.8 50.18H262.104ZM275.183 46.904V48.74H270.197V51.656C270.629 51.584 271.079 51.566 271.457 51.566C273.995 51.566 275.615 53.042 275.615 55.346C275.615 57.596 273.797 59.216 271.187 59.216C269.855 59.216 268.523 58.82 267.353 58.118L268.235 56.426C269.189 57.002 270.143 57.326 271.007 57.326C272.447 57.326 273.365 56.534 273.365 55.292C273.365 53.978 272.393 53.168 270.719 53.168C269.981 53.168 269.135 53.276 268.181 53.492V46.904H275.183ZM281.814 54.59C281.814 51.872 283.74 49.964 286.476 49.964C287.646 49.964 288.798 50.306 289.86 50.99L288.924 52.538C288.24 52.07 287.538 51.8 286.8 51.8C285.252 51.8 284.154 52.952 284.154 54.59C284.154 56.228 285.252 57.38 286.8 57.38C287.538 57.38 288.24 57.092 288.924 56.624L289.86 58.19C288.798 58.874 287.646 59.216 286.476 59.216C283.74 59.216 281.814 57.29 281.814 54.59ZM290.603 54.59C290.603 51.872 292.565 49.964 295.355 49.964C298.163 49.964 300.125 51.872 300.125 54.59C300.125 57.308 298.163 59.216 295.355 59.216C292.565 59.216 290.603 57.308 290.603 54.59ZM292.943 54.59C292.943 56.246 293.951 57.416 295.355 57.416C296.777 57.416 297.785 56.246 297.785 54.59C297.785 52.916 296.777 51.764 295.355 51.764C293.951 51.764 292.943 52.916 292.943 54.59ZM301.936 59V50.18H303.772L304.06 51.548C304.564 50.594 305.518 50.036 306.67 50.036C306.976 50.036 307.372 50.072 307.732 50.162L307.516 51.998C307.21 51.926 306.832 51.872 306.49 51.872C305.122 51.872 304.24 52.934 304.24 54.446V59H301.936ZM309.16 59V50.18H310.996L311.284 51.548C311.788 50.594 312.742 50.036 313.894 50.036C314.2 50.036 314.596 50.072 314.956 50.162L314.74 51.998C314.434 51.926 314.056 51.872 313.714 51.872C312.346 51.872 311.464 52.934 311.464 54.446V59H309.16ZM315.652 54.59C315.652 51.872 317.506 49.964 320.17 49.964C322.672 49.964 324.418 51.782 324.418 54.428C324.418 54.68 324.4 54.932 324.382 55.166H317.956C318.118 56.57 319.234 57.506 320.746 57.506C321.502 57.506 322.366 57.272 323.284 56.768L323.986 58.334C322.744 58.946 321.502 59.216 320.458 59.216C317.614 59.216 315.652 57.308 315.652 54.59ZM320.17 51.674C318.982 51.674 318.1 52.52 317.956 53.78H322.204C322.132 52.52 321.322 51.674 320.17 51.674ZM325.566 54.59C325.566 51.872 327.492 49.964 330.228 49.964C331.398 49.964 332.55 50.306 333.612 50.99L332.676 52.538C331.992 52.07 331.29 51.8 330.552 51.8C329.004 51.8 327.906 52.952 327.906 54.59C327.906 56.228 329.004 57.38 330.552 57.38C331.29 57.38 331.992 57.092 332.676 56.624L333.612 58.19C332.55 58.874 331.398 59.216 330.228 59.216C327.492 59.216 325.566 57.29 325.566 54.59ZM338.467 47.588V50.18H340.915V51.926H338.467V56.138C338.467 56.876 338.971 57.38 339.709 57.38C340.051 57.38 340.429 57.326 340.843 57.218L341.149 58.946C340.447 59.126 339.781 59.216 339.151 59.216C337.387 59.216 336.163 58.064 336.163 56.372V51.926H334.525V50.18H336.163V47.588H338.467ZM58.7212 76.59C58.7212 73.872 60.6472 71.964 63.3832 71.964C64.5532 71.964 65.7052 72.306 66.7672 72.99L65.8312 74.538C65.1472 74.07 64.4452 73.8 63.7072 73.8C62.1592 73.8 61.0612 74.952 61.0612 76.59C61.0612 78.228 62.1592 79.38 63.7072 79.38C64.4452 79.38 65.1472 79.092 65.8312 78.624L66.7672 80.19C65.7052 80.874 64.5532 81.216 63.3832 81.216C60.6472 81.216 58.7212 79.29 58.7212 76.59ZM68.2432 81V68.328H70.5472V73.314C71.1772 72.45 72.2212 71.964 73.4092 71.964C75.4252 71.964 76.8472 73.35 76.8472 75.33V81H74.5432V75.69C74.5432 74.61 73.7692 73.854 72.7072 73.854C71.4652 73.854 70.5472 74.79 70.5472 76.14V81H68.2432ZM78.5318 78.444C78.5318 76.59 80.0438 75.51 82.5998 75.51C83.1398 75.51 83.7338 75.564 84.3098 75.69V75.222C84.3098 74.322 83.5898 73.674 82.4918 73.674C81.5918 73.674 80.6198 73.89 79.5938 74.304L79.0178 72.702C80.3318 72.198 81.5738 71.964 82.7618 71.964C84.9938 71.964 86.4698 73.296 86.4698 75.258V78.84C86.4698 79.218 86.7038 79.47 87.0818 79.47C87.2618 79.47 87.4598 79.434 87.5318 79.416L87.6938 81.09C87.3158 81.162 86.9018 81.216 86.4698 81.216C85.5698 81.216 84.8858 80.766 84.5798 80.028C83.8238 80.784 82.7618 81.216 81.6818 81.216C79.8458 81.216 78.5318 80.064 78.5318 78.444ZM80.7458 78.318C80.7458 79.038 81.4118 79.596 82.2758 79.596C83.4998 79.596 84.3098 78.75 84.3098 77.544V77.022C83.8418 76.896 83.3558 76.842 82.8698 76.842C81.5558 76.842 80.7458 77.4 80.7458 78.318ZM88.9679 81V72.18H90.8039L91.0919 73.548C91.5959 72.594 92.5499 72.036 93.7019 72.036C94.0079 72.036 94.4039 72.072 94.7639 72.162L94.5479 73.998C94.2419 73.926 93.8639 73.872 93.5219 73.872C92.1539 73.872 91.2719 74.934 91.2719 76.446V81H88.9679ZM95.4595 78.444C95.4595 76.59 96.9715 75.51 99.5275 75.51C100.068 75.51 100.662 75.564 101.238 75.69V75.222C101.238 74.322 100.518 73.674 99.4195 73.674C98.5195 73.674 97.5475 73.89 96.5215 74.304L95.9455 72.702C97.2595 72.198 98.5015 71.964 99.6895 71.964C101.922 71.964 103.398 73.296 103.398 75.258V78.84C103.398 79.218 103.632 79.47 104.01 79.47C104.19 79.47 104.388 79.434 104.46 79.416L104.622 81.09C104.244 81.162 103.83 81.216 103.398 81.216C102.498 81.216 101.814 80.766 101.508 80.028C100.752 80.784 99.6895 81.216 98.6095 81.216C96.7735 81.216 95.4595 80.064 95.4595 78.444ZM97.6735 78.318C97.6735 79.038 98.3395 79.596 99.2035 79.596C100.428 79.596 101.238 78.75 101.238 77.544V77.022C100.77 76.896 100.284 76.842 99.7975 76.842C98.4835 76.842 97.6735 77.4 97.6735 78.318ZM105.163 76.59C105.163 73.872 107.089 71.964 109.825 71.964C110.995 71.964 112.147 72.306 113.209 72.99L112.273 74.538C111.589 74.07 110.887 73.8 110.149 73.8C108.601 73.8 107.503 74.952 107.503 76.59C107.503 78.228 108.601 79.38 110.149 79.38C110.887 79.38 111.589 79.092 112.273 78.624L113.209 80.19C112.147 80.874 110.995 81.216 109.825 81.216C107.089 81.216 105.163 79.29 105.163 76.59ZM118.064 69.588V72.18H120.512V73.926H118.064V78.138C118.064 78.876 118.568 79.38 119.306 79.38C119.648 79.38 120.026 79.326 120.44 79.218L120.746 80.946C120.044 81.126 119.378 81.216 118.748 81.216C116.984 81.216 115.76 80.064 115.76 78.372V73.926H114.122V72.18H115.76V69.588H118.064ZM121.405 76.59C121.405 73.872 123.259 71.964 125.923 71.964C128.425 71.964 130.171 73.782 130.171 76.428C130.171 76.68 130.153 76.932 130.135 77.166H123.709C123.871 78.57 124.987 79.506 126.499 79.506C127.255 79.506 128.119 79.272 129.037 78.768L129.739 80.334C128.497 80.946 127.255 81.216 126.211 81.216C123.367 81.216 121.405 79.308 121.405 76.59ZM125.923 73.674C124.735 73.674 123.853 74.52 123.709 75.78H127.957C127.885 74.52 127.075 73.674 125.923 73.674ZM131.841 81V72.18H133.677L133.965 73.548C134.469 72.594 135.423 72.036 136.575 72.036C136.881 72.036 137.277 72.072 137.637 72.162L137.421 73.998C137.115 73.926 136.737 73.872 136.395 73.872C135.027 73.872 134.145 74.934 134.145 76.446V81H131.841ZM139.066 81V72.18H141.37V81H139.066ZM138.85 69.66C138.85 68.85 139.426 68.274 140.218 68.274C141.028 68.274 141.604 68.85 141.604 69.66C141.604 70.47 141.028 71.046 140.218 71.046C139.426 71.046 138.85 70.47 138.85 69.66ZM143.274 74.628C143.274 73.08 144.678 71.964 146.712 71.964C147.738 71.964 148.836 72.18 149.952 72.576L149.448 74.232C148.566 73.89 147.684 73.674 146.892 73.674C146.064 73.674 145.524 74.052 145.524 74.628C145.524 76.23 150.24 75.06 150.24 78.48C150.24 80.082 148.8 81.216 146.712 81.216C145.632 81.216 144.444 80.982 143.202 80.514L143.688 78.876C144.714 79.29 145.686 79.506 146.532 79.506C147.414 79.506 147.972 79.092 147.972 78.48C147.972 76.806 143.274 77.976 143.274 74.628ZM155.013 69.588V72.18H157.461V73.926H155.013V78.138C155.013 78.876 155.517 79.38 156.255 79.38C156.597 79.38 156.975 79.326 157.389 79.218L157.695 80.946C156.993 81.126 156.327 81.216 155.697 81.216C153.933 81.216 152.709 80.064 152.709 78.372V73.926H151.071V72.18H152.709V69.588H155.013ZM159.316 81V72.18H161.62V81H159.316ZM159.1 69.66C159.1 68.85 159.676 68.274 160.468 68.274C161.278 68.274 161.854 68.85 161.854 69.66C161.854 70.47 161.278 71.046 160.468 71.046C159.676 71.046 159.1 70.47 159.1 69.66ZM163.452 76.59C163.452 73.872 165.378 71.964 168.114 71.964C169.284 71.964 170.436 72.306 171.498 72.99L170.562 74.538C169.878 74.07 169.176 73.8 168.438 73.8C166.89 73.8 165.792 74.952 165.792 76.59C165.792 78.228 166.89 79.38 168.438 79.38C169.176 79.38 169.878 79.092 170.562 78.624L171.498 80.19C170.436 80.874 169.284 81.216 168.114 81.216C165.378 81.216 163.452 79.29 163.452 76.59ZM172.524 74.628C172.524 73.08 173.928 71.964 175.962 71.964C176.988 71.964 178.086 72.18 179.202 72.576L178.698 74.232C177.816 73.89 176.934 73.674 176.142 73.674C175.314 73.674 174.774 74.052 174.774 74.628C174.774 76.23 179.49 75.06 179.49 78.48C179.49 80.082 178.05 81.216 175.962 81.216C174.882 81.216 173.694 80.982 172.452 80.514L172.938 78.876C173.964 79.29 174.936 79.506 175.782 79.506C176.664 79.506 177.222 79.092 177.222 78.48C177.222 76.806 172.524 77.976 172.524 74.628ZM185.108 76.59C185.108 73.872 187.07 71.964 189.86 71.964C192.668 71.964 194.63 73.872 194.63 76.59C194.63 79.308 192.668 81.216 189.86 81.216C187.07 81.216 185.108 79.308 185.108 76.59ZM187.448 76.59C187.448 78.246 188.456 79.416 189.86 79.416C191.282 79.416 192.29 78.246 192.29 76.59C192.29 74.916 191.282 73.764 189.86 73.764C188.456 73.764 187.448 74.916 187.448 76.59ZM196.865 81V73.926H195.227V72.18H196.865V70.956C196.865 69.264 198.089 68.112 199.853 68.112C200.483 68.112 201.149 68.202 201.851 68.382L201.545 70.11C201.131 70.002 200.753 69.948 200.411 69.948C199.673 69.948 199.169 70.452 199.169 71.19V72.18H201.329V73.926H199.169V81H196.865ZM206.413 78.444C206.413 76.59 207.925 75.51 210.481 75.51C211.021 75.51 211.615 75.564 212.191 75.69V75.222C212.191 74.322 211.471 73.674 210.373 73.674C209.473 73.674 208.501 73.89 207.475 74.304L206.899 72.702C208.213 72.198 209.455 71.964 210.643 71.964C212.875 71.964 214.351 73.296 214.351 75.258V78.84C214.351 79.218 214.585 79.47 214.963 79.47C215.143 79.47 215.341 79.434 215.413 79.416L215.575 81.09C215.197 81.162 214.783 81.216 214.351 81.216C213.451 81.216 212.767 80.766 212.461 80.028C211.705 80.784 210.643 81.216 209.563 81.216C207.727 81.216 206.413 80.064 206.413 78.444ZM208.627 78.318C208.627 79.038 209.293 79.596 210.157 79.596C211.381 79.596 212.191 78.75 212.191 77.544V77.022C211.723 76.896 211.237 76.842 210.751 76.842C209.437 76.842 208.627 77.4 208.627 78.318ZM384.099 79.758C384.099 78.912 384.711 78.318 385.539 78.318C386.385 78.318 386.979 78.912 386.979 79.758C386.979 80.586 386.385 81.198 385.539 81.198C384.711 81.198 384.099 80.586 384.099 79.758Z" fill="#004C97"/>
<path d="M220.507 74.952C220.507 71.28 223.225 68.688 227.095 68.688C230.965 68.688 233.701 71.28 233.701 74.952C233.701 77.058 232.801 78.786 231.343 79.884L233.719 81.576L232.135 83.574L228.697 81.036C228.193 81.144 227.671 81.216 227.095 81.216C223.225 81.216 220.507 78.624 220.507 74.952ZM223.873 74.952C223.873 77.112 225.187 78.642 227.095 78.642C229.003 78.642 230.335 77.112 230.335 74.952C230.335 72.792 229.003 71.262 227.095 71.262C225.187 71.262 223.873 72.792 223.873 74.952ZM244.376 72.09V81H241.856L241.46 80.028C240.758 80.802 239.732 81.216 238.544 81.216C236.456 81.216 234.98 79.794 234.98 77.724V72.09H238.148V77.202C238.148 78.048 238.742 78.642 239.57 78.642C240.524 78.642 241.208 77.922 241.208 76.878V72.09H244.376ZM245.801 78.318C245.801 76.41 247.349 75.312 249.941 75.312C250.409 75.312 250.949 75.366 251.471 75.456V75.384C251.471 74.7 250.823 74.196 249.923 74.196C249.041 74.196 248.051 74.43 247.043 74.844L246.251 72.666C247.691 72.126 249.041 71.874 250.319 71.874C252.767 71.874 254.369 73.314 254.369 75.456V78.39C254.369 78.66 254.549 78.84 254.819 78.84C254.963 78.84 255.107 78.822 255.233 78.804L255.431 81.072C254.981 81.162 254.477 81.216 253.937 81.216C253.055 81.216 252.353 80.838 251.957 80.19C251.129 80.856 250.049 81.216 249.077 81.216C247.151 81.216 245.801 80.028 245.801 78.318ZM248.771 78.12C248.771 78.642 249.257 79.038 249.923 79.038C250.823 79.038 251.471 78.408 251.471 77.544V77.22C251.111 77.148 250.733 77.094 250.337 77.094C249.401 77.094 248.771 77.49 248.771 78.12ZM259.369 68.328V77.994C259.369 78.426 259.657 78.696 260.089 78.696C260.305 78.696 260.575 78.66 260.827 78.624L261.151 81C260.503 81.144 259.855 81.216 259.297 81.216C257.389 81.216 256.201 80.082 256.201 78.318V68.328H259.369ZM262.124 81V72.09H265.292V81H262.124ZM261.908 69.75C261.908 68.688 262.664 67.932 263.708 67.932C264.77 67.932 265.526 68.688 265.526 69.75C265.526 70.794 264.77 71.55 263.708 71.55C262.664 71.55 261.908 70.794 261.908 69.75ZM271.219 69.498V72.09H273.343V74.484H271.219V77.742C271.219 78.336 271.597 78.696 272.173 78.696C272.479 78.696 272.839 78.66 273.217 78.588L273.613 80.928C272.821 81.126 272.101 81.216 271.399 81.216C269.401 81.216 268.051 79.956 268.051 78.066V74.484H266.557V72.09H268.051V69.498H271.219ZM283.994 72.09L280.196 81.684C279.35 83.862 278 84.96 276.182 84.96C275.768 84.96 275.21 84.906 274.652 84.78L275.048 82.332C275.354 82.404 275.642 82.44 275.858 82.44C276.56 82.44 277.01 82.098 277.334 81.27L277.496 80.874L273.878 72.09H277.19L278.936 77.436L280.682 72.09H283.994ZM288.464 74.952C288.464 71.28 291.11 68.688 294.926 68.688C296.474 68.688 298.094 69.192 299.516 70.11L298.202 72.288C297.266 71.658 296.348 71.298 295.376 71.298C293.27 71.298 291.83 72.792 291.83 74.952C291.83 77.112 293.27 78.606 295.376 78.606C296.348 78.606 297.266 78.246 298.202 77.616L299.516 79.794C298.094 80.712 296.474 81.216 294.926 81.216C291.11 81.216 288.464 78.606 288.464 74.952ZM299.96 76.554C299.96 73.8 302.066 71.874 305.036 71.874C308.024 71.874 310.112 73.8 310.112 76.554C310.112 79.29 308.024 81.216 305.036 81.216C302.066 81.216 299.96 79.29 299.96 76.554ZM303.2 76.554C303.2 77.85 303.956 78.768 305.036 78.768C306.116 78.768 306.89 77.85 306.89 76.554C306.89 75.24 306.116 74.322 305.036 74.322C303.956 74.322 303.2 75.24 303.2 76.554ZM311.537 81V72.09H314.057L314.453 73.062C315.155 72.306 316.181 71.874 317.369 71.874C319.475 71.874 320.933 73.314 320.933 75.366V81H317.765V75.888C317.765 75.06 317.171 74.466 316.361 74.466C315.389 74.466 314.705 75.186 314.705 76.23V81H311.537ZM322.286 74.754C322.286 73.116 323.816 71.874 326.012 71.874C327.128 71.874 328.316 72.108 329.522 72.522L328.856 74.772C327.956 74.43 327.056 74.196 326.264 74.196C325.706 74.196 325.382 74.412 325.382 74.754C325.382 75.816 329.81 74.754 329.81 78.264C329.81 79.974 328.262 81.216 326.012 81.216C324.824 81.216 323.546 80.982 322.214 80.496L322.88 78.246C323.924 78.678 324.878 78.894 325.742 78.894C326.354 78.894 326.696 78.642 326.696 78.264C326.696 77.148 322.286 78.192 322.286 74.754ZM340.476 72.09V81H337.956L337.56 80.028C336.858 80.802 335.832 81.216 334.644 81.216C332.556 81.216 331.08 79.794 331.08 77.724V72.09H334.248V77.202C334.248 78.048 334.842 78.642 335.67 78.642C336.624 78.642 337.308 77.922 337.308 76.878V72.09H340.476ZM345.519 68.328V77.994C345.519 78.426 345.807 78.696 346.239 78.696C346.455 78.696 346.725 78.66 346.977 78.624L347.301 81C346.653 81.144 346.005 81.216 345.447 81.216C343.539 81.216 342.351 80.082 342.351 78.318V68.328H345.519ZM351.656 69.498V72.09H353.78V74.484H351.656V77.742C351.656 78.336 352.034 78.696 352.61 78.696C352.916 78.696 353.276 78.66 353.654 78.588L354.05 80.928C353.258 81.126 352.538 81.216 351.836 81.216C349.838 81.216 348.488 79.956 348.488 78.066V74.484H346.994V72.09H348.488V69.498H351.656ZM354.874 78.318C354.874 76.41 356.422 75.312 359.014 75.312C359.482 75.312 360.022 75.366 360.544 75.456V75.384C360.544 74.7 359.896 74.196 358.996 74.196C358.114 74.196 357.124 74.43 356.116 74.844L355.324 72.666C356.764 72.126 358.114 71.874 359.392 71.874C361.84 71.874 363.442 73.314 363.442 75.456V78.39C363.442 78.66 363.622 78.84 363.892 78.84C364.036 78.84 364.18 78.822 364.306 78.804L364.504 81.072C364.054 81.162 363.55 81.216 363.01 81.216C362.128 81.216 361.426 80.838 361.03 80.19C360.202 80.856 359.122 81.216 358.15 81.216C356.224 81.216 354.874 80.028 354.874 78.318ZM357.844 78.12C357.844 78.642 358.33 79.038 358.996 79.038C359.896 79.038 360.544 78.408 360.544 77.544V77.22C360.184 77.148 359.806 77.094 359.41 77.094C358.474 77.094 357.844 77.49 357.844 78.12ZM365.484 81V72.09H368.004L368.4 73.062C369.102 72.306 370.128 71.874 371.316 71.874C373.422 71.874 374.88 73.314 374.88 75.366V81H371.712V75.888C371.712 75.06 371.118 74.466 370.308 74.466C369.336 74.466 368.652 75.186 368.652 76.23V81H365.484ZM380.432 69.498V72.09H382.556V74.484H380.432V77.742C380.432 78.336 380.81 78.696 381.386 78.696C381.692 78.696 382.052 78.66 382.43 78.588L382.826 80.928C382.034 81.126 381.314 81.216 380.612 81.216C378.614 81.216 377.264 79.956 377.264 78.066V74.484H375.77V72.09H377.264V69.498H380.432Z" fill="#0076CF"/>
<rect x="186" y="1.5" width="74" height="22" rx="11" fill="url(#paint2_linear_2113_2706)"/>
<rect x="186" y="1.5" width="74" height="22" rx="11" stroke="url(#paint3_linear_2113_2706)"/>
<path d="M195.354 17V7.592H196.502V16.09H201.066V17H195.354ZM201.83 13.598C201.83 11.498 203.202 10.028 205.148 10.028C206.968 10.028 208.228 11.442 208.228 13.472C208.228 13.612 208.228 13.738 208.214 13.878H202.95C203.048 15.32 204.056 16.314 205.484 16.314C206.1 16.314 206.814 16.132 207.542 15.74L207.892 16.51C206.996 16.958 206.128 17.168 205.372 17.168C203.3 17.168 201.83 15.698 201.83 13.598ZM205.148 10.882C203.93 10.882 203.062 11.792 202.95 13.164H207.15C207.108 11.82 206.296 10.882 205.148 10.882ZM215.527 10.196L212.727 17H211.691L208.891 10.196H210.053L212.209 15.712L214.351 10.196H215.527ZM216.281 13.598C216.281 11.498 217.653 10.028 219.599 10.028C221.419 10.028 222.679 11.442 222.679 13.472C222.679 13.612 222.679 13.738 222.665 13.878H217.401C217.499 15.32 218.507 16.314 219.935 16.314C220.551 16.314 221.265 16.132 221.993 15.74L222.343 16.51C221.447 16.958 220.579 17.168 219.823 17.168C217.751 17.168 216.281 15.698 216.281 13.598ZM219.599 10.882C218.381 10.882 217.513 11.792 217.401 13.164H221.601C221.559 11.82 220.747 10.882 219.599 10.882ZM225.397 7.144V15.432C225.397 15.936 225.719 16.258 226.223 16.258C226.419 16.258 226.657 16.216 226.895 16.16L227.035 17.042C226.657 17.126 226.293 17.168 225.985 17.168C224.935 17.168 224.291 16.538 224.291 15.53V7.144H225.397ZM233.242 12.604V11.764H233.816C235.146 11.764 236.056 11.036 236.056 10.014C236.056 9.02 235.314 8.334 234.222 8.334C233.494 8.334 232.724 8.53 231.856 8.922L231.492 8.082C232.514 7.62 233.48 7.424 234.39 7.424C236.028 7.424 237.162 8.446 237.162 9.916C237.162 10.994 236.49 11.848 235.44 12.156C236.616 12.478 237.386 13.416 237.386 14.564C237.386 16.104 236.154 17.168 234.39 17.168C233.424 17.168 232.346 16.958 231.268 16.454L231.632 15.614C232.542 16.034 233.424 16.258 234.208 16.258C235.398 16.258 236.252 15.516 236.252 14.466C236.252 13.36 235.258 12.604 233.816 12.604H233.242ZM238.732 18.694L242.96 6.948L243.856 7.242L239.628 18.988L238.732 18.694ZM246.681 12.604V11.764H247.255C248.585 11.764 249.495 11.036 249.495 10.014C249.495 9.02 248.753 8.334 247.661 8.334C246.933 8.334 246.163 8.53 245.295 8.922L244.931 8.082C245.953 7.62 246.919 7.424 247.829 7.424C249.467 7.424 250.601 8.446 250.601 9.916C250.601 10.994 249.929 11.848 248.879 12.156C250.055 12.478 250.825 13.416 250.825 14.564C250.825 16.104 249.593 17.168 247.829 17.168C246.863 17.168 245.785 16.958 244.707 16.454L245.071 15.614C245.981 16.034 246.863 16.258 247.647 16.258C248.837 16.258 249.691 15.516 249.691 14.466C249.691 13.36 248.697 12.604 247.255 12.604H246.681Z" fill="white"/>
<defs>
<filter id="filter0_i_2113_2706" x="18" y="18" width="410" height="91" filterUnits="userSpaceOnUse" color-interpolation-filters="sRGB">
<feFlood flood-opacity="0" result="BackgroundImageFix"/>
<feBlend mode="normal" in="SourceGraphic" in2="BackgroundImageFix" result="shape"/>
<feColorMatrix in="SourceAlpha" type="matrix" values="0 0 0 0 0 0 0 0 0 0 0 0 0 0 0 0 0 0 127 0" result="hardAlpha"/>
<feOffset dx="1" dy="1"/>
<feGaussianBlur stdDeviation="5"/>
<feComposite in2="hardAlpha" operator="arithmetic" k2="-1" k3="1"/>
<feColorMatrix type="matrix" values="0 0 0 0 0 0 0 0 0 0.180773 0 0 0 0 0.359167 0 0 0 0.5 0"/>
<feBlend mode="normal" in2="shape" result="effect1_innerShadow_2113_2706"/>
</filter>
<filter id="filter1_dd_2113_2706" x="32" y="0" width="25" height="25" filterUnits="userSpaceOnUse" color-interpolation-filters="sRGB">
<feFlood flood-opacity="0" result="BackgroundImageFix"/>
<feColorMatrix in="SourceAlpha" type="matrix" values="0 0 0 0 0 0 0 0 0 0 0 0 0 0 0 0 0 0 127 0" result="hardAlpha"/>
<feOffset/>
<feGaussianBlur stdDeviation="5"/>
<feComposite in2="hardAlpha" operator="out"/>
<feColorMatrix type="matrix" values="0 0 0 0 0.964706 0 0 0 0 1 0 0 0 0 0.8 0 0 0 1 0"/>
<feBlend mode="normal" in2="BackgroundImageFix" result="effect1_dropShadow_2113_2706"/>
<feColorMatrix in="SourceAlpha" type="matrix" values="0 0 0 0 0 0 0 0 0 0 0 0 0 0 0 0 0 0 127 0" result="hardAlpha"/>
<feOffset/>
<feGaussianBlur stdDeviation="1.5"/>
<feComposite in2="hardAlpha" operator="out"/>
<feColorMatrix type="matrix" values="0 0 0 0 0.964706 0 0 0 0 1 0 0 0 0 0.8 0 0 0 1 0"/>
<feBlend mode="normal" in2="effect1_dropShadow_2113_2706" result="effect2_dropShadow_2113_2706"/>
<feBlend mode="normal" in="SourceGraphic" in2="effect2_dropShadow_2113_2706" result="shape"/>
</filter>
<filter id="filter2_dd_2113_2706" x="76.5" y="0" width="25" height="25" filterUnits="userSpaceOnUse" color-interpolation-filters="sRGB">
<feFlood flood-opacity="0" result="BackgroundImageFix"/>
<feColorMatrix in="SourceAlpha" type="matrix" values="0 0 0 0 0 0 0 0 0 0 0 0 0 0 0 0 0 0 127 0" result="hardAlpha"/>
<feOffset/>
<feGaussianBlur stdDeviation="5"/>
<feComposite in2="hardAlpha" operator="out"/>
<feColorMatrix type="matrix" values="0 0 0 0 0.964706 0 0 0 0 1 0 0 0 0 0.8 0 0 0 1 0"/>
<feBlend mode="normal" in2="BackgroundImageFix" result="effect1_dropShadow_2113_2706"/>
<feColorMatrix in="SourceAlpha" type="matrix" values="0 0 0 0 0 0 0 0 0 0 0 0 0 0 0 0 0 0 127 0" result="hardAlpha"/>
<feOffset/>
<feGaussianBlur stdDeviation="1.5"/>
<feComposite in2="hardAlpha" operator="out"/>
<feColorMatrix type="matrix" values="0 0 0 0 0.964706 0 0 0 0 1 0 0 0 0 0.8 0 0 0 1 0"/>
<feBlend mode="normal" in2="effect1_dropShadow_2113_2706" result="effect2_dropShadow_2113_2706"/>
<feBlend mode="normal" in="SourceGraphic" in2="effect2_dropShadow_2113_2706" result="shape"/>
</filter>
<filter id="filter3_dd_2113_2706" x="121" y="0" width="25" height="25" filterUnits="userSpaceOnUse" color-interpolation-filters="sRGB">
<feFlood flood-opacity="0" result="BackgroundImageFix"/>
<feColorMatrix in="SourceAlpha" type="matrix" values="0 0 0 0 0 0 0 0 0 0 0 0 0 0 0 0 0 0 127 0" result="hardAlpha"/>
<feOffset/>
<feGaussianBlur stdDeviation="5"/>
<feComposite in2="hardAlpha" operator="out"/>
<feColorMatrix type="matrix" values="0 0 0 0 0.964706 0 0 0 0 1 0 0 0 0 0.8 0 0 0 1 0"/>
<feBlend mode="normal" in2="BackgroundImageFix" result="effect1_dropShadow_2113_2706"/>
<feColorMatrix in="SourceAlpha" type="matrix" values="0 0 0 0 0 0 0 0 0 0 0 0 0 0 0 0 0 0 127 0" result="hardAlpha"/>
<feOffset/>
<feGaussianBlur stdDeviation="1.5"/>
<feComposite in2="hardAlpha" operator="out"/>
<feColorMatrix type="matrix" values="0 0 0 0 0.964706 0 0 0 0 1 0 0 0 0 0.8 0 0 0 1 0"/>
<feBlend mode="normal" in2="effect1_dropShadow_2113_2706" result="effect2_dropShadow_2113_2706"/>
<feBlend mode="normal" in="SourceGraphic" in2="effect2_dropShadow_2113_2706" result="shape"/>
</filter>
<filter id="filter4_dd_2113_2706" x="165.5" y="0" width="25" height="25" filterUnits="userSpaceOnUse" color-interpolation-filters="sRGB">
<feFlood flood-opacity="0" result="BackgroundImageFix"/>
<feColorMatrix in="SourceAlpha" type="matrix" values="0 0 0 0 0 0 0 0 0 0 0 0 0 0 0 0 0 0 127 0" result="hardAlpha"/>
<feOffset/>
<feGaussianBlur stdDeviation="5"/>
<feComposite in2="hardAlpha" operator="out"/>
<feColorMatrix type="matrix" values="0 0 0 0 0.964706 0 0 0 0 1 0 0 0 0 0.8 0 0 0 1 0"/>
<feBlend mode="normal" in2="BackgroundImageFix" result="effect1_dropShadow_2113_2706"/>
<feColorMatrix in="SourceAlpha" type="matrix" values="0 0 0 0 0 0 0 0 0 0 0 0 0 0 0 0 0 0 127 0" result="hardAlpha"/>
<feOffset/>
<feGaussianBlur stdDeviation="1.5"/>
<feComposite in2="hardAlpha" operator="out"/>
<feColorMatrix type="matrix" values="0 0 0 0 0.964706 0 0 0 0 1 0 0 0 0 0.8 0 0 0 1 0"/>
<feBlend mode="normal" in2="effect1_dropShadow_2113_2706" result="effect2_dropShadow_2113_2706"/>
<feBlend mode="normal" in="SourceGraphic" in2="effect2_dropShadow_2113_2706" result="shape"/>
</filter>
<filter id="filter5_dd_2113_2706" x="210" y="0" width="25" height="25" filterUnits="userSpaceOnUse" color-interpolation-filters="sRGB">
<feFlood flood-opacity="0" result="BackgroundImageFix"/>
<feColorMatrix in="SourceAlpha" type="matrix" values="0 0 0 0 0 0 0 0 0 0 0 0 0 0 0 0 0 0 127 0" result="hardAlpha"/>
<feOffset/>
<feGaussianBlur stdDeviation="5"/>
<feComposite in2="hardAlpha" operator="out"/>
<feColorMatrix type="matrix" values="0 0 0 0 0.964706 0 0 0 0 1 0 0 0 0 0.8 0 0 0 1 0"/>
<feBlend mode="normal" in2="BackgroundImageFix" result="effect1_dropShadow_2113_2706"/>
<feColorMatrix in="SourceAlpha" type="matrix" values="0 0 0 0 0 0 0 0 0 0 0 0 0 0 0 0 0 0 127 0" result="hardAlpha"/>
<feOffset/>
<feGaussianBlur stdDeviation="1.5"/>
<feComposite in2="hardAlpha" operator="out"/>
<feColorMatrix type="matrix" values="0 0 0 0 0.964706 0 0 0 0 1 0 0 0 0 0.8 0 0 0 1 0"/>
<feBlend mode="normal" in2="effect1_dropShadow_2113_2706" result="effect2_dropShadow_2113_2706"/>
<feBlend mode="normal" in="SourceGraphic" in2="effect2_dropShadow_2113_2706" result="shape"/>
</filter>
<filter id="filter6_dd_2113_2706" x="254.5" y="0" width="25" height="25" filterUnits="userSpaceOnUse" color-interpolation-filters="sRGB">
<feFlood flood-opacity="0" result="BackgroundImageFix"/>
<feColorMatrix in="SourceAlpha" type="matrix" values="0 0 0 0 0 0 0 0 0 0 0 0 0 0 0 0 0 0 127 0" result="hardAlpha"/>
<feOffset/>
<feGaussianBlur stdDeviation="5"/>
<feComposite in2="hardAlpha" operator="out"/>
<feColorMatrix type="matrix" values="0 0 0 0 0.964706 0 0 0 0 1 0 0 0 0 0.8 0 0 0 1 0"/>
<feBlend mode="normal" in2="BackgroundImageFix" result="effect1_dropShadow_2113_2706"/>
<feColorMatrix in="SourceAlpha" type="matrix" values="0 0 0 0 0 0 0 0 0 0 0 0 0 0 0 0 0 0 127 0" result="hardAlpha"/>
<feOffset/>
<feGaussianBlur stdDeviation="1.5"/>
<feComposite in2="hardAlpha" operator="out"/>
<feColorMatrix type="matrix" values="0 0 0 0 0.964706 0 0 0 0 1 0 0 0 0 0.8 0 0 0 1 0"/>
<feBlend mode="normal" in2="effect1_dropShadow_2113_2706" result="effect2_dropShadow_2113_2706"/>
<feBlend mode="normal" in="SourceGraphic" in2="effect2_dropShadow_2113_2706" result="shape"/>
</filter>
<filter id="filter7_dd_2113_2706" x="299" y="0" width="25" height="25" filterUnits="userSpaceOnUse" color-interpolation-filters="sRGB">
<feFlood flood-opacity="0" result="BackgroundImageFix"/>
<feColorMatrix in="SourceAlpha" type="matrix" values="0 0 0 0 0 0 0 0 0 0 0 0 0 0 0 0 0 0 127 0" result="hardAlpha"/>
<feOffset/>
<feGaussianBlur stdDeviation="5"/>
<feComposite in2="hardAlpha" operator="out"/>
<feColorMatrix type="matrix" values="0 0 0 0 0.964706 0 0 0 0 1 0 0 0 0 0.8 0 0 0 1 0"/>
<feBlend mode="normal" in2="BackgroundImageFix" result="effect1_dropShadow_2113_2706"/>
<feColorMatrix in="SourceAlpha" type="matrix" values="0 0 0 0 0 0 0 0 0 0 0 0 0 0 0 0 0 0 127 0" result="hardAlpha"/>
<feOffset/>
<feGaussianBlur stdDeviation="1.5"/>
<feComposite in2="hardAlpha" operator="out"/>
<feColorMatrix type="matrix" values="0 0 0 0 0.964706 0 0 0 0 1 0 0 0 0 0.8 0 0 0 1 0"/>
<feBlend mode="normal" in2="effect1_dropShadow_2113_2706" result="effect2_dropShadow_2113_2706"/>
<feBlend mode="normal" in="SourceGraphic" in2="effect2_dropShadow_2113_2706" result="shape"/>
</filter>
<filter id="filter8_dd_2113_2706" x="343.5" y="0" width="25" height="25" filterUnits="userSpaceOnUse" color-interpolation-filters="sRGB">
<feFlood flood-opacity="0" result="BackgroundImageFix"/>
<feColorMatrix in="SourceAlpha" type="matrix" values="0 0 0 0 0 0 0 0 0 0 0 0 0 0 0 0 0 0 127 0" result="hardAlpha"/>
<feOffset/>
<feGaussianBlur stdDeviation="5"/>
<feComposite in2="hardAlpha" operator="out"/>
<feColorMatrix type="matrix" values="0 0 0 0 0.964706 0 0 0 0 1 0 0 0 0 0.8 0 0 0 1 0"/>
<feBlend mode="normal" in2="BackgroundImageFix" result="effect1_dropShadow_2113_2706"/>
<feColorMatrix in="SourceAlpha" type="matrix" values="0 0 0 0 0 0 0 0 0 0 0 0 0 0 0 0 0 0 127 0" result="hardAlpha"/>
<feOffset/>
<feGaussianBlur stdDeviation="1.5"/>
<feComposite in2="hardAlpha" operator="out"/>
<feColorMatrix type="matrix" values="0 0 0 0 0.964706 0 0 0 0 1 0 0 0 0 0.8 0 0 0 1 0"/>
<feBlend mode="normal" in2="effect1_dropShadow_2113_2706" result="effect2_dropShadow_2113_2706"/>
<feBlend mode="normal" in="SourceGraphic" in2="effect2_dropShadow_2113_2706" result="shape"/>
</filter>
<filter id="filter9_dd_2113_2706" x="388" y="0" width="25" height="25" filterUnits="userSpaceOnUse" color-interpolation-filters="sRGB">
<feFlood flood-opacity="0" result="BackgroundImageFix"/>
<feColorMatrix in="SourceAlpha" type="matrix" values="0 0 0 0 0 0 0 0 0 0 0 0 0 0 0 0 0 0 127 0" result="hardAlpha"/>
<feOffset/>
<feGaussianBlur stdDeviation="5"/>
<feComposite in2="hardAlpha" operator="out"/>
<feColorMatrix type="matrix" values="0 0 0 0 0.964706 0 0 0 0 1 0 0 0 0 0.8 0 0 0 1 0"/>
<feBlend mode="normal" in2="BackgroundImageFix" result="effect1_dropShadow_2113_2706"/>
<feColorMatrix in="SourceAlpha" type="matrix" values="0 0 0 0 0 0 0 0 0 0 0 0 0 0 0 0 0 0 127 0" result="hardAlpha"/>
<feOffset/>
<feGaussianBlur stdDeviation="1.5"/>
<feComposite in2="hardAlpha" operator="out"/>
<feColorMatrix type="matrix" values="0 0 0 0 0.964706 0 0 0 0 1 0 0 0 0 0.8 0 0 0 1 0"/>
<feBlend mode="normal" in2="effect1_dropShadow_2113_2706" result="effect2_dropShadow_2113_2706"/>
<feBlend mode="normal" in="SourceGraphic" in2="effect2_dropShadow_2113_2706" result="shape"/>
</filter>
<filter id="filter10_dd_2113_2706" x="32" y="101" width="25" height="25" filterUnits="userSpaceOnUse" color-interpolation-filters="sRGB">
<feFlood flood-opacity="0" result="BackgroundImageFix"/>
<feColorMatrix in="SourceAlpha" type="matrix" values="0 0 0 0 0 0 0 0 0 0 0 0 0 0 0 0 0 0 127 0" result="hardAlpha"/>
<feOffset/>
<feGaussianBlur stdDeviation="5"/>
<feComposite in2="hardAlpha" operator="out"/>
<feColorMatrix type="matrix" values="0 0 0 0 0.964706 0 0 0 0 1 0 0 0 0 0.8 0 0 0 1 0"/>
<feBlend mode="normal" in2="BackgroundImageFix" result="effect1_dropShadow_2113_2706"/>
<feColorMatrix in="SourceAlpha" type="matrix" values="0 0 0 0 0 0 0 0 0 0 0 0 0 0 0 0 0 0 127 0" result="hardAlpha"/>
<feOffset/>
<feGaussianBlur stdDeviation="1.5"/>
<feComposite in2="hardAlpha" operator="out"/>
<feColorMatrix type="matrix" values="0 0 0 0 0.964706 0 0 0 0 1 0 0 0 0 0.8 0 0 0 1 0"/>
<feBlend mode="normal" in2="effect1_dropShadow_2113_2706" result="effect2_dropShadow_2113_2706"/>
<feBlend mode="normal" in="SourceGraphic" in2="effect2_dropShadow_2113_2706" result="shape"/>
</filter>
<filter id="filter11_dd_2113_2706" x="76.5" y="101" width="25" height="25" filterUnits="userSpaceOnUse" color-interpolation-filters="sRGB">
<feFlood flood-opacity="0" result="BackgroundImageFix"/>
<feColorMatrix in="SourceAlpha" type="matrix" values="0 0 0 0 0 0 0 0 0 0 0 0 0 0 0 0 0 0 127 0" result="hardAlpha"/>
<feOffset/>
<feGaussianBlur stdDeviation="5"/>
<feComposite in2="hardAlpha" operator="out"/>
<feColorMatrix type="matrix" values="0 0 0 0 0.964706 0 0 0 0 1 0 0 0 0 0.8 0 0 0 1 0"/>
<feBlend mode="normal" in2="BackgroundImageFix" result="effect1_dropShadow_2113_2706"/>
<feColorMatrix in="SourceAlpha" type="matrix" values="0 0 0 0 0 0 0 0 0 0 0 0 0 0 0 0 0 0 127 0" result="hardAlpha"/>
<feOffset/>
<feGaussianBlur stdDeviation="1.5"/>
<feComposite in2="hardAlpha" operator="out"/>
<feColorMatrix type="matrix" values="0 0 0 0 0.964706 0 0 0 0 1 0 0 0 0 0.8 0 0 0 1 0"/>
<feBlend mode="normal" in2="effect1_dropShadow_2113_2706" result="effect2_dropShadow_2113_2706"/>
<feBlend mode="normal" in="SourceGraphic" in2="effect2_dropShadow_2113_2706" result="shape"/>
</filter>
<filter id="filter12_dd_2113_2706" x="121" y="101" width="25" height="25" filterUnits="userSpaceOnUse" color-interpolation-filters="sRGB">
<feFlood flood-opacity="0" result="BackgroundImageFix"/>
<feColorMatrix in="SourceAlpha" type="matrix" values="0 0 0 0 0 0 0 0 0 0 0 0 0 0 0 0 0 0 127 0" result="hardAlpha"/>
<feOffset/>
<feGaussianBlur stdDeviation="5"/>
<feComposite in2="hardAlpha" operator="out"/>
<feColorMatrix type="matrix" values="0 0 0 0 0.964706 0 0 0 0 1 0 0 0 0 0.8 0 0 0 1 0"/>
<feBlend mode="normal" in2="BackgroundImageFix" result="effect1_dropShadow_2113_2706"/>
<feColorMatrix in="SourceAlpha" type="matrix" values="0 0 0 0 0 0 0 0 0 0 0 0 0 0 0 0 0 0 127 0" result="hardAlpha"/>
<feOffset/>
<feGaussianBlur stdDeviation="1.5"/>
<feComposite in2="hardAlpha" operator="out"/>
<feColorMatrix type="matrix" values="0 0 0 0 0.964706 0 0 0 0 1 0 0 0 0 0.8 0 0 0 1 0"/>
<feBlend mode="normal" in2="effect1_dropShadow_2113_2706" result="effect2_dropShadow_2113_2706"/>
<feBlend mode="normal" in="SourceGraphic" in2="effect2_dropShadow_2113_2706" result="shape"/>
</filter>
<filter id="filter13_dd_2113_2706" x="165.5" y="101" width="25" height="25" filterUnits="userSpaceOnUse" color-interpolation-filters="sRGB">
<feFlood flood-opacity="0" result="BackgroundImageFix"/>
<feColorMatrix in="SourceAlpha" type="matrix" values="0 0 0 0 0 0 0 0 0 0 0 0 0 0 0 0 0 0 127 0" result="hardAlpha"/>
<feOffset/>
<feGaussianBlur stdDeviation="5"/>
<feComposite in2="hardAlpha" operator="out"/>
<feColorMatrix type="matrix" values="0 0 0 0 0.964706 0 0 0 0 1 0 0 0 0 0.8 0 0 0 1 0"/>
<feBlend mode="normal" in2="BackgroundImageFix" result="effect1_dropShadow_2113_2706"/>
<feColorMatrix in="SourceAlpha" type="matrix" values="0 0 0 0 0 0 0 0 0 0 0 0 0 0 0 0 0 0 127 0" result="hardAlpha"/>
<feOffset/>
<feGaussianBlur stdDeviation="1.5"/>
<feComposite in2="hardAlpha" operator="out"/>
<feColorMatrix type="matrix" values="0 0 0 0 0.964706 0 0 0 0 1 0 0 0 0 0.8 0 0 0 1 0"/>
<feBlend mode="normal" in2="effect1_dropShadow_2113_2706" result="effect2_dropShadow_2113_2706"/>
<feBlend mode="normal" in="SourceGraphic" in2="effect2_dropShadow_2113_2706" result="shape"/>
</filter>
<filter id="filter14_dd_2113_2706" x="210" y="101" width="25" height="25" filterUnits="userSpaceOnUse" color-interpolation-filters="sRGB">
<feFlood flood-opacity="0" result="BackgroundImageFix"/>
<feColorMatrix in="SourceAlpha" type="matrix" values="0 0 0 0 0 0 0 0 0 0 0 0 0 0 0 0 0 0 127 0" result="hardAlpha"/>
<feOffset/>
<feGaussianBlur stdDeviation="5"/>
<feComposite in2="hardAlpha" operator="out"/>
<feColorMatrix type="matrix" values="0 0 0 0 0.964706 0 0 0 0 1 0 0 0 0 0.8 0 0 0 1 0"/>
<feBlend mode="normal" in2="BackgroundImageFix" result="effect1_dropShadow_2113_2706"/>
<feColorMatrix in="SourceAlpha" type="matrix" values="0 0 0 0 0 0 0 0 0 0 0 0 0 0 0 0 0 0 127 0" result="hardAlpha"/>
<feOffset/>
<feGaussianBlur stdDeviation="1.5"/>
<feComposite in2="hardAlpha" operator="out"/>
<feColorMatrix type="matrix" values="0 0 0 0 0.964706 0 0 0 0 1 0 0 0 0 0.8 0 0 0 1 0"/>
<feBlend mode="normal" in2="effect1_dropShadow_2113_2706" result="effect2_dropShadow_2113_2706"/>
<feBlend mode="normal" in="SourceGraphic" in2="effect2_dropShadow_2113_2706" result="shape"/>
</filter>
<filter id="filter15_dd_2113_2706" x="254.5" y="101" width="25" height="25" filterUnits="userSpaceOnUse" color-interpolation-filters="sRGB">
<feFlood flood-opacity="0" result="BackgroundImageFix"/>
<feColorMatrix in="SourceAlpha" type="matrix" values="0 0 0 0 0 0 0 0 0 0 0 0 0 0 0 0 0 0 127 0" result="hardAlpha"/>
<feOffset/>
<feGaussianBlur stdDeviation="5"/>
<feComposite in2="hardAlpha" operator="out"/>
<feColorMatrix type="matrix" values="0 0 0 0 0.964706 0 0 0 0 1 0 0 0 0 0.8 0 0 0 1 0"/>
<feBlend mode="normal" in2="BackgroundImageFix" result="effect1_dropShadow_2113_2706"/>
<feColorMatrix in="SourceAlpha" type="matrix" values="0 0 0 0 0 0 0 0 0 0 0 0 0 0 0 0 0 0 127 0" result="hardAlpha"/>
<feOffset/>
<feGaussianBlur stdDeviation="1.5"/>
<feComposite in2="hardAlpha" operator="out"/>
<feColorMatrix type="matrix" values="0 0 0 0 0.964706 0 0 0 0 1 0 0 0 0 0.8 0 0 0 1 0"/>
<feBlend mode="normal" in2="effect1_dropShadow_2113_2706" result="effect2_dropShadow_2113_2706"/>
<feBlend mode="normal" in="SourceGraphic" in2="effect2_dropShadow_2113_2706" result="shape"/>
</filter>
<filter id="filter16_dd_2113_2706" x="299" y="101" width="25" height="25" filterUnits="userSpaceOnUse" color-interpolation-filters="sRGB">
<feFlood flood-opacity="0" result="BackgroundImageFix"/>
<feColorMatrix in="SourceAlpha" type="matrix" values="0 0 0 0 0 0 0 0 0 0 0 0 0 0 0 0 0 0 127 0" result="hardAlpha"/>
<feOffset/>
<feGaussianBlur stdDeviation="5"/>
<feComposite in2="hardAlpha" operator="out"/>
<feColorMatrix type="matrix" values="0 0 0 0 0.964706 0 0 0 0 1 0 0 0 0 0.8 0 0 0 1 0"/>
<feBlend mode="normal" in2="BackgroundImageFix" result="effect1_dropShadow_2113_2706"/>
<feColorMatrix in="SourceAlpha" type="matrix" values="0 0 0 0 0 0 0 0 0 0 0 0 0 0 0 0 0 0 127 0" result="hardAlpha"/>
<feOffset/>
<feGaussianBlur stdDeviation="1.5"/>
<feComposite in2="hardAlpha" operator="out"/>
<feColorMatrix type="matrix" values="0 0 0 0 0.964706 0 0 0 0 1 0 0 0 0 0.8 0 0 0 1 0"/>
<feBlend mode="normal" in2="effect1_dropShadow_2113_2706" result="effect2_dropShadow_2113_2706"/>
<feBlend mode="normal" in="SourceGraphic" in2="effect2_dropShadow_2113_2706" result="shape"/>
</filter>
<filter id="filter17_dd_2113_2706" x="343.5" y="101" width="25" height="25" filterUnits="userSpaceOnUse" color-interpolation-filters="sRGB">
<feFlood flood-opacity="0" result="BackgroundImageFix"/>
<feColorMatrix in="SourceAlpha" type="matrix" values="0 0 0 0 0 0 0 0 0 0 0 0 0 0 0 0 0 0 127 0" result="hardAlpha"/>
<feOffset/>
<feGaussianBlur stdDeviation="5"/>
<feComposite in2="hardAlpha" operator="out"/>
<feColorMatrix type="matrix" values="0 0 0 0 0.964706 0 0 0 0 1 0 0 0 0 0.8 0 0 0 1 0"/>
<feBlend mode="normal" in2="BackgroundImageFix" result="effect1_dropShadow_2113_2706"/>
<feColorMatrix in="SourceAlpha" type="matrix" values="0 0 0 0 0 0 0 0 0 0 0 0 0 0 0 0 0 0 127 0" result="hardAlpha"/>
<feOffset/>
<feGaussianBlur stdDeviation="1.5"/>
<feComposite in2="hardAlpha" operator="out"/>
<feColorMatrix type="matrix" values="0 0 0 0 0.964706 0 0 0 0 1 0 0 0 0 0.8 0 0 0 1 0"/>
<feBlend mode="normal" in2="effect1_dropShadow_2113_2706" result="effect2_dropShadow_2113_2706"/>
<feBlend mode="normal" in="SourceGraphic" in2="effect2_dropShadow_2113_2706" result="shape"/>
</filter>
<filter id="filter18_dd_2113_2706" x="388" y="101" width="25" height="25" filterUnits="userSpaceOnUse" color-interpolation-filters="sRGB">
<feFlood flood-opacity="0" result="BackgroundImageFix"/>
<feColorMatrix in="SourceAlpha" type="matrix" values="0 0 0 0 0 0 0 0 0 0 0 0 0 0 0 0 0 0 127 0" result="hardAlpha"/>
<feOffset/>
<feGaussianBlur stdDeviation="5"/>
<feComposite in2="hardAlpha" operator="out"/>
<feColorMatrix type="matrix" values="0 0 0 0 0.964706 0 0 0 0 1 0 0 0 0 0.8 0 0 0 1 0"/>
<feBlend mode="normal" in2="BackgroundImageFix" result="effect1_dropShadow_2113_2706"/>
<feColorMatrix in="SourceAlpha" type="matrix" values="0 0 0 0 0 0 0 0 0 0 0 0 0 0 0 0 0 0 127 0" result="hardAlpha"/>
<feOffset/>
<feGaussianBlur stdDeviation="1.5"/>
<feComposite in2="hardAlpha" operator="out"/>
<feColorMatrix type="matrix" values="0 0 0 0 0.964706 0 0 0 0 1 0 0 0 0 0.8 0 0 0 1 0"/>
<feBlend mode="normal" in2="effect1_dropShadow_2113_2706" result="effect2_dropShadow_2113_2706"/>
<feBlend mode="normal" in="SourceGraphic" in2="effect2_dropShadow_2113_2706" result="shape"/>
</filter>
<filter id="filter19_dd_2113_2706" x="0" y="71" width="25" height="25" filterUnits="userSpaceOnUse" color-interpolation-filters="sRGB">
<feFlood flood-opacity="0" result="BackgroundImageFix"/>
<feColorMatrix in="SourceAlpha" type="matrix" values="0 0 0 0 0 0 0 0 0 0 0 0 0 0 0 0 0 0 127 0" result="hardAlpha"/>
<feOffset/>
<feGaussianBlur stdDeviation="5"/>
<feComposite in2="hardAlpha" operator="out"/>
<feColorMatrix type="matrix" values="0 0 0 0 0.964706 0 0 0 0 1 0 0 0 0 0.8 0 0 0 1 0"/>
<feBlend mode="normal" in2="BackgroundImageFix" result="effect1_dropShadow_2113_2706"/>
<feColorMatrix in="SourceAlpha" type="matrix" values="0 0 0 0 0 0 0 0 0 0 0 0 0 0 0 0 0 0 127 0" result="hardAlpha"/>
<feOffset/>
<feGaussianBlur stdDeviation="1.5"/>
<feComposite in2="hardAlpha" operator="out"/>
<feColorMatrix type="matrix" values="0 0 0 0 0.964706 0 0 0 0 1 0 0 0 0 0.8 0 0 0 1 0"/>
<feBlend mode="normal" in2="effect1_dropShadow_2113_2706" result="effect2_dropShadow_2113_2706"/>
<feBlend mode="normal" in="SourceGraphic" in2="effect2_dropShadow_2113_2706" result="shape"/>
</filter>
<filter id="filter20_dd_2113_2706" x="0" y="30" width="25" height="25" filterUnits="userSpaceOnUse" color-interpolation-filters="sRGB">
<feFlood flood-opacity="0" result="BackgroundImageFix"/>
<feColorMatrix in="SourceAlpha" type="matrix" values="0 0 0 0 0 0 0 0 0 0 0 0 0 0 0 0 0 0 127 0" result="hardAlpha"/>
<feOffset/>
<feGaussianBlur stdDeviation="5"/>
<feComposite in2="hardAlpha" operator="out"/>
<feColorMatrix type="matrix" values="0 0 0 0 0.964706 0 0 0 0 1 0 0 0 0 0.8 0 0 0 1 0"/>
<feBlend mode="normal" in2="BackgroundImageFix" result="effect1_dropShadow_2113_2706"/>
<feColorMatrix in="SourceAlpha" type="matrix" values="0 0 0 0 0 0 0 0 0 0 0 0 0 0 0 0 0 0 127 0" result="hardAlpha"/>
<feOffset/>
<feGaussianBlur stdDeviation="1.5"/>
<feComposite in2="hardAlpha" operator="out"/>
<feColorMatrix type="matrix" values="0 0 0 0 0.964706 0 0 0 0 1 0 0 0 0 0.8 0 0 0 1 0"/>
<feBlend mode="normal" in2="effect1_dropShadow_2113_2706" result="effect2_dropShadow_2113_2706"/>
<feBlend mode="normal" in="SourceGraphic" in2="effect2_dropShadow_2113_2706" result="shape"/>
</filter>
<filter id="filter21_dd_2113_2706" x="420" y="71" width="25" height="25" filterUnits="userSpaceOnUse" color-interpolation-filters="sRGB">
<feFlood flood-opacity="0" result="BackgroundImageFix"/>
<feColorMatrix in="SourceAlpha" type="matrix" values="0 0 0 0 0 0 0 0 0 0 0 0 0 0 0 0 0 0 127 0" result="hardAlpha"/>
<feOffset/>
<feGaussianBlur stdDeviation="5"/>
<feComposite in2="hardAlpha" operator="out"/>
<feColorMatrix type="matrix" values="0 0 0 0 0.964706 0 0 0 0 1 0 0 0 0 0.8 0 0 0 1 0"/>
<feBlend mode="normal" in2="BackgroundImageFix" result="effect1_dropShadow_2113_2706"/>
<feColorMatrix in="SourceAlpha" type="matrix" values="0 0 0 0 0 0 0 0 0 0 0 0 0 0 0 0 0 0 127 0" result="hardAlpha"/>
<feOffset/>
<feGaussianBlur stdDeviation="1.5"/>
<feComposite in2="hardAlpha" operator="out"/>
<feColorMatrix type="matrix" values="0 0 0 0 0.964706 0 0 0 0 1 0 0 0 0 0.8 0 0 0 1 0"/>
<feBlend mode="normal" in2="effect1_dropShadow_2113_2706" result="effect2_dropShadow_2113_2706"/>
<feBlend mode="normal" in="SourceGraphic" in2="effect2_dropShadow_2113_2706" result="shape"/>
</filter>
<filter id="filter22_dd_2113_2706" x="420" y="30" width="25" height="25" filterUnits="userSpaceOnUse" color-interpolation-filters="sRGB">
<feFlood flood-opacity="0" result="BackgroundImageFix"/>
<feColorMatrix in="SourceAlpha" type="matrix" values="0 0 0 0 0 0 0 0 0 0 0 0 0 0 0 0 0 0 127 0" result="hardAlpha"/>
<feOffset/>
<feGaussianBlur stdDeviation="5"/>
<feComposite in2="hardAlpha" operator="out"/>
<feColorMatrix type="matrix" values="0 0 0 0 0.964706 0 0 0 0 1 0 0 0 0 0.8 0 0 0 1 0"/>
<feBlend mode="normal" in2="BackgroundImageFix" result="effect1_dropShadow_2113_2706"/>
<feColorMatrix in="SourceAlpha" type="matrix" values="0 0 0 0 0 0 0 0 0 0 0 0 0 0 0 0 0 0 127 0" result="hardAlpha"/>
<feOffset/>
<feGaussianBlur stdDeviation="1.5"/>
<feComposite in2="hardAlpha" operator="out"/>
<feColorMatrix type="matrix" values="0 0 0 0 0.964706 0 0 0 0 1 0 0 0 0 0.8 0 0 0 1 0"/>
<feBlend mode="normal" in2="effect1_dropShadow_2113_2706" result="effect2_dropShadow_2113_2706"/>
<feBlend mode="normal" in="SourceGraphic" in2="effect2_dropShadow_2113_2706" result="shape"/>
</filter>
<linearGradient id="paint0_linear_2113_2706" x1="7.00001" y1="81.7546" x2="40.4845" y2="-53.2894" gradientUnits="userSpaceOnUse">
<stop offset="0.25" stop-color="#004C97"/>
<stop offset="1" stop-color="#0076CF"/>
</linearGradient>
<linearGradient id="paint1_linear_2113_2706" x1="7.00001" y1="81.7546" x2="40.4845" y2="-53.2894" gradientUnits="userSpaceOnUse">
<stop offset="0.25" stop-color="#003865"/>
<stop offset="1" stop-color="#004C97"/>
</linearGradient>
<linearGradient id="paint2_linear_2113_2706" x1="185.5" y1="16.2825" x2="193.566" y2="-11.0383" gradientUnits="userSpaceOnUse">
<stop offset="0.25" stop-color="#003865"/>
<stop offset="1" stop-color="#004C97"/>
</linearGradient>
<linearGradient id="paint3_linear_2113_2706" x1="185.5" y1="16.2825" x2="193.566" y2="-11.0383" gradientUnits="userSpaceOnUse">
<stop offset="0.25" stop-color="#004C97"/>
<stop offset="1" stop-color="#0076CF"/>
</linearGradient>
</defs>
</svg>
