<svg width="445" height="126" viewBox="0 0 445 126" fill="none" xmlns="http://www.w3.org/2000/svg">
<rect x="6" y="7" width="433" height="113" rx="31" fill="url(#paint0_linear_2002_3509)" stroke="url(#paint1_linear_2002_3509)" stroke-width="2"/>
<g filter="url(#filter0_i_2002_3509)">
<rect x="18" y="18" width="409" height="90" rx="20" fill="#E5F4FD"/>
</g>
<g filter="url(#filter1_dd_2002_3509)">
<circle cx="44.5" cy="12.5" r="2.5" fill="white"/>
</g>
<g filter="url(#filter2_dd_2002_3509)">
<circle cx="89" cy="12.5" r="2.5" fill="white"/>
</g>
<g filter="url(#filter3_dd_2002_3509)">
<circle cx="133.5" cy="12.5" r="2.5" fill="white"/>
</g>
<g filter="url(#filter4_dd_2002_3509)">
<circle cx="178" cy="12.5" r="2.5" fill="white"/>
</g>
<g filter="url(#filter5_dd_2002_3509)">
<circle cx="222.5" cy="12.5" r="2.5" fill="white"/>
</g>
<g filter="url(#filter6_dd_2002_3509)">
<circle cx="267" cy="12.5" r="2.5" fill="white"/>
</g>
<g filter="url(#filter7_dd_2002_3509)">
<circle cx="311.5" cy="12.5" r="2.5" fill="white"/>
</g>
<g filter="url(#filter8_dd_2002_3509)">
<circle cx="356" cy="12.5" r="2.5" fill="white"/>
</g>
<g filter="url(#filter9_dd_2002_3509)">
<circle cx="400.5" cy="12.5" r="2.5" fill="white"/>
</g>
<g filter="url(#filter10_dd_2002_3509)">
<circle cx="44.5" cy="113.5" r="2.5" fill="white"/>
</g>
<g filter="url(#filter11_dd_2002_3509)">
<circle cx="89" cy="113.5" r="2.5" fill="white"/>
</g>
<g filter="url(#filter12_dd_2002_3509)">
<circle cx="133.5" cy="113.5" r="2.5" fill="white"/>
</g>
<g filter="url(#filter13_dd_2002_3509)">
<circle cx="178" cy="113.5" r="2.5" fill="white"/>
</g>
<g filter="url(#filter14_dd_2002_3509)">
<circle cx="222.5" cy="113.5" r="2.5" fill="white"/>
</g>
<g filter="url(#filter15_dd_2002_3509)">
<circle cx="267" cy="113.5" r="2.5" fill="white"/>
</g>
<g filter="url(#filter16_dd_2002_3509)">
<circle cx="311.5" cy="113.5" r="2.5" fill="white"/>
</g>
<g filter="url(#filter17_dd_2002_3509)">
<circle cx="356" cy="113.5" r="2.5" fill="white"/>
</g>
<g filter="url(#filter18_dd_2002_3509)">
<circle cx="400.5" cy="113.5" r="2.5" fill="white"/>
</g>
<g filter="url(#filter19_dd_2002_3509)">
<circle cx="12.5" cy="83.5" r="2.5" transform="rotate(-90 12.5 83.5)" fill="white"/>
</g>
<g filter="url(#filter20_dd_2002_3509)">
<circle cx="12.5" cy="42.5" r="2.5" transform="rotate(-90 12.5 42.5)" fill="white"/>
</g>
<g filter="url(#filter21_dd_2002_3509)">
<circle cx="432.5" cy="83.5" r="2.5" transform="rotate(-90 432.5 83.5)" fill="white"/>
</g>
<g filter="url(#filter22_dd_2002_3509)">
<circle cx="432.5" cy="42.5" r="2.5" transform="rotate(-90 432.5 42.5)" fill="white"/>
</g>
<path d="M31.3913 48L36.3413 35.904H38.5553L43.5053 48H41.0933L39.9773 45.12H34.9193L33.8033 48H31.3913ZM37.4573 38.532L35.5673 43.374H39.3473L37.4573 38.532ZM44.7413 48V39.18H46.5773L46.8653 40.548C47.3693 39.594 48.3233 39.036 49.4753 39.036C49.7813 39.036 50.1773 39.072 50.5373 39.162L50.3213 40.998C50.0153 40.926 49.6373 40.872 49.2953 40.872C47.9273 40.872 47.0453 41.934 47.0453 43.446V48H44.7413ZM51.9659 48V39.18H53.8019L54.0899 40.548C54.5939 39.594 55.5479 39.036 56.6999 39.036C57.0059 39.036 57.4019 39.072 57.7619 39.162L57.5459 40.998C57.2399 40.926 56.8619 40.872 56.5199 40.872C55.1519 40.872 54.2699 41.934 54.2699 43.446V48H51.9659ZM58.4576 45.444C58.4576 43.59 59.9696 42.51 62.5256 42.51C63.0656 42.51 63.6596 42.564 64.2356 42.69V42.222C64.2356 41.322 63.5156 40.674 62.4176 40.674C61.5176 40.674 60.5456 40.89 59.5196 41.304L58.9436 39.702C60.2576 39.198 61.4996 38.964 62.6876 38.964C64.9196 38.964 66.3956 40.296 66.3956 42.258V45.84C66.3956 46.218 66.6296 46.47 67.0076 46.47C67.1876 46.47 67.3856 46.434 67.4576 46.416L67.6196 48.09C67.2416 48.162 66.8276 48.216 66.3956 48.216C65.4956 48.216 64.8116 47.766 64.5056 47.028C63.7496 47.784 62.6876 48.216 61.6076 48.216C59.7716 48.216 58.4576 47.064 58.4576 45.444ZM60.6716 45.318C60.6716 46.038 61.3376 46.596 62.2016 46.596C63.4256 46.596 64.2356 45.75 64.2356 44.544V44.022C63.7676 43.896 63.2816 43.842 62.7956 43.842C61.4816 43.842 60.6716 44.4 60.6716 45.318ZM68.8936 48V39.18H70.7296L71.0176 40.458C71.6836 39.504 72.7816 38.964 74.0596 38.964C76.0756 38.964 77.4976 40.35 77.4976 42.33V48H75.1936V42.69C75.1936 41.61 74.4196 40.854 73.3576 40.854C72.1156 40.854 71.1976 41.79 71.1976 43.14V48H68.8936ZM88.1642 39.18V47.838C88.1642 50.232 86.1662 51.96 83.4122 51.96C82.2782 51.96 81.0002 51.708 79.6682 51.15L80.2982 49.44C81.4142 49.944 82.4222 50.16 83.2322 50.16C84.7802 50.16 85.8602 49.242 85.8602 47.928V46.992C85.2302 47.784 84.3122 48.216 83.2142 48.216C80.8562 48.216 79.1822 46.308 79.1822 43.59C79.1822 40.872 80.8562 38.964 83.2142 38.964C84.4022 38.964 85.3922 39.45 86.0402 40.314L86.3282 39.18H88.1642ZM81.5222 43.59C81.5222 45.228 82.4762 46.398 83.8082 46.398C85.0502 46.398 85.9142 45.462 85.9142 44.184V42.996C85.9142 41.7 85.0502 40.782 83.8082 40.782C82.4762 40.782 81.5222 41.934 81.5222 43.59ZM89.9927 43.59C89.9927 40.872 91.8467 38.964 94.5107 38.964C97.0127 38.964 98.7587 40.782 98.7587 43.428C98.7587 43.68 98.7407 43.932 98.7227 44.166H92.2967C92.4587 45.57 93.5747 46.506 95.0867 46.506C95.8427 46.506 96.7067 46.272 97.6247 45.768L98.3267 47.334C97.0847 47.946 95.8427 48.216 94.7987 48.216C91.9547 48.216 89.9927 46.308 89.9927 43.59ZM94.5107 40.674C93.3227 40.674 92.4407 41.52 92.2967 42.78H96.5447C96.4727 41.52 95.6627 40.674 94.5107 40.674ZM107.64 36.588V39.18H110.088V40.926H107.64V45.138C107.64 45.876 108.144 46.38 108.882 46.38C109.224 46.38 109.602 46.326 110.016 46.218L110.322 47.946C109.62 48.126 108.954 48.216 108.324 48.216C106.56 48.216 105.336 47.064 105.336 45.372V40.926H103.698V39.18H105.336V36.588H107.64ZM111.942 48V35.328H114.246V40.314C114.876 39.45 115.92 38.964 117.108 38.964C119.124 38.964 120.546 40.35 120.546 42.33V48H118.242V42.69C118.242 41.61 117.468 40.854 116.406 40.854C115.164 40.854 114.246 41.79 114.246 43.14V48H111.942ZM122.231 43.59C122.231 40.872 124.085 38.964 126.749 38.964C129.251 38.964 130.997 40.782 130.997 43.428C130.997 43.68 130.979 43.932 130.961 44.166H124.535C124.697 45.57 125.813 46.506 127.325 46.506C128.081 46.506 128.945 46.272 129.863 45.768L130.565 47.334C129.323 47.946 128.081 48.216 127.037 48.216C124.193 48.216 122.231 46.308 122.231 43.59ZM126.749 40.674C125.561 40.674 124.679 41.52 124.535 42.78H128.783C128.711 41.52 127.901 40.674 126.749 40.674ZM252.137 70V61.18H254.441V70H252.137ZM251.921 58.66C251.921 57.85 252.497 57.274 253.289 57.274C254.099 57.274 254.675 57.85 254.675 58.66C254.675 59.47 254.099 60.046 253.289 60.046C252.497 60.046 251.921 59.47 251.921 58.66ZM256.795 70V61.18H258.631L258.919 62.458C259.585 61.504 260.683 60.964 261.961 60.964C263.977 60.964 265.399 62.35 265.399 64.33V70H263.095V64.69C263.095 63.61 262.321 62.854 261.259 62.854C260.017 62.854 259.099 63.79 259.099 65.14V70H256.795ZM274.817 58.588V61.18H277.265V62.926H274.817V67.138C274.817 67.876 275.321 68.38 276.059 68.38C276.401 68.38 276.779 68.326 277.193 68.218L277.499 69.946C276.797 70.126 276.131 70.216 275.501 70.216C273.737 70.216 272.513 69.064 272.513 67.372V62.926H270.875V61.18H272.513V58.588H274.817ZM279.119 70V57.328H281.423V62.314C282.053 61.45 283.097 60.964 284.285 60.964C286.301 60.964 287.723 62.35 287.723 64.33V70H285.419V64.69C285.419 63.61 284.645 62.854 283.583 62.854C282.341 62.854 281.423 63.79 281.423 65.14V70H279.119ZM289.408 65.59C289.408 62.872 291.262 60.964 293.926 60.964C296.428 60.964 298.174 62.782 298.174 65.428C298.174 65.68 298.156 65.932 298.138 66.166H291.712C291.874 67.57 292.99 68.506 294.502 68.506C295.258 68.506 296.122 68.272 297.04 67.768L297.742 69.334C296.5 69.946 295.258 70.216 294.214 70.216C291.37 70.216 289.408 68.308 289.408 65.59ZM293.926 62.674C292.738 62.674 291.856 63.52 291.712 64.78H295.96C295.888 63.52 295.078 62.674 293.926 62.674ZM303.646 65.59C303.646 62.872 305.572 60.964 308.308 60.964C309.478 60.964 310.63 61.306 311.692 61.99L310.756 63.538C310.072 63.07 309.37 62.8 308.632 62.8C307.084 62.8 305.986 63.952 305.986 65.59C305.986 67.228 307.084 68.38 308.632 68.38C309.37 68.38 310.072 68.092 310.756 67.624L311.692 69.19C310.63 69.874 309.478 70.216 308.308 70.216C305.572 70.216 303.646 68.29 303.646 65.59ZM312.435 65.59C312.435 62.872 314.397 60.964 317.187 60.964C319.995 60.964 321.957 62.872 321.957 65.59C321.957 68.308 319.995 70.216 317.187 70.216C314.397 70.216 312.435 68.308 312.435 65.59ZM314.775 65.59C314.775 67.246 315.783 68.416 317.187 68.416C318.609 68.416 319.617 67.246 319.617 65.59C319.617 63.916 318.609 62.764 317.187 62.764C315.783 62.764 314.775 63.916 314.775 65.59ZM323.768 70V61.18H325.604L325.892 62.548C326.396 61.594 327.35 61.036 328.502 61.036C328.808 61.036 329.204 61.072 329.564 61.162L329.348 62.998C329.042 62.926 328.664 62.872 328.322 62.872C326.954 62.872 326.072 63.934 326.072 65.446V70H323.768ZM330.992 70V61.18H332.828L333.116 62.548C333.62 61.594 334.574 61.036 335.726 61.036C336.032 61.036 336.428 61.072 336.788 61.162L336.572 62.998C336.266 62.926 335.888 62.872 335.546 62.872C334.178 62.872 333.296 63.934 333.296 65.446V70H330.992ZM337.484 65.59C337.484 62.872 339.338 60.964 342.002 60.964C344.504 60.964 346.25 62.782 346.25 65.428C346.25 65.68 346.232 65.932 346.214 66.166H339.788C339.95 67.57 341.066 68.506 342.578 68.506C343.334 68.506 344.198 68.272 345.116 67.768L345.818 69.334C344.576 69.946 343.334 70.216 342.29 70.216C339.446 70.216 337.484 68.308 337.484 65.59ZM342.002 62.674C340.814 62.674 339.932 63.52 339.788 64.78H344.036C343.964 63.52 343.154 62.674 342.002 62.674ZM347.398 65.59C347.398 62.872 349.324 60.964 352.06 60.964C353.23 60.964 354.382 61.306 355.444 61.99L354.508 63.538C353.824 63.07 353.122 62.8 352.384 62.8C350.836 62.8 349.738 63.952 349.738 65.59C349.738 67.228 350.836 68.38 352.384 68.38C353.122 68.38 353.824 68.092 354.508 67.624L355.444 69.19C354.382 69.874 353.23 70.216 352.06 70.216C349.324 70.216 347.398 68.29 347.398 65.59ZM360.299 58.588V61.18H362.747V62.926H360.299V67.138C360.299 67.876 360.803 68.38 361.541 68.38C361.883 68.38 362.261 68.326 362.675 68.218L362.981 69.946C362.279 70.126 361.613 70.216 360.983 70.216C359.219 70.216 357.995 69.064 357.995 67.372V62.926H356.357V61.18H357.995V58.588H360.299ZM368.123 65.59C368.123 62.872 370.085 60.964 372.875 60.964C375.683 60.964 377.645 62.872 377.645 65.59C377.645 68.308 375.683 70.216 372.875 70.216C370.085 70.216 368.123 68.308 368.123 65.59ZM370.463 65.59C370.463 67.246 371.471 68.416 372.875 68.416C374.297 68.416 375.305 67.246 375.305 65.59C375.305 63.916 374.297 62.764 372.875 62.764C371.471 62.764 370.463 63.916 370.463 65.59ZM379.455 70V61.18H381.291L381.579 62.548C382.083 61.594 383.037 61.036 384.189 61.036C384.495 61.036 384.891 61.072 385.251 61.162L385.035 62.998C384.729 62.926 384.351 62.872 384.009 62.872C382.641 62.872 381.759 63.934 381.759 65.446V70H379.455ZM394.929 57.328V70H393.093L392.805 68.866C392.157 69.73 391.167 70.216 389.979 70.216C387.621 70.216 385.947 68.308 385.947 65.59C385.947 62.872 387.621 60.964 389.979 60.964C391.077 60.964 391.995 61.396 392.625 62.17V57.328H394.929ZM388.287 65.59C388.287 67.228 389.241 68.398 390.573 68.398C391.815 68.398 392.679 67.462 392.679 66.184V64.996C392.679 63.7 391.815 62.782 390.573 62.782C389.241 62.782 388.287 63.934 388.287 65.59ZM396.757 65.59C396.757 62.872 398.611 60.964 401.275 60.964C403.777 60.964 405.523 62.782 405.523 65.428C405.523 65.68 405.505 65.932 405.487 66.166H399.061C399.223 67.57 400.339 68.506 401.851 68.506C402.607 68.506 403.471 68.272 404.389 67.768L405.091 69.334C403.849 69.946 402.607 70.216 401.563 70.216C398.719 70.216 396.757 68.308 396.757 65.59ZM401.275 62.674C400.087 62.674 399.205 63.52 399.061 64.78H403.309C403.237 63.52 402.427 62.674 401.275 62.674ZM407.193 70V61.18H409.029L409.317 62.548C409.821 61.594 410.775 61.036 411.927 61.036C412.233 61.036 412.629 61.072 412.989 61.162L412.773 62.998C412.467 62.926 412.089 62.872 411.747 62.872C410.379 62.872 409.497 63.934 409.497 65.446V70H407.193ZM54.4923 80.588V83.18H56.9403V84.926H54.4923V89.138C54.4923 89.876 54.9963 90.38 55.7343 90.38C56.0763 90.38 56.4543 90.326 56.8683 90.218L57.1743 91.946C56.4723 92.126 55.8063 92.216 55.1763 92.216C53.4123 92.216 52.1883 91.064 52.1883 89.372V84.926H50.5503V83.18H52.1883V80.588H54.4923ZM57.8335 87.59C57.8335 84.872 59.7955 82.964 62.5855 82.964C65.3935 82.964 67.3555 84.872 67.3555 87.59C67.3555 90.308 65.3935 92.216 62.5855 92.216C59.7955 92.216 57.8335 90.308 57.8335 87.59ZM60.1735 87.59C60.1735 89.246 61.1815 90.416 62.5855 90.416C64.0075 90.416 65.0155 89.246 65.0155 87.59C65.0155 85.916 64.0075 84.764 62.5855 84.764C61.1815 84.764 60.1735 85.916 60.1735 87.59ZM81.9503 83.18V92H80.1143L79.8263 90.722C79.1783 91.676 78.0803 92.216 76.8023 92.216C74.7863 92.216 73.3463 90.83 73.3463 88.85V83.18H75.6503V88.472C75.6503 89.57 76.4243 90.326 77.5043 90.326C78.7463 90.326 79.6463 89.39 79.6463 88.04V83.18H81.9503ZM84.3009 92V83.18H86.1369L86.4249 84.458C87.0909 83.504 88.1889 82.964 89.4669 82.964C91.4829 82.964 92.9049 84.35 92.9049 86.33V92H90.6009V86.69C90.6009 85.61 89.8269 84.854 88.7649 84.854C87.5229 84.854 86.6049 85.79 86.6049 87.14V92H84.3009ZM97.4154 79.328V89.48C97.4154 90.038 97.7754 90.38 98.3154 90.38C98.5314 90.38 98.8194 90.326 99.1074 90.272L99.3594 92.018C98.7834 92.144 98.2254 92.216 97.7574 92.216C96.1374 92.216 95.1114 91.244 95.1114 89.714V79.328H97.4154ZM99.898 87.59C99.898 84.872 101.86 82.964 104.65 82.964C107.458 82.964 109.42 84.872 109.42 87.59C109.42 90.308 107.458 92.216 104.65 92.216C101.86 92.216 99.898 90.308 99.898 87.59ZM102.238 87.59C102.238 89.246 103.246 90.416 104.65 90.416C106.072 90.416 107.08 89.246 107.08 87.59C107.08 85.916 106.072 84.764 104.65 84.764C103.246 84.764 102.238 85.916 102.238 87.59ZM110.709 87.59C110.709 84.872 112.635 82.964 115.371 82.964C116.541 82.964 117.693 83.306 118.755 83.99L117.819 85.538C117.135 85.07 116.433 84.8 115.695 84.8C114.147 84.8 113.049 85.952 113.049 87.59C113.049 89.228 114.147 90.38 115.695 90.38C116.433 90.38 117.135 90.092 117.819 89.624L118.755 91.19C117.693 91.874 116.541 92.216 115.371 92.216C112.635 92.216 110.709 90.29 110.709 87.59ZM120.231 92V79.328H122.445V86.942L125.811 83.18H128.439L124.641 87.302L128.583 92H125.919L123.147 88.652L122.445 89.372V92H120.231ZM136.723 80.588V83.18H139.171V84.926H136.723V89.138C136.723 89.876 137.227 90.38 137.965 90.38C138.307 90.38 138.685 90.326 139.099 90.218L139.405 91.946C138.703 92.126 138.037 92.216 137.407 92.216C135.643 92.216 134.419 91.064 134.419 89.372V84.926H132.781V83.18H134.419V80.588H136.723ZM141.025 92V79.328H143.329V84.314C143.959 83.45 145.003 82.964 146.191 82.964C148.207 82.964 149.629 84.35 149.629 86.33V92H147.325V86.69C147.325 85.61 146.551 84.854 145.489 84.854C144.247 84.854 143.329 85.79 143.329 87.14V92H141.025ZM151.314 87.59C151.314 84.872 153.168 82.964 155.832 82.964C158.334 82.964 160.08 84.782 160.08 87.428C160.08 87.68 160.062 87.932 160.044 88.166H153.618C153.78 89.57 154.896 90.506 156.408 90.506C157.164 90.506 158.028 90.272 158.946 89.768L159.648 91.334C158.406 91.946 157.164 92.216 156.12 92.216C153.276 92.216 151.314 90.308 151.314 87.59ZM155.832 84.674C154.644 84.674 153.762 85.52 153.618 86.78H157.866C157.794 85.52 156.984 84.674 155.832 84.674ZM165.624 85.628C165.624 84.08 167.028 82.964 169.062 82.964C170.088 82.964 171.186 83.18 172.302 83.576L171.798 85.232C170.916 84.89 170.034 84.674 169.242 84.674C168.414 84.674 167.874 85.052 167.874 85.628C167.874 87.23 172.59 86.06 172.59 89.48C172.59 91.082 171.15 92.216 169.062 92.216C167.982 92.216 166.794 91.982 165.552 91.514L166.038 89.876C167.064 90.29 168.036 90.506 168.882 90.506C169.764 90.506 170.322 90.092 170.322 89.48C170.322 87.806 165.624 88.976 165.624 85.628ZM173.884 87.59C173.884 84.872 175.738 82.964 178.402 82.964C180.904 82.964 182.65 84.782 182.65 87.428C182.65 87.68 182.632 87.932 182.614 88.166H176.188C176.35 89.57 177.466 90.506 178.978 90.506C179.734 90.506 180.598 90.272 181.516 89.768L182.218 91.334C180.976 91.946 179.734 92.216 178.69 92.216C175.846 92.216 173.884 90.308 173.884 87.59ZM178.402 84.674C177.214 84.674 176.332 85.52 176.188 86.78H180.436C180.364 85.52 179.554 84.674 178.402 84.674ZM183.798 87.59C183.798 84.872 185.724 82.964 188.46 82.964C189.63 82.964 190.782 83.306 191.844 83.99L190.908 85.538C190.224 85.07 189.522 84.8 188.784 84.8C187.236 84.8 186.138 85.952 186.138 87.59C186.138 89.228 187.236 90.38 188.784 90.38C189.522 90.38 190.224 90.092 190.908 89.624L191.844 91.19C190.782 91.874 189.63 92.216 188.46 92.216C185.724 92.216 183.798 90.29 183.798 87.59ZM193.32 92V83.18H195.156L195.444 84.548C195.948 83.594 196.902 83.036 198.054 83.036C198.36 83.036 198.756 83.072 199.116 83.162L198.9 84.998C198.594 84.926 198.216 84.872 197.874 84.872C196.506 84.872 195.624 85.934 195.624 87.446V92H193.32ZM199.812 87.59C199.812 84.872 201.666 82.964 204.33 82.964C206.832 82.964 208.578 84.782 208.578 87.428C208.578 87.68 208.56 87.932 208.542 88.166H202.116C202.278 89.57 203.394 90.506 204.906 90.506C205.662 90.506 206.526 90.272 207.444 89.768L208.146 91.334C206.904 91.946 205.662 92.216 204.618 92.216C201.774 92.216 199.812 90.308 199.812 87.59ZM204.33 84.674C203.142 84.674 202.26 85.52 202.116 86.78H206.364C206.292 85.52 205.482 84.674 204.33 84.674ZM213.205 80.588V83.18H215.653V84.926H213.205V89.138C213.205 89.876 213.709 90.38 214.447 90.38C214.789 90.38 215.167 90.326 215.581 90.218L215.887 91.946C215.185 92.126 214.519 92.216 213.889 92.216C212.125 92.216 210.901 91.064 210.901 89.372V84.926H209.263V83.18H210.901V80.588H213.205ZM217.058 85.628C217.058 84.08 218.462 82.964 220.496 82.964C221.522 82.964 222.62 83.18 223.736 83.576L223.232 85.232C222.35 84.89 221.468 84.674 220.676 84.674C219.848 84.674 219.308 85.052 219.308 85.628C219.308 87.23 224.024 86.06 224.024 89.48C224.024 91.082 222.584 92.216 220.496 92.216C219.416 92.216 218.228 91.982 216.986 91.514L217.472 89.876C218.498 90.29 219.47 90.506 220.316 90.506C221.198 90.506 221.756 90.092 221.756 89.48C221.756 87.806 217.058 88.976 217.058 85.628ZM229.642 87.59C229.642 84.872 231.604 82.964 234.394 82.964C237.202 82.964 239.164 84.872 239.164 87.59C239.164 90.308 237.202 92.216 234.394 92.216C231.604 92.216 229.642 90.308 229.642 87.59ZM231.982 87.59C231.982 89.246 232.99 90.416 234.394 90.416C235.816 90.416 236.824 89.246 236.824 87.59C236.824 85.916 235.816 84.764 234.394 84.764C232.99 84.764 231.982 85.916 231.982 87.59ZM241.399 92V84.926H239.761V83.18H241.399V81.956C241.399 80.264 242.623 79.112 244.387 79.112C245.017 79.112 245.683 79.202 246.385 79.382L246.079 81.11C245.665 81.002 245.287 80.948 244.945 80.948C244.207 80.948 243.703 81.452 243.703 82.19V83.18H245.863V84.926H243.703V92H241.399ZM250.947 89.444C250.947 87.59 252.459 86.51 255.015 86.51C255.555 86.51 256.149 86.564 256.725 86.69V86.222C256.725 85.322 256.005 84.674 254.907 84.674C254.007 84.674 253.035 84.89 252.009 85.304L251.433 83.702C252.747 83.198 253.989 82.964 255.177 82.964C257.409 82.964 258.885 84.296 258.885 86.258V89.84C258.885 90.218 259.119 90.47 259.497 90.47C259.677 90.47 259.875 90.434 259.947 90.416L260.109 92.09C259.731 92.162 259.317 92.216 258.885 92.216C257.985 92.216 257.301 91.766 256.995 91.028C256.239 91.784 255.177 92.216 254.097 92.216C252.261 92.216 250.947 91.064 250.947 89.444ZM253.161 89.318C253.161 90.038 253.827 90.596 254.691 90.596C255.915 90.596 256.725 89.75 256.725 88.544V88.022C256.257 87.896 255.771 87.842 255.285 87.842C253.971 87.842 253.161 88.4 253.161 89.318ZM265.239 85.952C265.239 82.28 267.831 79.688 271.539 79.688C275.229 79.688 277.839 82.28 277.839 85.952C277.839 88.22 276.849 90.038 275.265 91.1L277.947 93.026L276.777 94.484L273.339 91.964C272.781 92.126 272.169 92.216 271.539 92.216C267.831 92.216 265.239 89.624 265.239 85.952ZM267.669 85.952C267.669 88.508 269.271 90.326 271.539 90.326C273.807 90.326 275.391 88.508 275.391 85.952C275.391 83.396 273.807 81.578 271.539 81.578C269.271 81.578 267.669 83.396 267.669 85.952ZM288.159 83.18V92H286.323L286.035 90.722C285.387 91.676 284.289 92.216 283.011 92.216C280.995 92.216 279.555 90.83 279.555 88.85V83.18H281.859V88.472C281.859 89.57 282.633 90.326 283.713 90.326C284.955 90.326 285.855 89.39 285.855 88.04V83.18H288.159ZM289.988 89.444C289.988 87.59 291.5 86.51 294.056 86.51C294.596 86.51 295.19 86.564 295.766 86.69V86.222C295.766 85.322 295.046 84.674 293.948 84.674C293.048 84.674 292.076 84.89 291.05 85.304L290.474 83.702C291.788 83.198 293.03 82.964 294.218 82.964C296.45 82.964 297.926 84.296 297.926 86.258V89.84C297.926 90.218 298.16 90.47 298.538 90.47C298.718 90.47 298.916 90.434 298.988 90.416L299.15 92.09C298.772 92.162 298.358 92.216 297.926 92.216C297.026 92.216 296.342 91.766 296.036 91.028C295.28 91.784 294.218 92.216 293.138 92.216C291.302 92.216 289.988 91.064 289.988 89.444ZM292.202 89.318C292.202 90.038 292.868 90.596 293.732 90.596C294.956 90.596 295.766 89.75 295.766 88.544V88.022C295.298 87.896 294.812 87.842 294.326 87.842C293.012 87.842 292.202 88.4 292.202 89.318ZM302.517 79.328V89.48C302.517 90.038 302.877 90.38 303.417 90.38C303.633 90.38 303.921 90.326 304.209 90.272L304.461 92.018C303.885 92.144 303.327 92.216 302.859 92.216C301.239 92.216 300.213 91.244 300.213 89.714V79.328H302.517ZM305.733 92V83.18H308.037V92H305.733ZM305.517 80.66C305.517 79.85 306.093 79.274 306.885 79.274C307.695 79.274 308.271 79.85 308.271 80.66C308.271 81.47 307.695 82.046 306.885 82.046C306.093 82.046 305.517 81.47 305.517 80.66ZM313.559 80.588V83.18H316.007V84.926H313.559V89.138C313.559 89.876 314.063 90.38 314.801 90.38C315.143 90.38 315.521 90.326 315.935 90.218L316.241 91.946C315.539 92.126 314.873 92.216 314.243 92.216C312.479 92.216 311.255 91.064 311.255 89.372V84.926H309.617V83.18H311.255V80.588H313.559ZM326.177 83.18L322.253 92.99C321.461 94.988 320.345 95.96 318.725 95.96C318.347 95.96 317.861 95.906 317.357 95.798L317.663 93.998C317.969 94.07 318.275 94.124 318.509 94.124C319.301 94.124 319.769 93.692 320.183 92.666L320.489 91.892L316.853 83.18H319.265L321.551 89.39L323.783 83.18H326.177ZM331.914 92V79.904H336.954C339.384 79.904 341.112 81.47 341.112 83.702C341.112 85.502 340.014 86.87 338.322 87.23L341.634 92H339.024L336.09 87.59H334.218V92H331.914ZM334.218 81.74V85.736H336.594C337.854 85.736 338.754 84.944 338.754 83.738C338.754 82.568 337.854 81.74 336.594 81.74H334.218ZM342.652 87.59C342.652 84.872 344.506 82.964 347.17 82.964C349.672 82.964 351.418 84.782 351.418 87.428C351.418 87.68 351.4 87.932 351.382 88.166H344.956C345.118 89.57 346.234 90.506 347.746 90.506C348.502 90.506 349.366 90.272 350.284 89.768L350.986 91.334C349.744 91.946 348.502 92.216 347.458 92.216C344.614 92.216 342.652 90.308 342.652 87.59ZM347.17 84.674C345.982 84.674 345.1 85.52 344.956 86.78H349.204C349.132 85.52 348.322 84.674 347.17 84.674ZM352.566 87.59C352.566 84.872 354.492 82.964 357.228 82.964C358.398 82.964 359.55 83.306 360.612 83.99L359.676 85.538C358.992 85.07 358.29 84.8 357.552 84.8C356.004 84.8 354.906 85.952 354.906 87.59C354.906 89.228 356.004 90.38 357.552 90.38C358.29 90.38 358.992 90.092 359.676 89.624L360.612 91.19C359.55 91.874 358.398 92.216 357.228 92.216C354.492 92.216 352.566 90.29 352.566 87.59ZM362.088 92V83.18H363.924L364.212 84.548C364.716 83.594 365.67 83.036 366.822 83.036C367.128 83.036 367.524 83.072 367.884 83.162L367.668 84.998C367.362 84.926 366.984 84.872 366.642 84.872C365.274 84.872 364.392 85.934 364.392 87.446V92H362.088ZM377.773 83.18V92H375.937L375.649 90.722C375.001 91.676 373.903 92.216 372.625 92.216C370.609 92.216 369.169 90.83 369.169 88.85V83.18H371.473V88.472C371.473 89.57 372.247 90.326 373.327 90.326C374.569 90.326 375.469 89.39 375.469 88.04V83.18H377.773ZM380.123 92V83.18H382.427V92H380.123ZM379.907 80.66C379.907 79.85 380.483 79.274 381.275 79.274C382.085 79.274 382.661 79.85 382.661 80.66C382.661 81.47 382.085 82.046 381.275 82.046C380.483 82.046 379.907 81.47 379.907 80.66ZM387.949 80.588V83.18H390.397V84.926H387.949V89.138C387.949 89.876 388.453 90.38 389.191 90.38C389.533 90.38 389.911 90.326 390.325 90.218L390.631 91.946C389.929 92.126 389.263 92.216 388.633 92.216C386.869 92.216 385.645 91.064 385.645 89.372V84.926H384.007V83.18H385.645V80.588H387.949ZM392.018 90.758C392.018 89.912 392.63 89.318 393.458 89.318C394.304 89.318 394.898 89.912 394.898 90.758C394.898 91.586 394.304 92.198 393.458 92.198C392.63 92.198 392.018 91.586 392.018 90.758Z" fill="#004C97"/>
<path d="M137.531 48L141.671 38.424H136.613V35.904H145.109V37.884L140.843 48H137.531ZM151.759 48V35.904H160.525V38.352H155.053V40.62H159.949V42.996H155.053V45.552H160.813V48H151.759ZM162.008 41.754C162.008 40.116 163.538 38.874 165.734 38.874C166.85 38.874 168.038 39.108 169.244 39.522L168.578 41.772C167.678 41.43 166.778 41.196 165.986 41.196C165.428 41.196 165.104 41.412 165.104 41.754C165.104 42.816 169.532 41.754 169.532 45.264C169.532 46.974 167.984 48.216 165.734 48.216C164.546 48.216 163.268 47.982 161.936 47.496L162.602 45.246C163.646 45.678 164.6 45.894 165.464 45.894C166.076 45.894 166.418 45.642 166.418 45.264C166.418 44.148 162.008 45.192 162.008 41.754ZM170.569 41.754C170.569 40.116 172.099 38.874 174.295 38.874C175.411 38.874 176.599 39.108 177.805 39.522L177.139 41.772C176.239 41.43 175.339 41.196 174.547 41.196C173.989 41.196 173.665 41.412 173.665 41.754C173.665 42.816 178.093 41.754 178.093 45.264C178.093 46.974 176.545 48.216 174.295 48.216C173.107 48.216 171.829 47.982 170.497 47.496L171.163 45.246C172.207 45.678 173.161 45.894 174.025 45.894C174.637 45.894 174.979 45.642 174.979 45.264C174.979 44.148 170.569 45.192 170.569 41.754ZM179.057 43.554C179.057 40.8 181.037 38.874 183.863 38.874C186.527 38.874 188.381 40.728 188.381 43.41C188.381 43.734 188.363 44.058 188.327 44.364H182.225C182.459 45.3 183.359 45.894 184.547 45.894C185.267 45.894 186.113 45.642 187.013 45.174L187.949 47.298C186.599 47.928 185.267 48.216 184.151 48.216C181.127 48.216 179.057 46.29 179.057 43.554ZM183.863 41.196C183.035 41.196 182.405 41.718 182.225 42.51H185.339C185.231 41.718 184.655 41.196 183.863 41.196ZM189.667 48V39.09H192.187L192.583 40.062C193.285 39.306 194.311 38.874 195.499 38.874C197.605 38.874 199.063 40.314 199.063 42.366V48H195.895V42.888C195.895 42.06 195.301 41.466 194.491 41.466C193.519 41.466 192.835 42.186 192.835 43.23V48H189.667ZM204.615 36.498V39.09H206.739V41.484H204.615V44.742C204.615 45.336 204.993 45.696 205.569 45.696C205.875 45.696 206.235 45.66 206.613 45.588L207.009 47.928C206.217 48.126 205.497 48.216 204.795 48.216C202.797 48.216 201.447 46.956 201.447 45.066V41.484H199.953V39.09H201.447V36.498H204.615ZM208.283 48V39.09H211.451V48H208.283ZM208.067 36.75C208.067 35.688 208.823 34.932 209.867 34.932C210.929 34.932 211.685 35.688 211.685 36.75C211.685 37.794 210.929 38.55 209.867 38.55C208.823 38.55 208.067 37.794 208.067 36.75ZM212.895 45.318C212.895 43.41 214.443 42.312 217.035 42.312C217.503 42.312 218.043 42.366 218.565 42.456V42.384C218.565 41.7 217.917 41.196 217.017 41.196C216.135 41.196 215.145 41.43 214.137 41.844L213.345 39.666C214.785 39.126 216.135 38.874 217.413 38.874C219.861 38.874 221.463 40.314 221.463 42.456V45.39C221.463 45.66 221.643 45.84 221.913 45.84C222.057 45.84 222.201 45.822 222.327 45.804L222.525 48.072C222.075 48.162 221.571 48.216 221.031 48.216C220.149 48.216 219.447 47.838 219.051 47.19C218.223 47.856 217.143 48.216 216.171 48.216C214.245 48.216 212.895 47.028 212.895 45.318ZM215.865 45.12C215.865 45.642 216.351 46.038 217.017 46.038C217.917 46.038 218.565 45.408 218.565 44.544V44.22C218.205 44.148 217.827 44.094 217.431 44.094C216.495 44.094 215.865 44.49 215.865 45.12ZM226.462 35.328V44.994C226.462 45.426 226.75 45.696 227.182 45.696C227.398 45.696 227.668 45.66 227.92 45.624L228.244 48C227.596 48.144 226.948 48.216 226.39 48.216C224.482 48.216 223.294 47.082 223.294 45.318V35.328H226.462ZM233.236 39.36C233.236 37.182 235.198 35.688 237.988 35.688C239.392 35.688 240.814 35.976 242.362 36.552L241.624 39C240.4 38.514 239.248 38.262 238.24 38.262C237.16 38.262 236.476 38.658 236.476 39.36C236.476 41.304 242.794 39.738 242.794 44.472C242.794 46.704 240.814 48.216 237.988 48.216C236.494 48.216 234.892 47.91 233.164 47.208L233.902 44.76C235.306 45.3 236.638 45.642 237.718 45.642C238.87 45.642 239.554 45.21 239.554 44.472C239.554 42.456 233.236 43.95 233.236 39.36ZM248.033 36.498V39.09H250.157V41.484H248.033V44.742C248.033 45.336 248.411 45.696 248.987 45.696C249.293 45.696 249.653 45.66 250.031 45.588L250.427 47.928C249.635 48.126 248.915 48.216 248.213 48.216C246.215 48.216 244.865 46.956 244.865 45.066V41.484H243.371V39.09H244.865V36.498H248.033ZM250.811 43.554C250.811 40.8 252.791 38.874 255.617 38.874C258.281 38.874 260.135 40.728 260.135 43.41C260.135 43.734 260.117 44.058 260.081 44.364H253.979C254.213 45.3 255.113 45.894 256.301 45.894C257.021 45.894 257.867 45.642 258.767 45.174L259.703 47.298C258.353 47.928 257.021 48.216 255.905 48.216C252.881 48.216 250.811 46.29 250.811 43.554ZM255.617 41.196C254.789 41.196 254.159 41.718 253.979 42.51H257.093C256.985 41.718 256.409 41.196 255.617 41.196ZM261.421 51.744V39.09H263.941L264.337 39.918C265.003 39.252 265.939 38.874 266.983 38.874C269.413 38.874 271.123 40.8 271.123 43.554C271.123 46.29 269.413 48.216 266.983 48.216C266.065 48.216 265.237 47.91 264.589 47.37V51.744H261.421ZM267.901 43.554C267.901 42.258 267.163 41.358 266.137 41.358C265.183 41.358 264.535 42.078 264.535 43.086V44.022C264.535 45.012 265.183 45.732 266.137 45.732C267.163 45.732 267.901 44.832 267.901 43.554ZM272.17 41.754C272.17 40.116 273.7 38.874 275.896 38.874C277.012 38.874 278.2 39.108 279.406 39.522L278.74 41.772C277.84 41.43 276.94 41.196 276.148 41.196C275.59 41.196 275.266 41.412 275.266 41.754C275.266 42.816 279.694 41.754 279.694 45.264C279.694 46.974 278.146 48.216 275.896 48.216C274.708 48.216 273.43 47.982 272.098 47.496L272.764 45.246C273.808 45.678 274.762 45.894 275.626 45.894C276.238 45.894 276.58 45.642 276.58 45.264C276.58 44.148 272.17 45.192 272.17 41.754ZM289.184 36.498V39.09H291.308V41.484H289.184V44.742C289.184 45.336 289.562 45.696 290.138 45.696C290.444 45.696 290.804 45.66 291.182 45.588L291.578 47.928C290.786 48.126 290.066 48.216 289.364 48.216C287.366 48.216 286.016 46.956 286.016 45.066V41.484H284.522V39.09H286.016V36.498H289.184ZM291.962 43.554C291.962 40.8 294.068 38.874 297.038 38.874C300.026 38.874 302.114 40.8 302.114 43.554C302.114 46.29 300.026 48.216 297.038 48.216C294.068 48.216 291.962 46.29 291.962 43.554ZM295.202 43.554C295.202 44.85 295.958 45.768 297.038 45.768C298.118 45.768 298.892 44.85 298.892 43.554C298.892 42.24 298.118 41.322 297.038 41.322C295.958 41.322 295.202 42.24 295.202 43.554ZM308.169 48V35.904H313.641C316.215 35.904 318.033 37.542 318.033 39.882C318.033 41.628 317.061 43.014 315.495 43.464L318.591 48H315.027L312.453 43.986H311.337V48H308.169ZM311.337 38.424V41.466H313.119C314.091 41.466 314.793 40.872 314.793 39.936C314.793 39.036 314.091 38.424 313.119 38.424H311.337ZM319.173 43.554C319.173 40.8 321.153 38.874 323.979 38.874C326.643 38.874 328.497 40.728 328.497 43.41C328.497 43.734 328.479 44.058 328.443 44.364H322.341C322.575 45.3 323.475 45.894 324.663 45.894C325.383 45.894 326.229 45.642 327.129 45.174L328.065 47.298C326.715 47.928 325.383 48.216 324.267 48.216C321.243 48.216 319.173 46.29 319.173 43.554ZM323.979 41.196C323.151 41.196 322.521 41.718 322.341 42.51H325.455C325.347 41.718 324.771 41.196 323.979 41.196ZM329.333 43.554C329.333 40.818 331.385 38.874 334.283 38.874C335.543 38.874 336.785 39.234 337.937 39.954L336.677 42.06C336.029 41.646 335.417 41.394 334.733 41.394C333.455 41.394 332.573 42.276 332.573 43.554C332.573 44.832 333.455 45.696 334.733 45.696C335.417 45.696 336.029 45.444 336.677 45.03L337.937 47.154C336.785 47.856 335.543 48.216 334.283 48.216C331.385 48.216 329.333 46.272 329.333 43.554ZM338.941 48V39.09H341.461L341.857 40.206C342.397 39.414 343.297 38.946 344.341 38.946C344.629 38.946 345.025 39 345.367 39.072L345.097 41.574C344.809 41.52 344.431 41.466 344.071 41.466C342.865 41.466 342.109 42.348 342.109 43.626V48H338.941ZM355.716 39.09V48H353.196L352.8 47.028C352.098 47.802 351.072 48.216 349.884 48.216C347.796 48.216 346.32 46.794 346.32 44.724V39.09H349.488V44.202C349.488 45.048 350.082 45.642 350.91 45.642C351.864 45.642 352.548 44.922 352.548 43.878V39.09H355.716ZM357.591 48V39.09H360.759V48H357.591ZM357.375 36.75C357.375 35.688 358.131 34.932 359.175 34.932C360.237 34.932 360.993 35.688 360.993 36.75C360.993 37.794 360.237 38.55 359.175 38.55C358.131 38.55 357.375 37.794 357.375 36.75ZM366.686 36.498V39.09H368.81V41.484H366.686V44.742C366.686 45.336 367.064 45.696 367.64 45.696C367.946 45.696 368.306 45.66 368.684 45.588L369.08 47.928C368.288 48.126 367.568 48.216 366.866 48.216C364.868 48.216 363.518 46.956 363.518 45.066V41.484H362.024V39.09H363.518V36.498H366.686ZM370.353 48V39.09H372.873L373.269 39.99C374.061 39.252 374.997 38.874 376.041 38.874C377.229 38.874 378.237 39.378 378.795 40.206C379.749 39.342 380.793 38.874 381.963 38.874C383.979 38.874 385.383 40.26 385.383 42.222V48H382.215V42.744C382.215 41.988 381.711 41.466 380.955 41.466C380.073 41.466 379.461 42.132 379.461 43.086V48H376.293V42.744C376.293 41.988 375.771 41.466 375.033 41.466C374.133 41.466 373.521 42.132 373.521 43.086V48H370.353ZM386.673 43.554C386.673 40.8 388.653 38.874 391.479 38.874C394.143 38.874 395.997 40.728 395.997 43.41C395.997 43.734 395.979 44.058 395.943 44.364H389.841C390.075 45.3 390.975 45.894 392.163 45.894C392.883 45.894 393.729 45.642 394.629 45.174L395.565 47.298C394.215 47.928 392.883 48.216 391.767 48.216C388.743 48.216 386.673 46.29 386.673 43.554ZM391.479 41.196C390.651 41.196 390.021 41.718 389.841 42.51H392.955C392.847 41.718 392.271 41.196 391.479 41.196ZM397.283 48V39.09H399.803L400.199 40.062C400.901 39.306 401.927 38.874 403.115 38.874C405.221 38.874 406.679 40.314 406.679 42.366V48H403.511V42.888C403.511 42.06 402.917 41.466 402.107 41.466C401.135 41.466 400.451 42.186 400.451 43.23V48H397.283ZM412.231 36.498V39.09H414.355V41.484H412.231V44.742C412.231 45.336 412.609 45.696 413.185 45.696C413.491 45.696 413.851 45.66 414.229 45.588L414.625 47.928C413.833 48.126 413.113 48.216 412.411 48.216C410.413 48.216 409.063 46.956 409.063 45.066V41.484H407.569V39.09H409.063V36.498H412.231ZM33.5192 67.318C33.5192 65.41 35.0672 64.312 37.6592 64.312C38.1272 64.312 38.6672 64.366 39.1892 64.456V64.384C39.1892 63.7 38.5412 63.196 37.6412 63.196C36.7592 63.196 35.7692 63.43 34.7612 63.844L33.9692 61.666C35.4092 61.126 36.7592 60.874 38.0372 60.874C40.4852 60.874 42.0872 62.314 42.0872 64.456V67.39C42.0872 67.66 42.2672 67.84 42.5372 67.84C42.6812 67.84 42.8252 67.822 42.9512 67.804L43.1492 70.072C42.6992 70.162 42.1952 70.216 41.6552 70.216C40.7732 70.216 40.0712 69.838 39.6752 69.19C38.8472 69.856 37.7672 70.216 36.7952 70.216C34.8692 70.216 33.5192 69.028 33.5192 67.318ZM36.4892 67.12C36.4892 67.642 36.9752 68.038 37.6412 68.038C38.5412 68.038 39.1892 67.408 39.1892 66.544V66.22C38.8292 66.148 38.4512 66.094 38.0552 66.094C37.1192 66.094 36.4892 66.49 36.4892 67.12ZM44.1294 70V61.09H46.6494L47.0454 62.062C47.7474 61.306 48.7734 60.874 49.9614 60.874C52.0674 60.874 53.5254 62.314 53.5254 64.366V70H50.3574V64.888C50.3574 64.06 49.7634 63.466 48.9534 63.466C47.9814 63.466 47.2974 64.186 47.2974 65.23V70H44.1294ZM64.5083 57.328V70H61.9883L61.5923 69.172C60.9263 69.856 59.9903 70.216 58.9463 70.216C56.5163 70.216 54.8063 68.29 54.8063 65.554C54.8063 62.8 56.5163 60.874 58.9463 60.874C59.8643 60.874 60.6923 61.18 61.3403 61.72V57.328H64.5083ZM58.0463 65.554C58.0463 66.832 58.7663 67.732 59.7923 67.732C60.7463 67.732 61.3943 67.012 61.3943 66.022V65.086C61.3943 64.078 60.7463 63.358 59.7923 63.358C58.7663 63.358 58.0463 64.258 58.0463 65.554ZM70.4015 61.36C70.4015 59.182 72.3635 57.688 75.1535 57.688C76.5575 57.688 77.9795 57.976 79.5275 58.552L78.7895 61C77.5655 60.514 76.4135 60.262 75.4055 60.262C74.3255 60.262 73.6415 60.658 73.6415 61.36C73.6415 63.304 79.9595 61.738 79.9595 66.472C79.9595 68.704 77.9795 70.216 75.1535 70.216C73.6595 70.216 72.0575 69.91 70.3295 69.208L71.0675 66.76C72.4715 67.3 73.8035 67.642 74.8835 67.642C76.0355 67.642 76.7195 67.21 76.7195 66.472C76.7195 64.456 70.4015 65.95 70.4015 61.36ZM80.9977 65.554C80.9977 62.8 82.9777 60.874 85.8037 60.874C88.4677 60.874 90.3217 62.728 90.3217 65.41C90.3217 65.734 90.3037 66.058 90.2677 66.364H84.1657C84.3997 67.3 85.2997 67.894 86.4877 67.894C87.2077 67.894 88.0537 67.642 88.9537 67.174L89.8897 69.298C88.5397 69.928 87.2077 70.216 86.0917 70.216C83.0677 70.216 80.9977 68.29 80.9977 65.554ZM85.8037 63.196C84.9757 63.196 84.3457 63.718 84.1657 64.51H87.2797C87.1717 63.718 86.5957 63.196 85.8037 63.196ZM94.7759 57.328V66.994C94.7759 67.426 95.0639 67.696 95.4959 67.696C95.7119 67.696 95.9819 67.66 96.2339 67.624L96.5579 70C95.9099 70.144 95.2619 70.216 94.7039 70.216C92.7959 70.216 91.6079 69.082 91.6079 67.318V57.328H94.7759ZM96.8708 65.554C96.8708 62.8 98.8508 60.874 101.677 60.874C104.341 60.874 106.195 62.728 106.195 65.41C106.195 65.734 106.177 66.058 106.141 66.364H100.039C100.273 67.3 101.173 67.894 102.361 67.894C103.081 67.894 103.927 67.642 104.827 67.174L105.763 69.298C104.413 69.928 103.081 70.216 101.965 70.216C98.9408 70.216 96.8708 68.29 96.8708 65.554ZM101.677 63.196C100.849 63.196 100.219 63.718 100.039 64.51H103.153C103.045 63.718 102.469 63.196 101.677 63.196ZM107.031 65.554C107.031 62.818 109.083 60.874 111.981 60.874C113.241 60.874 114.483 61.234 115.635 61.954L114.375 64.06C113.727 63.646 113.115 63.394 112.431 63.394C111.153 63.394 110.271 64.276 110.271 65.554C110.271 66.832 111.153 67.696 112.431 67.696C113.115 67.696 113.727 67.444 114.375 67.03L115.635 69.154C114.483 69.856 113.241 70.216 111.981 70.216C109.083 70.216 107.031 68.272 107.031 65.554ZM120.882 58.498V61.09H123.006V63.484H120.882V66.742C120.882 67.336 121.26 67.696 121.836 67.696C122.142 67.696 122.502 67.66 122.88 67.588L123.276 69.928C122.484 70.126 121.764 70.216 121.062 70.216C119.064 70.216 117.714 68.956 117.714 67.066V63.484H116.22V61.09H117.714V58.498H120.882ZM124.549 70V61.09H127.717V70H124.549ZM124.333 58.75C124.333 57.688 125.089 56.932 126.133 56.932C127.195 56.932 127.951 57.688 127.951 58.75C127.951 59.794 127.195 60.55 126.133 60.55C125.089 60.55 124.333 59.794 124.333 58.75ZM129.162 65.554C129.162 62.8 131.268 60.874 134.238 60.874C137.226 60.874 139.314 62.8 139.314 65.554C139.314 68.29 137.226 70.216 134.238 70.216C131.268 70.216 129.162 68.29 129.162 65.554ZM132.402 65.554C132.402 66.85 133.158 67.768 134.238 67.768C135.318 67.768 136.092 66.85 136.092 65.554C136.092 64.24 135.318 63.322 134.238 63.322C133.158 63.322 132.402 64.24 132.402 65.554ZM140.739 70V61.09H143.259L143.655 62.062C144.357 61.306 145.383 60.874 146.571 60.874C148.677 60.874 150.135 62.314 150.135 64.366V70H146.967V64.888C146.967 64.06 146.373 63.466 145.563 63.466C144.591 63.466 143.907 64.186 143.907 65.23V70H140.739ZM156.496 70V57.904H165.262V60.352H159.79V62.62H164.686V64.996H159.79V67.552H165.55V70H156.496ZM166.007 70L169.122 65.446L166.151 61.09H169.644L171.174 63.484L172.704 61.09H176.196L173.226 65.446L176.34 70H172.776L171.174 67.39L169.572 70H166.007ZM176.201 65.554C176.201 62.818 178.253 60.874 181.151 60.874C182.411 60.874 183.653 61.234 184.805 61.954L183.545 64.06C182.897 63.646 182.285 63.394 181.601 63.394C180.323 63.394 179.441 64.276 179.441 65.554C179.441 66.832 180.323 67.696 181.601 67.696C182.285 67.696 182.897 67.444 183.545 67.03L184.805 69.154C183.653 69.856 182.411 70.216 181.151 70.216C178.253 70.216 176.201 68.272 176.201 65.554ZM185.148 65.554C185.148 62.8 187.128 60.874 189.954 60.874C192.618 60.874 194.472 62.728 194.472 65.41C194.472 65.734 194.454 66.058 194.418 66.364H188.316C188.55 67.3 189.45 67.894 190.638 67.894C191.358 67.894 192.204 67.642 193.104 67.174L194.04 69.298C192.69 69.928 191.358 70.216 190.242 70.216C187.218 70.216 185.148 68.29 185.148 65.554ZM189.954 63.196C189.126 63.196 188.496 63.718 188.316 64.51H191.43C191.322 63.718 190.746 63.196 189.954 63.196ZM198.926 57.328V66.994C198.926 67.426 199.214 67.696 199.646 67.696C199.862 67.696 200.132 67.66 200.384 67.624L200.708 70C200.06 70.144 199.412 70.216 198.854 70.216C196.946 70.216 195.758 69.082 195.758 67.318V57.328H198.926ZM204.639 57.328V66.994C204.639 67.426 204.927 67.696 205.359 67.696C205.575 67.696 205.845 67.66 206.097 67.624L206.421 70C205.773 70.144 205.125 70.216 204.567 70.216C202.659 70.216 201.471 69.082 201.471 67.318V57.328H204.639ZM206.734 65.554C206.734 62.8 208.714 60.874 211.54 60.874C214.204 60.874 216.058 62.728 216.058 65.41C216.058 65.734 216.04 66.058 216.004 66.364H209.902C210.136 67.3 211.036 67.894 212.224 67.894C212.944 67.894 213.79 67.642 214.69 67.174L215.626 69.298C214.276 69.928 212.944 70.216 211.828 70.216C208.804 70.216 206.734 68.29 206.734 65.554ZM211.54 63.196C210.712 63.196 210.082 63.718 209.902 64.51H213.016C212.908 63.718 212.332 63.196 211.54 63.196ZM217.344 70V61.09H219.864L220.26 62.062C220.962 61.306 221.988 60.874 223.176 60.874C225.282 60.874 226.74 62.314 226.74 64.366V70H223.572V64.888C223.572 64.06 222.978 63.466 222.168 63.466C221.196 63.466 220.512 64.186 220.512 65.23V70H217.344ZM228.021 65.554C228.021 62.818 230.073 60.874 232.971 60.874C234.231 60.874 235.473 61.234 236.625 61.954L235.365 64.06C234.717 63.646 234.105 63.394 233.421 63.394C232.143 63.394 231.261 64.276 231.261 65.554C231.261 66.832 232.143 67.696 233.421 67.696C234.105 67.696 234.717 67.444 235.365 67.03L236.625 69.154C235.473 69.856 234.231 70.216 232.971 70.216C230.073 70.216 228.021 68.272 228.021 65.554ZM236.968 65.554C236.968 62.8 238.948 60.874 241.774 60.874C244.438 60.874 246.292 62.728 246.292 65.41C246.292 65.734 246.274 66.058 246.238 66.364H240.136C240.37 67.3 241.27 67.894 242.458 67.894C243.178 67.894 244.024 67.642 244.924 67.174L245.86 69.298C244.51 69.928 243.178 70.216 242.062 70.216C239.038 70.216 236.968 68.29 236.968 65.554ZM241.774 63.196C240.946 63.196 240.316 63.718 240.136 64.51H243.25C243.142 63.718 242.566 63.196 241.774 63.196Z" fill="#0076CF"/>
<rect x="186" y="1.5" width="74" height="22" rx="11" fill="url(#paint2_linear_2002_3509)"/>
<rect x="186" y="1.5" width="74" height="22" rx="11" stroke="url(#paint3_linear_2002_3509)"/>
<path d="M195.354 17V7.592H196.502V16.09H201.066V17H195.354ZM201.83 13.598C201.83 11.498 203.202 10.028 205.148 10.028C206.968 10.028 208.228 11.442 208.228 13.472C208.228 13.612 208.228 13.738 208.214 13.878H202.95C203.048 15.32 204.056 16.314 205.484 16.314C206.1 16.314 206.814 16.132 207.542 15.74L207.892 16.51C206.996 16.958 206.128 17.168 205.372 17.168C203.3 17.168 201.83 15.698 201.83 13.598ZM205.148 10.882C203.93 10.882 203.062 11.792 202.95 13.164H207.15C207.108 11.82 206.296 10.882 205.148 10.882ZM215.527 10.196L212.727 17H211.691L208.891 10.196H210.053L212.209 15.712L214.351 10.196H215.527ZM216.281 13.598C216.281 11.498 217.653 10.028 219.599 10.028C221.419 10.028 222.679 11.442 222.679 13.472C222.679 13.612 222.679 13.738 222.665 13.878H217.401C217.499 15.32 218.507 16.314 219.935 16.314C220.551 16.314 221.265 16.132 221.993 15.74L222.343 16.51C221.447 16.958 220.579 17.168 219.823 17.168C217.751 17.168 216.281 15.698 216.281 13.598ZM219.599 10.882C218.381 10.882 217.513 11.792 217.401 13.164H221.601C221.559 11.82 220.747 10.882 219.599 10.882ZM225.397 7.144V15.432C225.397 15.936 225.719 16.258 226.223 16.258C226.419 16.258 226.657 16.216 226.895 16.16L227.035 17.042C226.657 17.126 226.293 17.168 225.985 17.168C224.935 17.168 224.291 16.538 224.291 15.53V7.144H225.397ZM234.754 17V8.712L232.318 10.112L231.926 9.328L234.936 7.592H235.874V17H234.754ZM238.732 18.694L242.96 6.948L243.856 7.242L239.628 18.988L238.732 18.694ZM246.681 12.604V11.764H247.255C248.585 11.764 249.495 11.036 249.495 10.014C249.495 9.02 248.753 8.334 247.661 8.334C246.933 8.334 246.163 8.53 245.295 8.922L244.931 8.082C245.953 7.62 246.919 7.424 247.829 7.424C249.467 7.424 250.601 8.446 250.601 9.916C250.601 10.994 249.929 11.848 248.879 12.156C250.055 12.478 250.825 13.416 250.825 14.564C250.825 16.104 249.593 17.168 247.829 17.168C246.863 17.168 245.785 16.958 244.707 16.454L245.071 15.614C245.981 16.034 246.863 16.258 247.647 16.258C248.837 16.258 249.691 15.516 249.691 14.466C249.691 13.36 248.697 12.604 247.255 12.604H246.681Z" fill="white"/>
<defs>
<filter id="filter0_i_2002_3509" x="18" y="18" width="410" height="91" filterUnits="userSpaceOnUse" color-interpolation-filters="sRGB">
<feFlood flood-opacity="0" result="BackgroundImageFix"/>
<feBlend mode="normal" in="SourceGraphic" in2="BackgroundImageFix" result="shape"/>
<feColorMatrix in="SourceAlpha" type="matrix" values="0 0 0 0 0 0 0 0 0 0 0 0 0 0 0 0 0 0 127 0" result="hardAlpha"/>
<feOffset dx="1" dy="1"/>
<feGaussianBlur stdDeviation="5"/>
<feComposite in2="hardAlpha" operator="arithmetic" k2="-1" k3="1"/>
<feColorMatrix type="matrix" values="0 0 0 0 0 0 0 0 0 0.180773 0 0 0 0 0.359167 0 0 0 0.5 0"/>
<feBlend mode="normal" in2="shape" result="effect1_innerShadow_2002_3509"/>
</filter>
<filter id="filter1_dd_2002_3509" x="32" y="0" width="25" height="25" filterUnits="userSpaceOnUse" color-interpolation-filters="sRGB">
<feFlood flood-opacity="0" result="BackgroundImageFix"/>
<feColorMatrix in="SourceAlpha" type="matrix" values="0 0 0 0 0 0 0 0 0 0 0 0 0 0 0 0 0 0 127 0" result="hardAlpha"/>
<feOffset/>
<feGaussianBlur stdDeviation="5"/>
<feComposite in2="hardAlpha" operator="out"/>
<feColorMatrix type="matrix" values="0 0 0 0 0.964706 0 0 0 0 1 0 0 0 0 0.8 0 0 0 1 0"/>
<feBlend mode="normal" in2="BackgroundImageFix" result="effect1_dropShadow_2002_3509"/>
<feColorMatrix in="SourceAlpha" type="matrix" values="0 0 0 0 0 0 0 0 0 0 0 0 0 0 0 0 0 0 127 0" result="hardAlpha"/>
<feOffset/>
<feGaussianBlur stdDeviation="1.5"/>
<feComposite in2="hardAlpha" operator="out"/>
<feColorMatrix type="matrix" values="0 0 0 0 0.964706 0 0 0 0 1 0 0 0 0 0.8 0 0 0 1 0"/>
<feBlend mode="normal" in2="effect1_dropShadow_2002_3509" result="effect2_dropShadow_2002_3509"/>
<feBlend mode="normal" in="SourceGraphic" in2="effect2_dropShadow_2002_3509" result="shape"/>
</filter>
<filter id="filter2_dd_2002_3509" x="76.5" y="0" width="25" height="25" filterUnits="userSpaceOnUse" color-interpolation-filters="sRGB">
<feFlood flood-opacity="0" result="BackgroundImageFix"/>
<feColorMatrix in="SourceAlpha" type="matrix" values="0 0 0 0 0 0 0 0 0 0 0 0 0 0 0 0 0 0 127 0" result="hardAlpha"/>
<feOffset/>
<feGaussianBlur stdDeviation="5"/>
<feComposite in2="hardAlpha" operator="out"/>
<feColorMatrix type="matrix" values="0 0 0 0 0.964706 0 0 0 0 1 0 0 0 0 0.8 0 0 0 1 0"/>
<feBlend mode="normal" in2="BackgroundImageFix" result="effect1_dropShadow_2002_3509"/>
<feColorMatrix in="SourceAlpha" type="matrix" values="0 0 0 0 0 0 0 0 0 0 0 0 0 0 0 0 0 0 127 0" result="hardAlpha"/>
<feOffset/>
<feGaussianBlur stdDeviation="1.5"/>
<feComposite in2="hardAlpha" operator="out"/>
<feColorMatrix type="matrix" values="0 0 0 0 0.964706 0 0 0 0 1 0 0 0 0 0.8 0 0 0 1 0"/>
<feBlend mode="normal" in2="effect1_dropShadow_2002_3509" result="effect2_dropShadow_2002_3509"/>
<feBlend mode="normal" in="SourceGraphic" in2="effect2_dropShadow_2002_3509" result="shape"/>
</filter>
<filter id="filter3_dd_2002_3509" x="121" y="0" width="25" height="25" filterUnits="userSpaceOnUse" color-interpolation-filters="sRGB">
<feFlood flood-opacity="0" result="BackgroundImageFix"/>
<feColorMatrix in="SourceAlpha" type="matrix" values="0 0 0 0 0 0 0 0 0 0 0 0 0 0 0 0 0 0 127 0" result="hardAlpha"/>
<feOffset/>
<feGaussianBlur stdDeviation="5"/>
<feComposite in2="hardAlpha" operator="out"/>
<feColorMatrix type="matrix" values="0 0 0 0 0.964706 0 0 0 0 1 0 0 0 0 0.8 0 0 0 1 0"/>
<feBlend mode="normal" in2="BackgroundImageFix" result="effect1_dropShadow_2002_3509"/>
<feColorMatrix in="SourceAlpha" type="matrix" values="0 0 0 0 0 0 0 0 0 0 0 0 0 0 0 0 0 0 127 0" result="hardAlpha"/>
<feOffset/>
<feGaussianBlur stdDeviation="1.5"/>
<feComposite in2="hardAlpha" operator="out"/>
<feColorMatrix type="matrix" values="0 0 0 0 0.964706 0 0 0 0 1 0 0 0 0 0.8 0 0 0 1 0"/>
<feBlend mode="normal" in2="effect1_dropShadow_2002_3509" result="effect2_dropShadow_2002_3509"/>
<feBlend mode="normal" in="SourceGraphic" in2="effect2_dropShadow_2002_3509" result="shape"/>
</filter>
<filter id="filter4_dd_2002_3509" x="165.5" y="0" width="25" height="25" filterUnits="userSpaceOnUse" color-interpolation-filters="sRGB">
<feFlood flood-opacity="0" result="BackgroundImageFix"/>
<feColorMatrix in="SourceAlpha" type="matrix" values="0 0 0 0 0 0 0 0 0 0 0 0 0 0 0 0 0 0 127 0" result="hardAlpha"/>
<feOffset/>
<feGaussianBlur stdDeviation="5"/>
<feComposite in2="hardAlpha" operator="out"/>
<feColorMatrix type="matrix" values="0 0 0 0 0.964706 0 0 0 0 1 0 0 0 0 0.8 0 0 0 1 0"/>
<feBlend mode="normal" in2="BackgroundImageFix" result="effect1_dropShadow_2002_3509"/>
<feColorMatrix in="SourceAlpha" type="matrix" values="0 0 0 0 0 0 0 0 0 0 0 0 0 0 0 0 0 0 127 0" result="hardAlpha"/>
<feOffset/>
<feGaussianBlur stdDeviation="1.5"/>
<feComposite in2="hardAlpha" operator="out"/>
<feColorMatrix type="matrix" values="0 0 0 0 0.964706 0 0 0 0 1 0 0 0 0 0.8 0 0 0 1 0"/>
<feBlend mode="normal" in2="effect1_dropShadow_2002_3509" result="effect2_dropShadow_2002_3509"/>
<feBlend mode="normal" in="SourceGraphic" in2="effect2_dropShadow_2002_3509" result="shape"/>
</filter>
<filter id="filter5_dd_2002_3509" x="210" y="0" width="25" height="25" filterUnits="userSpaceOnUse" color-interpolation-filters="sRGB">
<feFlood flood-opacity="0" result="BackgroundImageFix"/>
<feColorMatrix in="SourceAlpha" type="matrix" values="0 0 0 0 0 0 0 0 0 0 0 0 0 0 0 0 0 0 127 0" result="hardAlpha"/>
<feOffset/>
<feGaussianBlur stdDeviation="5"/>
<feComposite in2="hardAlpha" operator="out"/>
<feColorMatrix type="matrix" values="0 0 0 0 0.964706 0 0 0 0 1 0 0 0 0 0.8 0 0 0 1 0"/>
<feBlend mode="normal" in2="BackgroundImageFix" result="effect1_dropShadow_2002_3509"/>
<feColorMatrix in="SourceAlpha" type="matrix" values="0 0 0 0 0 0 0 0 0 0 0 0 0 0 0 0 0 0 127 0" result="hardAlpha"/>
<feOffset/>
<feGaussianBlur stdDeviation="1.5"/>
<feComposite in2="hardAlpha" operator="out"/>
<feColorMatrix type="matrix" values="0 0 0 0 0.964706 0 0 0 0 1 0 0 0 0 0.8 0 0 0 1 0"/>
<feBlend mode="normal" in2="effect1_dropShadow_2002_3509" result="effect2_dropShadow_2002_3509"/>
<feBlend mode="normal" in="SourceGraphic" in2="effect2_dropShadow_2002_3509" result="shape"/>
</filter>
<filter id="filter6_dd_2002_3509" x="254.5" y="0" width="25" height="25" filterUnits="userSpaceOnUse" color-interpolation-filters="sRGB">
<feFlood flood-opacity="0" result="BackgroundImageFix"/>
<feColorMatrix in="SourceAlpha" type="matrix" values="0 0 0 0 0 0 0 0 0 0 0 0 0 0 0 0 0 0 127 0" result="hardAlpha"/>
<feOffset/>
<feGaussianBlur stdDeviation="5"/>
<feComposite in2="hardAlpha" operator="out"/>
<feColorMatrix type="matrix" values="0 0 0 0 0.964706 0 0 0 0 1 0 0 0 0 0.8 0 0 0 1 0"/>
<feBlend mode="normal" in2="BackgroundImageFix" result="effect1_dropShadow_2002_3509"/>
<feColorMatrix in="SourceAlpha" type="matrix" values="0 0 0 0 0 0 0 0 0 0 0 0 0 0 0 0 0 0 127 0" result="hardAlpha"/>
<feOffset/>
<feGaussianBlur stdDeviation="1.5"/>
<feComposite in2="hardAlpha" operator="out"/>
<feColorMatrix type="matrix" values="0 0 0 0 0.964706 0 0 0 0 1 0 0 0 0 0.8 0 0 0 1 0"/>
<feBlend mode="normal" in2="effect1_dropShadow_2002_3509" result="effect2_dropShadow_2002_3509"/>
<feBlend mode="normal" in="SourceGraphic" in2="effect2_dropShadow_2002_3509" result="shape"/>
</filter>
<filter id="filter7_dd_2002_3509" x="299" y="0" width="25" height="25" filterUnits="userSpaceOnUse" color-interpolation-filters="sRGB">
<feFlood flood-opacity="0" result="BackgroundImageFix"/>
<feColorMatrix in="SourceAlpha" type="matrix" values="0 0 0 0 0 0 0 0 0 0 0 0 0 0 0 0 0 0 127 0" result="hardAlpha"/>
<feOffset/>
<feGaussianBlur stdDeviation="5"/>
<feComposite in2="hardAlpha" operator="out"/>
<feColorMatrix type="matrix" values="0 0 0 0 0.964706 0 0 0 0 1 0 0 0 0 0.8 0 0 0 1 0"/>
<feBlend mode="normal" in2="BackgroundImageFix" result="effect1_dropShadow_2002_3509"/>
<feColorMatrix in="SourceAlpha" type="matrix" values="0 0 0 0 0 0 0 0 0 0 0 0 0 0 0 0 0 0 127 0" result="hardAlpha"/>
<feOffset/>
<feGaussianBlur stdDeviation="1.5"/>
<feComposite in2="hardAlpha" operator="out"/>
<feColorMatrix type="matrix" values="0 0 0 0 0.964706 0 0 0 0 1 0 0 0 0 0.8 0 0 0 1 0"/>
<feBlend mode="normal" in2="effect1_dropShadow_2002_3509" result="effect2_dropShadow_2002_3509"/>
<feBlend mode="normal" in="SourceGraphic" in2="effect2_dropShadow_2002_3509" result="shape"/>
</filter>
<filter id="filter8_dd_2002_3509" x="343.5" y="0" width="25" height="25" filterUnits="userSpaceOnUse" color-interpolation-filters="sRGB">
<feFlood flood-opacity="0" result="BackgroundImageFix"/>
<feColorMatrix in="SourceAlpha" type="matrix" values="0 0 0 0 0 0 0 0 0 0 0 0 0 0 0 0 0 0 127 0" result="hardAlpha"/>
<feOffset/>
<feGaussianBlur stdDeviation="5"/>
<feComposite in2="hardAlpha" operator="out"/>
<feColorMatrix type="matrix" values="0 0 0 0 0.964706 0 0 0 0 1 0 0 0 0 0.8 0 0 0 1 0"/>
<feBlend mode="normal" in2="BackgroundImageFix" result="effect1_dropShadow_2002_3509"/>
<feColorMatrix in="SourceAlpha" type="matrix" values="0 0 0 0 0 0 0 0 0 0 0 0 0 0 0 0 0 0 127 0" result="hardAlpha"/>
<feOffset/>
<feGaussianBlur stdDeviation="1.5"/>
<feComposite in2="hardAlpha" operator="out"/>
<feColorMatrix type="matrix" values="0 0 0 0 0.964706 0 0 0 0 1 0 0 0 0 0.8 0 0 0 1 0"/>
<feBlend mode="normal" in2="effect1_dropShadow_2002_3509" result="effect2_dropShadow_2002_3509"/>
<feBlend mode="normal" in="SourceGraphic" in2="effect2_dropShadow_2002_3509" result="shape"/>
</filter>
<filter id="filter9_dd_2002_3509" x="388" y="0" width="25" height="25" filterUnits="userSpaceOnUse" color-interpolation-filters="sRGB">
<feFlood flood-opacity="0" result="BackgroundImageFix"/>
<feColorMatrix in="SourceAlpha" type="matrix" values="0 0 0 0 0 0 0 0 0 0 0 0 0 0 0 0 0 0 127 0" result="hardAlpha"/>
<feOffset/>
<feGaussianBlur stdDeviation="5"/>
<feComposite in2="hardAlpha" operator="out"/>
<feColorMatrix type="matrix" values="0 0 0 0 0.964706 0 0 0 0 1 0 0 0 0 0.8 0 0 0 1 0"/>
<feBlend mode="normal" in2="BackgroundImageFix" result="effect1_dropShadow_2002_3509"/>
<feColorMatrix in="SourceAlpha" type="matrix" values="0 0 0 0 0 0 0 0 0 0 0 0 0 0 0 0 0 0 127 0" result="hardAlpha"/>
<feOffset/>
<feGaussianBlur stdDeviation="1.5"/>
<feComposite in2="hardAlpha" operator="out"/>
<feColorMatrix type="matrix" values="0 0 0 0 0.964706 0 0 0 0 1 0 0 0 0 0.8 0 0 0 1 0"/>
<feBlend mode="normal" in2="effect1_dropShadow_2002_3509" result="effect2_dropShadow_2002_3509"/>
<feBlend mode="normal" in="SourceGraphic" in2="effect2_dropShadow_2002_3509" result="shape"/>
</filter>
<filter id="filter10_dd_2002_3509" x="32" y="101" width="25" height="25" filterUnits="userSpaceOnUse" color-interpolation-filters="sRGB">
<feFlood flood-opacity="0" result="BackgroundImageFix"/>
<feColorMatrix in="SourceAlpha" type="matrix" values="0 0 0 0 0 0 0 0 0 0 0 0 0 0 0 0 0 0 127 0" result="hardAlpha"/>
<feOffset/>
<feGaussianBlur stdDeviation="5"/>
<feComposite in2="hardAlpha" operator="out"/>
<feColorMatrix type="matrix" values="0 0 0 0 0.964706 0 0 0 0 1 0 0 0 0 0.8 0 0 0 1 0"/>
<feBlend mode="normal" in2="BackgroundImageFix" result="effect1_dropShadow_2002_3509"/>
<feColorMatrix in="SourceAlpha" type="matrix" values="0 0 0 0 0 0 0 0 0 0 0 0 0 0 0 0 0 0 127 0" result="hardAlpha"/>
<feOffset/>
<feGaussianBlur stdDeviation="1.5"/>
<feComposite in2="hardAlpha" operator="out"/>
<feColorMatrix type="matrix" values="0 0 0 0 0.964706 0 0 0 0 1 0 0 0 0 0.8 0 0 0 1 0"/>
<feBlend mode="normal" in2="effect1_dropShadow_2002_3509" result="effect2_dropShadow_2002_3509"/>
<feBlend mode="normal" in="SourceGraphic" in2="effect2_dropShadow_2002_3509" result="shape"/>
</filter>
<filter id="filter11_dd_2002_3509" x="76.5" y="101" width="25" height="25" filterUnits="userSpaceOnUse" color-interpolation-filters="sRGB">
<feFlood flood-opacity="0" result="BackgroundImageFix"/>
<feColorMatrix in="SourceAlpha" type="matrix" values="0 0 0 0 0 0 0 0 0 0 0 0 0 0 0 0 0 0 127 0" result="hardAlpha"/>
<feOffset/>
<feGaussianBlur stdDeviation="5"/>
<feComposite in2="hardAlpha" operator="out"/>
<feColorMatrix type="matrix" values="0 0 0 0 0.964706 0 0 0 0 1 0 0 0 0 0.8 0 0 0 1 0"/>
<feBlend mode="normal" in2="BackgroundImageFix" result="effect1_dropShadow_2002_3509"/>
<feColorMatrix in="SourceAlpha" type="matrix" values="0 0 0 0 0 0 0 0 0 0 0 0 0 0 0 0 0 0 127 0" result="hardAlpha"/>
<feOffset/>
<feGaussianBlur stdDeviation="1.5"/>
<feComposite in2="hardAlpha" operator="out"/>
<feColorMatrix type="matrix" values="0 0 0 0 0.964706 0 0 0 0 1 0 0 0 0 0.8 0 0 0 1 0"/>
<feBlend mode="normal" in2="effect1_dropShadow_2002_3509" result="effect2_dropShadow_2002_3509"/>
<feBlend mode="normal" in="SourceGraphic" in2="effect2_dropShadow_2002_3509" result="shape"/>
</filter>
<filter id="filter12_dd_2002_3509" x="121" y="101" width="25" height="25" filterUnits="userSpaceOnUse" color-interpolation-filters="sRGB">
<feFlood flood-opacity="0" result="BackgroundImageFix"/>
<feColorMatrix in="SourceAlpha" type="matrix" values="0 0 0 0 0 0 0 0 0 0 0 0 0 0 0 0 0 0 127 0" result="hardAlpha"/>
<feOffset/>
<feGaussianBlur stdDeviation="5"/>
<feComposite in2="hardAlpha" operator="out"/>
<feColorMatrix type="matrix" values="0 0 0 0 0.964706 0 0 0 0 1 0 0 0 0 0.8 0 0 0 1 0"/>
<feBlend mode="normal" in2="BackgroundImageFix" result="effect1_dropShadow_2002_3509"/>
<feColorMatrix in="SourceAlpha" type="matrix" values="0 0 0 0 0 0 0 0 0 0 0 0 0 0 0 0 0 0 127 0" result="hardAlpha"/>
<feOffset/>
<feGaussianBlur stdDeviation="1.5"/>
<feComposite in2="hardAlpha" operator="out"/>
<feColorMatrix type="matrix" values="0 0 0 0 0.964706 0 0 0 0 1 0 0 0 0 0.8 0 0 0 1 0"/>
<feBlend mode="normal" in2="effect1_dropShadow_2002_3509" result="effect2_dropShadow_2002_3509"/>
<feBlend mode="normal" in="SourceGraphic" in2="effect2_dropShadow_2002_3509" result="shape"/>
</filter>
<filter id="filter13_dd_2002_3509" x="165.5" y="101" width="25" height="25" filterUnits="userSpaceOnUse" color-interpolation-filters="sRGB">
<feFlood flood-opacity="0" result="BackgroundImageFix"/>
<feColorMatrix in="SourceAlpha" type="matrix" values="0 0 0 0 0 0 0 0 0 0 0 0 0 0 0 0 0 0 127 0" result="hardAlpha"/>
<feOffset/>
<feGaussianBlur stdDeviation="5"/>
<feComposite in2="hardAlpha" operator="out"/>
<feColorMatrix type="matrix" values="0 0 0 0 0.964706 0 0 0 0 1 0 0 0 0 0.8 0 0 0 1 0"/>
<feBlend mode="normal" in2="BackgroundImageFix" result="effect1_dropShadow_2002_3509"/>
<feColorMatrix in="SourceAlpha" type="matrix" values="0 0 0 0 0 0 0 0 0 0 0 0 0 0 0 0 0 0 127 0" result="hardAlpha"/>
<feOffset/>
<feGaussianBlur stdDeviation="1.5"/>
<feComposite in2="hardAlpha" operator="out"/>
<feColorMatrix type="matrix" values="0 0 0 0 0.964706 0 0 0 0 1 0 0 0 0 0.8 0 0 0 1 0"/>
<feBlend mode="normal" in2="effect1_dropShadow_2002_3509" result="effect2_dropShadow_2002_3509"/>
<feBlend mode="normal" in="SourceGraphic" in2="effect2_dropShadow_2002_3509" result="shape"/>
</filter>
<filter id="filter14_dd_2002_3509" x="210" y="101" width="25" height="25" filterUnits="userSpaceOnUse" color-interpolation-filters="sRGB">
<feFlood flood-opacity="0" result="BackgroundImageFix"/>
<feColorMatrix in="SourceAlpha" type="matrix" values="0 0 0 0 0 0 0 0 0 0 0 0 0 0 0 0 0 0 127 0" result="hardAlpha"/>
<feOffset/>
<feGaussianBlur stdDeviation="5"/>
<feComposite in2="hardAlpha" operator="out"/>
<feColorMatrix type="matrix" values="0 0 0 0 0.964706 0 0 0 0 1 0 0 0 0 0.8 0 0 0 1 0"/>
<feBlend mode="normal" in2="BackgroundImageFix" result="effect1_dropShadow_2002_3509"/>
<feColorMatrix in="SourceAlpha" type="matrix" values="0 0 0 0 0 0 0 0 0 0 0 0 0 0 0 0 0 0 127 0" result="hardAlpha"/>
<feOffset/>
<feGaussianBlur stdDeviation="1.5"/>
<feComposite in2="hardAlpha" operator="out"/>
<feColorMatrix type="matrix" values="0 0 0 0 0.964706 0 0 0 0 1 0 0 0 0 0.8 0 0 0 1 0"/>
<feBlend mode="normal" in2="effect1_dropShadow_2002_3509" result="effect2_dropShadow_2002_3509"/>
<feBlend mode="normal" in="SourceGraphic" in2="effect2_dropShadow_2002_3509" result="shape"/>
</filter>
<filter id="filter15_dd_2002_3509" x="254.5" y="101" width="25" height="25" filterUnits="userSpaceOnUse" color-interpolation-filters="sRGB">
<feFlood flood-opacity="0" result="BackgroundImageFix"/>
<feColorMatrix in="SourceAlpha" type="matrix" values="0 0 0 0 0 0 0 0 0 0 0 0 0 0 0 0 0 0 127 0" result="hardAlpha"/>
<feOffset/>
<feGaussianBlur stdDeviation="5"/>
<feComposite in2="hardAlpha" operator="out"/>
<feColorMatrix type="matrix" values="0 0 0 0 0.964706 0 0 0 0 1 0 0 0 0 0.8 0 0 0 1 0"/>
<feBlend mode="normal" in2="BackgroundImageFix" result="effect1_dropShadow_2002_3509"/>
<feColorMatrix in="SourceAlpha" type="matrix" values="0 0 0 0 0 0 0 0 0 0 0 0 0 0 0 0 0 0 127 0" result="hardAlpha"/>
<feOffset/>
<feGaussianBlur stdDeviation="1.5"/>
<feComposite in2="hardAlpha" operator="out"/>
<feColorMatrix type="matrix" values="0 0 0 0 0.964706 0 0 0 0 1 0 0 0 0 0.8 0 0 0 1 0"/>
<feBlend mode="normal" in2="effect1_dropShadow_2002_3509" result="effect2_dropShadow_2002_3509"/>
<feBlend mode="normal" in="SourceGraphic" in2="effect2_dropShadow_2002_3509" result="shape"/>
</filter>
<filter id="filter16_dd_2002_3509" x="299" y="101" width="25" height="25" filterUnits="userSpaceOnUse" color-interpolation-filters="sRGB">
<feFlood flood-opacity="0" result="BackgroundImageFix"/>
<feColorMatrix in="SourceAlpha" type="matrix" values="0 0 0 0 0 0 0 0 0 0 0 0 0 0 0 0 0 0 127 0" result="hardAlpha"/>
<feOffset/>
<feGaussianBlur stdDeviation="5"/>
<feComposite in2="hardAlpha" operator="out"/>
<feColorMatrix type="matrix" values="0 0 0 0 0.964706 0 0 0 0 1 0 0 0 0 0.8 0 0 0 1 0"/>
<feBlend mode="normal" in2="BackgroundImageFix" result="effect1_dropShadow_2002_3509"/>
<feColorMatrix in="SourceAlpha" type="matrix" values="0 0 0 0 0 0 0 0 0 0 0 0 0 0 0 0 0 0 127 0" result="hardAlpha"/>
<feOffset/>
<feGaussianBlur stdDeviation="1.5"/>
<feComposite in2="hardAlpha" operator="out"/>
<feColorMatrix type="matrix" values="0 0 0 0 0.964706 0 0 0 0 1 0 0 0 0 0.8 0 0 0 1 0"/>
<feBlend mode="normal" in2="effect1_dropShadow_2002_3509" result="effect2_dropShadow_2002_3509"/>
<feBlend mode="normal" in="SourceGraphic" in2="effect2_dropShadow_2002_3509" result="shape"/>
</filter>
<filter id="filter17_dd_2002_3509" x="343.5" y="101" width="25" height="25" filterUnits="userSpaceOnUse" color-interpolation-filters="sRGB">
<feFlood flood-opacity="0" result="BackgroundImageFix"/>
<feColorMatrix in="SourceAlpha" type="matrix" values="0 0 0 0 0 0 0 0 0 0 0 0 0 0 0 0 0 0 127 0" result="hardAlpha"/>
<feOffset/>
<feGaussianBlur stdDeviation="5"/>
<feComposite in2="hardAlpha" operator="out"/>
<feColorMatrix type="matrix" values="0 0 0 0 0.964706 0 0 0 0 1 0 0 0 0 0.8 0 0 0 1 0"/>
<feBlend mode="normal" in2="BackgroundImageFix" result="effect1_dropShadow_2002_3509"/>
<feColorMatrix in="SourceAlpha" type="matrix" values="0 0 0 0 0 0 0 0 0 0 0 0 0 0 0 0 0 0 127 0" result="hardAlpha"/>
<feOffset/>
<feGaussianBlur stdDeviation="1.5"/>
<feComposite in2="hardAlpha" operator="out"/>
<feColorMatrix type="matrix" values="0 0 0 0 0.964706 0 0 0 0 1 0 0 0 0 0.8 0 0 0 1 0"/>
<feBlend mode="normal" in2="effect1_dropShadow_2002_3509" result="effect2_dropShadow_2002_3509"/>
<feBlend mode="normal" in="SourceGraphic" in2="effect2_dropShadow_2002_3509" result="shape"/>
</filter>
<filter id="filter18_dd_2002_3509" x="388" y="101" width="25" height="25" filterUnits="userSpaceOnUse" color-interpolation-filters="sRGB">
<feFlood flood-opacity="0" result="BackgroundImageFix"/>
<feColorMatrix in="SourceAlpha" type="matrix" values="0 0 0 0 0 0 0 0 0 0 0 0 0 0 0 0 0 0 127 0" result="hardAlpha"/>
<feOffset/>
<feGaussianBlur stdDeviation="5"/>
<feComposite in2="hardAlpha" operator="out"/>
<feColorMatrix type="matrix" values="0 0 0 0 0.964706 0 0 0 0 1 0 0 0 0 0.8 0 0 0 1 0"/>
<feBlend mode="normal" in2="BackgroundImageFix" result="effect1_dropShadow_2002_3509"/>
<feColorMatrix in="SourceAlpha" type="matrix" values="0 0 0 0 0 0 0 0 0 0 0 0 0 0 0 0 0 0 127 0" result="hardAlpha"/>
<feOffset/>
<feGaussianBlur stdDeviation="1.5"/>
<feComposite in2="hardAlpha" operator="out"/>
<feColorMatrix type="matrix" values="0 0 0 0 0.964706 0 0 0 0 1 0 0 0 0 0.8 0 0 0 1 0"/>
<feBlend mode="normal" in2="effect1_dropShadow_2002_3509" result="effect2_dropShadow_2002_3509"/>
<feBlend mode="normal" in="SourceGraphic" in2="effect2_dropShadow_2002_3509" result="shape"/>
</filter>
<filter id="filter19_dd_2002_3509" x="0" y="71" width="25" height="25" filterUnits="userSpaceOnUse" color-interpolation-filters="sRGB">
<feFlood flood-opacity="0" result="BackgroundImageFix"/>
<feColorMatrix in="SourceAlpha" type="matrix" values="0 0 0 0 0 0 0 0 0 0 0 0 0 0 0 0 0 0 127 0" result="hardAlpha"/>
<feOffset/>
<feGaussianBlur stdDeviation="5"/>
<feComposite in2="hardAlpha" operator="out"/>
<feColorMatrix type="matrix" values="0 0 0 0 0.964706 0 0 0 0 1 0 0 0 0 0.8 0 0 0 1 0"/>
<feBlend mode="normal" in2="BackgroundImageFix" result="effect1_dropShadow_2002_3509"/>
<feColorMatrix in="SourceAlpha" type="matrix" values="0 0 0 0 0 0 0 0 0 0 0 0 0 0 0 0 0 0 127 0" result="hardAlpha"/>
<feOffset/>
<feGaussianBlur stdDeviation="1.5"/>
<feComposite in2="hardAlpha" operator="out"/>
<feColorMatrix type="matrix" values="0 0 0 0 0.964706 0 0 0 0 1 0 0 0 0 0.8 0 0 0 1 0"/>
<feBlend mode="normal" in2="effect1_dropShadow_2002_3509" result="effect2_dropShadow_2002_3509"/>
<feBlend mode="normal" in="SourceGraphic" in2="effect2_dropShadow_2002_3509" result="shape"/>
</filter>
<filter id="filter20_dd_2002_3509" x="0" y="30" width="25" height="25" filterUnits="userSpaceOnUse" color-interpolation-filters="sRGB">
<feFlood flood-opacity="0" result="BackgroundImageFix"/>
<feColorMatrix in="SourceAlpha" type="matrix" values="0 0 0 0 0 0 0 0 0 0 0 0 0 0 0 0 0 0 127 0" result="hardAlpha"/>
<feOffset/>
<feGaussianBlur stdDeviation="5"/>
<feComposite in2="hardAlpha" operator="out"/>
<feColorMatrix type="matrix" values="0 0 0 0 0.964706 0 0 0 0 1 0 0 0 0 0.8 0 0 0 1 0"/>
<feBlend mode="normal" in2="BackgroundImageFix" result="effect1_dropShadow_2002_3509"/>
<feColorMatrix in="SourceAlpha" type="matrix" values="0 0 0 0 0 0 0 0 0 0 0 0 0 0 0 0 0 0 127 0" result="hardAlpha"/>
<feOffset/>
<feGaussianBlur stdDeviation="1.5"/>
<feComposite in2="hardAlpha" operator="out"/>
<feColorMatrix type="matrix" values="0 0 0 0 0.964706 0 0 0 0 1 0 0 0 0 0.8 0 0 0 1 0"/>
<feBlend mode="normal" in2="effect1_dropShadow_2002_3509" result="effect2_dropShadow_2002_3509"/>
<feBlend mode="normal" in="SourceGraphic" in2="effect2_dropShadow_2002_3509" result="shape"/>
</filter>
<filter id="filter21_dd_2002_3509" x="420" y="71" width="25" height="25" filterUnits="userSpaceOnUse" color-interpolation-filters="sRGB">
<feFlood flood-opacity="0" result="BackgroundImageFix"/>
<feColorMatrix in="SourceAlpha" type="matrix" values="0 0 0 0 0 0 0 0 0 0 0 0 0 0 0 0 0 0 127 0" result="hardAlpha"/>
<feOffset/>
<feGaussianBlur stdDeviation="5"/>
<feComposite in2="hardAlpha" operator="out"/>
<feColorMatrix type="matrix" values="0 0 0 0 0.964706 0 0 0 0 1 0 0 0 0 0.8 0 0 0 1 0"/>
<feBlend mode="normal" in2="BackgroundImageFix" result="effect1_dropShadow_2002_3509"/>
<feColorMatrix in="SourceAlpha" type="matrix" values="0 0 0 0 0 0 0 0 0 0 0 0 0 0 0 0 0 0 127 0" result="hardAlpha"/>
<feOffset/>
<feGaussianBlur stdDeviation="1.5"/>
<feComposite in2="hardAlpha" operator="out"/>
<feColorMatrix type="matrix" values="0 0 0 0 0.964706 0 0 0 0 1 0 0 0 0 0.8 0 0 0 1 0"/>
<feBlend mode="normal" in2="effect1_dropShadow_2002_3509" result="effect2_dropShadow_2002_3509"/>
<feBlend mode="normal" in="SourceGraphic" in2="effect2_dropShadow_2002_3509" result="shape"/>
</filter>
<filter id="filter22_dd_2002_3509" x="420" y="30" width="25" height="25" filterUnits="userSpaceOnUse" color-interpolation-filters="sRGB">
<feFlood flood-opacity="0" result="BackgroundImageFix"/>
<feColorMatrix in="SourceAlpha" type="matrix" values="0 0 0 0 0 0 0 0 0 0 0 0 0 0 0 0 0 0 127 0" result="hardAlpha"/>
<feOffset/>
<feGaussianBlur stdDeviation="5"/>
<feComposite in2="hardAlpha" operator="out"/>
<feColorMatrix type="matrix" values="0 0 0 0 0.964706 0 0 0 0 1 0 0 0 0 0.8 0 0 0 1 0"/>
<feBlend mode="normal" in2="BackgroundImageFix" result="effect1_dropShadow_2002_3509"/>
<feColorMatrix in="SourceAlpha" type="matrix" values="0 0 0 0 0 0 0 0 0 0 0 0 0 0 0 0 0 0 127 0" result="hardAlpha"/>
<feOffset/>
<feGaussianBlur stdDeviation="1.5"/>
<feComposite in2="hardAlpha" operator="out"/>
<feColorMatrix type="matrix" values="0 0 0 0 0.964706 0 0 0 0 1 0 0 0 0 0.8 0 0 0 1 0"/>
<feBlend mode="normal" in2="effect1_dropShadow_2002_3509" result="effect2_dropShadow_2002_3509"/>
<feBlend mode="normal" in="SourceGraphic" in2="effect2_dropShadow_2002_3509" result="shape"/>
</filter>
<linearGradient id="paint0_linear_2002_3509" x1="7.00001" y1="81.7546" x2="40.4845" y2="-53.2894" gradientUnits="userSpaceOnUse">
<stop offset="0.25" stop-color="#004C97"/>
<stop offset="1" stop-color="#0076CF"/>
</linearGradient>
<linearGradient id="paint1_linear_2002_3509" x1="7.00001" y1="81.7546" x2="40.4845" y2="-53.2894" gradientUnits="userSpaceOnUse">
<stop offset="0.25" stop-color="#003865"/>
<stop offset="1" stop-color="#004C97"/>
</linearGradient>
<linearGradient id="paint2_linear_2002_3509" x1="185.5" y1="16.2825" x2="193.566" y2="-11.0383" gradientUnits="userSpaceOnUse">
<stop offset="0.25" stop-color="#003865"/>
<stop offset="1" stop-color="#004C97"/>
</linearGradient>
<linearGradient id="paint3_linear_2002_3509" x1="185.5" y1="16.2825" x2="193.566" y2="-11.0383" gradientUnits="userSpaceOnUse">
<stop offset="0.25" stop-color="#004C97"/>
<stop offset="1" stop-color="#0076CF"/>
</linearGradient>
</defs>
</svg>
