<svg width="445" height="126" viewBox="0 0 445 126" fill="none" xmlns="http://www.w3.org/2000/svg">
<rect x="6" y="7" width="433" height="113" rx="31" fill="url(#paint0_linear_2023_7389)" stroke="url(#paint1_linear_2023_7389)" stroke-width="2"/>
<g filter="url(#filter0_i_2023_7389)">
<rect x="18" y="18" width="409" height="90" rx="20" fill="#E5F4FD"/>
</g>
<g filter="url(#filter1_dd_2023_7389)">
<circle cx="44.5" cy="12.5" r="2.5" fill="white"/>
</g>
<g filter="url(#filter2_dd_2023_7389)">
<circle cx="89" cy="12.5" r="2.5" fill="white"/>
</g>
<g filter="url(#filter3_dd_2023_7389)">
<circle cx="133.5" cy="12.5" r="2.5" fill="white"/>
</g>
<g filter="url(#filter4_dd_2023_7389)">
<circle cx="178" cy="12.5" r="2.5" fill="white"/>
</g>
<g filter="url(#filter5_dd_2023_7389)">
<circle cx="222.5" cy="12.5" r="2.5" fill="white"/>
</g>
<g filter="url(#filter6_dd_2023_7389)">
<circle cx="267" cy="12.5" r="2.5" fill="white"/>
</g>
<g filter="url(#filter7_dd_2023_7389)">
<circle cx="311.5" cy="12.5" r="2.5" fill="white"/>
</g>
<g filter="url(#filter8_dd_2023_7389)">
<circle cx="356" cy="12.5" r="2.5" fill="white"/>
</g>
<g filter="url(#filter9_dd_2023_7389)">
<circle cx="400.5" cy="12.5" r="2.5" fill="white"/>
</g>
<g filter="url(#filter10_dd_2023_7389)">
<circle cx="44.5" cy="113.5" r="2.5" fill="white"/>
</g>
<g filter="url(#filter11_dd_2023_7389)">
<circle cx="89" cy="113.5" r="2.5" fill="white"/>
</g>
<g filter="url(#filter12_dd_2023_7389)">
<circle cx="133.5" cy="113.5" r="2.5" fill="white"/>
</g>
<g filter="url(#filter13_dd_2023_7389)">
<circle cx="178" cy="113.5" r="2.5" fill="white"/>
</g>
<g filter="url(#filter14_dd_2023_7389)">
<circle cx="222.5" cy="113.5" r="2.5" fill="white"/>
</g>
<g filter="url(#filter15_dd_2023_7389)">
<circle cx="267" cy="113.5" r="2.5" fill="white"/>
</g>
<g filter="url(#filter16_dd_2023_7389)">
<circle cx="311.5" cy="113.5" r="2.5" fill="white"/>
</g>
<g filter="url(#filter17_dd_2023_7389)">
<circle cx="356" cy="113.5" r="2.5" fill="white"/>
</g>
<g filter="url(#filter18_dd_2023_7389)">
<circle cx="400.5" cy="113.5" r="2.5" fill="white"/>
</g>
<g filter="url(#filter19_dd_2023_7389)">
<circle cx="12.5" cy="83.5" r="2.5" transform="rotate(-90 12.5 83.5)" fill="white"/>
</g>
<g filter="url(#filter20_dd_2023_7389)">
<circle cx="12.5" cy="42.5" r="2.5" transform="rotate(-90 12.5 42.5)" fill="white"/>
</g>
<g filter="url(#filter21_dd_2023_7389)">
<circle cx="432.5" cy="83.5" r="2.5" transform="rotate(-90 432.5 83.5)" fill="white"/>
</g>
<g filter="url(#filter22_dd_2023_7389)">
<circle cx="432.5" cy="42.5" r="2.5" transform="rotate(-90 432.5 42.5)" fill="white"/>
</g>
<path d="M45.6282 48V35.904H50.6682C53.0982 35.904 54.8262 37.47 54.8262 39.702C54.8262 41.502 53.7282 42.87 52.0362 43.23L55.3482 48H52.7382L49.8042 43.59H47.9322V48H45.6282ZM47.9322 37.74V41.736H50.3082C51.5682 41.736 52.4682 40.944 52.4682 39.738C52.4682 38.568 51.5682 37.74 50.3082 37.74H47.9322ZM56.3658 43.59C56.3658 40.872 58.2198 38.964 60.8838 38.964C63.3858 38.964 65.1318 40.782 65.1318 43.428C65.1318 43.68 65.1138 43.932 65.0958 44.166H58.6698C58.8318 45.57 59.9478 46.506 61.4598 46.506C62.2158 46.506 63.0798 46.272 63.9978 45.768L64.6998 47.334C63.4578 47.946 62.2158 48.216 61.1718 48.216C58.3278 48.216 56.3658 46.308 56.3658 43.59ZM60.8838 40.674C59.6958 40.674 58.8138 41.52 58.6698 42.78H62.9178C62.8458 41.52 62.0358 40.674 60.8838 40.674ZM75.2618 39.18V47.838C75.2618 50.232 73.2638 51.96 70.5098 51.96C69.3758 51.96 68.0978 51.708 66.7658 51.15L67.3958 49.44C68.5118 49.944 69.5198 50.16 70.3298 50.16C71.8778 50.16 72.9578 49.242 72.9578 47.928V46.992C72.3278 47.784 71.4098 48.216 70.3118 48.216C67.9538 48.216 66.2798 46.308 66.2798 43.59C66.2798 40.872 67.9538 38.964 70.3118 38.964C71.4998 38.964 72.4898 39.45 73.1378 40.314L73.4258 39.18H75.2618ZM68.6198 43.59C68.6198 45.228 69.5738 46.398 70.9058 46.398C72.1478 46.398 73.0118 45.462 73.0118 44.184V42.996C73.0118 41.7 72.1478 40.782 70.9058 40.782C69.5738 40.782 68.6198 41.934 68.6198 43.59ZM77.6124 48V39.18H79.4484L79.7364 40.548C80.2404 39.594 81.1944 39.036 82.3464 39.036C82.6524 39.036 83.0484 39.072 83.4084 39.162L83.1924 40.998C82.8864 40.926 82.5084 40.872 82.1664 40.872C80.7984 40.872 79.9164 41.934 79.9164 43.446V48H77.6124ZM84.1041 43.59C84.1041 40.872 86.0661 38.964 88.8561 38.964C91.6641 38.964 93.6261 40.872 93.6261 43.59C93.6261 46.308 91.6641 48.216 88.8561 48.216C86.0661 48.216 84.1041 46.308 84.1041 43.59ZM86.4441 43.59C86.4441 45.246 87.4521 46.416 88.8561 46.416C90.2781 46.416 91.2861 45.246 91.2861 43.59C91.2861 41.916 90.2781 40.764 88.8561 40.764C87.4521 40.764 86.4441 41.916 86.4441 43.59ZM103.897 39.18V48H102.061L101.773 46.722C101.125 47.676 100.027 48.216 98.7486 48.216C96.7326 48.216 95.2926 46.83 95.2926 44.85V39.18H97.5966V44.472C97.5966 45.57 98.3706 46.326 99.4506 46.326C100.693 46.326 101.593 45.39 101.593 44.04V39.18H103.897ZM106.247 51.744V39.18H108.083L108.371 40.314C109.019 39.45 110.027 38.964 111.197 38.964C113.573 38.964 115.247 40.872 115.247 43.59C115.247 46.308 113.573 48.216 111.197 48.216C110.117 48.216 109.181 47.784 108.551 46.992V51.744H106.247ZM112.907 43.59C112.907 41.934 111.953 40.782 110.603 40.782C109.379 40.782 108.515 41.7 108.515 42.996V44.184C108.515 45.462 109.379 46.398 110.603 46.398C111.953 46.398 112.907 45.228 112.907 43.59ZM124.269 36.588V39.18H126.717V40.926H124.269V45.138C124.269 45.876 124.773 46.38 125.511 46.38C125.853 46.38 126.231 46.326 126.645 46.218L126.951 47.946C126.249 48.126 125.583 48.216 124.953 48.216C123.189 48.216 121.965 47.064 121.965 45.372V40.926H120.327V39.18H121.965V36.588H124.269ZM128.571 48V35.328H130.875V40.314C131.505 39.45 132.549 38.964 133.737 38.964C135.753 38.964 137.175 40.35 137.175 42.33V48H134.871V42.69C134.871 41.61 134.097 40.854 133.035 40.854C131.793 40.854 130.875 41.79 130.875 43.14V48H128.571ZM138.86 43.59C138.86 40.872 140.714 38.964 143.378 38.964C145.88 38.964 147.626 40.782 147.626 43.428C147.626 43.68 147.608 43.932 147.59 44.166H141.164C141.326 45.57 142.442 46.506 143.954 46.506C144.71 46.506 145.574 46.272 146.492 45.768L147.194 47.334C145.952 47.946 144.71 48.216 143.666 48.216C140.822 48.216 138.86 46.308 138.86 43.59ZM143.378 40.674C142.19 40.674 141.308 41.52 141.164 42.78H145.412C145.34 41.52 144.53 40.674 143.378 40.674ZM153.17 41.628C153.17 40.08 154.574 38.964 156.608 38.964C157.634 38.964 158.732 39.18 159.848 39.576L159.344 41.232C158.462 40.89 157.58 40.674 156.788 40.674C155.96 40.674 155.42 41.052 155.42 41.628C155.42 43.23 160.136 42.06 160.136 45.48C160.136 47.082 158.696 48.216 156.608 48.216C155.528 48.216 154.34 47.982 153.098 47.514L153.584 45.876C154.61 46.29 155.582 46.506 156.428 46.506C157.31 46.506 157.868 46.092 157.868 45.48C157.868 43.806 153.17 44.976 153.17 41.628ZM164.909 36.588V39.18H167.357V40.926H164.909V45.138C164.909 45.876 165.413 46.38 166.151 46.38C166.493 46.38 166.871 46.326 167.285 46.218L167.591 47.946C166.889 48.126 166.223 48.216 165.593 48.216C163.829 48.216 162.605 47.064 162.605 45.372V40.926H160.967V39.18H162.605V36.588H164.909ZM169.212 48V39.18H171.516V48H169.212ZM168.996 36.66C168.996 35.85 169.572 35.274 170.364 35.274C171.174 35.274 171.75 35.85 171.75 36.66C171.75 37.47 171.174 38.046 170.364 38.046C169.572 38.046 168.996 37.47 168.996 36.66ZM173.348 43.59C173.348 40.872 175.274 38.964 178.01 38.964C179.18 38.964 180.332 39.306 181.394 39.99L180.458 41.538C179.774 41.07 179.072 40.8 178.334 40.8C176.786 40.8 175.688 41.952 175.688 43.59C175.688 45.228 176.786 46.38 178.334 46.38C179.072 46.38 179.774 46.092 180.458 45.624L181.394 47.19C180.332 47.874 179.18 48.216 178.01 48.216C175.274 48.216 173.348 46.29 173.348 43.59ZM182.87 48V35.328H185.084V42.942L188.45 39.18H191.078L187.28 43.302L191.222 48H188.558L185.786 44.652L185.084 45.372V48H182.87ZM200.96 39.18L197.036 48.99C196.244 50.988 195.128 51.96 193.508 51.96C193.13 51.96 192.644 51.906 192.14 51.798L192.446 49.998C192.752 50.07 193.058 50.124 193.292 50.124C194.084 50.124 194.552 49.692 194.966 48.666L195.272 47.892L191.636 39.18H194.048L196.334 45.39L198.566 39.18H200.96ZM206.355 48V39.18H208.191L208.479 40.458C209.145 39.504 210.243 38.964 211.521 38.964C213.537 38.964 214.959 40.35 214.959 42.33V48H212.655V42.69C212.655 41.61 211.881 40.854 210.819 40.854C209.577 40.854 208.659 41.79 208.659 43.14V48H206.355ZM216.643 43.59C216.643 40.872 218.605 38.964 221.395 38.964C224.203 38.964 226.165 40.872 226.165 43.59C226.165 46.308 224.203 48.216 221.395 48.216C218.605 48.216 216.643 46.308 216.643 43.59ZM218.983 43.59C218.983 45.246 219.991 46.416 221.395 46.416C222.817 46.416 223.825 45.246 223.825 43.59C223.825 41.916 222.817 40.764 221.395 40.764C219.991 40.764 218.983 41.916 218.983 43.59ZM230.704 36.588V39.18H233.152V40.926H230.704V45.138C230.704 45.876 231.208 46.38 231.946 46.38C232.288 46.38 232.666 46.326 233.08 46.218L233.386 47.946C232.684 48.126 232.018 48.216 231.388 48.216C229.624 48.216 228.4 47.064 228.4 45.372V40.926H226.762V39.18H228.4V36.588H230.704ZM234.045 43.59C234.045 40.872 235.899 38.964 238.563 38.964C241.065 38.964 242.811 40.782 242.811 43.428C242.811 43.68 242.793 43.932 242.775 44.166H236.349C236.511 45.57 237.627 46.506 239.139 46.506C239.895 46.506 240.759 46.272 241.677 45.768L242.379 47.334C241.137 47.946 239.895 48.216 238.851 48.216C236.007 48.216 234.045 46.308 234.045 43.59ZM238.563 40.674C237.375 40.674 236.493 41.52 236.349 42.78H240.597C240.525 41.52 239.715 40.674 238.563 40.674ZM244.032 41.628C244.032 40.08 245.436 38.964 247.47 38.964C248.496 38.964 249.594 39.18 250.71 39.576L250.206 41.232C249.324 40.89 248.442 40.674 247.65 40.674C246.822 40.674 246.282 41.052 246.282 41.628C246.282 43.23 250.998 42.06 250.998 45.48C250.998 47.082 249.558 48.216 247.47 48.216C246.39 48.216 245.202 47.982 243.96 47.514L244.446 45.876C245.472 46.29 246.444 46.506 247.29 46.506C248.172 46.506 248.73 46.092 248.73 45.48C248.73 43.806 244.032 44.976 244.032 41.628ZM257.138 48V39.18H259.442V48H257.138ZM256.922 36.66C256.922 35.85 257.498 35.274 258.29 35.274C259.1 35.274 259.676 35.85 259.676 36.66C259.676 37.47 259.1 38.046 258.29 38.046C257.498 38.046 256.922 37.47 256.922 36.66ZM261.796 48V39.18H263.632L263.92 40.458C264.586 39.504 265.684 38.964 266.962 38.964C268.978 38.964 270.4 40.35 270.4 42.33V48H268.096V42.69C268.096 41.61 267.322 40.854 266.26 40.854C265.018 40.854 264.1 41.79 264.1 43.14V48H261.796ZM275.564 36.588V39.18H278.012V40.926H275.564V45.138C275.564 45.876 276.068 46.38 276.806 46.38C277.148 46.38 277.526 46.326 277.94 46.218L278.246 47.946C277.544 48.126 276.878 48.216 276.248 48.216C274.484 48.216 273.26 47.064 273.26 45.372V40.926H271.622V39.18H273.26V36.588H275.564ZM278.905 43.59C278.905 40.872 280.867 38.964 283.657 38.964C286.465 38.964 288.427 40.872 288.427 43.59C288.427 46.308 286.465 48.216 283.657 48.216C280.867 48.216 278.905 46.308 278.905 43.59ZM281.245 43.59C281.245 45.246 282.253 46.416 283.657 46.416C285.079 46.416 286.087 45.246 286.087 43.59C286.087 41.916 285.079 40.764 283.657 40.764C282.253 40.764 281.245 41.916 281.245 43.59ZM213.444 67.444C213.444 65.59 214.956 64.51 217.512 64.51C218.052 64.51 218.646 64.564 219.222 64.69V64.222C219.222 63.322 218.502 62.674 217.404 62.674C216.504 62.674 215.532 62.89 214.506 63.304L213.93 61.702C215.244 61.198 216.486 60.964 217.674 60.964C219.906 60.964 221.382 62.296 221.382 64.258V67.84C221.382 68.218 221.616 68.47 221.994 68.47C222.174 68.47 222.372 68.434 222.444 68.416L222.606 70.09C222.228 70.162 221.814 70.216 221.382 70.216C220.482 70.216 219.798 69.766 219.492 69.028C218.736 69.784 217.674 70.216 216.594 70.216C214.758 70.216 213.444 69.064 213.444 67.444ZM215.658 67.318C215.658 68.038 216.324 68.596 217.188 68.596C218.412 68.596 219.222 67.75 219.222 66.544V66.022C218.754 65.896 218.268 65.842 217.782 65.842C216.468 65.842 215.658 66.4 215.658 67.318ZM223.88 70V61.18H225.716L226.004 62.458C226.67 61.504 227.768 60.964 229.046 60.964C231.062 60.964 232.484 62.35 232.484 64.33V70H230.18V64.69C230.18 63.61 229.406 62.854 228.344 62.854C227.102 62.854 226.184 63.79 226.184 65.14V70H223.88ZM243.151 57.328V70H241.315L241.027 68.866C240.379 69.73 239.389 70.216 238.201 70.216C235.843 70.216 234.169 68.308 234.169 65.59C234.169 62.872 235.843 60.964 238.201 60.964C239.299 60.964 240.217 61.396 240.847 62.17V57.328H243.151ZM236.509 65.59C236.509 67.228 237.463 68.398 238.795 68.398C240.037 68.398 240.901 67.462 240.901 66.184V64.996C240.901 63.7 240.037 62.782 238.795 62.782C237.463 62.782 236.509 63.934 236.509 65.59Z" fill="#004C97"/>
<path d="M293.896 41.952C293.896 38.28 296.542 35.688 300.358 35.688C301.906 35.688 303.526 36.192 304.948 37.11L303.634 39.288C302.698 38.658 301.78 38.298 300.808 38.298C298.702 38.298 297.262 39.792 297.262 41.952C297.262 44.112 298.702 45.606 300.808 45.606C301.78 45.606 302.698 45.246 303.634 44.616L304.948 46.794C303.526 47.712 301.906 48.216 300.358 48.216C296.542 48.216 293.896 45.606 293.896 41.952ZM305.391 43.554C305.391 40.8 307.497 38.874 310.467 38.874C313.455 38.874 315.543 40.8 315.543 43.554C315.543 46.29 313.455 48.216 310.467 48.216C307.497 48.216 305.391 46.29 305.391 43.554ZM308.631 43.554C308.631 44.85 309.387 45.768 310.467 45.768C311.547 45.768 312.321 44.85 312.321 43.554C312.321 42.24 311.547 41.322 310.467 41.322C309.387 41.322 308.631 42.24 308.631 43.554ZM316.968 48V39.09H319.488L319.884 40.062C320.586 39.306 321.612 38.874 322.8 38.874C324.906 38.874 326.364 40.314 326.364 42.366V48H323.196V42.888C323.196 42.06 322.602 41.466 321.792 41.466C320.82 41.466 320.136 42.186 320.136 43.23V48H316.968ZM331.916 36.498V39.09H334.04V41.484H331.916V44.742C331.916 45.336 332.294 45.696 332.87 45.696C333.176 45.696 333.536 45.66 333.914 45.588L334.31 47.928C333.518 48.126 332.798 48.216 332.096 48.216C330.098 48.216 328.748 46.956 328.748 45.066V41.484H327.254V39.09H328.748V36.498H331.916ZM335.583 48V39.09H338.103L338.499 40.206C339.039 39.414 339.939 38.946 340.983 38.946C341.271 38.946 341.667 39 342.009 39.072L341.739 41.574C341.451 41.52 341.073 41.466 340.713 41.466C339.507 41.466 338.751 42.348 338.751 43.626V48H335.583ZM342.446 43.554C342.446 40.8 344.552 38.874 347.522 38.874C350.51 38.874 352.598 40.8 352.598 43.554C352.598 46.29 350.51 48.216 347.522 48.216C344.552 48.216 342.446 46.29 342.446 43.554ZM345.686 43.554C345.686 44.85 346.442 45.768 347.522 45.768C348.602 45.768 349.376 44.85 349.376 43.554C349.376 42.24 348.602 41.322 347.522 41.322C346.442 41.322 345.686 42.24 345.686 43.554ZM357.191 35.328V44.994C357.191 45.426 357.479 45.696 357.911 45.696C358.127 45.696 358.397 45.66 358.649 45.624L358.973 48C358.325 48.144 357.677 48.216 357.119 48.216C355.211 48.216 354.023 47.082 354.023 45.318V35.328H357.191ZM362.904 35.328V44.994C362.904 45.426 363.192 45.696 363.624 45.696C363.84 45.696 364.11 45.66 364.362 45.624L364.686 48C364.038 48.144 363.39 48.216 362.832 48.216C360.924 48.216 359.736 47.082 359.736 45.318V35.328H362.904ZM365.21 45.318C365.21 43.41 366.758 42.312 369.35 42.312C369.818 42.312 370.358 42.366 370.88 42.456V42.384C370.88 41.7 370.232 41.196 369.332 41.196C368.45 41.196 367.46 41.43 366.452 41.844L365.66 39.666C367.1 39.126 368.45 38.874 369.728 38.874C372.176 38.874 373.778 40.314 373.778 42.456V45.39C373.778 45.66 373.958 45.84 374.228 45.84C374.372 45.84 374.516 45.822 374.642 45.804L374.84 48.072C374.39 48.162 373.886 48.216 373.346 48.216C372.464 48.216 371.762 47.838 371.366 47.19C370.538 47.856 369.458 48.216 368.486 48.216C366.56 48.216 365.21 47.028 365.21 45.318ZM368.18 45.12C368.18 45.642 368.666 46.038 369.332 46.038C370.232 46.038 370.88 45.408 370.88 44.544V44.22C370.52 44.148 370.142 44.094 369.746 44.094C368.81 44.094 368.18 44.49 368.18 45.12ZM375.82 48V35.328H378.988V39.72C379.636 39.18 380.464 38.874 381.382 38.874C383.812 38.874 385.522 40.8 385.522 43.554C385.522 46.29 383.812 48.216 381.382 48.216C380.338 48.216 379.402 47.856 378.736 47.172L378.34 48H375.82ZM382.3 43.554C382.3 42.258 381.562 41.358 380.536 41.358C379.582 41.358 378.934 42.078 378.934 43.086V44.022C378.934 45.012 379.582 45.732 380.536 45.732C381.562 45.732 382.3 44.832 382.3 43.554ZM390.115 35.328V44.994C390.115 45.426 390.403 45.696 390.835 45.696C391.051 45.696 391.321 45.66 391.573 45.624L391.897 48C391.249 48.144 390.601 48.216 390.043 48.216C388.135 48.216 386.947 47.082 386.947 45.318V35.328H390.115ZM392.21 43.554C392.21 40.8 394.19 38.874 397.016 38.874C399.68 38.874 401.534 40.728 401.534 43.41C401.534 43.734 401.516 44.058 401.48 44.364H395.378C395.612 45.3 396.512 45.894 397.7 45.894C398.42 45.894 399.266 45.642 400.166 45.174L401.102 47.298C399.752 47.928 398.42 48.216 397.304 48.216C394.28 48.216 392.21 46.29 392.21 43.554ZM397.016 41.196C396.188 41.196 395.558 41.718 395.378 42.51H398.492C398.384 41.718 397.808 41.196 397.016 41.196ZM47.6082 70V57.904H53.0802C55.6542 57.904 57.4722 59.542 57.4722 61.882C57.4722 63.628 56.5002 65.014 54.9342 65.464L58.0302 70H54.4662L51.8922 65.986H50.7762V70H47.6082ZM50.7762 60.424V63.466H52.5582C53.5302 63.466 54.2322 62.872 54.2322 61.936C54.2322 61.036 53.5302 60.424 52.5582 60.424H50.7762ZM58.612 65.554C58.612 62.8 60.592 60.874 63.418 60.874C66.082 60.874 67.936 62.728 67.936 65.41C67.936 65.734 67.918 66.058 67.882 66.364H61.78C62.014 67.3 62.914 67.894 64.102 67.894C64.822 67.894 65.668 67.642 66.568 67.174L67.504 69.298C66.154 69.928 64.822 70.216 63.706 70.216C60.682 70.216 58.612 68.29 58.612 65.554ZM63.418 63.196C62.59 63.196 61.96 63.718 61.78 64.51H64.894C64.786 63.718 64.21 63.196 63.418 63.196ZM68.7721 65.554C68.7721 62.818 70.8241 60.874 73.7221 60.874C74.9821 60.874 76.2241 61.234 77.3761 61.954L76.1161 64.06C75.4681 63.646 74.8561 63.394 74.1721 63.394C72.8941 63.394 72.0121 64.276 72.0121 65.554C72.0121 66.832 72.8941 67.696 74.1721 67.696C74.8561 67.696 75.4681 67.444 76.1161 67.03L77.3761 69.154C76.2241 69.856 74.9821 70.216 73.7221 70.216C70.8241 70.216 68.7721 68.272 68.7721 65.554ZM78.3803 70V61.09H80.9003L81.2963 62.206C81.8363 61.414 82.7363 60.946 83.7803 60.946C84.0683 60.946 84.4643 61 84.8063 61.072L84.5363 63.574C84.2483 63.52 83.8703 63.466 83.5103 63.466C82.3043 63.466 81.5483 64.348 81.5483 65.626V70H78.3803ZM95.1558 61.09V70H92.6358L92.2398 69.028C91.5378 69.802 90.5118 70.216 89.3238 70.216C87.2358 70.216 85.7598 68.794 85.7598 66.724V61.09H88.9278V66.202C88.9278 67.048 89.5218 67.642 90.3498 67.642C91.3038 67.642 91.9878 66.922 91.9878 65.878V61.09H95.1558ZM97.0307 70V61.09H100.199V70H97.0307ZM96.8147 58.75C96.8147 57.688 97.5707 56.932 98.6147 56.932C99.6767 56.932 100.433 57.688 100.433 58.75C100.433 59.794 99.6767 60.55 98.6147 60.55C97.5707 60.55 96.8147 59.794 96.8147 58.75ZM106.125 58.498V61.09H108.249V63.484H106.125V66.742C106.125 67.336 106.503 67.696 107.079 67.696C107.385 67.696 107.745 67.66 108.123 67.588L108.519 69.928C107.727 70.126 107.007 70.216 106.305 70.216C104.307 70.216 102.957 68.956 102.957 67.066V63.484H101.463V61.09H102.957V58.498H106.125ZM109.792 70V61.09H112.96V70H109.792ZM109.576 58.75C109.576 57.688 110.332 56.932 111.376 56.932C112.438 56.932 113.194 57.688 113.194 58.75C113.194 59.794 112.438 60.55 111.376 60.55C110.332 60.55 109.576 59.794 109.576 58.75ZM114.855 70V61.09H117.375L117.771 62.062C118.473 61.306 119.499 60.874 120.687 60.874C122.793 60.874 124.251 62.314 124.251 64.366V70H121.083V64.888C121.083 64.06 120.489 63.466 119.679 63.466C118.707 63.466 118.023 64.186 118.023 65.23V70H114.855ZM135.234 61.09V69.532C135.234 72.106 133.038 73.96 130.05 73.96C128.79 73.96 127.404 73.69 125.982 73.114L126.846 70.792C127.962 71.296 128.988 71.512 129.78 71.512C131.13 71.512 132.066 70.756 132.066 69.658V69.37C131.418 69.91 130.59 70.216 129.672 70.216C127.242 70.216 125.532 68.29 125.532 65.554C125.532 62.8 127.242 60.874 129.672 60.874C130.716 60.874 131.652 61.252 132.318 61.918L132.714 61.09H135.234ZM128.772 65.554C128.772 66.832 129.492 67.732 130.518 67.732C131.472 67.732 132.12 67.012 132.12 66.022V65.086C132.12 64.078 131.472 63.358 130.518 63.358C129.492 63.358 128.772 64.258 128.772 65.554ZM141.127 61.36C141.127 59.182 143.089 57.688 145.879 57.688C147.283 57.688 148.705 57.976 150.253 58.552L149.515 61C148.291 60.514 147.139 60.262 146.131 60.262C145.051 60.262 144.367 60.658 144.367 61.36C144.367 63.304 150.685 61.738 150.685 66.472C150.685 68.704 148.705 70.216 145.879 70.216C144.385 70.216 142.783 69.91 141.055 69.208L141.793 66.76C143.197 67.3 144.529 67.642 145.609 67.642C146.761 67.642 147.445 67.21 147.445 66.472C147.445 64.456 141.127 65.95 141.127 61.36ZM151.723 65.554C151.723 62.8 153.829 60.874 156.799 60.874C159.787 60.874 161.875 62.8 161.875 65.554C161.875 68.29 159.787 70.216 156.799 70.216C153.829 70.216 151.723 68.29 151.723 65.554ZM154.963 65.554C154.963 66.85 155.719 67.768 156.799 67.768C157.879 67.768 158.653 66.85 158.653 65.554C158.653 64.24 157.879 63.322 156.799 63.322C155.719 63.322 154.963 64.24 154.963 65.554ZM172.552 61.09V70H170.032L169.636 69.028C168.934 69.802 167.908 70.216 166.72 70.216C164.632 70.216 163.156 68.794 163.156 66.724V61.09H166.324V66.202C166.324 67.048 166.918 67.642 167.746 67.642C168.7 67.642 169.384 66.922 169.384 65.878V61.09H172.552ZM174.427 70V61.09H176.947L177.343 62.206C177.883 61.414 178.783 60.946 179.827 60.946C180.115 60.946 180.511 61 180.853 61.072L180.583 63.574C180.295 63.52 179.917 63.466 179.557 63.466C178.351 63.466 177.595 64.348 177.595 65.626V70H174.427ZM181.29 65.554C181.29 62.818 183.342 60.874 186.24 60.874C187.5 60.874 188.742 61.234 189.894 61.954L188.634 64.06C187.986 63.646 187.374 63.394 186.69 63.394C185.412 63.394 184.53 64.276 184.53 65.554C184.53 66.832 185.412 67.696 186.69 67.696C187.374 67.696 187.986 67.444 188.634 67.03L189.894 69.154C188.742 69.856 187.5 70.216 186.24 70.216C183.342 70.216 181.29 68.272 181.29 65.554ZM190.237 65.554C190.237 62.8 192.217 60.874 195.043 60.874C197.707 60.874 199.561 62.728 199.561 65.41C199.561 65.734 199.543 66.058 199.507 66.364H193.405C193.639 67.3 194.539 67.894 195.727 67.894C196.447 67.894 197.293 67.642 198.193 67.174L199.129 69.298C197.779 69.928 196.447 70.216 195.331 70.216C192.307 70.216 190.237 68.29 190.237 65.554ZM195.043 63.196C194.215 63.196 193.585 63.718 193.405 64.51H196.519C196.411 63.718 195.835 63.196 195.043 63.196ZM200.469 63.754C200.469 62.116 201.999 60.874 204.195 60.874C205.311 60.874 206.499 61.108 207.705 61.522L207.039 63.772C206.139 63.43 205.239 63.196 204.447 63.196C203.889 63.196 203.565 63.412 203.565 63.754C203.565 64.816 207.993 63.754 207.993 67.264C207.993 68.974 206.445 70.216 204.195 70.216C203.007 70.216 201.729 69.982 200.397 69.496L201.063 67.246C202.107 67.678 203.061 67.894 203.925 67.894C204.537 67.894 204.879 67.642 204.879 67.264C204.879 66.148 200.469 67.192 200.469 63.754ZM249.897 70V57.904H253.065L258.573 65.518V57.904H261.597V70H258.429L252.939 62.386V70H249.897ZM263.327 65.554C263.327 62.8 265.433 60.874 268.403 60.874C271.391 60.874 273.479 62.8 273.479 65.554C273.479 68.29 271.391 70.216 268.403 70.216C265.433 70.216 263.327 68.29 263.327 65.554ZM266.567 65.554C266.567 66.85 267.323 67.768 268.403 67.768C269.483 67.768 270.257 66.85 270.257 65.554C270.257 64.24 269.483 63.322 268.403 63.322C267.323 63.322 266.567 64.24 266.567 65.554ZM274.904 70V61.09H277.424L277.82 62.062C278.522 61.306 279.548 60.874 280.736 60.874C282.842 60.874 284.3 62.314 284.3 64.366V70H281.132V64.888C281.132 64.06 280.538 63.466 279.728 63.466C278.756 63.466 278.072 64.186 278.072 65.23V70H274.904ZM285.401 66.634V64.258H290.549V66.634H285.401ZM291.646 63.952C291.646 60.28 294.292 57.688 298.108 57.688C299.656 57.688 301.276 58.192 302.698 59.11L301.384 61.288C300.448 60.658 299.53 60.298 298.558 60.298C296.452 60.298 295.012 61.792 295.012 63.952C295.012 66.112 296.452 67.606 298.558 67.606C299.53 67.606 300.448 67.246 301.384 66.616L302.698 68.794C301.276 69.712 299.656 70.216 298.108 70.216C294.292 70.216 291.646 67.606 291.646 63.952ZM303.141 65.554C303.141 62.8 305.247 60.874 308.217 60.874C311.205 60.874 313.293 62.8 313.293 65.554C313.293 68.29 311.205 70.216 308.217 70.216C305.247 70.216 303.141 68.29 303.141 65.554ZM306.381 65.554C306.381 66.85 307.137 67.768 308.217 67.768C309.297 67.768 310.071 66.85 310.071 65.554C310.071 64.24 309.297 63.322 308.217 63.322C307.137 63.322 306.381 64.24 306.381 65.554ZM314.718 70V61.09H317.238L317.634 62.062C318.336 61.306 319.362 60.874 320.55 60.874C322.656 60.874 324.114 62.314 324.114 64.366V70H320.946V64.888C320.946 64.06 320.352 63.466 319.542 63.466C318.57 63.466 317.886 64.186 317.886 65.23V70H314.718ZM329.666 58.498V61.09H331.79V63.484H329.666V66.742C329.666 67.336 330.044 67.696 330.62 67.696C330.926 67.696 331.286 67.66 331.664 67.588L332.06 69.928C331.268 70.126 330.548 70.216 329.846 70.216C327.848 70.216 326.498 68.956 326.498 67.066V63.484H325.004V61.09H326.498V58.498H329.666ZM333.333 70V61.09H335.853L336.249 62.206C336.789 61.414 337.689 60.946 338.733 60.946C339.021 60.946 339.417 61 339.759 61.072L339.489 63.574C339.201 63.52 338.823 63.466 338.463 63.466C337.257 63.466 336.501 64.348 336.501 65.626V70H333.333ZM340.196 65.554C340.196 62.8 342.302 60.874 345.272 60.874C348.26 60.874 350.348 62.8 350.348 65.554C350.348 68.29 348.26 70.216 345.272 70.216C342.302 70.216 340.196 68.29 340.196 65.554ZM343.436 65.554C343.436 66.85 344.192 67.768 345.272 67.768C346.352 67.768 347.126 66.85 347.126 65.554C347.126 64.24 346.352 63.322 345.272 63.322C344.192 63.322 343.436 64.24 343.436 65.554ZM354.941 57.328V66.994C354.941 67.426 355.229 67.696 355.661 67.696C355.877 67.696 356.147 67.66 356.399 67.624L356.723 70C356.075 70.144 355.427 70.216 354.869 70.216C352.961 70.216 351.773 69.082 351.773 67.318V57.328H354.941ZM360.654 57.328V66.994C360.654 67.426 360.942 67.696 361.374 67.696C361.59 67.696 361.86 67.66 362.112 67.624L362.436 70C361.788 70.144 361.14 70.216 360.582 70.216C358.674 70.216 357.486 69.082 357.486 67.318V57.328H360.654ZM362.96 67.318C362.96 65.41 364.508 64.312 367.1 64.312C367.568 64.312 368.108 64.366 368.63 64.456V64.384C368.63 63.7 367.982 63.196 367.082 63.196C366.2 63.196 365.21 63.43 364.202 63.844L363.41 61.666C364.85 61.126 366.2 60.874 367.478 60.874C369.926 60.874 371.528 62.314 371.528 64.456V67.39C371.528 67.66 371.708 67.84 371.978 67.84C372.122 67.84 372.266 67.822 372.392 67.804L372.59 70.072C372.14 70.162 371.636 70.216 371.096 70.216C370.214 70.216 369.512 69.838 369.116 69.19C368.288 69.856 367.208 70.216 366.236 70.216C364.31 70.216 362.96 69.028 362.96 67.318ZM365.93 67.12C365.93 67.642 366.416 68.038 367.082 68.038C367.982 68.038 368.63 67.408 368.63 66.544V66.22C368.27 66.148 367.892 66.094 367.496 66.094C366.56 66.094 365.93 66.49 365.93 67.12ZM373.57 70V57.328H376.738V61.72C377.386 61.18 378.214 60.874 379.132 60.874C381.562 60.874 383.272 62.8 383.272 65.554C383.272 68.29 381.562 70.216 379.132 70.216C378.088 70.216 377.152 69.856 376.486 69.172L376.09 70H373.57ZM380.05 65.554C380.05 64.258 379.312 63.358 378.286 63.358C377.332 63.358 376.684 64.078 376.684 65.086V66.022C376.684 67.012 377.332 67.732 378.286 67.732C379.312 67.732 380.05 66.832 380.05 65.554ZM387.865 57.328V66.994C387.865 67.426 388.153 67.696 388.585 67.696C388.801 67.696 389.071 67.66 389.323 67.624L389.647 70C388.999 70.144 388.351 70.216 387.793 70.216C385.885 70.216 384.697 69.082 384.697 67.318V57.328H387.865ZM389.96 65.554C389.96 62.8 391.94 60.874 394.766 60.874C397.43 60.874 399.284 62.728 399.284 65.41C399.284 65.734 399.266 66.058 399.23 66.364H393.128C393.362 67.3 394.262 67.894 395.45 67.894C396.17 67.894 397.016 67.642 397.916 67.174L398.852 69.298C397.502 69.928 396.17 70.216 395.054 70.216C392.03 70.216 389.96 68.29 389.96 65.554ZM394.766 63.196C393.938 63.196 393.308 63.718 393.128 64.51H396.242C396.134 63.718 395.558 63.196 394.766 63.196ZM140.807 92V79.904H146.279C148.853 79.904 150.671 81.542 150.671 83.882C150.671 85.628 149.699 87.014 148.133 87.464L151.229 92H147.665L145.091 87.986H143.975V92H140.807ZM143.975 82.424V85.466H145.757C146.729 85.466 147.431 84.872 147.431 83.936C147.431 83.036 146.729 82.424 145.757 82.424H143.975ZM151.811 87.554C151.811 84.8 153.791 82.874 156.617 82.874C159.281 82.874 161.135 84.728 161.135 87.41C161.135 87.734 161.117 88.058 161.081 88.364H154.979C155.213 89.3 156.113 89.894 157.301 89.894C158.021 89.894 158.867 89.642 159.767 89.174L160.703 91.298C159.353 91.928 158.021 92.216 156.905 92.216C153.881 92.216 151.811 90.29 151.811 87.554ZM156.617 85.196C155.789 85.196 155.159 85.718 154.979 86.51H158.093C157.985 85.718 157.409 85.196 156.617 85.196ZM161.971 87.554C161.971 84.818 164.023 82.874 166.921 82.874C168.181 82.874 169.423 83.234 170.575 83.954L169.315 86.06C168.667 85.646 168.055 85.394 167.371 85.394C166.093 85.394 165.211 86.276 165.211 87.554C165.211 88.832 166.093 89.696 167.371 89.696C168.055 89.696 168.667 89.444 169.315 89.03L170.575 91.154C169.423 91.856 168.181 92.216 166.921 92.216C164.023 92.216 161.971 90.272 161.971 87.554ZM171.58 92V83.09H174.1L174.496 84.206C175.036 83.414 175.936 82.946 176.98 82.946C177.268 82.946 177.664 83 178.006 83.072L177.736 85.574C177.448 85.52 177.07 85.466 176.71 85.466C175.504 85.466 174.748 86.348 174.748 87.626V92H171.58ZM188.355 83.09V92H185.835L185.439 91.028C184.737 91.802 183.711 92.216 182.523 92.216C180.435 92.216 178.959 90.794 178.959 88.724V83.09H182.127V88.202C182.127 89.048 182.721 89.642 183.549 89.642C184.503 89.642 185.187 88.922 185.187 87.878V83.09H188.355ZM190.23 92V83.09H193.398V92H190.23ZM190.014 80.75C190.014 79.688 190.77 78.932 191.814 78.932C192.876 78.932 193.632 79.688 193.632 80.75C193.632 81.794 192.876 82.55 191.814 82.55C190.77 82.55 190.014 81.794 190.014 80.75ZM199.324 80.498V83.09H201.448V85.484H199.324V88.742C199.324 89.336 199.702 89.696 200.278 89.696C200.584 89.696 200.944 89.66 201.322 89.588L201.718 91.928C200.926 92.126 200.206 92.216 199.504 92.216C197.506 92.216 196.156 90.956 196.156 89.066V85.484H194.662V83.09H196.156V80.498H199.324ZM202.992 92V83.09H206.16V92H202.992ZM202.776 80.75C202.776 79.688 203.532 78.932 204.576 78.932C205.638 78.932 206.394 79.688 206.394 80.75C206.394 81.794 205.638 82.55 204.576 82.55C203.532 82.55 202.776 81.794 202.776 80.75ZM208.054 92V83.09H210.574L210.97 84.062C211.672 83.306 212.698 82.874 213.886 82.874C215.992 82.874 217.45 84.314 217.45 86.366V92H214.282V86.888C214.282 86.06 213.688 85.466 212.878 85.466C211.906 85.466 211.222 86.186 211.222 87.23V92H208.054ZM228.433 83.09V91.532C228.433 94.106 226.237 95.96 223.249 95.96C221.989 95.96 220.603 95.69 219.181 95.114L220.045 92.792C221.161 93.296 222.187 93.512 222.979 93.512C224.329 93.512 225.265 92.756 225.265 91.658V91.37C224.617 91.91 223.789 92.216 222.871 92.216C220.441 92.216 218.731 90.29 218.731 87.554C218.731 84.8 220.441 82.874 222.871 82.874C223.915 82.874 224.851 83.252 225.517 83.918L225.913 83.09H228.433ZM221.971 87.554C221.971 88.832 222.691 89.732 223.717 89.732C224.671 89.732 225.319 89.012 225.319 88.022V87.086C225.319 86.078 224.671 85.358 223.717 85.358C222.691 85.358 221.971 86.258 221.971 87.554ZM234.326 83.36C234.326 81.182 236.288 79.688 239.078 79.688C240.482 79.688 241.904 79.976 243.452 80.552L242.714 83C241.49 82.514 240.338 82.262 239.33 82.262C238.25 82.262 237.566 82.658 237.566 83.36C237.566 85.304 243.884 83.738 243.884 88.472C243.884 90.704 241.904 92.216 239.078 92.216C237.584 92.216 235.982 91.91 234.254 91.208L234.992 88.76C236.396 89.3 237.728 89.642 238.808 89.642C239.96 89.642 240.644 89.21 240.644 88.472C240.644 86.456 234.326 87.95 234.326 83.36ZM244.923 87.554C244.923 84.8 247.029 82.874 249.999 82.874C252.987 82.874 255.075 84.8 255.075 87.554C255.075 90.29 252.987 92.216 249.999 92.216C247.029 92.216 244.923 90.29 244.923 87.554ZM248.163 87.554C248.163 88.85 248.919 89.768 249.999 89.768C251.079 89.768 251.853 88.85 251.853 87.554C251.853 86.24 251.079 85.322 249.999 85.322C248.919 85.322 248.163 86.24 248.163 87.554ZM265.751 83.09V92H263.231L262.835 91.028C262.133 91.802 261.107 92.216 259.919 92.216C257.831 92.216 256.355 90.794 256.355 88.724V83.09H259.523V88.202C259.523 89.048 260.117 89.642 260.945 89.642C261.899 89.642 262.583 88.922 262.583 87.878V83.09H265.751ZM267.626 92V83.09H270.146L270.542 84.206C271.082 83.414 271.982 82.946 273.026 82.946C273.314 82.946 273.71 83 274.052 83.072L273.782 85.574C273.494 85.52 273.116 85.466 272.756 85.466C271.55 85.466 270.794 86.348 270.794 87.626V92H267.626ZM274.489 87.554C274.489 84.818 276.541 82.874 279.439 82.874C280.699 82.874 281.941 83.234 283.093 83.954L281.833 86.06C281.185 85.646 280.573 85.394 279.889 85.394C278.611 85.394 277.729 86.276 277.729 87.554C277.729 88.832 278.611 89.696 279.889 89.696C280.573 89.696 281.185 89.444 281.833 89.03L283.093 91.154C281.941 91.856 280.699 92.216 279.439 92.216C276.541 92.216 274.489 90.272 274.489 87.554ZM283.436 87.554C283.436 84.8 285.416 82.874 288.242 82.874C290.906 82.874 292.76 84.728 292.76 87.41C292.76 87.734 292.742 88.058 292.706 88.364H286.604C286.838 89.3 287.738 89.894 288.926 89.894C289.646 89.894 290.492 89.642 291.392 89.174L292.328 91.298C290.978 91.928 289.646 92.216 288.53 92.216C285.506 92.216 283.436 90.29 283.436 87.554ZM288.242 85.196C287.414 85.196 286.784 85.718 286.604 86.51H289.718C289.61 85.718 289.034 85.196 288.242 85.196ZM293.668 85.754C293.668 84.116 295.198 82.874 297.394 82.874C298.51 82.874 299.698 83.108 300.904 83.522L300.238 85.772C299.338 85.43 298.438 85.196 297.646 85.196C297.088 85.196 296.764 85.412 296.764 85.754C296.764 86.816 301.192 85.754 301.192 89.264C301.192 90.974 299.644 92.216 297.394 92.216C296.206 92.216 294.928 91.982 293.596 91.496L294.262 89.246C295.306 89.678 296.26 89.894 297.124 89.894C297.736 89.894 298.078 89.642 298.078 89.264C298.078 88.148 293.668 89.192 293.668 85.754Z" fill="#0076CF"/>
<path d="M302.607 90.758C302.607 89.912 303.219 89.318 304.047 89.318C304.893 89.318 305.487 89.912 305.487 90.758C305.487 91.586 304.893 92.198 304.047 92.198C303.219 92.198 302.607 91.586 302.607 90.758Z" fill="url(#paint2_linear_2023_7389)"/>
<rect x="186" y="1.5" width="74" height="22" rx="11" fill="url(#paint3_linear_2023_7389)"/>
<rect x="186" y="1.5" width="74" height="22" rx="11" stroke="url(#paint4_linear_2023_7389)"/>
<path d="M195.354 17V7.592H196.502V16.09H201.066V17H195.354ZM201.83 13.598C201.83 11.498 203.202 10.028 205.148 10.028C206.968 10.028 208.228 11.442 208.228 13.472C208.228 13.612 208.228 13.738 208.214 13.878H202.95C203.048 15.32 204.056 16.314 205.484 16.314C206.1 16.314 206.814 16.132 207.542 15.74L207.892 16.51C206.996 16.958 206.128 17.168 205.372 17.168C203.3 17.168 201.83 15.698 201.83 13.598ZM205.148 10.882C203.93 10.882 203.062 11.792 202.95 13.164H207.15C207.108 11.82 206.296 10.882 205.148 10.882ZM215.527 10.196L212.727 17H211.691L208.891 10.196H210.053L212.209 15.712L214.351 10.196H215.527ZM216.281 13.598C216.281 11.498 217.653 10.028 219.599 10.028C221.419 10.028 222.679 11.442 222.679 13.472C222.679 13.612 222.679 13.738 222.665 13.878H217.401C217.499 15.32 218.507 16.314 219.935 16.314C220.551 16.314 221.265 16.132 221.993 15.74L222.343 16.51C221.447 16.958 220.579 17.168 219.823 17.168C217.751 17.168 216.281 15.698 216.281 13.598ZM219.599 10.882C218.381 10.882 217.513 11.792 217.401 13.164H221.601C221.559 11.82 220.747 10.882 219.599 10.882ZM225.397 7.144V15.432C225.397 15.936 225.719 16.258 226.223 16.258C226.419 16.258 226.657 16.216 226.895 16.16L227.035 17.042C226.657 17.126 226.293 17.168 225.985 17.168C224.935 17.168 224.291 16.538 224.291 15.53V7.144H225.397ZM231.31 17V16.286L234.992 12.604C235.748 11.848 236.14 11.078 236.14 10.322C236.14 9.174 235.328 8.376 234.138 8.376C233.354 8.376 232.626 8.698 231.828 9.202L231.38 8.362C232.374 7.76 233.368 7.424 234.348 7.424C236.056 7.424 237.246 8.558 237.246 10.182C237.246 11.162 236.784 12.142 235.902 13.024L232.836 16.09H237.358V17H231.31ZM238.732 18.694L242.96 6.948L243.856 7.242L239.628 18.988L238.732 18.694ZM246.681 12.604V11.764H247.255C248.585 11.764 249.495 11.036 249.495 10.014C249.495 9.02 248.753 8.334 247.661 8.334C246.933 8.334 246.163 8.53 245.295 8.922L244.931 8.082C245.953 7.62 246.919 7.424 247.829 7.424C249.467 7.424 250.601 8.446 250.601 9.916C250.601 10.994 249.929 11.848 248.879 12.156C250.055 12.478 250.825 13.416 250.825 14.564C250.825 16.104 249.593 17.168 247.829 17.168C246.863 17.168 245.785 16.958 244.707 16.454L245.071 15.614C245.981 16.034 246.863 16.258 247.647 16.258C248.837 16.258 249.691 15.516 249.691 14.466C249.691 13.36 248.697 12.604 247.255 12.604H246.681Z" fill="white"/>
<defs>
<filter id="filter0_i_2023_7389" x="18" y="18" width="410" height="91" filterUnits="userSpaceOnUse" color-interpolation-filters="sRGB">
<feFlood flood-opacity="0" result="BackgroundImageFix"/>
<feBlend mode="normal" in="SourceGraphic" in2="BackgroundImageFix" result="shape"/>
<feColorMatrix in="SourceAlpha" type="matrix" values="0 0 0 0 0 0 0 0 0 0 0 0 0 0 0 0 0 0 127 0" result="hardAlpha"/>
<feOffset dx="1" dy="1"/>
<feGaussianBlur stdDeviation="5"/>
<feComposite in2="hardAlpha" operator="arithmetic" k2="-1" k3="1"/>
<feColorMatrix type="matrix" values="0 0 0 0 0 0 0 0 0 0.180773 0 0 0 0 0.359167 0 0 0 0.5 0"/>
<feBlend mode="normal" in2="shape" result="effect1_innerShadow_2023_7389"/>
</filter>
<filter id="filter1_dd_2023_7389" x="32" y="0" width="25" height="25" filterUnits="userSpaceOnUse" color-interpolation-filters="sRGB">
<feFlood flood-opacity="0" result="BackgroundImageFix"/>
<feColorMatrix in="SourceAlpha" type="matrix" values="0 0 0 0 0 0 0 0 0 0 0 0 0 0 0 0 0 0 127 0" result="hardAlpha"/>
<feOffset/>
<feGaussianBlur stdDeviation="5"/>
<feComposite in2="hardAlpha" operator="out"/>
<feColorMatrix type="matrix" values="0 0 0 0 0.964706 0 0 0 0 1 0 0 0 0 0.8 0 0 0 1 0"/>
<feBlend mode="normal" in2="BackgroundImageFix" result="effect1_dropShadow_2023_7389"/>
<feColorMatrix in="SourceAlpha" type="matrix" values="0 0 0 0 0 0 0 0 0 0 0 0 0 0 0 0 0 0 127 0" result="hardAlpha"/>
<feOffset/>
<feGaussianBlur stdDeviation="1.5"/>
<feComposite in2="hardAlpha" operator="out"/>
<feColorMatrix type="matrix" values="0 0 0 0 0.964706 0 0 0 0 1 0 0 0 0 0.8 0 0 0 1 0"/>
<feBlend mode="normal" in2="effect1_dropShadow_2023_7389" result="effect2_dropShadow_2023_7389"/>
<feBlend mode="normal" in="SourceGraphic" in2="effect2_dropShadow_2023_7389" result="shape"/>
</filter>
<filter id="filter2_dd_2023_7389" x="76.5" y="0" width="25" height="25" filterUnits="userSpaceOnUse" color-interpolation-filters="sRGB">
<feFlood flood-opacity="0" result="BackgroundImageFix"/>
<feColorMatrix in="SourceAlpha" type="matrix" values="0 0 0 0 0 0 0 0 0 0 0 0 0 0 0 0 0 0 127 0" result="hardAlpha"/>
<feOffset/>
<feGaussianBlur stdDeviation="5"/>
<feComposite in2="hardAlpha" operator="out"/>
<feColorMatrix type="matrix" values="0 0 0 0 0.964706 0 0 0 0 1 0 0 0 0 0.8 0 0 0 1 0"/>
<feBlend mode="normal" in2="BackgroundImageFix" result="effect1_dropShadow_2023_7389"/>
<feColorMatrix in="SourceAlpha" type="matrix" values="0 0 0 0 0 0 0 0 0 0 0 0 0 0 0 0 0 0 127 0" result="hardAlpha"/>
<feOffset/>
<feGaussianBlur stdDeviation="1.5"/>
<feComposite in2="hardAlpha" operator="out"/>
<feColorMatrix type="matrix" values="0 0 0 0 0.964706 0 0 0 0 1 0 0 0 0 0.8 0 0 0 1 0"/>
<feBlend mode="normal" in2="effect1_dropShadow_2023_7389" result="effect2_dropShadow_2023_7389"/>
<feBlend mode="normal" in="SourceGraphic" in2="effect2_dropShadow_2023_7389" result="shape"/>
</filter>
<filter id="filter3_dd_2023_7389" x="121" y="0" width="25" height="25" filterUnits="userSpaceOnUse" color-interpolation-filters="sRGB">
<feFlood flood-opacity="0" result="BackgroundImageFix"/>
<feColorMatrix in="SourceAlpha" type="matrix" values="0 0 0 0 0 0 0 0 0 0 0 0 0 0 0 0 0 0 127 0" result="hardAlpha"/>
<feOffset/>
<feGaussianBlur stdDeviation="5"/>
<feComposite in2="hardAlpha" operator="out"/>
<feColorMatrix type="matrix" values="0 0 0 0 0.964706 0 0 0 0 1 0 0 0 0 0.8 0 0 0 1 0"/>
<feBlend mode="normal" in2="BackgroundImageFix" result="effect1_dropShadow_2023_7389"/>
<feColorMatrix in="SourceAlpha" type="matrix" values="0 0 0 0 0 0 0 0 0 0 0 0 0 0 0 0 0 0 127 0" result="hardAlpha"/>
<feOffset/>
<feGaussianBlur stdDeviation="1.5"/>
<feComposite in2="hardAlpha" operator="out"/>
<feColorMatrix type="matrix" values="0 0 0 0 0.964706 0 0 0 0 1 0 0 0 0 0.8 0 0 0 1 0"/>
<feBlend mode="normal" in2="effect1_dropShadow_2023_7389" result="effect2_dropShadow_2023_7389"/>
<feBlend mode="normal" in="SourceGraphic" in2="effect2_dropShadow_2023_7389" result="shape"/>
</filter>
<filter id="filter4_dd_2023_7389" x="165.5" y="0" width="25" height="25" filterUnits="userSpaceOnUse" color-interpolation-filters="sRGB">
<feFlood flood-opacity="0" result="BackgroundImageFix"/>
<feColorMatrix in="SourceAlpha" type="matrix" values="0 0 0 0 0 0 0 0 0 0 0 0 0 0 0 0 0 0 127 0" result="hardAlpha"/>
<feOffset/>
<feGaussianBlur stdDeviation="5"/>
<feComposite in2="hardAlpha" operator="out"/>
<feColorMatrix type="matrix" values="0 0 0 0 0.964706 0 0 0 0 1 0 0 0 0 0.8 0 0 0 1 0"/>
<feBlend mode="normal" in2="BackgroundImageFix" result="effect1_dropShadow_2023_7389"/>
<feColorMatrix in="SourceAlpha" type="matrix" values="0 0 0 0 0 0 0 0 0 0 0 0 0 0 0 0 0 0 127 0" result="hardAlpha"/>
<feOffset/>
<feGaussianBlur stdDeviation="1.5"/>
<feComposite in2="hardAlpha" operator="out"/>
<feColorMatrix type="matrix" values="0 0 0 0 0.964706 0 0 0 0 1 0 0 0 0 0.8 0 0 0 1 0"/>
<feBlend mode="normal" in2="effect1_dropShadow_2023_7389" result="effect2_dropShadow_2023_7389"/>
<feBlend mode="normal" in="SourceGraphic" in2="effect2_dropShadow_2023_7389" result="shape"/>
</filter>
<filter id="filter5_dd_2023_7389" x="210" y="0" width="25" height="25" filterUnits="userSpaceOnUse" color-interpolation-filters="sRGB">
<feFlood flood-opacity="0" result="BackgroundImageFix"/>
<feColorMatrix in="SourceAlpha" type="matrix" values="0 0 0 0 0 0 0 0 0 0 0 0 0 0 0 0 0 0 127 0" result="hardAlpha"/>
<feOffset/>
<feGaussianBlur stdDeviation="5"/>
<feComposite in2="hardAlpha" operator="out"/>
<feColorMatrix type="matrix" values="0 0 0 0 0.964706 0 0 0 0 1 0 0 0 0 0.8 0 0 0 1 0"/>
<feBlend mode="normal" in2="BackgroundImageFix" result="effect1_dropShadow_2023_7389"/>
<feColorMatrix in="SourceAlpha" type="matrix" values="0 0 0 0 0 0 0 0 0 0 0 0 0 0 0 0 0 0 127 0" result="hardAlpha"/>
<feOffset/>
<feGaussianBlur stdDeviation="1.5"/>
<feComposite in2="hardAlpha" operator="out"/>
<feColorMatrix type="matrix" values="0 0 0 0 0.964706 0 0 0 0 1 0 0 0 0 0.8 0 0 0 1 0"/>
<feBlend mode="normal" in2="effect1_dropShadow_2023_7389" result="effect2_dropShadow_2023_7389"/>
<feBlend mode="normal" in="SourceGraphic" in2="effect2_dropShadow_2023_7389" result="shape"/>
</filter>
<filter id="filter6_dd_2023_7389" x="254.5" y="0" width="25" height="25" filterUnits="userSpaceOnUse" color-interpolation-filters="sRGB">
<feFlood flood-opacity="0" result="BackgroundImageFix"/>
<feColorMatrix in="SourceAlpha" type="matrix" values="0 0 0 0 0 0 0 0 0 0 0 0 0 0 0 0 0 0 127 0" result="hardAlpha"/>
<feOffset/>
<feGaussianBlur stdDeviation="5"/>
<feComposite in2="hardAlpha" operator="out"/>
<feColorMatrix type="matrix" values="0 0 0 0 0.964706 0 0 0 0 1 0 0 0 0 0.8 0 0 0 1 0"/>
<feBlend mode="normal" in2="BackgroundImageFix" result="effect1_dropShadow_2023_7389"/>
<feColorMatrix in="SourceAlpha" type="matrix" values="0 0 0 0 0 0 0 0 0 0 0 0 0 0 0 0 0 0 127 0" result="hardAlpha"/>
<feOffset/>
<feGaussianBlur stdDeviation="1.5"/>
<feComposite in2="hardAlpha" operator="out"/>
<feColorMatrix type="matrix" values="0 0 0 0 0.964706 0 0 0 0 1 0 0 0 0 0.8 0 0 0 1 0"/>
<feBlend mode="normal" in2="effect1_dropShadow_2023_7389" result="effect2_dropShadow_2023_7389"/>
<feBlend mode="normal" in="SourceGraphic" in2="effect2_dropShadow_2023_7389" result="shape"/>
</filter>
<filter id="filter7_dd_2023_7389" x="299" y="0" width="25" height="25" filterUnits="userSpaceOnUse" color-interpolation-filters="sRGB">
<feFlood flood-opacity="0" result="BackgroundImageFix"/>
<feColorMatrix in="SourceAlpha" type="matrix" values="0 0 0 0 0 0 0 0 0 0 0 0 0 0 0 0 0 0 127 0" result="hardAlpha"/>
<feOffset/>
<feGaussianBlur stdDeviation="5"/>
<feComposite in2="hardAlpha" operator="out"/>
<feColorMatrix type="matrix" values="0 0 0 0 0.964706 0 0 0 0 1 0 0 0 0 0.8 0 0 0 1 0"/>
<feBlend mode="normal" in2="BackgroundImageFix" result="effect1_dropShadow_2023_7389"/>
<feColorMatrix in="SourceAlpha" type="matrix" values="0 0 0 0 0 0 0 0 0 0 0 0 0 0 0 0 0 0 127 0" result="hardAlpha"/>
<feOffset/>
<feGaussianBlur stdDeviation="1.5"/>
<feComposite in2="hardAlpha" operator="out"/>
<feColorMatrix type="matrix" values="0 0 0 0 0.964706 0 0 0 0 1 0 0 0 0 0.8 0 0 0 1 0"/>
<feBlend mode="normal" in2="effect1_dropShadow_2023_7389" result="effect2_dropShadow_2023_7389"/>
<feBlend mode="normal" in="SourceGraphic" in2="effect2_dropShadow_2023_7389" result="shape"/>
</filter>
<filter id="filter8_dd_2023_7389" x="343.5" y="0" width="25" height="25" filterUnits="userSpaceOnUse" color-interpolation-filters="sRGB">
<feFlood flood-opacity="0" result="BackgroundImageFix"/>
<feColorMatrix in="SourceAlpha" type="matrix" values="0 0 0 0 0 0 0 0 0 0 0 0 0 0 0 0 0 0 127 0" result="hardAlpha"/>
<feOffset/>
<feGaussianBlur stdDeviation="5"/>
<feComposite in2="hardAlpha" operator="out"/>
<feColorMatrix type="matrix" values="0 0 0 0 0.964706 0 0 0 0 1 0 0 0 0 0.8 0 0 0 1 0"/>
<feBlend mode="normal" in2="BackgroundImageFix" result="effect1_dropShadow_2023_7389"/>
<feColorMatrix in="SourceAlpha" type="matrix" values="0 0 0 0 0 0 0 0 0 0 0 0 0 0 0 0 0 0 127 0" result="hardAlpha"/>
<feOffset/>
<feGaussianBlur stdDeviation="1.5"/>
<feComposite in2="hardAlpha" operator="out"/>
<feColorMatrix type="matrix" values="0 0 0 0 0.964706 0 0 0 0 1 0 0 0 0 0.8 0 0 0 1 0"/>
<feBlend mode="normal" in2="effect1_dropShadow_2023_7389" result="effect2_dropShadow_2023_7389"/>
<feBlend mode="normal" in="SourceGraphic" in2="effect2_dropShadow_2023_7389" result="shape"/>
</filter>
<filter id="filter9_dd_2023_7389" x="388" y="0" width="25" height="25" filterUnits="userSpaceOnUse" color-interpolation-filters="sRGB">
<feFlood flood-opacity="0" result="BackgroundImageFix"/>
<feColorMatrix in="SourceAlpha" type="matrix" values="0 0 0 0 0 0 0 0 0 0 0 0 0 0 0 0 0 0 127 0" result="hardAlpha"/>
<feOffset/>
<feGaussianBlur stdDeviation="5"/>
<feComposite in2="hardAlpha" operator="out"/>
<feColorMatrix type="matrix" values="0 0 0 0 0.964706 0 0 0 0 1 0 0 0 0 0.8 0 0 0 1 0"/>
<feBlend mode="normal" in2="BackgroundImageFix" result="effect1_dropShadow_2023_7389"/>
<feColorMatrix in="SourceAlpha" type="matrix" values="0 0 0 0 0 0 0 0 0 0 0 0 0 0 0 0 0 0 127 0" result="hardAlpha"/>
<feOffset/>
<feGaussianBlur stdDeviation="1.5"/>
<feComposite in2="hardAlpha" operator="out"/>
<feColorMatrix type="matrix" values="0 0 0 0 0.964706 0 0 0 0 1 0 0 0 0 0.8 0 0 0 1 0"/>
<feBlend mode="normal" in2="effect1_dropShadow_2023_7389" result="effect2_dropShadow_2023_7389"/>
<feBlend mode="normal" in="SourceGraphic" in2="effect2_dropShadow_2023_7389" result="shape"/>
</filter>
<filter id="filter10_dd_2023_7389" x="32" y="101" width="25" height="25" filterUnits="userSpaceOnUse" color-interpolation-filters="sRGB">
<feFlood flood-opacity="0" result="BackgroundImageFix"/>
<feColorMatrix in="SourceAlpha" type="matrix" values="0 0 0 0 0 0 0 0 0 0 0 0 0 0 0 0 0 0 127 0" result="hardAlpha"/>
<feOffset/>
<feGaussianBlur stdDeviation="5"/>
<feComposite in2="hardAlpha" operator="out"/>
<feColorMatrix type="matrix" values="0 0 0 0 0.964706 0 0 0 0 1 0 0 0 0 0.8 0 0 0 1 0"/>
<feBlend mode="normal" in2="BackgroundImageFix" result="effect1_dropShadow_2023_7389"/>
<feColorMatrix in="SourceAlpha" type="matrix" values="0 0 0 0 0 0 0 0 0 0 0 0 0 0 0 0 0 0 127 0" result="hardAlpha"/>
<feOffset/>
<feGaussianBlur stdDeviation="1.5"/>
<feComposite in2="hardAlpha" operator="out"/>
<feColorMatrix type="matrix" values="0 0 0 0 0.964706 0 0 0 0 1 0 0 0 0 0.8 0 0 0 1 0"/>
<feBlend mode="normal" in2="effect1_dropShadow_2023_7389" result="effect2_dropShadow_2023_7389"/>
<feBlend mode="normal" in="SourceGraphic" in2="effect2_dropShadow_2023_7389" result="shape"/>
</filter>
<filter id="filter11_dd_2023_7389" x="76.5" y="101" width="25" height="25" filterUnits="userSpaceOnUse" color-interpolation-filters="sRGB">
<feFlood flood-opacity="0" result="BackgroundImageFix"/>
<feColorMatrix in="SourceAlpha" type="matrix" values="0 0 0 0 0 0 0 0 0 0 0 0 0 0 0 0 0 0 127 0" result="hardAlpha"/>
<feOffset/>
<feGaussianBlur stdDeviation="5"/>
<feComposite in2="hardAlpha" operator="out"/>
<feColorMatrix type="matrix" values="0 0 0 0 0.964706 0 0 0 0 1 0 0 0 0 0.8 0 0 0 1 0"/>
<feBlend mode="normal" in2="BackgroundImageFix" result="effect1_dropShadow_2023_7389"/>
<feColorMatrix in="SourceAlpha" type="matrix" values="0 0 0 0 0 0 0 0 0 0 0 0 0 0 0 0 0 0 127 0" result="hardAlpha"/>
<feOffset/>
<feGaussianBlur stdDeviation="1.5"/>
<feComposite in2="hardAlpha" operator="out"/>
<feColorMatrix type="matrix" values="0 0 0 0 0.964706 0 0 0 0 1 0 0 0 0 0.8 0 0 0 1 0"/>
<feBlend mode="normal" in2="effect1_dropShadow_2023_7389" result="effect2_dropShadow_2023_7389"/>
<feBlend mode="normal" in="SourceGraphic" in2="effect2_dropShadow_2023_7389" result="shape"/>
</filter>
<filter id="filter12_dd_2023_7389" x="121" y="101" width="25" height="25" filterUnits="userSpaceOnUse" color-interpolation-filters="sRGB">
<feFlood flood-opacity="0" result="BackgroundImageFix"/>
<feColorMatrix in="SourceAlpha" type="matrix" values="0 0 0 0 0 0 0 0 0 0 0 0 0 0 0 0 0 0 127 0" result="hardAlpha"/>
<feOffset/>
<feGaussianBlur stdDeviation="5"/>
<feComposite in2="hardAlpha" operator="out"/>
<feColorMatrix type="matrix" values="0 0 0 0 0.964706 0 0 0 0 1 0 0 0 0 0.8 0 0 0 1 0"/>
<feBlend mode="normal" in2="BackgroundImageFix" result="effect1_dropShadow_2023_7389"/>
<feColorMatrix in="SourceAlpha" type="matrix" values="0 0 0 0 0 0 0 0 0 0 0 0 0 0 0 0 0 0 127 0" result="hardAlpha"/>
<feOffset/>
<feGaussianBlur stdDeviation="1.5"/>
<feComposite in2="hardAlpha" operator="out"/>
<feColorMatrix type="matrix" values="0 0 0 0 0.964706 0 0 0 0 1 0 0 0 0 0.8 0 0 0 1 0"/>
<feBlend mode="normal" in2="effect1_dropShadow_2023_7389" result="effect2_dropShadow_2023_7389"/>
<feBlend mode="normal" in="SourceGraphic" in2="effect2_dropShadow_2023_7389" result="shape"/>
</filter>
<filter id="filter13_dd_2023_7389" x="165.5" y="101" width="25" height="25" filterUnits="userSpaceOnUse" color-interpolation-filters="sRGB">
<feFlood flood-opacity="0" result="BackgroundImageFix"/>
<feColorMatrix in="SourceAlpha" type="matrix" values="0 0 0 0 0 0 0 0 0 0 0 0 0 0 0 0 0 0 127 0" result="hardAlpha"/>
<feOffset/>
<feGaussianBlur stdDeviation="5"/>
<feComposite in2="hardAlpha" operator="out"/>
<feColorMatrix type="matrix" values="0 0 0 0 0.964706 0 0 0 0 1 0 0 0 0 0.8 0 0 0 1 0"/>
<feBlend mode="normal" in2="BackgroundImageFix" result="effect1_dropShadow_2023_7389"/>
<feColorMatrix in="SourceAlpha" type="matrix" values="0 0 0 0 0 0 0 0 0 0 0 0 0 0 0 0 0 0 127 0" result="hardAlpha"/>
<feOffset/>
<feGaussianBlur stdDeviation="1.5"/>
<feComposite in2="hardAlpha" operator="out"/>
<feColorMatrix type="matrix" values="0 0 0 0 0.964706 0 0 0 0 1 0 0 0 0 0.8 0 0 0 1 0"/>
<feBlend mode="normal" in2="effect1_dropShadow_2023_7389" result="effect2_dropShadow_2023_7389"/>
<feBlend mode="normal" in="SourceGraphic" in2="effect2_dropShadow_2023_7389" result="shape"/>
</filter>
<filter id="filter14_dd_2023_7389" x="210" y="101" width="25" height="25" filterUnits="userSpaceOnUse" color-interpolation-filters="sRGB">
<feFlood flood-opacity="0" result="BackgroundImageFix"/>
<feColorMatrix in="SourceAlpha" type="matrix" values="0 0 0 0 0 0 0 0 0 0 0 0 0 0 0 0 0 0 127 0" result="hardAlpha"/>
<feOffset/>
<feGaussianBlur stdDeviation="5"/>
<feComposite in2="hardAlpha" operator="out"/>
<feColorMatrix type="matrix" values="0 0 0 0 0.964706 0 0 0 0 1 0 0 0 0 0.8 0 0 0 1 0"/>
<feBlend mode="normal" in2="BackgroundImageFix" result="effect1_dropShadow_2023_7389"/>
<feColorMatrix in="SourceAlpha" type="matrix" values="0 0 0 0 0 0 0 0 0 0 0 0 0 0 0 0 0 0 127 0" result="hardAlpha"/>
<feOffset/>
<feGaussianBlur stdDeviation="1.5"/>
<feComposite in2="hardAlpha" operator="out"/>
<feColorMatrix type="matrix" values="0 0 0 0 0.964706 0 0 0 0 1 0 0 0 0 0.8 0 0 0 1 0"/>
<feBlend mode="normal" in2="effect1_dropShadow_2023_7389" result="effect2_dropShadow_2023_7389"/>
<feBlend mode="normal" in="SourceGraphic" in2="effect2_dropShadow_2023_7389" result="shape"/>
</filter>
<filter id="filter15_dd_2023_7389" x="254.5" y="101" width="25" height="25" filterUnits="userSpaceOnUse" color-interpolation-filters="sRGB">
<feFlood flood-opacity="0" result="BackgroundImageFix"/>
<feColorMatrix in="SourceAlpha" type="matrix" values="0 0 0 0 0 0 0 0 0 0 0 0 0 0 0 0 0 0 127 0" result="hardAlpha"/>
<feOffset/>
<feGaussianBlur stdDeviation="5"/>
<feComposite in2="hardAlpha" operator="out"/>
<feColorMatrix type="matrix" values="0 0 0 0 0.964706 0 0 0 0 1 0 0 0 0 0.8 0 0 0 1 0"/>
<feBlend mode="normal" in2="BackgroundImageFix" result="effect1_dropShadow_2023_7389"/>
<feColorMatrix in="SourceAlpha" type="matrix" values="0 0 0 0 0 0 0 0 0 0 0 0 0 0 0 0 0 0 127 0" result="hardAlpha"/>
<feOffset/>
<feGaussianBlur stdDeviation="1.5"/>
<feComposite in2="hardAlpha" operator="out"/>
<feColorMatrix type="matrix" values="0 0 0 0 0.964706 0 0 0 0 1 0 0 0 0 0.8 0 0 0 1 0"/>
<feBlend mode="normal" in2="effect1_dropShadow_2023_7389" result="effect2_dropShadow_2023_7389"/>
<feBlend mode="normal" in="SourceGraphic" in2="effect2_dropShadow_2023_7389" result="shape"/>
</filter>
<filter id="filter16_dd_2023_7389" x="299" y="101" width="25" height="25" filterUnits="userSpaceOnUse" color-interpolation-filters="sRGB">
<feFlood flood-opacity="0" result="BackgroundImageFix"/>
<feColorMatrix in="SourceAlpha" type="matrix" values="0 0 0 0 0 0 0 0 0 0 0 0 0 0 0 0 0 0 127 0" result="hardAlpha"/>
<feOffset/>
<feGaussianBlur stdDeviation="5"/>
<feComposite in2="hardAlpha" operator="out"/>
<feColorMatrix type="matrix" values="0 0 0 0 0.964706 0 0 0 0 1 0 0 0 0 0.8 0 0 0 1 0"/>
<feBlend mode="normal" in2="BackgroundImageFix" result="effect1_dropShadow_2023_7389"/>
<feColorMatrix in="SourceAlpha" type="matrix" values="0 0 0 0 0 0 0 0 0 0 0 0 0 0 0 0 0 0 127 0" result="hardAlpha"/>
<feOffset/>
<feGaussianBlur stdDeviation="1.5"/>
<feComposite in2="hardAlpha" operator="out"/>
<feColorMatrix type="matrix" values="0 0 0 0 0.964706 0 0 0 0 1 0 0 0 0 0.8 0 0 0 1 0"/>
<feBlend mode="normal" in2="effect1_dropShadow_2023_7389" result="effect2_dropShadow_2023_7389"/>
<feBlend mode="normal" in="SourceGraphic" in2="effect2_dropShadow_2023_7389" result="shape"/>
</filter>
<filter id="filter17_dd_2023_7389" x="343.5" y="101" width="25" height="25" filterUnits="userSpaceOnUse" color-interpolation-filters="sRGB">
<feFlood flood-opacity="0" result="BackgroundImageFix"/>
<feColorMatrix in="SourceAlpha" type="matrix" values="0 0 0 0 0 0 0 0 0 0 0 0 0 0 0 0 0 0 127 0" result="hardAlpha"/>
<feOffset/>
<feGaussianBlur stdDeviation="5"/>
<feComposite in2="hardAlpha" operator="out"/>
<feColorMatrix type="matrix" values="0 0 0 0 0.964706 0 0 0 0 1 0 0 0 0 0.8 0 0 0 1 0"/>
<feBlend mode="normal" in2="BackgroundImageFix" result="effect1_dropShadow_2023_7389"/>
<feColorMatrix in="SourceAlpha" type="matrix" values="0 0 0 0 0 0 0 0 0 0 0 0 0 0 0 0 0 0 127 0" result="hardAlpha"/>
<feOffset/>
<feGaussianBlur stdDeviation="1.5"/>
<feComposite in2="hardAlpha" operator="out"/>
<feColorMatrix type="matrix" values="0 0 0 0 0.964706 0 0 0 0 1 0 0 0 0 0.8 0 0 0 1 0"/>
<feBlend mode="normal" in2="effect1_dropShadow_2023_7389" result="effect2_dropShadow_2023_7389"/>
<feBlend mode="normal" in="SourceGraphic" in2="effect2_dropShadow_2023_7389" result="shape"/>
</filter>
<filter id="filter18_dd_2023_7389" x="388" y="101" width="25" height="25" filterUnits="userSpaceOnUse" color-interpolation-filters="sRGB">
<feFlood flood-opacity="0" result="BackgroundImageFix"/>
<feColorMatrix in="SourceAlpha" type="matrix" values="0 0 0 0 0 0 0 0 0 0 0 0 0 0 0 0 0 0 127 0" result="hardAlpha"/>
<feOffset/>
<feGaussianBlur stdDeviation="5"/>
<feComposite in2="hardAlpha" operator="out"/>
<feColorMatrix type="matrix" values="0 0 0 0 0.964706 0 0 0 0 1 0 0 0 0 0.8 0 0 0 1 0"/>
<feBlend mode="normal" in2="BackgroundImageFix" result="effect1_dropShadow_2023_7389"/>
<feColorMatrix in="SourceAlpha" type="matrix" values="0 0 0 0 0 0 0 0 0 0 0 0 0 0 0 0 0 0 127 0" result="hardAlpha"/>
<feOffset/>
<feGaussianBlur stdDeviation="1.5"/>
<feComposite in2="hardAlpha" operator="out"/>
<feColorMatrix type="matrix" values="0 0 0 0 0.964706 0 0 0 0 1 0 0 0 0 0.8 0 0 0 1 0"/>
<feBlend mode="normal" in2="effect1_dropShadow_2023_7389" result="effect2_dropShadow_2023_7389"/>
<feBlend mode="normal" in="SourceGraphic" in2="effect2_dropShadow_2023_7389" result="shape"/>
</filter>
<filter id="filter19_dd_2023_7389" x="0" y="71" width="25" height="25" filterUnits="userSpaceOnUse" color-interpolation-filters="sRGB">
<feFlood flood-opacity="0" result="BackgroundImageFix"/>
<feColorMatrix in="SourceAlpha" type="matrix" values="0 0 0 0 0 0 0 0 0 0 0 0 0 0 0 0 0 0 127 0" result="hardAlpha"/>
<feOffset/>
<feGaussianBlur stdDeviation="5"/>
<feComposite in2="hardAlpha" operator="out"/>
<feColorMatrix type="matrix" values="0 0 0 0 0.964706 0 0 0 0 1 0 0 0 0 0.8 0 0 0 1 0"/>
<feBlend mode="normal" in2="BackgroundImageFix" result="effect1_dropShadow_2023_7389"/>
<feColorMatrix in="SourceAlpha" type="matrix" values="0 0 0 0 0 0 0 0 0 0 0 0 0 0 0 0 0 0 127 0" result="hardAlpha"/>
<feOffset/>
<feGaussianBlur stdDeviation="1.5"/>
<feComposite in2="hardAlpha" operator="out"/>
<feColorMatrix type="matrix" values="0 0 0 0 0.964706 0 0 0 0 1 0 0 0 0 0.8 0 0 0 1 0"/>
<feBlend mode="normal" in2="effect1_dropShadow_2023_7389" result="effect2_dropShadow_2023_7389"/>
<feBlend mode="normal" in="SourceGraphic" in2="effect2_dropShadow_2023_7389" result="shape"/>
</filter>
<filter id="filter20_dd_2023_7389" x="0" y="30" width="25" height="25" filterUnits="userSpaceOnUse" color-interpolation-filters="sRGB">
<feFlood flood-opacity="0" result="BackgroundImageFix"/>
<feColorMatrix in="SourceAlpha" type="matrix" values="0 0 0 0 0 0 0 0 0 0 0 0 0 0 0 0 0 0 127 0" result="hardAlpha"/>
<feOffset/>
<feGaussianBlur stdDeviation="5"/>
<feComposite in2="hardAlpha" operator="out"/>
<feColorMatrix type="matrix" values="0 0 0 0 0.964706 0 0 0 0 1 0 0 0 0 0.8 0 0 0 1 0"/>
<feBlend mode="normal" in2="BackgroundImageFix" result="effect1_dropShadow_2023_7389"/>
<feColorMatrix in="SourceAlpha" type="matrix" values="0 0 0 0 0 0 0 0 0 0 0 0 0 0 0 0 0 0 127 0" result="hardAlpha"/>
<feOffset/>
<feGaussianBlur stdDeviation="1.5"/>
<feComposite in2="hardAlpha" operator="out"/>
<feColorMatrix type="matrix" values="0 0 0 0 0.964706 0 0 0 0 1 0 0 0 0 0.8 0 0 0 1 0"/>
<feBlend mode="normal" in2="effect1_dropShadow_2023_7389" result="effect2_dropShadow_2023_7389"/>
<feBlend mode="normal" in="SourceGraphic" in2="effect2_dropShadow_2023_7389" result="shape"/>
</filter>
<filter id="filter21_dd_2023_7389" x="420" y="71" width="25" height="25" filterUnits="userSpaceOnUse" color-interpolation-filters="sRGB">
<feFlood flood-opacity="0" result="BackgroundImageFix"/>
<feColorMatrix in="SourceAlpha" type="matrix" values="0 0 0 0 0 0 0 0 0 0 0 0 0 0 0 0 0 0 127 0" result="hardAlpha"/>
<feOffset/>
<feGaussianBlur stdDeviation="5"/>
<feComposite in2="hardAlpha" operator="out"/>
<feColorMatrix type="matrix" values="0 0 0 0 0.964706 0 0 0 0 1 0 0 0 0 0.8 0 0 0 1 0"/>
<feBlend mode="normal" in2="BackgroundImageFix" result="effect1_dropShadow_2023_7389"/>
<feColorMatrix in="SourceAlpha" type="matrix" values="0 0 0 0 0 0 0 0 0 0 0 0 0 0 0 0 0 0 127 0" result="hardAlpha"/>
<feOffset/>
<feGaussianBlur stdDeviation="1.5"/>
<feComposite in2="hardAlpha" operator="out"/>
<feColorMatrix type="matrix" values="0 0 0 0 0.964706 0 0 0 0 1 0 0 0 0 0.8 0 0 0 1 0"/>
<feBlend mode="normal" in2="effect1_dropShadow_2023_7389" result="effect2_dropShadow_2023_7389"/>
<feBlend mode="normal" in="SourceGraphic" in2="effect2_dropShadow_2023_7389" result="shape"/>
</filter>
<filter id="filter22_dd_2023_7389" x="420" y="30" width="25" height="25" filterUnits="userSpaceOnUse" color-interpolation-filters="sRGB">
<feFlood flood-opacity="0" result="BackgroundImageFix"/>
<feColorMatrix in="SourceAlpha" type="matrix" values="0 0 0 0 0 0 0 0 0 0 0 0 0 0 0 0 0 0 127 0" result="hardAlpha"/>
<feOffset/>
<feGaussianBlur stdDeviation="5"/>
<feComposite in2="hardAlpha" operator="out"/>
<feColorMatrix type="matrix" values="0 0 0 0 0.964706 0 0 0 0 1 0 0 0 0 0.8 0 0 0 1 0"/>
<feBlend mode="normal" in2="BackgroundImageFix" result="effect1_dropShadow_2023_7389"/>
<feColorMatrix in="SourceAlpha" type="matrix" values="0 0 0 0 0 0 0 0 0 0 0 0 0 0 0 0 0 0 127 0" result="hardAlpha"/>
<feOffset/>
<feGaussianBlur stdDeviation="1.5"/>
<feComposite in2="hardAlpha" operator="out"/>
<feColorMatrix type="matrix" values="0 0 0 0 0.964706 0 0 0 0 1 0 0 0 0 0.8 0 0 0 1 0"/>
<feBlend mode="normal" in2="effect1_dropShadow_2023_7389" result="effect2_dropShadow_2023_7389"/>
<feBlend mode="normal" in="SourceGraphic" in2="effect2_dropShadow_2023_7389" result="shape"/>
</filter>
<linearGradient id="paint0_linear_2023_7389" x1="7.00001" y1="81.7546" x2="40.4845" y2="-53.2894" gradientUnits="userSpaceOnUse">
<stop offset="0.25" stop-color="#004C97"/>
<stop offset="1" stop-color="#0076CF"/>
</linearGradient>
<linearGradient id="paint1_linear_2023_7389" x1="7.00001" y1="81.7546" x2="40.4845" y2="-53.2894" gradientUnits="userSpaceOnUse">
<stop offset="0.25" stop-color="#003865"/>
<stop offset="1" stop-color="#004C97"/>
</linearGradient>
<linearGradient id="paint2_linear_2023_7389" x1="27" y1="74.8541" x2="40.4625" y2="-8.19677" gradientUnits="userSpaceOnUse">
<stop offset="0.25" stop-color="#004C97"/>
<stop offset="1" stop-color="#0076CF"/>
</linearGradient>
<linearGradient id="paint3_linear_2023_7389" x1="185.5" y1="16.2825" x2="193.566" y2="-11.0383" gradientUnits="userSpaceOnUse">
<stop offset="0.25" stop-color="#003865"/>
<stop offset="1" stop-color="#004C97"/>
</linearGradient>
<linearGradient id="paint4_linear_2023_7389" x1="185.5" y1="16.2825" x2="193.566" y2="-11.0383" gradientUnits="userSpaceOnUse">
<stop offset="0.25" stop-color="#004C97"/>
<stop offset="1" stop-color="#0076CF"/>
</linearGradient>
</defs>
</svg>
