<svg width="398" height="59" viewBox="0 0 398 59" fill="none" xmlns="http://www.w3.org/2000/svg">
<g clip-path="url(#clip0_2205_2600)">
<path d="M4.94319 0V3.45634H2.67863V6.91267H0.414062V51.8807H2.67863V55.337H4.94319V58.7934H393.466V55.337H395.736V51.8807H398.001V6.91267H395.736V3.45634H393.466V0H4.94319Z" fill="#00C4D9"/>
<path d="M5.0839 3.4563V6.91264H2.81934V10.3779H5.0839V6.91264H393.223V10.3779H395.493V6.91264H393.223V3.4563L5.0839 3.4563Z" fill="white"/>
<path d="M5.0839 6.91272V10.378H2.81934V48.2284H5.0839V51.6937H393.299V48.2284H395.569V10.378H393.299V6.91272H5.0839Z" fill="#55FFF5"/>
<path d="M128.512 37V16.84H132.382L143.092 31.54V16.84H146.782V37H142.912L132.202 22.3V37H128.512ZM150.393 29.65C150.393 25.12 153.483 21.94 157.923 21.94C162.093 21.94 165.003 24.97 165.003 29.38C165.003 29.8 164.973 30.22 164.943 30.61H154.233C154.503 32.95 156.363 34.51 158.883 34.51C160.143 34.51 161.583 34.12 163.113 33.28L164.283 35.89C162.213 36.91 160.143 37.36 158.403 37.36C153.663 37.36 150.393 34.18 150.393 29.65ZM157.923 24.79C155.943 24.79 154.473 26.2 154.233 28.3H161.313C161.193 26.2 159.843 24.79 157.923 24.79ZM165.694 37L171.064 29.47L165.934 22.3H170.194L173.524 27.07L176.854 22.3H181.114L176.014 29.47L181.354 37H177.034L173.524 31.87L170.044 37H165.694ZM188.828 17.98V22.3H192.908V25.21H188.828V32.23C188.828 33.46 189.668 34.3 190.898 34.3C191.468 34.3 192.098 34.21 192.788 34.03L193.298 36.91C192.128 37.21 191.018 37.36 189.968 37.36C187.028 37.36 184.988 35.44 184.988 32.62V25.21H182.258V22.3H184.988V17.98H188.828ZM203.307 37V16.84H207.297V33.94H216.267V37H203.307ZM217.541 29.65C217.541 25.12 220.631 21.94 225.071 21.94C229.241 21.94 232.151 24.97 232.151 29.38C232.151 29.8 232.121 30.22 232.091 30.61H221.381C221.651 32.95 223.511 34.51 226.031 34.51C227.291 34.51 228.731 34.12 230.261 33.28L231.431 35.89C229.361 36.91 227.291 37.36 225.551 37.36C220.811 37.36 217.541 34.18 217.541 29.65ZM225.071 24.79C223.091 24.79 221.621 26.2 221.381 28.3H228.461C228.341 26.2 226.991 24.79 225.071 24.79ZM248.443 22.3L242.443 37H238.903L232.903 22.3H236.923L240.673 32.65L244.453 22.3H248.443ZM249.475 29.65C249.475 25.12 252.565 21.94 257.005 21.94C261.175 21.94 264.085 24.97 264.085 29.38C264.085 29.8 264.055 30.22 264.025 30.61H253.315C253.585 32.95 255.445 34.51 257.965 34.51C259.225 34.51 260.665 34.12 262.195 33.28L263.365 35.89C261.295 36.91 259.225 37.36 257.485 37.36C252.745 37.36 249.475 34.18 249.475 29.65ZM257.005 24.79C255.025 24.79 253.555 26.2 253.315 28.3H260.395C260.275 26.2 258.925 24.79 257.005 24.79ZM270.708 15.88V32.8C270.708 33.73 271.308 34.3 272.208 34.3C272.568 34.3 273.048 34.21 273.528 34.12L273.948 37.03C272.988 37.24 272.058 37.36 271.278 37.36C268.578 37.36 266.868 35.74 266.868 33.19V15.88H270.708Z" fill="#004C97"/>
</g>
<defs>
<clipPath id="clip0_2205_2600">
<rect width="397.446" height="58.7934" fill="white" transform="translate(0.554688)"/>
</clipPath>
</defs>
</svg>
