<svg width="157" height="92" viewBox="0 0 157 92" fill="none" xmlns="http://www.w3.org/2000/svg">
<path d="M26.6595 19V10.964L19.7715 0.183999H22.3195L27.8355 8.892L33.3235 0.183999H35.8995L28.9835 10.964V19H26.6595ZM35.1871 12.196C35.1871 7.996 38.0711 5.056 42.1311 5.056C46.1631 5.056 49.0471 7.996 49.0471 12.196C49.0471 16.396 46.1631 19.336 42.1311 19.336C38.0711 19.336 35.1871 16.396 35.1871 12.196ZM37.4831 12.196C37.4831 15.36 39.3871 17.544 42.1311 17.544C44.8471 17.544 46.7791 15.36 46.7791 12.196C46.7791 9.06 44.8471 6.848 42.1311 6.848C39.3871 6.848 37.4831 9.06 37.4831 12.196ZM64.4193 5.392V19H62.6273L62.3473 16.508C61.3953 18.3 59.5753 19.336 57.4193 19.336C54.3953 19.336 52.2673 17.264 52.2673 14.268V5.392H54.4793V13.96C54.4793 16.032 55.9913 17.46 58.0633 17.46C60.4153 17.46 62.1793 15.668 62.1793 13.064V5.392H64.4193ZM74.5621 15.248C74.5621 12.392 76.9141 10.74 80.7781 10.74C81.7301 10.74 82.7661 10.852 83.8301 11.132V9.732C83.8301 7.996 82.4861 6.764 80.4981 6.764C79.0421 6.764 77.5581 7.1 75.9901 7.772L75.3741 6.148C77.2781 5.42 79.0141 5.056 80.7501 5.056C83.8301 5.056 85.9581 6.96 85.9581 9.788V16.368C85.9581 17.124 86.4061 17.6 87.1901 17.6C87.4141 17.6 87.7501 17.544 87.9181 17.516L88.0861 19.196C87.6381 19.28 87.1341 19.336 86.6301 19.336C85.1461 19.336 84.1941 18.468 84.0261 17.068C82.9341 18.496 81.1701 19.336 79.2941 19.336C76.6061 19.336 74.5621 17.572 74.5621 15.248ZM76.7461 15.108C76.7461 16.592 78.0621 17.712 79.8261 17.712C82.1781 17.712 83.8301 16.032 83.8301 13.624V12.476C82.8781 12.252 81.9541 12.14 81.0301 12.14C78.3421 12.14 76.7461 13.26 76.7461 15.108ZM90.5811 19V5.392H92.3731L92.6531 7.968C93.3251 6.232 94.9211 5.168 96.8811 5.168C97.3851 5.168 98.0011 5.252 98.5891 5.392L98.3371 7.212C97.8051 7.1 97.2451 7.016 96.7131 7.016C94.3891 7.016 92.7931 8.892 92.7931 11.636V19H90.5811ZM99.9918 12.196C99.9918 7.996 102.736 5.056 106.628 5.056C110.268 5.056 112.788 7.884 112.788 11.944C112.788 12.224 112.788 12.476 112.76 12.756H102.232C102.428 15.64 104.444 17.628 107.3 17.628C108.532 17.628 109.96 17.264 111.416 16.48L112.116 18.02C110.324 18.916 108.588 19.336 107.076 19.336C102.932 19.336 99.9918 16.396 99.9918 12.196ZM106.628 6.764C104.192 6.764 102.456 8.584 102.232 11.328H110.632C110.548 8.64 108.924 6.764 106.628 6.764ZM121.757 15.248C121.757 12.392 124.109 10.74 127.973 10.74C128.925 10.74 129.961 10.852 131.025 11.132V9.732C131.025 7.996 129.681 6.764 127.693 6.764C126.237 6.764 124.753 7.1 123.185 7.772L122.569 6.148C124.473 5.42 126.209 5.056 127.945 5.056C131.025 5.056 133.153 6.96 133.153 9.788V16.368C133.153 17.124 133.601 17.6 134.385 17.6C134.609 17.6 134.945 17.544 135.113 17.516L135.281 19.196C134.833 19.28 134.329 19.336 133.825 19.336C132.341 19.336 131.389 18.468 131.221 17.068C130.129 18.496 128.365 19.336 126.489 19.336C123.801 19.336 121.757 17.572 121.757 15.248ZM123.941 15.108C123.941 16.592 125.257 17.712 127.021 17.712C129.373 17.712 131.025 16.032 131.025 13.624V12.476C130.073 12.252 129.149 12.14 128.225 12.14C125.537 12.14 123.941 13.26 123.941 15.108ZM14.5939 42.904C14.5939 35.56 20.0299 30.376 27.7699 30.376C35.5099 30.376 40.9819 35.56 40.9819 42.904C40.9819 47.116 39.1819 50.572 36.2659 52.768L41.0179 56.152L37.8499 60.148L30.9739 55.072C29.9659 55.288 28.9219 55.432 27.7699 55.432C20.0299 55.432 14.5939 50.248 14.5939 42.904ZM21.3259 42.904C21.3259 47.224 23.9539 50.284 27.7699 50.284C31.5859 50.284 34.2499 47.224 34.2499 42.904C34.2499 38.584 31.5859 35.524 27.7699 35.524C23.9539 35.524 21.3259 38.584 21.3259 42.904ZM62.333 37.18V55H57.293L56.501 53.056C55.097 54.604 53.045 55.432 50.669 55.432C46.493 55.432 43.541 52.588 43.541 48.448V37.18H49.877V47.404C49.877 49.096 51.065 50.284 52.721 50.284C54.629 50.284 55.997 48.844 55.997 46.756V37.18H62.333ZM65.1829 49.636C65.1829 45.82 68.2789 43.624 73.4629 43.624C74.3989 43.624 75.4789 43.732 76.5229 43.912V43.768C76.5229 42.4 75.2269 41.392 73.4269 41.392C71.6629 41.392 69.6829 41.86 67.6669 42.688L66.0829 38.332C68.9629 37.252 71.6629 36.748 74.2189 36.748C79.1149 36.748 82.3189 39.628 82.3189 43.912V49.78C82.3189 50.32 82.6789 50.68 83.2189 50.68C83.5069 50.68 83.7949 50.644 84.0469 50.608L84.4429 55.144C83.5429 55.324 82.5349 55.432 81.4549 55.432C79.6909 55.432 78.2869 54.676 77.4949 53.38C75.8389 54.712 73.6789 55.432 71.7349 55.432C67.8829 55.432 65.1829 53.056 65.1829 49.636ZM71.1229 49.24C71.1229 50.284 72.0949 51.076 73.4269 51.076C75.2269 51.076 76.5229 49.816 76.5229 48.088V47.44C75.8029 47.296 75.0469 47.188 74.2549 47.188C72.3829 47.188 71.1229 47.98 71.1229 49.24ZM92.3174 29.656V48.988C92.3174 49.852 92.8934 50.392 93.7574 50.392C94.1894 50.392 94.7294 50.32 95.2334 50.248L95.8814 55C94.5854 55.288 93.2894 55.432 92.1734 55.432C88.3574 55.432 85.9814 53.164 85.9814 49.636V29.656H92.3174ZM97.829 55V37.18H104.165V55H97.829ZM97.397 32.5C97.397 30.376 98.909 28.864 100.997 28.864C103.121 28.864 104.633 30.376 104.633 32.5C104.633 34.588 103.121 36.1 100.997 36.1C98.909 36.1 97.397 34.588 97.397 32.5ZM116.018 31.996V37.18H120.266V41.968H116.018V48.484C116.018 49.672 116.774 50.392 117.926 50.392C118.538 50.392 119.258 50.32 120.014 50.176L120.806 54.856C119.222 55.252 117.782 55.432 116.378 55.432C112.382 55.432 109.682 52.912 109.682 49.132V41.968H106.694V37.18H109.682V31.996H116.018ZM141.568 37.18L133.972 56.368C132.28 60.724 129.58 62.92 125.944 62.92C125.116 62.92 124 62.812 122.884 62.56L123.676 57.664C124.288 57.808 124.864 57.88 125.296 57.88C126.7 57.88 127.6 57.196 128.248 55.54L128.572 54.748L121.336 37.18H127.96L131.452 47.872L134.944 37.18H141.568ZM0.249625 91V66.808H11.1936C16.3416 66.808 19.9776 70.084 19.9776 74.764C19.9776 78.256 18.0336 81.028 14.9016 81.928L21.0936 91H13.9656L8.81763 82.972H6.58563V91H0.249625ZM6.58563 71.848V77.932H10.1496C12.0936 77.932 13.4976 76.744 13.4976 74.872C13.4976 73.072 12.0936 71.848 10.1496 71.848H6.58563ZM22.2572 82.108C22.2572 76.6 26.2172 72.748 31.8692 72.748C37.1972 72.748 40.9052 76.456 40.9052 81.82C40.9052 82.468 40.8692 83.116 40.7972 83.728H28.5932C29.0612 85.6 30.8612 86.788 33.2372 86.788C34.6772 86.788 36.3692 86.284 38.1692 85.348L40.0412 89.596C37.3412 90.856 34.6772 91.432 32.4452 91.432C26.3972 91.432 22.2572 87.58 22.2572 82.108ZM31.8692 77.392C30.2132 77.392 28.9532 78.436 28.5932 80.02H34.8212C34.6052 78.436 33.4532 77.392 31.8692 77.392ZM42.5775 82.108C42.5775 76.636 46.6815 72.748 52.4775 72.748C54.9975 72.748 57.4815 73.468 59.7855 74.908L57.2655 79.12C55.9695 78.292 54.7455 77.788 53.3775 77.788C50.8215 77.788 49.0575 79.552 49.0575 82.108C49.0575 84.664 50.8215 86.392 53.3775 86.392C54.7455 86.392 55.9695 85.888 57.2655 85.06L59.7855 89.308C57.4815 90.712 54.9975 91.432 52.4775 91.432C46.6815 91.432 42.5775 87.544 42.5775 82.108ZM61.7939 91V73.18H66.8339L67.6259 75.412C68.7059 73.828 70.5059 72.892 72.5939 72.892C73.1699 72.892 73.9619 73 74.6459 73.144L74.1059 78.148C73.5299 78.04 72.7739 77.932 72.0539 77.932C69.6419 77.932 68.1299 79.696 68.1299 82.252V91H61.7939ZM95.3448 73.18V91H90.3048L89.5128 89.056C88.1088 90.604 86.0568 91.432 83.6808 91.432C79.5048 91.432 76.5528 88.588 76.5528 84.448V73.18H82.8888V83.404C82.8888 85.096 84.0768 86.284 85.7328 86.284C87.6408 86.284 89.0088 84.844 89.0088 82.756V73.18H95.3448ZM99.0947 91V73.18H105.431V91H99.0947ZM98.6627 68.5C98.6627 66.376 100.175 64.864 102.263 64.864C104.387 64.864 105.899 66.376 105.899 68.5C105.899 70.588 104.387 72.1 102.263 72.1C100.175 72.1 98.6627 70.588 98.6627 68.5ZM117.284 67.996V73.18H121.532V77.968H117.284V84.484C117.284 85.672 118.04 86.392 119.192 86.392C119.804 86.392 120.524 86.32 121.28 86.176L122.072 90.856C120.488 91.252 119.048 91.432 117.644 91.432C113.648 91.432 110.948 88.912 110.948 85.132V77.968H107.96V73.18H110.948V67.996H117.284ZM122.839 82.108C122.839 76.6 126.799 72.748 132.451 72.748C137.779 72.748 141.487 76.456 141.487 81.82C141.487 82.468 141.451 83.116 141.379 83.728H129.175C129.643 85.6 131.443 86.788 133.819 86.788C135.259 86.788 136.951 86.284 138.751 85.348L140.623 89.596C137.923 90.856 135.259 91.432 133.027 91.432C126.979 91.432 122.839 87.58 122.839 82.108ZM132.451 77.392C130.795 77.392 129.535 78.436 129.175 80.02H135.403C135.187 78.436 134.035 77.392 132.451 77.392ZM144.06 91V73.18H149.1L149.892 75.412C150.972 73.828 152.771 72.892 154.86 72.892C155.436 72.892 156.228 73 156.912 73.144L156.372 78.148C155.796 78.04 155.04 77.932 154.32 77.932C151.908 77.932 150.396 79.696 150.396 82.252V91H144.06Z" fill="white"/>
</svg>
