<svg width="27" height="21" viewBox="0 0 27 21" fill="none" xmlns="http://www.w3.org/2000/svg">
<path d="M6.76562 17C6.76563 17.5523 7.21334 18 7.76563 18C8.31791 18 8.76563 17.5523 8.76562 17L6.76562 17ZM8.47273 0.292892C8.08221 -0.0976315 7.44904 -0.0976314 7.05852 0.292892L0.694557 6.65685C0.304032 7.04738 0.304032 7.68054 0.694557 8.07107C1.08508 8.46159 1.71825 8.46159 2.10877 8.07107L7.76562 2.41421L13.4225 8.07107C13.813 8.46159 14.4462 8.46159 14.8367 8.07107C15.2272 7.68054 15.2272 7.04738 14.8367 6.65685L8.47273 0.292892ZM8.76562 17L8.76562 1L6.76562 1L6.76562 17L8.76562 17Z" fill="#DCF94D"/>
<path d="M19.7656 4C19.7656 3.44772 19.3179 3 18.7656 3C18.2133 3 17.7656 3.44772 17.7656 4L19.7656 4ZM18.0585 20.7071C18.449 21.0976 19.0822 21.0976 19.4727 20.7071L25.8367 14.3431C26.2272 13.9526 26.2272 13.3195 25.8367 12.9289C25.4462 12.5384 24.813 12.5384 24.4225 12.9289L18.7656 18.5858L13.1088 12.9289C12.7182 12.5384 12.0851 12.5384 11.6946 12.9289C11.304 13.3195 11.304 13.9526 11.6946 14.3431L18.0585 20.7071ZM17.7656 4L17.7656 20L19.7656 20L19.7656 4L17.7656 4Z" fill="#DCF94D"/>
</svg>
