<svg width="398" height="59" viewBox="0 0 398 59" fill="none" xmlns="http://www.w3.org/2000/svg">
<g clip-path="url(#clip0_2238_653)">
<path d="M4.94319 0V3.45634H2.67863V6.91267H0.414062V51.8807H2.67863V55.337H4.94319V58.7934H393.466V55.337H395.736V51.8807H398.001V6.91267H395.736V3.45634H393.466V0H4.94319Z" fill="#00C4D9"/>
<path d="M5.0839 3.4563V6.91264H2.81934V10.3779H5.0839V6.91264H393.223V10.3779H395.493V6.91264H393.223V3.4563L5.0839 3.4563Z" fill="white"/>
<path d="M5.0839 6.91272V10.378H2.81934V48.2284H5.0839V51.6937H393.299V48.2284H395.569V10.378H393.299V6.91272H5.0839Z" fill="#55FFF5"/>
<path d="M54.4917 37V16.84H62.8917C66.9417 16.84 69.8217 19.45 69.8217 23.17C69.8217 26.17 67.9917 28.45 65.1717 29.05L70.6917 37H66.3417L61.4517 29.65H58.3317V37H54.4917ZM58.3317 19.9V26.56H62.2917C64.3917 26.56 65.8917 25.24 65.8917 23.23C65.8917 21.28 64.3917 19.9 62.2917 19.9H58.3317ZM72.3876 29.65C72.3876 25.12 75.4776 21.94 79.9176 21.94C84.0876 21.94 86.9976 24.97 86.9976 29.38C86.9976 29.8 86.9676 30.22 86.9376 30.61H76.2276C76.4976 32.95 78.3576 34.51 80.8776 34.51C82.1376 34.51 83.5776 34.12 85.1076 33.28L86.2776 35.89C84.2076 36.91 82.1376 37.36 80.3976 37.36C75.6576 37.36 72.3876 34.18 72.3876 29.65ZM79.9176 24.79C77.9376 24.79 76.4676 26.2 76.2276 28.3H83.3076C83.1876 26.2 81.8376 24.79 79.9176 24.79ZM94.7095 17.98V22.3H98.7895V25.21H94.7095V32.23C94.7095 33.46 95.5495 34.3 96.7795 34.3C97.3495 34.3 97.9795 34.21 98.6695 34.03L99.1795 36.91C98.0095 37.21 96.8995 37.36 95.8495 37.36C92.9095 37.36 90.8695 35.44 90.8695 32.62V25.21H88.1395V22.3H90.8695V17.98H94.7095ZM115.981 22.3V37H112.921L112.441 34.87C111.361 36.46 109.531 37.36 107.401 37.36C104.041 37.36 101.641 35.05 101.641 31.75V22.3H105.481V31.12C105.481 32.95 106.771 34.21 108.571 34.21C110.641 34.21 112.141 32.65 112.141 30.4V22.3H115.981ZM119.898 37V22.3H122.958L123.438 24.58C124.278 22.99 125.868 22.06 127.788 22.06C128.298 22.06 128.958 22.12 129.558 22.27L129.198 25.33C128.688 25.21 128.058 25.12 127.488 25.12C125.208 25.12 123.738 26.89 123.738 29.41V37H119.898ZM131.939 37V22.3H134.999L135.479 24.43C136.589 22.84 138.419 21.94 140.549 21.94C143.909 21.94 146.279 24.25 146.279 27.55V37H142.439V28.15C142.439 26.35 141.149 25.09 139.379 25.09C137.309 25.09 135.779 26.65 135.779 28.9V37H131.939ZM161.975 17.98V22.3H166.055V25.21H161.975V32.23C161.975 33.46 162.815 34.3 164.045 34.3C164.615 34.3 165.245 34.21 165.935 34.03L166.445 36.91C165.275 37.21 164.165 37.36 163.115 37.36C160.175 37.36 158.135 35.44 158.135 32.62V25.21H155.405V22.3H158.135V17.98H161.975ZM167.544 29.65C167.544 25.12 170.814 21.94 175.464 21.94C180.144 21.94 183.414 25.12 183.414 29.65C183.414 34.18 180.144 37.36 175.464 37.36C170.814 37.36 167.544 34.18 167.544 29.65ZM171.444 29.65C171.444 32.41 173.124 34.36 175.464 34.36C177.834 34.36 179.514 32.41 179.514 29.65C179.514 26.86 177.834 24.94 175.464 24.94C173.124 24.94 171.444 26.86 171.444 29.65ZM194.208 37V16.84H198.078L204.678 25.9L211.248 16.84H215.118V37H211.428V22.3L205.788 30.07H203.568L197.898 22.3V37H194.208ZM218.726 32.74C218.726 29.65 221.246 27.85 225.506 27.85C226.406 27.85 227.396 27.94 228.356 28.15V27.37C228.356 25.87 227.156 24.79 225.326 24.79C223.826 24.79 222.206 25.15 220.496 25.84L219.536 23.17C221.726 22.33 223.796 21.94 225.776 21.94C229.496 21.94 231.956 24.16 231.956 27.43V33.4C231.956 34.03 232.346 34.45 232.976 34.45C233.276 34.45 233.606 34.39 233.726 34.36L233.996 37.15C233.366 37.27 232.676 37.36 231.956 37.36C230.456 37.36 229.316 36.61 228.806 35.38C227.546 36.64 225.776 37.36 223.976 37.36C220.916 37.36 218.726 35.44 218.726 32.74ZM222.416 32.53C222.416 33.73 223.526 34.66 224.966 34.66C227.006 34.66 228.356 33.25 228.356 31.24V30.37C227.576 30.16 226.766 30.07 225.956 30.07C223.766 30.07 222.416 31 222.416 32.53ZM236.119 37V22.3H239.959V37H236.119ZM235.759 18.1C235.759 16.75 236.719 15.79 238.039 15.79C239.389 15.79 240.349 16.75 240.349 18.1C240.349 19.45 239.389 20.41 238.039 20.41C236.719 20.41 235.759 19.45 235.759 18.1ZM243.883 37V22.3H246.943L247.423 24.43C248.533 22.84 250.363 21.94 252.493 21.94C255.853 21.94 258.223 24.25 258.223 27.55V37H254.383V28.15C254.383 26.35 253.093 25.09 251.323 25.09C249.253 25.09 247.723 26.65 247.723 28.9V37H243.883ZM269.677 37V16.84H283.447V19.84H273.667V25.21H282.487V28.15H273.667V34H283.927V37H269.677ZM300.545 22.3L294.545 37H291.005L285.005 22.3H289.025L292.775 32.65L296.555 22.3H300.545ZM301.577 29.65C301.577 25.12 304.667 21.94 309.107 21.94C313.277 21.94 316.187 24.97 316.187 29.38C316.187 29.8 316.157 30.22 316.127 30.61H305.417C305.687 32.95 307.547 34.51 310.067 34.51C311.327 34.51 312.767 34.12 314.297 33.28L315.467 35.89C313.397 36.91 311.327 37.36 309.587 37.36C304.847 37.36 301.577 34.18 301.577 29.65ZM309.107 24.79C307.127 24.79 305.657 26.2 305.417 28.3H312.497C312.377 26.2 311.027 24.79 309.107 24.79ZM318.971 37V22.3H322.031L322.511 24.43C323.621 22.84 325.451 21.94 327.581 21.94C330.941 21.94 333.311 24.25 333.311 27.55V37H329.471V28.15C329.471 26.35 328.181 25.09 326.411 25.09C324.341 25.09 322.811 26.65 322.811 28.9V37H318.971ZM341.917 17.98V22.3H345.997V25.21H341.917V32.23C341.917 33.46 342.757 34.3 343.987 34.3C344.557 34.3 345.187 34.21 345.877 34.03L346.387 36.91C345.217 37.21 344.107 37.36 343.057 37.36C340.117 37.36 338.077 35.44 338.077 32.62V25.21H335.347V22.3H338.077V17.98H341.917Z" fill="#004C97"/>
</g>
<defs>
<clipPath id="clip0_2238_653">
<rect width="397.446" height="58.7934" fill="white" transform="translate(0.554688)"/>
</clipPath>
</defs>
</svg>
