<svg width="362" height="318" viewBox="0 0 362 318" fill="none" xmlns="http://www.w3.org/2000/svg">
<rect x="6" y="13" width="350" height="299" rx="36" fill="url(#paint0_linear_2102_4745)" stroke="url(#paint1_linear_2102_4745)" stroke-width="2"/>
<g filter="url(#filter0_i_2102_4745)">
<rect x="21" y="27" width="320" height="269" rx="25" fill="#E5F4FD"/>
</g>
<g filter="url(#filter1_dd_2102_4745)">
<circle cx="13.5" cy="261.5" r="3.5" transform="rotate(-90 13.5 261.5)" fill="white"/>
</g>
<g filter="url(#filter2_dd_2102_4745)">
<circle cx="13.5" cy="212" r="3.5" transform="rotate(-90 13.5 212)" fill="white"/>
</g>
<g filter="url(#filter3_dd_2102_4745)">
<circle cx="13.5" cy="162.5" r="3.5" transform="rotate(-90 13.5 162.5)" fill="white"/>
</g>
<g filter="url(#filter4_dd_2102_4745)">
<circle cx="13.5" cy="113" r="3.5" transform="rotate(-90 13.5 113)" fill="white"/>
</g>
<g filter="url(#filter5_dd_2102_4745)">
<circle cx="13.5" cy="63.5" r="3.5" transform="rotate(-90 13.5 63.5)" fill="white"/>
</g>
<g filter="url(#filter6_dd_2102_4745)">
<circle cx="348.5" cy="261.5" r="3.5" transform="rotate(-90 348.5 261.5)" fill="white"/>
</g>
<g filter="url(#filter7_dd_2102_4745)">
<circle cx="348.5" cy="212" r="3.5" transform="rotate(-90 348.5 212)" fill="white"/>
</g>
<g filter="url(#filter8_dd_2102_4745)">
<circle cx="348.5" cy="162.5" r="3.5" transform="rotate(-90 348.5 162.5)" fill="white"/>
</g>
<g filter="url(#filter9_dd_2102_4745)">
<circle cx="348.5" cy="113" r="3.5" transform="rotate(-90 348.5 113)" fill="white"/>
</g>
<g filter="url(#filter10_dd_2102_4745)">
<circle cx="348.5" cy="63.5" r="3.5" transform="rotate(-90 348.5 63.5)" fill="white"/>
</g>
<g filter="url(#filter11_dd_2102_4745)">
<circle cx="46.5" cy="20.5" r="3.5" fill="white"/>
</g>
<g filter="url(#filter12_dd_2102_4745)">
<circle cx="91.333" cy="20.5" r="3.5" fill="white"/>
</g>
<g filter="url(#filter13_dd_2102_4745)">
<circle cx="136.167" cy="20.5" r="3.5" fill="white"/>
</g>
<g filter="url(#filter14_dd_2102_4745)">
<circle cx="181" cy="20.5" r="3.5" fill="white"/>
</g>
<g filter="url(#filter15_dd_2102_4745)">
<circle cx="225.833" cy="20.5" r="3.5" fill="white"/>
</g>
<g filter="url(#filter16_dd_2102_4745)">
<circle cx="270.667" cy="20.5" r="3.5" fill="white"/>
</g>
<g filter="url(#filter17_dd_2102_4745)">
<circle cx="315.5" cy="20.5" r="3.5" fill="white"/>
</g>
<g filter="url(#filter18_dd_2102_4745)">
<circle cx="46.5" cy="304.5" r="3.5" fill="white"/>
</g>
<g filter="url(#filter19_dd_2102_4745)">
<circle cx="100.3" cy="304.5" r="3.5" fill="white"/>
</g>
<g filter="url(#filter20_dd_2102_4745)">
<circle cx="154.1" cy="304.5" r="3.5" fill="white"/>
</g>
<g filter="url(#filter21_dd_2102_4745)">
<circle cx="207.9" cy="304.5" r="3.5" fill="white"/>
</g>
<g filter="url(#filter22_dd_2102_4745)">
<circle cx="261.7" cy="304.5" r="3.5" fill="white"/>
</g>
<g filter="url(#filter23_dd_2102_4745)">
<circle cx="315.5" cy="304.5" r="3.5" fill="white"/>
</g>
<rect x="116.5" y="1" width="130" height="40" rx="20" fill="#DCF94D"/>
<rect x="116.5" y="1" width="130" height="40" rx="20" stroke="url(#paint2_linear_2102_4745)" stroke-width="2"/>
<path d="M139.777 29V12.2H146.777C150.152 12.2 152.552 14.375 152.552 17.475C152.552 19.975 151.027 21.875 148.677 22.375L153.277 29H149.652L145.577 22.875H142.977V29H139.777ZM142.977 14.75V20.3H146.277C148.027 20.3 149.277 19.2 149.277 17.525C149.277 15.9 148.027 14.75 146.277 14.75H142.977ZM154.69 22.875C154.69 19.1 157.265 16.45 160.965 16.45C164.44 16.45 166.865 18.975 166.865 22.65C166.865 23 166.84 23.35 166.815 23.675H157.89C158.115 25.625 159.665 26.925 161.765 26.925C162.815 26.925 164.015 26.6 165.29 25.9L166.265 28.075C164.54 28.925 162.815 29.3 161.365 29.3C157.415 29.3 154.69 26.65 154.69 22.875ZM160.965 18.825C159.315 18.825 158.09 20 157.89 21.75H163.79C163.69 20 162.565 18.825 160.965 18.825ZM186.642 16.75L182.667 29H179.567L177.167 20.4L174.792 29H171.692L167.692 16.75H170.917L173.292 25.35L175.692 16.75H178.667L181.042 25.35L183.442 16.75H186.642ZM187.698 25.45C187.698 22.875 189.798 21.375 193.348 21.375C194.098 21.375 194.923 21.45 195.723 21.625V20.975C195.723 19.725 194.723 18.825 193.198 18.825C191.948 18.825 190.598 19.125 189.173 19.7L188.373 17.475C190.198 16.775 191.923 16.45 193.573 16.45C196.673 16.45 198.723 18.3 198.723 21.025V26C198.723 26.525 199.048 26.875 199.573 26.875C199.823 26.875 200.098 26.825 200.198 26.8L200.423 29.125C199.898 29.225 199.323 29.3 198.723 29.3C197.473 29.3 196.523 28.675 196.098 27.65C195.048 28.7 193.573 29.3 192.073 29.3C189.523 29.3 187.698 27.7 187.698 25.45ZM190.773 25.275C190.773 26.275 191.698 27.05 192.898 27.05C194.598 27.05 195.723 25.875 195.723 24.2V23.475C195.073 23.3 194.398 23.225 193.723 23.225C191.898 23.225 190.773 24 190.773 25.275ZM202.192 29V16.75H204.742L205.142 18.65C205.842 17.325 207.167 16.55 208.767 16.55C209.192 16.55 209.742 16.6 210.242 16.725L209.942 19.275C209.517 19.175 208.992 19.1 208.517 19.1C206.617 19.1 205.392 20.575 205.392 22.675V29H202.192ZM223.684 11.4V29H221.134L220.734 27.425C219.834 28.625 218.459 29.3 216.809 29.3C213.534 29.3 211.209 26.65 211.209 22.875C211.209 19.1 213.534 16.45 216.809 16.45C218.334 16.45 219.609 17.05 220.484 18.125V11.4H223.684ZM214.459 22.875C214.459 25.15 215.784 26.775 217.634 26.775C219.359 26.775 220.559 25.475 220.559 23.7V22.05C220.559 20.25 219.359 18.975 217.634 18.975C215.784 18.975 214.459 20.575 214.459 22.875Z" fill="#004C97"/>
<path d="M89.1259 112V86.464H100.678C106.112 86.464 109.95 89.922 109.95 94.862C109.95 98.548 107.898 101.474 104.592 102.424L111.128 112H103.604L98.1699 103.526H95.8139V112H89.1259ZM95.8139 91.784V98.206H99.5759C101.628 98.206 103.11 96.952 103.11 94.976C103.11 93.076 101.628 91.784 99.5759 91.784H95.8139ZM114.546 112V86.464H121.234L128.568 96.61L135.902 86.464H142.59V112H136.206V95.926L130.468 103.868H126.668L120.968 95.926V112H114.546ZM163.945 86.464V91.784H154.255V95.926C154.749 95.888 155.357 95.888 155.813 95.888C161.285 95.888 164.857 99.08 164.857 104.02C164.857 108.884 160.753 112.456 154.977 112.456C152.013 112.456 149.125 111.62 146.579 110.062L149.125 105.16C150.987 106.376 152.849 107.022 154.445 107.022C156.801 107.022 158.321 105.844 158.321 103.906C158.321 101.74 156.611 100.486 153.609 100.486C152.089 100.486 150.341 100.676 148.403 101.094V86.464H163.945ZM167.865 99.232C167.865 90.91 171.475 86.008 178.049 86.008C184.623 86.008 188.233 90.91 188.233 99.232C188.233 107.554 184.623 112.456 178.049 112.456C171.475 112.456 167.865 107.554 167.865 99.232ZM174.135 99.232C174.135 104.172 175.541 107.022 178.049 107.022C180.557 107.022 181.963 104.172 181.963 99.232C181.963 94.292 180.557 91.442 178.049 91.442C175.541 91.442 174.135 94.292 174.135 99.232Z" fill="#0076CF"/>
<path d="M99.2474 72.066V57.282H109.345V59.526H102.173V63.948H108.641V66.214H102.173V72.066H99.2474ZM111.72 72.066V61.286H114.536V72.066H111.72ZM111.456 58.206C111.456 57.216 112.16 56.512 113.128 56.512C114.118 56.512 114.822 57.216 114.822 58.206C114.822 59.196 114.118 59.9 113.128 59.9C112.16 59.9 111.456 59.196 111.456 58.206ZM117.413 72.066V61.286H119.657L120.009 62.958C120.625 61.792 121.791 61.11 123.199 61.11C123.573 61.11 124.057 61.154 124.497 61.264L124.233 63.508C123.859 63.42 123.397 63.354 122.979 63.354C121.307 63.354 120.229 64.652 120.229 66.5V72.066H117.413ZM125.693 64.278C125.693 62.386 127.409 61.022 129.895 61.022C131.149 61.022 132.491 61.286 133.855 61.77L133.239 63.794C132.161 63.376 131.083 63.112 130.115 63.112C129.103 63.112 128.443 63.574 128.443 64.278C128.443 66.236 134.207 64.806 134.207 68.986C134.207 70.944 132.447 72.33 129.895 72.33C128.575 72.33 127.123 72.044 125.605 71.472L126.199 69.47C127.453 69.976 128.641 70.24 129.675 70.24C130.753 70.24 131.435 69.734 131.435 68.986C131.435 66.94 125.693 68.37 125.693 64.278ZM140.041 58.118V61.286H143.033V63.42H140.041V68.568C140.041 69.47 140.657 70.086 141.559 70.086C141.977 70.086 142.439 70.02 142.945 69.888L143.319 72C142.461 72.22 141.647 72.33 140.877 72.33C138.721 72.33 137.225 70.922 137.225 68.854V63.42H135.223V61.286H137.225V58.118H140.041ZM159.46 57.282V59.526H153.366V63.09C153.894 63.002 154.444 62.98 154.906 62.98C158.008 62.98 159.988 64.784 159.988 67.6C159.988 70.35 157.766 72.33 154.576 72.33C152.948 72.33 151.32 71.846 149.89 70.988L150.968 68.92C152.134 69.624 153.3 70.02 154.356 70.02C156.116 70.02 157.238 69.052 157.238 67.534C157.238 65.928 156.05 64.938 154.004 64.938C153.102 64.938 152.068 65.07 150.902 65.334V57.282H159.46ZM162.169 64.674C162.169 59.922 164.237 57.018 167.823 57.018C171.409 57.018 173.477 59.922 173.477 64.674C173.477 69.426 171.409 72.33 167.823 72.33C164.237 72.33 162.169 69.426 162.169 64.674ZM164.809 64.674C164.809 67.996 165.953 70.02 167.823 70.02C169.693 70.02 170.837 67.996 170.837 64.674C170.837 61.352 169.693 59.328 167.823 59.328C165.953 59.328 164.809 61.352 164.809 64.674ZM201.126 57.282L196.418 72.066H193.558L190.302 60.824L187.024 72.066H184.164L179.456 57.282H182.404L185.66 68.524L188.938 57.282H191.666L194.922 68.524L198.2 57.282H201.126ZM202.9 72.066V61.286H205.716V72.066H202.9ZM202.636 58.206C202.636 57.216 203.34 56.512 204.308 56.512C205.298 56.512 206.002 57.216 206.002 58.206C206.002 59.196 205.298 59.9 204.308 59.9C203.34 59.9 202.636 59.196 202.636 58.206ZM208.593 72.066V61.286H210.837L211.189 62.848C212.003 61.682 213.345 61.022 214.907 61.022C217.371 61.022 219.109 62.716 219.109 65.136V72.066H216.293V65.576C216.293 64.256 215.347 63.332 214.049 63.332C212.531 63.332 211.409 64.476 211.409 66.126V72.066H208.593ZM221.806 72.066V61.286H224.05L224.402 62.848C225.216 61.682 226.558 61.022 228.12 61.022C230.584 61.022 232.322 62.716 232.322 65.136V72.066H229.506V65.576C229.506 64.256 228.56 63.332 227.262 63.332C225.744 63.332 224.622 64.476 224.622 66.126V72.066H221.806ZM234.381 66.676C234.381 63.354 236.647 61.022 239.903 61.022C242.961 61.022 245.095 63.244 245.095 66.478C245.095 66.786 245.073 67.094 245.051 67.38H237.197C237.395 69.096 238.759 70.24 240.607 70.24C241.531 70.24 242.587 69.954 243.709 69.338L244.567 71.252C243.049 72 241.531 72.33 240.255 72.33C236.779 72.33 234.381 69.998 234.381 66.676ZM239.903 63.112C238.451 63.112 237.373 64.146 237.197 65.686H242.389C242.301 64.146 241.311 63.112 239.903 63.112ZM247.136 72.066V61.286H249.38L249.732 62.958C250.348 61.792 251.514 61.11 252.922 61.11C253.296 61.11 253.78 61.154 254.22 61.264L253.956 63.508C253.582 63.42 253.12 63.354 252.702 63.354C251.03 63.354 249.952 64.652 249.952 66.5V72.066H247.136ZM255.416 64.278C255.416 62.386 257.132 61.022 259.618 61.022C260.872 61.022 262.214 61.286 263.578 61.77L262.962 63.794C261.884 63.376 260.806 63.112 259.838 63.112C258.826 63.112 258.166 63.574 258.166 64.278C258.166 66.236 263.93 64.806 263.93 68.986C263.93 70.944 262.17 72.33 259.618 72.33C258.298 72.33 256.846 72.044 255.328 71.472L255.922 69.47C257.176 69.976 258.364 70.24 259.398 70.24C260.476 70.24 261.158 69.734 261.158 68.986C261.158 66.94 255.416 68.37 255.416 64.278Z" fill="#004C97"/>
<path d="M196.392 96V87.488H193.272V85.248H202.424V87.488H199.32V96H196.392ZM201.87 92.048C201.87 89.6 203.742 87.888 206.382 87.888C209.038 87.888 210.894 89.6 210.894 92.048C210.894 94.48 209.038 96.192 206.382 96.192C203.742 96.192 201.87 94.48 201.87 92.048ZM204.75 92.048C204.75 93.2 205.422 94.016 206.382 94.016C207.342 94.016 208.03 93.2 208.03 92.048C208.03 90.88 207.342 90.064 206.382 90.064C205.422 90.064 204.75 90.88 204.75 92.048ZM220.384 88.08V96H218.144L217.792 95.136C217.168 95.824 216.256 96.192 215.2 96.192C213.344 96.192 212.032 94.928 212.032 93.088V88.08H214.848V92.624C214.848 93.376 215.376 93.904 216.112 93.904C216.96 93.904 217.568 93.264 217.568 92.336V88.08H220.384ZM221.651 92.048C221.651 89.616 223.475 87.888 226.051 87.888C227.171 87.888 228.275 88.208 229.299 88.848L228.179 90.72C227.603 90.352 227.059 90.128 226.451 90.128C225.315 90.128 224.531 90.912 224.531 92.048C224.531 93.184 225.315 93.952 226.451 93.952C227.059 93.952 227.603 93.728 228.179 93.36L229.299 95.248C228.275 95.872 227.171 96.192 226.051 96.192C223.475 96.192 221.651 94.464 221.651 92.048ZM230.191 96V84.736H233.007V88.768C233.615 88.208 234.431 87.888 235.375 87.888C237.247 87.888 238.543 89.168 238.543 90.992V96H235.727V91.456C235.727 90.72 235.199 90.192 234.479 90.192C233.615 90.192 233.007 90.832 233.007 91.76V96H230.191ZM242.654 88.928C242.654 89.872 241.966 90.592 240.99 90.592C239.998 90.592 239.326 89.792 239.326 88.656C239.326 87.168 240.174 85.792 241.662 84.88L242.478 85.952C241.95 86.4 241.55 86.896 241.326 87.376C242.126 87.504 242.654 88.112 242.654 88.928ZM243.832 96V88.08H246.072L246.424 88.944C247.048 88.272 247.96 87.888 249.016 87.888C250.888 87.888 252.184 89.168 252.184 90.992V96H249.368V91.456C249.368 90.72 248.84 90.192 248.12 90.192C247.256 90.192 246.648 90.832 246.648 91.76V96H243.832ZM263.659 89.712V95.248C262.235 95.84 260.843 96.192 259.339 96.192C255.819 96.192 253.339 93.888 253.339 90.624C253.339 87.36 255.771 85.056 259.211 85.056C260.587 85.056 262.011 85.44 263.419 86.192L262.363 88.144C261.339 87.616 260.475 87.296 259.563 87.296C257.579 87.296 256.203 88.672 256.203 90.624C256.203 92.624 257.579 93.952 259.563 93.952C260.075 93.952 260.539 93.872 260.971 93.712V91.84H258.827V89.712H263.659ZM264.901 92.048C264.901 89.6 266.773 87.888 269.413 87.888C272.069 87.888 273.925 89.6 273.925 92.048C273.925 94.48 272.069 96.192 269.413 96.192C266.773 96.192 264.901 94.48 264.901 92.048ZM267.781 92.048C267.781 93.2 268.453 94.016 269.413 94.016C270.373 94.016 271.061 93.2 271.061 92.048C271.061 90.88 270.373 90.064 269.413 90.064C268.453 90.064 267.781 90.88 267.781 92.048ZM193.432 108.048C193.432 105.6 195.192 103.888 197.704 103.888C200.072 103.888 201.72 105.536 201.72 107.92C201.72 108.208 201.704 108.496 201.672 108.768H196.248C196.456 109.6 197.256 110.128 198.312 110.128C198.952 110.128 199.704 109.904 200.504 109.488L201.336 111.376C200.136 111.936 198.952 112.192 197.96 112.192C195.272 112.192 193.432 110.48 193.432 108.048ZM197.704 105.952C196.968 105.952 196.408 106.416 196.248 107.12H199.016C198.92 106.416 198.408 105.952 197.704 105.952ZM218.463 101.248L215.071 112H212.223L210.255 104.768L208.303 112H205.455L202.047 101.248H204.975L206.943 108.48L208.911 101.248H211.615L213.567 108.48L215.535 101.248H218.463ZM217.885 109.616C217.885 107.92 219.261 106.944 221.565 106.944C221.981 106.944 222.461 106.992 222.925 107.072V107.008C222.925 106.4 222.349 105.952 221.549 105.952C220.765 105.952 219.885 106.16 218.989 106.528L218.285 104.592C219.565 104.112 220.765 103.888 221.901 103.888C224.077 103.888 225.501 105.168 225.501 107.072V109.68C225.501 109.92 225.661 110.08 225.901 110.08C226.029 110.08 226.157 110.064 226.269 110.048L226.445 112.064C226.045 112.144 225.597 112.192 225.117 112.192C224.333 112.192 223.709 111.856 223.357 111.28C222.621 111.872 221.661 112.192 220.797 112.192C219.085 112.192 217.885 111.136 217.885 109.616ZM220.525 109.44C220.525 109.904 220.957 110.256 221.549 110.256C222.349 110.256 222.925 109.696 222.925 108.928V108.64C222.605 108.576 222.269 108.528 221.917 108.528C221.085 108.528 220.525 108.88 220.525 109.44ZM229.945 100.736V109.328C229.945 109.712 230.201 109.952 230.585 109.952C230.777 109.952 231.017 109.92 231.241 109.888L231.529 112C230.953 112.128 230.377 112.192 229.881 112.192C228.185 112.192 227.129 111.184 227.129 109.616V100.736H229.945ZM235.023 100.736V109.328C235.023 109.712 235.279 109.952 235.663 109.952C235.855 109.952 236.095 109.92 236.319 109.888L236.607 112C236.031 112.128 235.455 112.192 234.959 112.192C233.263 112.192 232.207 111.184 232.207 109.616V100.736H235.023ZM236.885 108.048C236.885 105.6 238.645 103.888 241.157 103.888C243.525 103.888 245.173 105.536 245.173 107.92C245.173 108.208 245.157 108.496 245.125 108.768H239.701C239.909 109.6 240.709 110.128 241.765 110.128C242.405 110.128 243.157 109.904 243.957 109.488L244.789 111.376C243.589 111.936 242.405 112.192 241.413 112.192C238.725 112.192 236.885 110.48 236.885 108.048ZM241.157 105.952C240.421 105.952 239.861 106.416 239.701 107.12H242.469C242.373 106.416 241.861 105.952 241.157 105.952ZM249.713 101.776V104.08H251.601V106.208H249.713V109.104C249.713 109.632 250.049 109.952 250.561 109.952C250.833 109.952 251.153 109.92 251.489 109.856L251.841 111.936C251.137 112.112 250.497 112.192 249.873 112.192C248.097 112.192 246.897 111.072 246.897 109.392V106.208H245.569V104.08H246.897V101.776H249.713Z" fill="#0076CF"/>
<line x1="46" y1="130.5" x2="315" y2="130.5" stroke="#004C97"/>
<path d="M101.407 195V172.824H110.647C115.102 172.824 118.27 175.695 118.27 179.787C118.27 183.087 116.257 185.595 113.155 186.255L119.227 195H114.442L109.063 186.915H105.631V195H101.407ZM105.631 176.19V183.516H109.987C112.297 183.516 113.947 182.064 113.947 179.853C113.947 177.708 112.297 176.19 109.987 176.19H105.631ZM123.192 195V172.824H127.449L134.709 182.79L141.936 172.824H146.193V195H142.134V178.83L135.93 187.377H133.488L127.251 178.83V195H123.192ZM150.59 195V192.327L158.477 184.44C160.127 182.79 160.985 181.272 160.985 179.721C160.985 177.51 159.401 175.992 157.124 175.992C155.342 175.992 153.824 176.751 152.042 177.807L150.425 174.705C152.966 173.22 155.507 172.428 157.949 172.428C162.173 172.428 165.11 175.2 165.11 179.127C165.11 181.47 164.021 183.78 161.909 185.892L156.2 191.634H165.374V195H150.59ZM169.009 183.912C169.009 176.784 172.111 172.428 177.49 172.428C182.869 172.428 185.971 176.784 185.971 183.912C185.971 191.04 182.869 195.396 177.49 195.396C172.111 195.396 169.009 191.04 169.009 183.912ZM172.969 183.912C172.969 188.895 174.685 191.931 177.49 191.931C180.295 191.931 182.011 188.895 182.011 183.912C182.011 178.929 180.295 175.893 177.49 175.893C174.685 175.893 172.969 178.929 172.969 183.912Z" fill="#0076CF"/>
<path d="M92.5846 151.226C92.5846 148.946 94.6246 147.386 97.5646 147.386C99.0246 147.386 100.525 147.706 102.145 148.326L101.545 150.306C100.185 149.766 98.9046 149.486 97.7646 149.486C96.2046 149.486 95.2046 150.166 95.2046 151.226C95.2046 154.106 102.625 152.226 102.625 157.386C102.625 159.726 100.565 161.306 97.5646 161.306C96.0246 161.306 94.3246 160.966 92.5046 160.206L93.1046 158.226C94.6646 158.826 96.1446 159.206 97.3646 159.206C99.0046 159.206 100.025 158.506 100.025 157.386C100.025 154.426 92.5846 156.266 92.5846 151.226ZM104.162 156.166C104.162 153.146 106.222 151.026 109.182 151.026C111.962 151.026 113.902 153.046 113.902 155.986C113.902 156.266 113.882 156.546 113.862 156.806H106.722C106.902 158.366 108.142 159.406 109.822 159.406C110.662 159.406 111.622 159.146 112.642 158.586L113.422 160.326C112.042 161.006 110.662 161.306 109.502 161.306C106.342 161.306 104.162 159.186 104.162 156.166ZM109.182 152.926C107.862 152.926 106.882 153.866 106.722 155.266H111.442C111.362 153.866 110.462 152.926 109.182 152.926ZM115.178 156.166C115.178 153.146 117.318 151.026 120.358 151.026C121.658 151.026 122.938 151.406 124.118 152.166L123.078 153.886C122.318 153.366 121.538 153.066 120.718 153.066C118.998 153.066 117.778 154.346 117.778 156.166C117.778 157.986 118.998 159.266 120.718 159.266C121.538 159.266 122.318 158.946 123.078 158.426L124.118 160.166C122.938 160.926 121.658 161.306 120.358 161.306C117.318 161.306 115.178 159.166 115.178 156.166ZM124.944 156.166C124.944 153.146 127.124 151.026 130.224 151.026C133.344 151.026 135.524 153.146 135.524 156.166C135.524 159.186 133.344 161.306 130.224 161.306C127.124 161.306 124.944 159.186 124.944 156.166ZM127.544 156.166C127.544 158.006 128.664 159.306 130.224 159.306C131.804 159.306 132.924 158.006 132.924 156.166C132.924 154.306 131.804 153.026 130.224 153.026C128.664 153.026 127.544 154.306 127.544 156.166ZM137.535 161.066V151.266H139.575L139.895 152.686C140.635 151.626 141.855 151.026 143.275 151.026C145.515 151.026 147.095 152.566 147.095 154.766V161.066H144.535V155.166C144.535 153.966 143.675 153.126 142.495 153.126C141.115 153.126 140.095 154.166 140.095 155.666V161.066H137.535ZM158.947 146.986V161.066H156.907L156.587 159.806C155.867 160.766 154.767 161.306 153.447 161.306C150.827 161.306 148.967 159.186 148.967 156.166C148.967 153.146 150.827 151.026 153.447 151.026C154.667 151.026 155.687 151.506 156.387 152.366V146.986H158.947ZM151.567 156.166C151.567 157.986 152.627 159.286 154.107 159.286C155.487 159.286 156.447 158.246 156.447 156.826V155.506C156.447 154.066 155.487 153.046 154.107 153.046C152.627 153.046 151.567 154.326 151.567 156.166ZM174.743 147.626V149.666H169.203V152.906C169.683 152.826 170.183 152.806 170.603 152.806C173.423 152.806 175.223 154.446 175.223 157.006C175.223 159.506 173.203 161.306 170.303 161.306C168.823 161.306 167.343 160.866 166.043 160.086L167.023 158.206C168.083 158.846 169.143 159.206 170.103 159.206C171.703 159.206 172.723 158.326 172.723 156.946C172.723 155.486 171.643 154.586 169.783 154.586C168.963 154.586 168.023 154.706 166.963 154.946V147.626H174.743ZM177.207 154.346C177.207 150.026 179.087 147.386 182.347 147.386C185.607 147.386 187.487 150.026 187.487 154.346C187.487 158.666 185.607 161.306 182.347 161.306C179.087 161.306 177.207 158.666 177.207 154.346ZM179.607 154.346C179.607 157.366 180.647 159.206 182.347 159.206C184.047 159.206 185.087 157.366 185.087 154.346C185.087 151.326 184.047 149.486 182.347 149.486C180.647 149.486 179.607 151.326 179.607 154.346ZM212.623 147.626L208.343 161.066H205.743L202.783 150.846L199.803 161.066H197.203L192.923 147.626H195.603L198.563 157.846L201.543 147.626H204.023L206.983 157.846L209.963 147.626H212.623ZM214.235 161.066V151.266H216.795V161.066H214.235ZM213.995 148.466C213.995 147.566 214.635 146.926 215.515 146.926C216.415 146.926 217.055 147.566 217.055 148.466C217.055 149.366 216.415 150.006 215.515 150.006C214.635 150.006 213.995 149.366 213.995 148.466ZM219.41 161.066V151.266H221.45L221.77 152.686C222.51 151.626 223.73 151.026 225.15 151.026C227.39 151.026 228.97 152.566 228.97 154.766V161.066H226.41V155.166C226.41 153.966 225.55 153.126 224.37 153.126C222.99 153.126 221.97 154.166 221.97 155.666V161.066H219.41ZM231.422 161.066V151.266H233.462L233.782 152.686C234.522 151.626 235.742 151.026 237.162 151.026C239.402 151.026 240.982 152.566 240.982 154.766V161.066H238.422V155.166C238.422 153.966 237.562 153.126 236.382 153.126C235.002 153.126 233.982 154.166 233.982 155.666V161.066H231.422ZM242.854 156.166C242.854 153.146 244.914 151.026 247.874 151.026C250.654 151.026 252.594 153.046 252.594 155.986C252.594 156.266 252.574 156.546 252.554 156.806H245.414C245.594 158.366 246.834 159.406 248.514 159.406C249.354 159.406 250.314 159.146 251.334 158.586L252.114 160.326C250.734 161.006 249.354 161.306 248.194 161.306C245.034 161.306 242.854 159.186 242.854 156.166ZM247.874 152.926C246.554 152.926 245.574 153.866 245.414 155.266H250.134C250.054 153.866 249.154 152.926 247.874 152.926ZM254.449 161.066V151.266H256.489L256.809 152.786C257.369 151.726 258.429 151.106 259.709 151.106C260.049 151.106 260.489 151.146 260.889 151.246L260.649 153.286C260.309 153.206 259.889 153.146 259.509 153.146C257.989 153.146 257.009 154.326 257.009 156.006V161.066H254.449ZM261.977 153.986C261.977 152.266 263.537 151.026 265.797 151.026C266.937 151.026 268.157 151.266 269.397 151.706L268.837 153.546C267.857 153.166 266.877 152.926 265.997 152.926C265.077 152.926 264.477 153.346 264.477 153.986C264.477 155.766 269.717 154.466 269.717 158.266C269.717 160.046 268.117 161.306 265.797 161.306C264.597 161.306 263.277 161.046 261.897 160.526L262.437 158.706C263.577 159.166 264.657 159.406 265.597 159.406C266.577 159.406 267.197 158.946 267.197 158.266C267.197 156.406 261.977 157.706 261.977 153.986Z" fill="#004C97"/>
<path d="M194.29 182V174.02H191.308V172.592H199.12V174.02H196.152V182H194.29ZM198.805 178.57C198.805 176.456 200.331 174.972 202.501 174.972C204.685 174.972 206.211 176.456 206.211 178.57C206.211 180.684 204.685 182.168 202.501 182.168C200.331 182.168 198.805 180.684 198.805 178.57ZM200.625 178.57C200.625 179.858 201.409 180.768 202.501 180.768C203.607 180.768 204.391 179.858 204.391 178.57C204.391 177.268 203.607 176.372 202.501 176.372C201.409 176.372 200.625 177.268 200.625 178.57ZM214.199 175.14V182H212.771L212.547 181.006C212.043 181.748 211.189 182.168 210.195 182.168C208.627 182.168 207.507 181.09 207.507 179.55V175.14H209.299V179.256C209.299 180.11 209.901 180.698 210.741 180.698C211.707 180.698 212.407 179.97 212.407 178.92V175.14H214.199ZM215.621 178.57C215.621 176.456 217.119 174.972 219.247 174.972C220.157 174.972 221.053 175.238 221.879 175.77L221.151 176.974C220.619 176.61 220.073 176.4 219.499 176.4C218.295 176.4 217.441 177.296 217.441 178.57C217.441 179.844 218.295 180.74 219.499 180.74C220.073 180.74 220.619 180.516 221.151 180.152L221.879 181.37C221.053 181.902 220.157 182.168 219.247 182.168C217.119 182.168 215.621 180.67 215.621 178.57ZM223.027 182V172.144H224.819V176.022C225.309 175.35 226.121 174.972 227.045 174.972C228.613 174.972 229.719 176.05 229.719 177.59V182H227.927V177.87C227.927 177.03 227.325 176.442 226.499 176.442C225.533 176.442 224.819 177.17 224.819 178.22V182H223.027ZM233.042 175.546C233.042 176.19 232.58 176.666 231.922 176.666C231.236 176.666 230.774 176.106 230.774 175.28C230.774 174.118 231.432 173.04 232.566 172.34L233.112 173.04C232.552 173.488 232.216 173.978 232.09 174.51C232.65 174.566 233.042 174.986 233.042 175.546ZM234.471 182V175.14H235.899L236.123 176.134C236.641 175.392 237.495 174.972 238.489 174.972C240.057 174.972 241.163 176.05 241.163 177.59V182H239.371V177.87C239.371 177.03 238.769 176.442 237.943 176.442C236.977 176.442 236.263 177.17 236.263 178.22V182H234.471ZM251.125 176.806V181.37C249.949 181.874 248.787 182.168 247.569 182.168C244.587 182.168 242.515 180.152 242.515 177.296C242.515 174.44 244.545 172.424 247.457 172.424C248.605 172.424 249.781 172.76 250.943 173.39L250.257 174.636C249.333 174.146 248.507 173.852 247.667 173.852C245.693 173.852 244.335 175.28 244.335 177.296C244.335 179.34 245.721 180.74 247.709 180.74C248.311 180.74 248.885 180.614 249.403 180.39V178.178H247.289V176.806H251.125ZM252.453 178.57C252.453 176.456 253.979 174.972 256.149 174.972C258.333 174.972 259.859 176.456 259.859 178.57C259.859 180.684 258.333 182.168 256.149 182.168C253.979 182.168 252.453 180.684 252.453 178.57ZM254.273 178.57C254.273 179.858 255.057 180.768 256.149 180.768C257.255 180.768 258.039 179.858 258.039 178.57C258.039 177.268 257.255 176.372 256.149 176.372C255.057 176.372 254.273 177.268 254.273 178.57ZM191.504 192.57C191.504 190.456 192.946 188.972 195.018 188.972C196.964 188.972 198.322 190.386 198.322 192.444C198.322 192.64 198.308 192.836 198.294 193.018H193.296C193.422 194.11 194.29 194.838 195.466 194.838C196.054 194.838 196.726 194.656 197.44 194.264L197.986 195.482C197.02 195.958 196.054 196.168 195.242 196.168C193.03 196.168 191.504 194.684 191.504 192.57ZM195.018 190.302C194.094 190.302 193.408 190.96 193.296 191.94H196.6C196.544 190.96 195.914 190.302 195.018 190.302ZM212.725 186.592L209.729 196H207.909L205.837 188.846L203.751 196H201.931L198.935 186.592H200.811L202.883 193.746L204.969 186.592H206.705L208.777 193.746L210.863 186.592H212.725ZM212.545 194.012C212.545 192.57 213.721 191.73 215.709 191.73C216.129 191.73 216.591 191.772 217.039 191.87V191.506C217.039 190.806 216.479 190.302 215.625 190.302C214.925 190.302 214.169 190.47 213.371 190.792L212.923 189.546C213.945 189.154 214.911 188.972 215.835 188.972C217.571 188.972 218.719 190.008 218.719 191.534V194.32C218.719 194.614 218.901 194.81 219.195 194.81C219.335 194.81 219.489 194.782 219.545 194.768L219.671 196.07C219.377 196.126 219.055 196.168 218.719 196.168C218.019 196.168 217.487 195.818 217.249 195.244C216.661 195.832 215.835 196.168 214.995 196.168C213.567 196.168 212.545 195.272 212.545 194.012ZM214.267 193.914C214.267 194.474 214.785 194.908 215.457 194.908C216.409 194.908 217.039 194.25 217.039 193.312V192.906C216.675 192.808 216.297 192.766 215.919 192.766C214.897 192.766 214.267 193.2 214.267 193.914ZM222.29 186.144V194.04C222.29 194.474 222.57 194.74 222.99 194.74C223.158 194.74 223.382 194.698 223.606 194.656L223.802 196.014C223.354 196.112 222.92 196.168 222.556 196.168C221.296 196.168 220.498 195.412 220.498 194.222V186.144H222.29ZM226.419 186.144V194.04C226.419 194.474 226.699 194.74 227.119 194.74C227.287 194.74 227.511 194.698 227.735 194.656L227.931 196.014C227.483 196.112 227.049 196.168 226.685 196.168C225.425 196.168 224.627 195.412 224.627 194.222V186.144H226.419ZM228.35 192.57C228.35 190.456 229.792 188.972 231.864 188.972C233.81 188.972 235.168 190.386 235.168 192.444C235.168 192.64 235.154 192.836 235.14 193.018H230.142C230.268 194.11 231.136 194.838 232.312 194.838C232.9 194.838 233.572 194.656 234.286 194.264L234.832 195.482C233.866 195.958 232.9 196.168 232.088 196.168C229.876 196.168 228.35 194.684 228.35 192.57ZM231.864 190.302C230.94 190.302 230.254 190.96 230.142 191.94H233.446C233.39 190.96 232.76 190.302 231.864 190.302ZM238.767 187.124V189.14H240.671V190.498H238.767V193.774C238.767 194.348 239.159 194.74 239.733 194.74C239.999 194.74 240.293 194.698 240.615 194.614L240.853 195.958C240.307 196.098 239.789 196.168 239.299 196.168C237.927 196.168 236.975 195.272 236.975 193.956V190.498H235.701V189.14H236.975V187.124H238.767Z" fill="#0076CF"/>
<line x1="46" y1="214.5" x2="315" y2="214.5" stroke="#004C97"/>
<path d="M113.375 273V254.184H121.215C124.995 254.184 127.683 256.62 127.683 260.092C127.683 262.892 125.975 265.02 123.343 265.58L128.495 273H124.435L119.871 266.14H116.959V273H113.375ZM116.959 257.04V263.256H120.655C122.615 263.256 124.015 262.024 124.015 260.148C124.015 258.328 122.615 257.04 120.655 257.04H116.959ZM131.86 273V254.184H135.472L141.632 262.64L147.764 254.184H151.376V273H147.932V259.28L142.668 266.532H140.596L135.304 259.28V273H131.86ZM161.434 273V257.656L157.122 260.12L155.89 257.712L162.022 254.184H165.018V273H161.434ZM170.735 263.592C170.735 257.544 173.367 253.848 177.931 253.848C182.495 253.848 185.127 257.544 185.127 263.592C185.127 269.64 182.495 273.336 177.931 273.336C173.367 273.336 170.735 269.64 170.735 263.592ZM174.095 263.592C174.095 267.82 175.551 270.396 177.931 270.396C180.311 270.396 181.767 267.82 181.767 263.592C181.767 259.364 180.311 256.788 177.931 256.788C175.551 256.788 174.095 259.364 174.095 263.592Z" fill="#0076CF"/>
<path d="M109.993 243.066V229.626H111.633V241.766H118.153V243.066H109.993ZM119.869 240.386C119.869 238.346 121.549 237.166 124.309 237.166C124.989 237.166 125.729 237.246 126.489 237.446V236.446C126.489 235.206 125.529 234.326 124.109 234.326C123.069 234.326 122.009 234.566 120.889 235.046L120.449 233.886C121.809 233.366 123.049 233.106 124.289 233.106C126.489 233.106 128.009 234.466 128.009 236.486V241.186C128.009 241.726 128.329 242.066 128.889 242.066C129.049 242.066 129.289 242.026 129.409 242.006L129.529 243.206C129.209 243.266 128.849 243.306 128.489 243.306C127.429 243.306 126.749 242.686 126.629 241.686C125.849 242.706 124.589 243.306 123.249 243.306C121.329 243.306 119.869 242.046 119.869 240.386ZM121.429 240.286C121.429 241.346 122.369 242.146 123.629 242.146C125.309 242.146 126.489 240.946 126.489 239.226V238.406C125.809 238.246 125.149 238.166 124.489 238.166C122.569 238.166 121.429 238.966 121.429 240.286ZM130.691 235.826C130.691 234.246 132.151 233.106 134.231 233.106C135.251 233.106 136.371 233.326 137.511 233.786L137.151 234.966C136.151 234.546 135.191 234.326 134.351 234.326C133.091 234.326 132.271 234.926 132.271 235.826C132.271 238.226 137.831 236.786 137.831 240.506C137.831 242.146 136.371 243.306 134.231 243.306C133.111 243.306 131.891 243.066 130.611 242.566L130.991 241.386C132.111 241.846 133.171 242.086 134.111 242.086C135.411 242.086 136.271 241.446 136.271 240.506C136.271 238.046 130.691 239.466 130.691 235.826ZM142.601 230.466V233.346H145.661V234.606H142.601V240.326C142.601 241.326 143.281 242.006 144.281 242.006C144.701 242.006 145.161 241.926 145.661 241.806L145.881 243.046C145.201 243.226 144.561 243.306 143.941 243.306C142.201 243.306 141.021 242.146 141.021 240.466V234.606H139.001V233.346H141.021V230.466H142.601ZM160.521 229.626V230.926H154.541V235.226C155.221 235.086 155.921 235.006 156.501 235.006C159.281 235.006 161.001 236.646 161.001 239.126C161.001 241.566 159.121 243.306 156.321 243.306C154.921 243.306 153.521 242.886 152.261 242.126L152.881 240.926C153.981 241.606 155.121 241.966 156.201 241.966C158.161 241.966 159.421 240.826 159.421 239.106C159.421 237.306 158.181 236.186 156.041 236.186C155.181 236.186 154.241 236.286 153.101 236.546V229.626H160.521ZM163.344 236.346C163.344 232.066 165.244 229.386 168.284 229.386C171.324 229.386 173.224 232.066 173.224 236.346C173.224 240.626 171.324 243.306 168.284 243.306C165.244 243.306 163.344 240.626 163.344 236.346ZM164.864 236.346C164.864 239.786 166.184 241.966 168.284 241.966C170.384 241.966 171.704 239.786 171.704 236.346C171.704 232.886 170.384 230.726 168.284 230.726C166.184 230.726 164.864 232.886 164.864 236.346ZM198.04 229.626L193.74 243.066H192.1L188.6 231.666L185.12 243.066H183.48L179.18 229.626H180.84L184.34 241.026L187.82 229.626H189.38L192.88 241.026L196.36 229.626H198.04ZM200.257 243.066V233.346H201.837V243.066H200.257ZM199.977 230.386C199.977 229.766 200.417 229.326 201.057 229.326C201.677 229.326 202.117 229.766 202.117 230.386C202.117 231.006 201.677 231.446 201.057 231.446C200.417 231.446 199.977 231.006 199.977 230.386ZM205.003 243.066V233.346H206.283L206.483 235.126C207.143 233.846 208.443 233.106 209.983 233.106C212.143 233.106 213.683 234.586 213.683 236.726V243.066H212.083V236.966C212.083 235.486 211.023 234.446 209.523 234.446C207.843 234.446 206.583 235.726 206.583 237.586V243.066H205.003ZM216.663 243.066V233.346H217.943L218.143 235.126C218.803 233.846 220.103 233.106 221.643 233.106C223.803 233.106 225.343 234.586 225.343 236.726V243.066H223.743V236.966C223.743 235.486 222.683 234.446 221.183 234.446C219.503 234.446 218.243 235.726 218.243 237.586V243.066H216.663ZM227.623 238.206C227.623 235.206 229.583 233.106 232.363 233.106C234.963 233.106 236.763 235.126 236.763 238.026C236.763 238.226 236.763 238.406 236.743 238.606H229.223C229.363 240.666 230.803 242.086 232.843 242.086C233.723 242.086 234.743 241.826 235.783 241.266L236.283 242.366C235.003 243.006 233.763 243.306 232.683 243.306C229.723 243.306 227.623 241.206 227.623 238.206ZM232.363 234.326C230.623 234.326 229.383 235.626 229.223 237.586H235.223C235.163 235.666 234.003 234.326 232.363 234.326ZM239.065 243.066V233.346H240.345L240.545 235.186C241.025 233.946 242.165 233.186 243.565 233.186C243.925 233.186 244.365 233.246 244.785 233.346L244.605 234.646C244.225 234.566 243.825 234.506 243.445 234.506C241.785 234.506 240.645 235.846 240.645 237.806V243.066H239.065ZM246.102 235.826C246.102 234.246 247.562 233.106 249.642 233.106C250.662 233.106 251.782 233.326 252.922 233.786L252.562 234.966C251.562 234.546 250.602 234.326 249.762 234.326C248.502 234.326 247.682 234.926 247.682 235.826C247.682 238.226 253.242 236.786 253.242 240.506C253.242 242.146 251.782 243.306 249.642 243.306C248.522 243.306 247.302 243.066 246.022 242.566L246.402 241.386C247.522 241.846 248.582 242.086 249.522 242.086C250.822 242.086 251.682 241.446 251.682 240.506C251.682 238.046 246.102 239.466 246.102 235.826Z" fill="#004C97"/>
<path d="M192.82 262V255.16H190.264V253.936H196.96V255.16H194.416V262H192.82ZM196.69 259.06C196.69 257.248 197.998 255.976 199.858 255.976C201.73 255.976 203.038 257.248 203.038 259.06C203.038 260.872 201.73 262.144 199.858 262.144C197.998 262.144 196.69 260.872 196.69 259.06ZM198.25 259.06C198.25 260.164 198.922 260.944 199.858 260.944C200.806 260.944 201.478 260.164 201.478 259.06C201.478 257.944 200.806 257.176 199.858 257.176C198.922 257.176 198.25 257.944 198.25 259.06ZM209.885 256.12V262H208.661L208.469 261.148C208.037 261.784 207.305 262.144 206.453 262.144C205.109 262.144 204.149 261.22 204.149 259.9V256.12H205.685V259.648C205.685 260.38 206.201 260.884 206.921 260.884C207.749 260.884 208.349 260.26 208.349 259.36V256.12H209.885ZM211.104 259.06C211.104 257.248 212.388 255.976 214.212 255.976C214.992 255.976 215.76 256.204 216.468 256.66L215.844 257.692C215.388 257.38 214.92 257.2 214.428 257.2C213.396 257.2 212.664 257.968 212.664 259.06C212.664 260.152 213.396 260.92 214.428 260.92C214.92 260.92 215.388 260.728 215.844 260.416L216.468 261.46C215.76 261.916 214.992 262.144 214.212 262.144C212.388 262.144 211.104 260.86 211.104 259.06ZM217.452 262V253.552H218.988V256.876C219.408 256.3 220.104 255.976 220.896 255.976C222.24 255.976 223.188 256.9 223.188 258.22V262H221.652V258.46C221.652 257.74 221.136 257.236 220.428 257.236C219.6 257.236 218.988 257.86 218.988 258.76V262H217.452ZM226.036 256.468C226.036 257.02 225.64 257.428 225.076 257.428C224.488 257.428 224.092 256.948 224.092 256.24C224.092 255.244 224.656 254.32 225.628 253.72L226.096 254.32C225.616 254.704 225.328 255.124 225.22 255.58C225.7 255.628 226.036 255.988 226.036 256.468ZM227.26 262V256.12H228.484L228.676 256.972C229.12 256.336 229.852 255.976 230.704 255.976C232.048 255.976 232.996 256.9 232.996 258.22V262H231.46V258.46C231.46 257.74 230.944 257.236 230.236 257.236C229.408 257.236 228.796 257.86 228.796 258.76V262H227.26ZM241.536 257.548V261.46C240.528 261.892 239.532 262.144 238.488 262.144C235.932 262.144 234.156 260.416 234.156 257.968C234.156 255.52 235.896 253.792 238.392 253.792C239.376 253.792 240.384 254.08 241.38 254.62L240.792 255.688C240 255.268 239.292 255.016 238.572 255.016C236.88 255.016 235.716 256.24 235.716 257.968C235.716 259.72 236.904 260.92 238.608 260.92C239.124 260.92 239.616 260.812 240.06 260.62V258.724H238.248V257.548H241.536ZM242.674 259.06C242.674 257.248 243.982 255.976 245.842 255.976C247.714 255.976 249.022 257.248 249.022 259.06C249.022 260.872 247.714 262.144 245.842 262.144C243.982 262.144 242.674 260.872 242.674 259.06ZM244.234 259.06C244.234 260.164 244.906 260.944 245.842 260.944C246.79 260.944 247.462 260.164 247.462 259.06C247.462 257.944 246.79 257.176 245.842 257.176C244.906 257.176 244.234 257.944 244.234 259.06ZM190.432 271.06C190.432 269.248 191.668 267.976 193.444 267.976C195.112 267.976 196.276 269.188 196.276 270.952C196.276 271.12 196.264 271.288 196.252 271.444H191.968C192.076 272.38 192.82 273.004 193.828 273.004C194.332 273.004 194.908 272.848 195.52 272.512L195.988 273.556C195.16 273.964 194.332 274.144 193.636 274.144C191.74 274.144 190.432 272.872 190.432 271.06ZM193.444 269.116C192.652 269.116 192.064 269.68 191.968 270.52H194.8C194.752 269.68 194.212 269.116 193.444 269.116ZM208.621 265.936L206.053 274H204.493L202.717 267.868L200.929 274H199.369L196.801 265.936H198.409L200.185 272.068L201.973 265.936H203.461L205.237 272.068L207.025 265.936H208.621ZM208.467 272.296C208.467 271.06 209.475 270.34 211.179 270.34C211.539 270.34 211.935 270.376 212.319 270.46V270.148C212.319 269.548 211.839 269.116 211.107 269.116C210.507 269.116 209.859 269.26 209.175 269.536L208.791 268.468C209.667 268.132 210.495 267.976 211.287 267.976C212.775 267.976 213.759 268.864 213.759 270.172V272.56C213.759 272.812 213.915 272.98 214.167 272.98C214.287 272.98 214.419 272.956 214.467 272.944L214.575 274.06C214.323 274.108 214.047 274.144 213.759 274.144C213.159 274.144 212.703 273.844 212.499 273.352C211.995 273.856 211.287 274.144 210.567 274.144C209.343 274.144 208.467 273.376 208.467 272.296ZM209.943 272.212C209.943 272.692 210.387 273.064 210.963 273.064C211.779 273.064 212.319 272.5 212.319 271.696V271.348C212.007 271.264 211.683 271.228 211.359 271.228C210.483 271.228 209.943 271.6 209.943 272.212ZM216.82 265.552V272.32C216.82 272.692 217.06 272.92 217.42 272.92C217.564 272.92 217.756 272.884 217.948 272.848L218.116 274.012C217.732 274.096 217.36 274.144 217.048 274.144C215.968 274.144 215.284 273.496 215.284 272.476V265.552H216.82ZM220.359 265.552V272.32C220.359 272.692 220.599 272.92 220.959 272.92C221.103 272.92 221.295 272.884 221.487 272.848L221.655 274.012C221.271 274.096 220.899 274.144 220.587 274.144C219.507 274.144 218.823 273.496 218.823 272.476V265.552H220.359ZM222.014 271.06C222.014 269.248 223.25 267.976 225.026 267.976C226.694 267.976 227.858 269.188 227.858 270.952C227.858 271.12 227.846 271.288 227.834 271.444H223.55C223.658 272.38 224.402 273.004 225.41 273.004C225.914 273.004 226.49 272.848 227.102 272.512L227.57 273.556C226.742 273.964 225.914 274.144 225.218 274.144C223.322 274.144 222.014 272.872 222.014 271.06ZM225.026 269.116C224.234 269.116 223.646 269.68 223.55 270.52H226.382C226.334 269.68 225.794 269.116 225.026 269.116ZM230.943 266.392V268.12H232.575V269.284H230.943V272.092C230.943 272.584 231.279 272.92 231.771 272.92C231.999 272.92 232.251 272.884 232.527 272.812L232.731 273.964C232.263 274.084 231.819 274.144 231.399 274.144C230.223 274.144 229.407 273.376 229.407 272.248V269.284H228.315V268.12H229.407V266.392H230.943Z" fill="#0076CF"/>
<defs>
<filter id="filter0_i_2102_4745" x="21" y="27" width="321" height="270" filterUnits="userSpaceOnUse" color-interpolation-filters="sRGB">
<feFlood flood-opacity="0" result="BackgroundImageFix"/>
<feBlend mode="normal" in="SourceGraphic" in2="BackgroundImageFix" result="shape"/>
<feColorMatrix in="SourceAlpha" type="matrix" values="0 0 0 0 0 0 0 0 0 0 0 0 0 0 0 0 0 0 127 0" result="hardAlpha"/>
<feOffset dx="1" dy="1"/>
<feGaussianBlur stdDeviation="5"/>
<feComposite in2="hardAlpha" operator="arithmetic" k2="-1" k3="1"/>
<feColorMatrix type="matrix" values="0 0 0 0 0 0 0 0 0 0.180773 0 0 0 0 0.359167 0 0 0 0.5 0"/>
<feBlend mode="normal" in2="shape" result="effect1_innerShadow_2102_4745"/>
</filter>
<filter id="filter1_dd_2102_4745" x="0" y="248" width="27" height="27" filterUnits="userSpaceOnUse" color-interpolation-filters="sRGB">
<feFlood flood-opacity="0" result="BackgroundImageFix"/>
<feColorMatrix in="SourceAlpha" type="matrix" values="0 0 0 0 0 0 0 0 0 0 0 0 0 0 0 0 0 0 127 0" result="hardAlpha"/>
<feOffset/>
<feGaussianBlur stdDeviation="5"/>
<feComposite in2="hardAlpha" operator="out"/>
<feColorMatrix type="matrix" values="0 0 0 0 0.964706 0 0 0 0 1 0 0 0 0 0.8 0 0 0 1 0"/>
<feBlend mode="normal" in2="BackgroundImageFix" result="effect1_dropShadow_2102_4745"/>
<feColorMatrix in="SourceAlpha" type="matrix" values="0 0 0 0 0 0 0 0 0 0 0 0 0 0 0 0 0 0 127 0" result="hardAlpha"/>
<feOffset/>
<feGaussianBlur stdDeviation="1.5"/>
<feComposite in2="hardAlpha" operator="out"/>
<feColorMatrix type="matrix" values="0 0 0 0 0.964706 0 0 0 0 1 0 0 0 0 0.8 0 0 0 1 0"/>
<feBlend mode="normal" in2="effect1_dropShadow_2102_4745" result="effect2_dropShadow_2102_4745"/>
<feBlend mode="normal" in="SourceGraphic" in2="effect2_dropShadow_2102_4745" result="shape"/>
</filter>
<filter id="filter2_dd_2102_4745" x="0" y="198.5" width="27" height="27" filterUnits="userSpaceOnUse" color-interpolation-filters="sRGB">
<feFlood flood-opacity="0" result="BackgroundImageFix"/>
<feColorMatrix in="SourceAlpha" type="matrix" values="0 0 0 0 0 0 0 0 0 0 0 0 0 0 0 0 0 0 127 0" result="hardAlpha"/>
<feOffset/>
<feGaussianBlur stdDeviation="5"/>
<feComposite in2="hardAlpha" operator="out"/>
<feColorMatrix type="matrix" values="0 0 0 0 0.964706 0 0 0 0 1 0 0 0 0 0.8 0 0 0 1 0"/>
<feBlend mode="normal" in2="BackgroundImageFix" result="effect1_dropShadow_2102_4745"/>
<feColorMatrix in="SourceAlpha" type="matrix" values="0 0 0 0 0 0 0 0 0 0 0 0 0 0 0 0 0 0 127 0" result="hardAlpha"/>
<feOffset/>
<feGaussianBlur stdDeviation="1.5"/>
<feComposite in2="hardAlpha" operator="out"/>
<feColorMatrix type="matrix" values="0 0 0 0 0.964706 0 0 0 0 1 0 0 0 0 0.8 0 0 0 1 0"/>
<feBlend mode="normal" in2="effect1_dropShadow_2102_4745" result="effect2_dropShadow_2102_4745"/>
<feBlend mode="normal" in="SourceGraphic" in2="effect2_dropShadow_2102_4745" result="shape"/>
</filter>
<filter id="filter3_dd_2102_4745" x="0" y="149" width="27" height="27" filterUnits="userSpaceOnUse" color-interpolation-filters="sRGB">
<feFlood flood-opacity="0" result="BackgroundImageFix"/>
<feColorMatrix in="SourceAlpha" type="matrix" values="0 0 0 0 0 0 0 0 0 0 0 0 0 0 0 0 0 0 127 0" result="hardAlpha"/>
<feOffset/>
<feGaussianBlur stdDeviation="5"/>
<feComposite in2="hardAlpha" operator="out"/>
<feColorMatrix type="matrix" values="0 0 0 0 0.964706 0 0 0 0 1 0 0 0 0 0.8 0 0 0 1 0"/>
<feBlend mode="normal" in2="BackgroundImageFix" result="effect1_dropShadow_2102_4745"/>
<feColorMatrix in="SourceAlpha" type="matrix" values="0 0 0 0 0 0 0 0 0 0 0 0 0 0 0 0 0 0 127 0" result="hardAlpha"/>
<feOffset/>
<feGaussianBlur stdDeviation="1.5"/>
<feComposite in2="hardAlpha" operator="out"/>
<feColorMatrix type="matrix" values="0 0 0 0 0.964706 0 0 0 0 1 0 0 0 0 0.8 0 0 0 1 0"/>
<feBlend mode="normal" in2="effect1_dropShadow_2102_4745" result="effect2_dropShadow_2102_4745"/>
<feBlend mode="normal" in="SourceGraphic" in2="effect2_dropShadow_2102_4745" result="shape"/>
</filter>
<filter id="filter4_dd_2102_4745" x="0" y="99.5" width="27" height="27" filterUnits="userSpaceOnUse" color-interpolation-filters="sRGB">
<feFlood flood-opacity="0" result="BackgroundImageFix"/>
<feColorMatrix in="SourceAlpha" type="matrix" values="0 0 0 0 0 0 0 0 0 0 0 0 0 0 0 0 0 0 127 0" result="hardAlpha"/>
<feOffset/>
<feGaussianBlur stdDeviation="5"/>
<feComposite in2="hardAlpha" operator="out"/>
<feColorMatrix type="matrix" values="0 0 0 0 0.964706 0 0 0 0 1 0 0 0 0 0.8 0 0 0 1 0"/>
<feBlend mode="normal" in2="BackgroundImageFix" result="effect1_dropShadow_2102_4745"/>
<feColorMatrix in="SourceAlpha" type="matrix" values="0 0 0 0 0 0 0 0 0 0 0 0 0 0 0 0 0 0 127 0" result="hardAlpha"/>
<feOffset/>
<feGaussianBlur stdDeviation="1.5"/>
<feComposite in2="hardAlpha" operator="out"/>
<feColorMatrix type="matrix" values="0 0 0 0 0.964706 0 0 0 0 1 0 0 0 0 0.8 0 0 0 1 0"/>
<feBlend mode="normal" in2="effect1_dropShadow_2102_4745" result="effect2_dropShadow_2102_4745"/>
<feBlend mode="normal" in="SourceGraphic" in2="effect2_dropShadow_2102_4745" result="shape"/>
</filter>
<filter id="filter5_dd_2102_4745" x="0" y="50" width="27" height="27" filterUnits="userSpaceOnUse" color-interpolation-filters="sRGB">
<feFlood flood-opacity="0" result="BackgroundImageFix"/>
<feColorMatrix in="SourceAlpha" type="matrix" values="0 0 0 0 0 0 0 0 0 0 0 0 0 0 0 0 0 0 127 0" result="hardAlpha"/>
<feOffset/>
<feGaussianBlur stdDeviation="5"/>
<feComposite in2="hardAlpha" operator="out"/>
<feColorMatrix type="matrix" values="0 0 0 0 0.964706 0 0 0 0 1 0 0 0 0 0.8 0 0 0 1 0"/>
<feBlend mode="normal" in2="BackgroundImageFix" result="effect1_dropShadow_2102_4745"/>
<feColorMatrix in="SourceAlpha" type="matrix" values="0 0 0 0 0 0 0 0 0 0 0 0 0 0 0 0 0 0 127 0" result="hardAlpha"/>
<feOffset/>
<feGaussianBlur stdDeviation="1.5"/>
<feComposite in2="hardAlpha" operator="out"/>
<feColorMatrix type="matrix" values="0 0 0 0 0.964706 0 0 0 0 1 0 0 0 0 0.8 0 0 0 1 0"/>
<feBlend mode="normal" in2="effect1_dropShadow_2102_4745" result="effect2_dropShadow_2102_4745"/>
<feBlend mode="normal" in="SourceGraphic" in2="effect2_dropShadow_2102_4745" result="shape"/>
</filter>
<filter id="filter6_dd_2102_4745" x="335" y="248" width="27" height="27" filterUnits="userSpaceOnUse" color-interpolation-filters="sRGB">
<feFlood flood-opacity="0" result="BackgroundImageFix"/>
<feColorMatrix in="SourceAlpha" type="matrix" values="0 0 0 0 0 0 0 0 0 0 0 0 0 0 0 0 0 0 127 0" result="hardAlpha"/>
<feOffset/>
<feGaussianBlur stdDeviation="5"/>
<feComposite in2="hardAlpha" operator="out"/>
<feColorMatrix type="matrix" values="0 0 0 0 0.964706 0 0 0 0 1 0 0 0 0 0.8 0 0 0 1 0"/>
<feBlend mode="normal" in2="BackgroundImageFix" result="effect1_dropShadow_2102_4745"/>
<feColorMatrix in="SourceAlpha" type="matrix" values="0 0 0 0 0 0 0 0 0 0 0 0 0 0 0 0 0 0 127 0" result="hardAlpha"/>
<feOffset/>
<feGaussianBlur stdDeviation="1.5"/>
<feComposite in2="hardAlpha" operator="out"/>
<feColorMatrix type="matrix" values="0 0 0 0 0.964706 0 0 0 0 1 0 0 0 0 0.8 0 0 0 1 0"/>
<feBlend mode="normal" in2="effect1_dropShadow_2102_4745" result="effect2_dropShadow_2102_4745"/>
<feBlend mode="normal" in="SourceGraphic" in2="effect2_dropShadow_2102_4745" result="shape"/>
</filter>
<filter id="filter7_dd_2102_4745" x="335" y="198.5" width="27" height="27" filterUnits="userSpaceOnUse" color-interpolation-filters="sRGB">
<feFlood flood-opacity="0" result="BackgroundImageFix"/>
<feColorMatrix in="SourceAlpha" type="matrix" values="0 0 0 0 0 0 0 0 0 0 0 0 0 0 0 0 0 0 127 0" result="hardAlpha"/>
<feOffset/>
<feGaussianBlur stdDeviation="5"/>
<feComposite in2="hardAlpha" operator="out"/>
<feColorMatrix type="matrix" values="0 0 0 0 0.964706 0 0 0 0 1 0 0 0 0 0.8 0 0 0 1 0"/>
<feBlend mode="normal" in2="BackgroundImageFix" result="effect1_dropShadow_2102_4745"/>
<feColorMatrix in="SourceAlpha" type="matrix" values="0 0 0 0 0 0 0 0 0 0 0 0 0 0 0 0 0 0 127 0" result="hardAlpha"/>
<feOffset/>
<feGaussianBlur stdDeviation="1.5"/>
<feComposite in2="hardAlpha" operator="out"/>
<feColorMatrix type="matrix" values="0 0 0 0 0.964706 0 0 0 0 1 0 0 0 0 0.8 0 0 0 1 0"/>
<feBlend mode="normal" in2="effect1_dropShadow_2102_4745" result="effect2_dropShadow_2102_4745"/>
<feBlend mode="normal" in="SourceGraphic" in2="effect2_dropShadow_2102_4745" result="shape"/>
</filter>
<filter id="filter8_dd_2102_4745" x="335" y="149" width="27" height="27" filterUnits="userSpaceOnUse" color-interpolation-filters="sRGB">
<feFlood flood-opacity="0" result="BackgroundImageFix"/>
<feColorMatrix in="SourceAlpha" type="matrix" values="0 0 0 0 0 0 0 0 0 0 0 0 0 0 0 0 0 0 127 0" result="hardAlpha"/>
<feOffset/>
<feGaussianBlur stdDeviation="5"/>
<feComposite in2="hardAlpha" operator="out"/>
<feColorMatrix type="matrix" values="0 0 0 0 0.964706 0 0 0 0 1 0 0 0 0 0.8 0 0 0 1 0"/>
<feBlend mode="normal" in2="BackgroundImageFix" result="effect1_dropShadow_2102_4745"/>
<feColorMatrix in="SourceAlpha" type="matrix" values="0 0 0 0 0 0 0 0 0 0 0 0 0 0 0 0 0 0 127 0" result="hardAlpha"/>
<feOffset/>
<feGaussianBlur stdDeviation="1.5"/>
<feComposite in2="hardAlpha" operator="out"/>
<feColorMatrix type="matrix" values="0 0 0 0 0.964706 0 0 0 0 1 0 0 0 0 0.8 0 0 0 1 0"/>
<feBlend mode="normal" in2="effect1_dropShadow_2102_4745" result="effect2_dropShadow_2102_4745"/>
<feBlend mode="normal" in="SourceGraphic" in2="effect2_dropShadow_2102_4745" result="shape"/>
</filter>
<filter id="filter9_dd_2102_4745" x="335" y="99.5" width="27" height="27" filterUnits="userSpaceOnUse" color-interpolation-filters="sRGB">
<feFlood flood-opacity="0" result="BackgroundImageFix"/>
<feColorMatrix in="SourceAlpha" type="matrix" values="0 0 0 0 0 0 0 0 0 0 0 0 0 0 0 0 0 0 127 0" result="hardAlpha"/>
<feOffset/>
<feGaussianBlur stdDeviation="5"/>
<feComposite in2="hardAlpha" operator="out"/>
<feColorMatrix type="matrix" values="0 0 0 0 0.964706 0 0 0 0 1 0 0 0 0 0.8 0 0 0 1 0"/>
<feBlend mode="normal" in2="BackgroundImageFix" result="effect1_dropShadow_2102_4745"/>
<feColorMatrix in="SourceAlpha" type="matrix" values="0 0 0 0 0 0 0 0 0 0 0 0 0 0 0 0 0 0 127 0" result="hardAlpha"/>
<feOffset/>
<feGaussianBlur stdDeviation="1.5"/>
<feComposite in2="hardAlpha" operator="out"/>
<feColorMatrix type="matrix" values="0 0 0 0 0.964706 0 0 0 0 1 0 0 0 0 0.8 0 0 0 1 0"/>
<feBlend mode="normal" in2="effect1_dropShadow_2102_4745" result="effect2_dropShadow_2102_4745"/>
<feBlend mode="normal" in="SourceGraphic" in2="effect2_dropShadow_2102_4745" result="shape"/>
</filter>
<filter id="filter10_dd_2102_4745" x="335" y="50" width="27" height="27" filterUnits="userSpaceOnUse" color-interpolation-filters="sRGB">
<feFlood flood-opacity="0" result="BackgroundImageFix"/>
<feColorMatrix in="SourceAlpha" type="matrix" values="0 0 0 0 0 0 0 0 0 0 0 0 0 0 0 0 0 0 127 0" result="hardAlpha"/>
<feOffset/>
<feGaussianBlur stdDeviation="5"/>
<feComposite in2="hardAlpha" operator="out"/>
<feColorMatrix type="matrix" values="0 0 0 0 0.964706 0 0 0 0 1 0 0 0 0 0.8 0 0 0 1 0"/>
<feBlend mode="normal" in2="BackgroundImageFix" result="effect1_dropShadow_2102_4745"/>
<feColorMatrix in="SourceAlpha" type="matrix" values="0 0 0 0 0 0 0 0 0 0 0 0 0 0 0 0 0 0 127 0" result="hardAlpha"/>
<feOffset/>
<feGaussianBlur stdDeviation="1.5"/>
<feComposite in2="hardAlpha" operator="out"/>
<feColorMatrix type="matrix" values="0 0 0 0 0.964706 0 0 0 0 1 0 0 0 0 0.8 0 0 0 1 0"/>
<feBlend mode="normal" in2="effect1_dropShadow_2102_4745" result="effect2_dropShadow_2102_4745"/>
<feBlend mode="normal" in="SourceGraphic" in2="effect2_dropShadow_2102_4745" result="shape"/>
</filter>
<filter id="filter11_dd_2102_4745" x="33" y="7" width="27" height="27" filterUnits="userSpaceOnUse" color-interpolation-filters="sRGB">
<feFlood flood-opacity="0" result="BackgroundImageFix"/>
<feColorMatrix in="SourceAlpha" type="matrix" values="0 0 0 0 0 0 0 0 0 0 0 0 0 0 0 0 0 0 127 0" result="hardAlpha"/>
<feOffset/>
<feGaussianBlur stdDeviation="5"/>
<feComposite in2="hardAlpha" operator="out"/>
<feColorMatrix type="matrix" values="0 0 0 0 0.964706 0 0 0 0 1 0 0 0 0 0.8 0 0 0 1 0"/>
<feBlend mode="normal" in2="BackgroundImageFix" result="effect1_dropShadow_2102_4745"/>
<feColorMatrix in="SourceAlpha" type="matrix" values="0 0 0 0 0 0 0 0 0 0 0 0 0 0 0 0 0 0 127 0" result="hardAlpha"/>
<feOffset/>
<feGaussianBlur stdDeviation="1.5"/>
<feComposite in2="hardAlpha" operator="out"/>
<feColorMatrix type="matrix" values="0 0 0 0 0.964706 0 0 0 0 1 0 0 0 0 0.8 0 0 0 1 0"/>
<feBlend mode="normal" in2="effect1_dropShadow_2102_4745" result="effect2_dropShadow_2102_4745"/>
<feBlend mode="normal" in="SourceGraphic" in2="effect2_dropShadow_2102_4745" result="shape"/>
</filter>
<filter id="filter12_dd_2102_4745" x="77.833" y="7" width="27" height="27" filterUnits="userSpaceOnUse" color-interpolation-filters="sRGB">
<feFlood flood-opacity="0" result="BackgroundImageFix"/>
<feColorMatrix in="SourceAlpha" type="matrix" values="0 0 0 0 0 0 0 0 0 0 0 0 0 0 0 0 0 0 127 0" result="hardAlpha"/>
<feOffset/>
<feGaussianBlur stdDeviation="5"/>
<feComposite in2="hardAlpha" operator="out"/>
<feColorMatrix type="matrix" values="0 0 0 0 0.964706 0 0 0 0 1 0 0 0 0 0.8 0 0 0 1 0"/>
<feBlend mode="normal" in2="BackgroundImageFix" result="effect1_dropShadow_2102_4745"/>
<feColorMatrix in="SourceAlpha" type="matrix" values="0 0 0 0 0 0 0 0 0 0 0 0 0 0 0 0 0 0 127 0" result="hardAlpha"/>
<feOffset/>
<feGaussianBlur stdDeviation="1.5"/>
<feComposite in2="hardAlpha" operator="out"/>
<feColorMatrix type="matrix" values="0 0 0 0 0.964706 0 0 0 0 1 0 0 0 0 0.8 0 0 0 1 0"/>
<feBlend mode="normal" in2="effect1_dropShadow_2102_4745" result="effect2_dropShadow_2102_4745"/>
<feBlend mode="normal" in="SourceGraphic" in2="effect2_dropShadow_2102_4745" result="shape"/>
</filter>
<filter id="filter13_dd_2102_4745" x="122.667" y="7" width="27" height="27" filterUnits="userSpaceOnUse" color-interpolation-filters="sRGB">
<feFlood flood-opacity="0" result="BackgroundImageFix"/>
<feColorMatrix in="SourceAlpha" type="matrix" values="0 0 0 0 0 0 0 0 0 0 0 0 0 0 0 0 0 0 127 0" result="hardAlpha"/>
<feOffset/>
<feGaussianBlur stdDeviation="5"/>
<feComposite in2="hardAlpha" operator="out"/>
<feColorMatrix type="matrix" values="0 0 0 0 0.964706 0 0 0 0 1 0 0 0 0 0.8 0 0 0 1 0"/>
<feBlend mode="normal" in2="BackgroundImageFix" result="effect1_dropShadow_2102_4745"/>
<feColorMatrix in="SourceAlpha" type="matrix" values="0 0 0 0 0 0 0 0 0 0 0 0 0 0 0 0 0 0 127 0" result="hardAlpha"/>
<feOffset/>
<feGaussianBlur stdDeviation="1.5"/>
<feComposite in2="hardAlpha" operator="out"/>
<feColorMatrix type="matrix" values="0 0 0 0 0.964706 0 0 0 0 1 0 0 0 0 0.8 0 0 0 1 0"/>
<feBlend mode="normal" in2="effect1_dropShadow_2102_4745" result="effect2_dropShadow_2102_4745"/>
<feBlend mode="normal" in="SourceGraphic" in2="effect2_dropShadow_2102_4745" result="shape"/>
</filter>
<filter id="filter14_dd_2102_4745" x="167.5" y="7" width="27" height="27" filterUnits="userSpaceOnUse" color-interpolation-filters="sRGB">
<feFlood flood-opacity="0" result="BackgroundImageFix"/>
<feColorMatrix in="SourceAlpha" type="matrix" values="0 0 0 0 0 0 0 0 0 0 0 0 0 0 0 0 0 0 127 0" result="hardAlpha"/>
<feOffset/>
<feGaussianBlur stdDeviation="5"/>
<feComposite in2="hardAlpha" operator="out"/>
<feColorMatrix type="matrix" values="0 0 0 0 0.964706 0 0 0 0 1 0 0 0 0 0.8 0 0 0 1 0"/>
<feBlend mode="normal" in2="BackgroundImageFix" result="effect1_dropShadow_2102_4745"/>
<feColorMatrix in="SourceAlpha" type="matrix" values="0 0 0 0 0 0 0 0 0 0 0 0 0 0 0 0 0 0 127 0" result="hardAlpha"/>
<feOffset/>
<feGaussianBlur stdDeviation="1.5"/>
<feComposite in2="hardAlpha" operator="out"/>
<feColorMatrix type="matrix" values="0 0 0 0 0.964706 0 0 0 0 1 0 0 0 0 0.8 0 0 0 1 0"/>
<feBlend mode="normal" in2="effect1_dropShadow_2102_4745" result="effect2_dropShadow_2102_4745"/>
<feBlend mode="normal" in="SourceGraphic" in2="effect2_dropShadow_2102_4745" result="shape"/>
</filter>
<filter id="filter15_dd_2102_4745" x="212.333" y="7" width="27" height="27" filterUnits="userSpaceOnUse" color-interpolation-filters="sRGB">
<feFlood flood-opacity="0" result="BackgroundImageFix"/>
<feColorMatrix in="SourceAlpha" type="matrix" values="0 0 0 0 0 0 0 0 0 0 0 0 0 0 0 0 0 0 127 0" result="hardAlpha"/>
<feOffset/>
<feGaussianBlur stdDeviation="5"/>
<feComposite in2="hardAlpha" operator="out"/>
<feColorMatrix type="matrix" values="0 0 0 0 0.964706 0 0 0 0 1 0 0 0 0 0.8 0 0 0 1 0"/>
<feBlend mode="normal" in2="BackgroundImageFix" result="effect1_dropShadow_2102_4745"/>
<feColorMatrix in="SourceAlpha" type="matrix" values="0 0 0 0 0 0 0 0 0 0 0 0 0 0 0 0 0 0 127 0" result="hardAlpha"/>
<feOffset/>
<feGaussianBlur stdDeviation="1.5"/>
<feComposite in2="hardAlpha" operator="out"/>
<feColorMatrix type="matrix" values="0 0 0 0 0.964706 0 0 0 0 1 0 0 0 0 0.8 0 0 0 1 0"/>
<feBlend mode="normal" in2="effect1_dropShadow_2102_4745" result="effect2_dropShadow_2102_4745"/>
<feBlend mode="normal" in="SourceGraphic" in2="effect2_dropShadow_2102_4745" result="shape"/>
</filter>
<filter id="filter16_dd_2102_4745" x="257.167" y="7" width="27" height="27" filterUnits="userSpaceOnUse" color-interpolation-filters="sRGB">
<feFlood flood-opacity="0" result="BackgroundImageFix"/>
<feColorMatrix in="SourceAlpha" type="matrix" values="0 0 0 0 0 0 0 0 0 0 0 0 0 0 0 0 0 0 127 0" result="hardAlpha"/>
<feOffset/>
<feGaussianBlur stdDeviation="5"/>
<feComposite in2="hardAlpha" operator="out"/>
<feColorMatrix type="matrix" values="0 0 0 0 0.964706 0 0 0 0 1 0 0 0 0 0.8 0 0 0 1 0"/>
<feBlend mode="normal" in2="BackgroundImageFix" result="effect1_dropShadow_2102_4745"/>
<feColorMatrix in="SourceAlpha" type="matrix" values="0 0 0 0 0 0 0 0 0 0 0 0 0 0 0 0 0 0 127 0" result="hardAlpha"/>
<feOffset/>
<feGaussianBlur stdDeviation="1.5"/>
<feComposite in2="hardAlpha" operator="out"/>
<feColorMatrix type="matrix" values="0 0 0 0 0.964706 0 0 0 0 1 0 0 0 0 0.8 0 0 0 1 0"/>
<feBlend mode="normal" in2="effect1_dropShadow_2102_4745" result="effect2_dropShadow_2102_4745"/>
<feBlend mode="normal" in="SourceGraphic" in2="effect2_dropShadow_2102_4745" result="shape"/>
</filter>
<filter id="filter17_dd_2102_4745" x="302" y="7" width="27" height="27" filterUnits="userSpaceOnUse" color-interpolation-filters="sRGB">
<feFlood flood-opacity="0" result="BackgroundImageFix"/>
<feColorMatrix in="SourceAlpha" type="matrix" values="0 0 0 0 0 0 0 0 0 0 0 0 0 0 0 0 0 0 127 0" result="hardAlpha"/>
<feOffset/>
<feGaussianBlur stdDeviation="5"/>
<feComposite in2="hardAlpha" operator="out"/>
<feColorMatrix type="matrix" values="0 0 0 0 0.964706 0 0 0 0 1 0 0 0 0 0.8 0 0 0 1 0"/>
<feBlend mode="normal" in2="BackgroundImageFix" result="effect1_dropShadow_2102_4745"/>
<feColorMatrix in="SourceAlpha" type="matrix" values="0 0 0 0 0 0 0 0 0 0 0 0 0 0 0 0 0 0 127 0" result="hardAlpha"/>
<feOffset/>
<feGaussianBlur stdDeviation="1.5"/>
<feComposite in2="hardAlpha" operator="out"/>
<feColorMatrix type="matrix" values="0 0 0 0 0.964706 0 0 0 0 1 0 0 0 0 0.8 0 0 0 1 0"/>
<feBlend mode="normal" in2="effect1_dropShadow_2102_4745" result="effect2_dropShadow_2102_4745"/>
<feBlend mode="normal" in="SourceGraphic" in2="effect2_dropShadow_2102_4745" result="shape"/>
</filter>
<filter id="filter18_dd_2102_4745" x="33" y="291" width="27" height="27" filterUnits="userSpaceOnUse" color-interpolation-filters="sRGB">
<feFlood flood-opacity="0" result="BackgroundImageFix"/>
<feColorMatrix in="SourceAlpha" type="matrix" values="0 0 0 0 0 0 0 0 0 0 0 0 0 0 0 0 0 0 127 0" result="hardAlpha"/>
<feOffset/>
<feGaussianBlur stdDeviation="5"/>
<feComposite in2="hardAlpha" operator="out"/>
<feColorMatrix type="matrix" values="0 0 0 0 0.964706 0 0 0 0 1 0 0 0 0 0.8 0 0 0 1 0"/>
<feBlend mode="normal" in2="BackgroundImageFix" result="effect1_dropShadow_2102_4745"/>
<feColorMatrix in="SourceAlpha" type="matrix" values="0 0 0 0 0 0 0 0 0 0 0 0 0 0 0 0 0 0 127 0" result="hardAlpha"/>
<feOffset/>
<feGaussianBlur stdDeviation="1.5"/>
<feComposite in2="hardAlpha" operator="out"/>
<feColorMatrix type="matrix" values="0 0 0 0 0.964706 0 0 0 0 1 0 0 0 0 0.8 0 0 0 1 0"/>
<feBlend mode="normal" in2="effect1_dropShadow_2102_4745" result="effect2_dropShadow_2102_4745"/>
<feBlend mode="normal" in="SourceGraphic" in2="effect2_dropShadow_2102_4745" result="shape"/>
</filter>
<filter id="filter19_dd_2102_4745" x="86.7998" y="291" width="27" height="27" filterUnits="userSpaceOnUse" color-interpolation-filters="sRGB">
<feFlood flood-opacity="0" result="BackgroundImageFix"/>
<feColorMatrix in="SourceAlpha" type="matrix" values="0 0 0 0 0 0 0 0 0 0 0 0 0 0 0 0 0 0 127 0" result="hardAlpha"/>
<feOffset/>
<feGaussianBlur stdDeviation="5"/>
<feComposite in2="hardAlpha" operator="out"/>
<feColorMatrix type="matrix" values="0 0 0 0 0.964706 0 0 0 0 1 0 0 0 0 0.8 0 0 0 1 0"/>
<feBlend mode="normal" in2="BackgroundImageFix" result="effect1_dropShadow_2102_4745"/>
<feColorMatrix in="SourceAlpha" type="matrix" values="0 0 0 0 0 0 0 0 0 0 0 0 0 0 0 0 0 0 127 0" result="hardAlpha"/>
<feOffset/>
<feGaussianBlur stdDeviation="1.5"/>
<feComposite in2="hardAlpha" operator="out"/>
<feColorMatrix type="matrix" values="0 0 0 0 0.964706 0 0 0 0 1 0 0 0 0 0.8 0 0 0 1 0"/>
<feBlend mode="normal" in2="effect1_dropShadow_2102_4745" result="effect2_dropShadow_2102_4745"/>
<feBlend mode="normal" in="SourceGraphic" in2="effect2_dropShadow_2102_4745" result="shape"/>
</filter>
<filter id="filter20_dd_2102_4745" x="140.6" y="291" width="27" height="27" filterUnits="userSpaceOnUse" color-interpolation-filters="sRGB">
<feFlood flood-opacity="0" result="BackgroundImageFix"/>
<feColorMatrix in="SourceAlpha" type="matrix" values="0 0 0 0 0 0 0 0 0 0 0 0 0 0 0 0 0 0 127 0" result="hardAlpha"/>
<feOffset/>
<feGaussianBlur stdDeviation="5"/>
<feComposite in2="hardAlpha" operator="out"/>
<feColorMatrix type="matrix" values="0 0 0 0 0.964706 0 0 0 0 1 0 0 0 0 0.8 0 0 0 1 0"/>
<feBlend mode="normal" in2="BackgroundImageFix" result="effect1_dropShadow_2102_4745"/>
<feColorMatrix in="SourceAlpha" type="matrix" values="0 0 0 0 0 0 0 0 0 0 0 0 0 0 0 0 0 0 127 0" result="hardAlpha"/>
<feOffset/>
<feGaussianBlur stdDeviation="1.5"/>
<feComposite in2="hardAlpha" operator="out"/>
<feColorMatrix type="matrix" values="0 0 0 0 0.964706 0 0 0 0 1 0 0 0 0 0.8 0 0 0 1 0"/>
<feBlend mode="normal" in2="effect1_dropShadow_2102_4745" result="effect2_dropShadow_2102_4745"/>
<feBlend mode="normal" in="SourceGraphic" in2="effect2_dropShadow_2102_4745" result="shape"/>
</filter>
<filter id="filter21_dd_2102_4745" x="194.4" y="291" width="27" height="27" filterUnits="userSpaceOnUse" color-interpolation-filters="sRGB">
<feFlood flood-opacity="0" result="BackgroundImageFix"/>
<feColorMatrix in="SourceAlpha" type="matrix" values="0 0 0 0 0 0 0 0 0 0 0 0 0 0 0 0 0 0 127 0" result="hardAlpha"/>
<feOffset/>
<feGaussianBlur stdDeviation="5"/>
<feComposite in2="hardAlpha" operator="out"/>
<feColorMatrix type="matrix" values="0 0 0 0 0.964706 0 0 0 0 1 0 0 0 0 0.8 0 0 0 1 0"/>
<feBlend mode="normal" in2="BackgroundImageFix" result="effect1_dropShadow_2102_4745"/>
<feColorMatrix in="SourceAlpha" type="matrix" values="0 0 0 0 0 0 0 0 0 0 0 0 0 0 0 0 0 0 127 0" result="hardAlpha"/>
<feOffset/>
<feGaussianBlur stdDeviation="1.5"/>
<feComposite in2="hardAlpha" operator="out"/>
<feColorMatrix type="matrix" values="0 0 0 0 0.964706 0 0 0 0 1 0 0 0 0 0.8 0 0 0 1 0"/>
<feBlend mode="normal" in2="effect1_dropShadow_2102_4745" result="effect2_dropShadow_2102_4745"/>
<feBlend mode="normal" in="SourceGraphic" in2="effect2_dropShadow_2102_4745" result="shape"/>
</filter>
<filter id="filter22_dd_2102_4745" x="248.2" y="291" width="27" height="27" filterUnits="userSpaceOnUse" color-interpolation-filters="sRGB">
<feFlood flood-opacity="0" result="BackgroundImageFix"/>
<feColorMatrix in="SourceAlpha" type="matrix" values="0 0 0 0 0 0 0 0 0 0 0 0 0 0 0 0 0 0 127 0" result="hardAlpha"/>
<feOffset/>
<feGaussianBlur stdDeviation="5"/>
<feComposite in2="hardAlpha" operator="out"/>
<feColorMatrix type="matrix" values="0 0 0 0 0.964706 0 0 0 0 1 0 0 0 0 0.8 0 0 0 1 0"/>
<feBlend mode="normal" in2="BackgroundImageFix" result="effect1_dropShadow_2102_4745"/>
<feColorMatrix in="SourceAlpha" type="matrix" values="0 0 0 0 0 0 0 0 0 0 0 0 0 0 0 0 0 0 127 0" result="hardAlpha"/>
<feOffset/>
<feGaussianBlur stdDeviation="1.5"/>
<feComposite in2="hardAlpha" operator="out"/>
<feColorMatrix type="matrix" values="0 0 0 0 0.964706 0 0 0 0 1 0 0 0 0 0.8 0 0 0 1 0"/>
<feBlend mode="normal" in2="effect1_dropShadow_2102_4745" result="effect2_dropShadow_2102_4745"/>
<feBlend mode="normal" in="SourceGraphic" in2="effect2_dropShadow_2102_4745" result="shape"/>
</filter>
<filter id="filter23_dd_2102_4745" x="302" y="291" width="27" height="27" filterUnits="userSpaceOnUse" color-interpolation-filters="sRGB">
<feFlood flood-opacity="0" result="BackgroundImageFix"/>
<feColorMatrix in="SourceAlpha" type="matrix" values="0 0 0 0 0 0 0 0 0 0 0 0 0 0 0 0 0 0 127 0" result="hardAlpha"/>
<feOffset/>
<feGaussianBlur stdDeviation="5"/>
<feComposite in2="hardAlpha" operator="out"/>
<feColorMatrix type="matrix" values="0 0 0 0 0.964706 0 0 0 0 1 0 0 0 0 0.8 0 0 0 1 0"/>
<feBlend mode="normal" in2="BackgroundImageFix" result="effect1_dropShadow_2102_4745"/>
<feColorMatrix in="SourceAlpha" type="matrix" values="0 0 0 0 0 0 0 0 0 0 0 0 0 0 0 0 0 0 127 0" result="hardAlpha"/>
<feOffset/>
<feGaussianBlur stdDeviation="1.5"/>
<feComposite in2="hardAlpha" operator="out"/>
<feColorMatrix type="matrix" values="0 0 0 0 0.964706 0 0 0 0 1 0 0 0 0 0.8 0 0 0 1 0"/>
<feBlend mode="normal" in2="effect1_dropShadow_2102_4745" result="effect2_dropShadow_2102_4745"/>
<feBlend mode="normal" in="SourceGraphic" in2="effect2_dropShadow_2102_4745" result="shape"/>
</filter>
<linearGradient id="paint0_linear_2102_4745" x1="7.00001" y1="211.343" x2="195.134" y2="-17.6209" gradientUnits="userSpaceOnUse">
<stop offset="0.25" stop-color="#003865"/>
<stop offset="1" stop-color="#004C97"/>
</linearGradient>
<linearGradient id="paint1_linear_2102_4745" x1="7.00001" y1="211.343" x2="195.134" y2="-17.6209" gradientUnits="userSpaceOnUse">
<stop offset="0.25" stop-color="#004C97"/>
<stop offset="1" stop-color="#0076CF"/>
</linearGradient>
<linearGradient id="paint2_linear_2102_4745" x1="116.5" y1="27.5782" x2="130.568" y2="-19.9107" gradientUnits="userSpaceOnUse">
<stop offset="0.25" stop-color="#004C97"/>
<stop offset="1" stop-color="#0076CF"/>
</linearGradient>
</defs>
</svg>
