<svg width="422" height="49" viewBox="0 0 422 49" fill="none" xmlns="http://www.w3.org/2000/svg">
<g clip-path="url(#clip0_1805_1421)">
<path d="M0 7.48927H6.56203C9.81709 7.48927 12.1221 9.65624 12.1221 12.7323C12.1221 15.3961 10.4037 17.4045 7.79242 17.7428L12.8126 25.0206H10.4816L5.74178 18.0546H2.05064V25.0206H0V7.48927ZM2.05064 16.358H6.25574C8.48288 16.358 10.0507 14.9257 10.0507 12.7851C10.0507 10.6446 8.48807 9.18585 6.25574 9.18585H2.05064V16.358Z" fill="#55FFF5"/>
<path d="M25.8016 12.0293C29.1346 12.0293 31.4396 14.6667 31.4396 18.4457C31.4396 18.7047 31.4396 18.9425 31.4136 19.2015H21.7782C21.9599 21.8864 23.8029 23.7416 26.4142 23.7416C27.5408 23.7416 28.849 23.4033 30.1832 22.6739L30.8218 24.1062C29.1813 24.9413 27.5927 25.3324 26.2066 25.3324C22.4116 25.3324 19.7224 22.5947 19.7224 18.6782C19.7224 14.7618 22.2351 12.0241 25.7964 12.0241L25.8016 12.0293ZM21.7782 17.8696H29.4668C29.389 15.3644 27.9042 13.6149 25.8016 13.6149C23.5745 13.6149 21.9859 15.3115 21.7782 17.8696Z" fill="#55FFF5"/>
<path d="M44.6364 12.0293C46.1471 12.0293 47.637 12.4997 49.0439 13.4617L48.1977 14.894C47.1231 14.1382 46.0433 13.7471 44.8907 13.7471C42.2742 13.7471 40.4572 15.7555 40.4572 18.6782C40.4572 21.601 42.2742 23.6359 44.8907 23.6359C46.0433 23.6359 47.1179 23.2183 48.1977 22.4625L49.0439 23.8948C47.637 24.862 46.1471 25.3324 44.6364 25.3324C40.9712 25.3324 38.3599 22.5947 38.3599 18.6782C38.3599 14.7618 40.9764 12.0241 44.6364 12.0241V12.0293Z" fill="#55FFF5"/>
<path d="M56.7324 12.3412H58.3729L58.6273 14.7407C59.2451 13.1234 60.7039 12.1298 62.495 12.1298C62.957 12.1298 63.5177 12.209 64.0576 12.3359L63.8292 14.0325C63.3412 13.9268 62.8324 13.8475 62.3444 13.8475C60.2159 13.8475 58.7571 15.5969 58.7571 18.1497V25.01H56.7324V12.3306V12.3412Z" fill="#55FFF5"/>
<path d="M82.3318 25.0206H80.6913L80.4369 22.7004C79.5648 24.3705 77.8983 25.3377 75.9255 25.3377C73.1585 25.3377 71.2117 23.4086 71.2117 20.6179V12.3465H73.2364V20.3325C73.2364 22.2617 74.6225 23.5936 76.5174 23.5936C78.6718 23.5936 80.2864 21.9234 80.2864 19.4975V12.3465H82.337V25.0259L82.3318 25.0206Z" fill="#55FFF5"/>
<path d="M92.2475 7.09816C93.0417 7.09816 93.6076 7.67426 93.6076 8.48291C93.6076 9.29156 93.0417 9.86766 92.2475 9.86766C91.4532 9.86766 90.8613 9.29156 90.8613 8.48291C90.8613 7.67426 91.4272 7.09816 92.2475 7.09816ZM91.2195 12.3412H93.2442V25.0206H91.2195V12.3412Z" fill="#55FFF5"/>
<path d="M105.418 12.3412H109.338V13.9849H105.418V21.4477C105.418 22.7532 106.29 23.6411 107.573 23.6411C108.113 23.6411 108.699 23.5354 109.343 23.3822L109.623 24.9995C108.751 25.232 107.931 25.3377 107.137 25.3377C104.909 25.3377 103.394 23.8261 103.394 21.6327V13.9902H100.803V12.3465H103.394V8.58862H105.418V12.3465V12.3412Z" fill="#55FFF5"/>
<path d="M143.887 7.48927H145.86L152.957 25.0206H150.802L148.907 20.2216H140.835L138.94 25.0206H136.785L143.882 7.48927H143.887ZM141.426 18.5778H148.295L144.863 9.94165L141.432 18.5778H141.426Z" fill="#DCF94D"/>
<path d="M165.743 12.0293C167.254 12.0293 168.744 12.4997 170.151 13.4617L169.305 14.894C168.23 14.1382 167.15 13.7471 165.998 13.7471C163.381 13.7471 161.564 15.7555 161.564 18.6782C161.564 21.601 163.381 23.6359 165.998 23.6359C167.15 23.6359 168.225 23.2183 169.305 22.4625L170.151 23.8948C168.744 24.862 167.254 25.3324 165.743 25.3324C162.078 25.3324 159.467 22.5947 159.467 18.6782C159.467 14.7618 162.083 12.0241 165.743 12.0241V12.0293Z" fill="#DCF94D"/>
<path d="M181.396 12.3412H185.315V13.9849H181.396V21.4477C181.396 22.7532 182.268 23.6411 183.55 23.6411C184.09 23.6411 184.677 23.5354 185.32 23.3822L185.601 24.9995C184.728 25.232 183.908 25.3377 183.114 25.3377C180.887 25.3377 179.371 23.8261 179.371 21.6327V13.9902H176.78V12.3465H179.371V8.58862H181.396V12.3465V12.3412Z" fill="#DCF94D"/>
<path d="M194.312 7.09816C195.106 7.09816 195.672 7.67426 195.672 8.48291C195.672 9.29156 195.106 9.86766 194.312 9.86766C193.518 9.86766 192.926 9.29156 192.926 8.48291C192.926 7.67426 193.492 7.09816 194.312 7.09816ZM193.284 12.3412H195.309V25.0206H193.284V12.3412Z" fill="#DCF94D"/>
<path d="M209.814 25.0206H207.919L202.795 12.3412H204.923L208.869 22.6211L212.789 12.3412H214.943L209.819 25.0206H209.814Z" fill="#DCF94D"/>
<path d="M226.878 17.3252C227.75 17.3252 228.695 17.4309 229.671 17.6899V16.3844C229.671 14.7671 228.441 13.6202 226.624 13.6202C225.29 13.6202 223.935 13.9321 222.496 14.561L221.931 13.0494C223.675 12.3729 225.264 12.0346 226.852 12.0346C229.671 12.0346 231.618 13.8105 231.618 16.4426V22.5735C231.618 23.2765 232.028 23.7204 232.744 23.7204C232.952 23.7204 233.258 23.6676 233.409 23.6411L233.565 25.2056C233.155 25.2849 232.693 25.3377 232.231 25.3377C230.87 25.3377 230.003 24.5291 229.848 23.2236C228.846 24.5555 227.231 25.3377 225.518 25.3377C223.057 25.3377 221.188 23.694 221.188 21.527C221.188 18.8632 223.343 17.3252 226.878 17.3252ZM226.011 23.8208C228.166 23.8208 229.676 22.2564 229.676 20.0101V18.9425C228.804 18.7311 227.958 18.6307 227.112 18.6307C224.651 18.6307 223.192 19.6719 223.192 21.3949C223.192 22.7796 224.397 23.8208 226.011 23.8208Z" fill="#DCF94D"/>
<path d="M243.356 12.3412H247.276V13.9849H243.356V21.4477C243.356 22.7532 244.228 23.6411 245.51 23.6411C246.05 23.6411 246.637 23.5354 247.281 23.3822L247.561 24.9995C246.689 25.232 245.869 25.3377 245.074 25.3377C242.847 25.3377 241.331 23.8261 241.331 21.6327V13.9902H238.741V12.3465H241.331V8.58862H243.356V12.3465V12.3412Z" fill="#DCF94D"/>
<path d="M259.808 12.0293C263.141 12.0293 265.446 14.6667 265.446 18.4457C265.446 18.7047 265.446 18.9425 265.42 19.2015H255.784C255.966 21.8864 257.809 23.7416 260.42 23.7416C261.547 23.7416 262.855 23.4033 264.189 22.6739L264.828 24.1062C263.187 24.9413 261.599 25.3324 260.213 25.3324C256.418 25.3324 253.729 22.5947 253.729 18.6782C253.729 14.7618 256.241 12.0241 259.803 12.0241L259.808 12.0293ZM255.784 17.8696H263.473C263.395 15.3644 261.91 13.6149 259.808 13.6149C257.581 13.6149 255.992 15.3115 255.784 17.8696Z" fill="#DCF94D"/>
<path d="M295.006 7.48927H301.49C304.849 7.48927 307.258 9.75666 307.258 12.9965C307.258 16.2364 304.849 18.4774 301.49 18.4774H297.057V25.0259H295.006V7.48927ZM297.057 16.7755H301.184C303.515 16.7755 305.181 15.2111 305.181 12.9913C305.181 10.7714 303.515 9.18056 301.184 9.18056H297.057V16.7702V16.7755Z" fill="white"/>
<path d="M315.221 12.3412H316.862L317.116 14.7407C317.734 13.1234 319.193 12.1298 320.984 12.1298C321.446 12.1298 322.007 12.209 322.547 12.3359L322.318 14.0325C321.83 13.9268 321.321 13.8475 320.833 13.8475C318.705 13.8475 317.246 15.5969 317.246 18.1497V25.01H315.221V12.3306V12.3412Z" fill="white"/>
<path d="M335.053 12.0293C338.744 12.0293 341.381 14.7671 341.381 18.6835C341.381 22.5999 338.744 25.3377 335.053 25.3377C331.362 25.3377 328.698 22.5999 328.698 18.6835C328.698 14.7671 331.336 12.0293 335.053 12.0293ZM335.053 23.6623C337.54 23.6623 339.305 21.6274 339.305 18.6782C339.305 15.729 337.534 13.6942 335.053 13.6942C332.571 13.6942 330.801 15.7555 330.801 18.6782C330.801 21.601 332.545 23.6623 335.053 23.6623Z" fill="white"/>
<path d="M349.402 12.3412H351.043L351.297 14.561C352.169 12.9437 353.706 12.0293 355.575 12.0293C357.444 12.0293 359.084 13.097 359.676 14.7935C360.652 13.0705 362.267 12.0293 364.239 12.0293C366.903 12.0293 368.777 13.9056 368.777 16.543V25.0206H366.726V16.8548C366.726 15.0525 365.47 13.7735 363.679 13.7735C361.602 13.7735 360.117 15.3908 360.117 17.6635V25.0206H358.067V16.8548C358.067 15.0525 356.81 13.7735 354.993 13.7735C352.917 13.7735 351.432 15.3908 351.432 17.6635V25.0206H349.407V12.3412H349.402Z" fill="white"/>
<path d="M382.918 12.0293C386.61 12.0293 389.247 14.7671 389.247 18.6835C389.247 22.5999 386.61 25.3377 382.918 25.3377C379.227 25.3377 376.564 22.5999 376.564 18.6835C376.564 14.7671 379.201 12.0293 382.918 12.0293ZM382.918 23.6623C385.405 23.6623 387.17 21.6274 387.17 18.6782C387.17 15.729 385.4 13.6942 382.918 13.6942C380.437 13.6942 378.667 15.7555 378.667 18.6782C378.667 21.601 380.411 23.6623 382.918 23.6623Z" fill="white"/>
<path d="M399.91 12.3412H403.83V13.9849H399.91V21.4477C399.91 22.7532 400.782 23.6411 402.065 23.6411C402.605 23.6411 403.191 23.5354 403.835 23.3822L404.115 24.9995C403.243 25.232 402.423 25.3377 401.629 25.3377C399.401 25.3377 397.885 23.8261 397.885 21.6327V13.9902H395.295V12.3465H397.885V8.58861H399.91V12.3465V12.3412Z" fill="white"/>
<path d="M416.362 12.0293C419.695 12.0293 422 14.6667 422 18.4457C422 18.7047 422 18.9425 421.974 19.2015H412.339C412.52 21.8864 414.363 23.7416 416.975 23.7416C418.101 23.7416 419.409 23.4033 420.744 22.6739L421.382 24.1062C419.742 24.9413 418.153 25.3324 416.767 25.3324C412.972 25.3324 410.283 22.5946 410.283 18.6782C410.283 14.7618 412.795 12.024 416.357 12.024L416.362 12.0293ZM412.339 17.8696H420.027C419.949 15.3644 418.465 13.6149 416.362 13.6149C414.135 13.6149 412.546 15.3115 412.339 17.8696Z" fill="white"/>
<path d="M224.8 40.5386C226.96 40.5386 228.491 42.0132 228.491 44.1009C228.491 45.3006 227.988 46.2784 227.173 46.9073L228.502 47.8693L227.619 49.0056L225.698 47.5627C225.418 47.6261 225.127 47.6631 224.806 47.6631C222.646 47.6631 221.125 46.1885 221.125 44.1009C221.125 42.0132 222.641 40.5386 224.806 40.5386H224.8ZM224.8 46.1991C225.865 46.1991 226.612 45.327 226.612 44.1009C226.612 42.8747 225.87 42.0026 224.8 42.0026C223.731 42.0026 222.999 42.8747 222.999 44.1009C222.999 45.327 223.731 46.1991 224.8 46.1991Z" fill="white"/>
<path d="M240.598 44.777C240.598 46.5053 239.201 47.6628 237.249 47.6628C235.297 47.6628 233.901 46.5053 233.901 44.777V40.6651H235.739V44.7083C235.739 45.5963 236.362 46.2041 237.244 46.2041C238.127 46.2041 238.75 45.6016 238.75 44.7083V40.6651H240.588V44.777H240.598Z" fill="white"/>
<path d="M248.209 40.6598H249.906L252.642 47.536H250.804L250.301 46.1459H247.819L247.316 47.536H245.468L248.214 40.6598H248.209ZM248.292 44.7982H249.818L249.055 42.6999L248.292 44.7982Z" fill="white"/>
<path d="M257.751 40.6598H259.589V46.1037H262.335V47.536H257.751V40.6598Z" fill="white"/>
<path d="M267.734 40.6598H269.572V47.536H267.734V40.6598Z" fill="white"/>
<path d="M276.928 42.0921H274.966V40.6598H280.718V42.0921H278.766V47.536H276.928V42.0921Z" fill="white"/>
<path d="M288.007 44.8775L285.556 40.6598H287.544L288.931 43.2179L290.317 40.6598H292.305L289.85 44.8775V47.536H288.001V44.8775H288.007Z" fill="white"/>
<path d="M304.116 40.6598H307.174C308.612 40.6598 309.624 41.59 309.624 42.9219C309.624 43.9155 309.079 44.703 308.207 44.9567L309.935 47.536H307.947L306.509 45.2527H305.886V47.536H304.116V40.6598ZM305.886 43.8257H306.883C307.428 43.8257 307.817 43.4874 307.817 42.9536C307.817 42.4198 307.423 42.0921 306.883 42.0921H305.886V43.8204V43.8257Z" fill="white"/>
<path d="M315.366 40.6598H320.261V42.0498H317.204V43.3394H319.939V44.6925H317.204V46.1459H320.422V47.536H315.366V40.6598Z" fill="white"/>
<path d="M329.191 40.5382C330.058 40.5382 330.961 40.8236 331.755 41.3469L331.023 42.5836C330.499 42.2242 329.99 42.0234 329.445 42.0234C328.267 42.0234 327.467 42.8743 327.467 44.1005C327.467 45.3267 328.272 46.1776 329.445 46.1776C329.99 46.1776 330.499 45.9715 331.023 45.6121L331.755 46.8489C330.961 47.3721 330.058 47.6575 329.191 47.6575C327.062 47.6575 325.583 46.1724 325.583 44.0952C325.583 42.0181 327.062 40.533 329.191 40.533V40.5382Z" fill="white"/>
<path d="M337.108 40.6598H340.165C341.603 40.6598 342.616 41.59 342.616 42.9219C342.616 43.9155 342.071 44.703 341.199 44.9567L342.927 47.536H340.939L339.501 45.2527H338.878V47.536H337.108V40.6598ZM338.873 43.8257H339.87C340.415 43.8257 340.804 43.4874 340.804 42.9536C340.804 42.4198 340.409 42.0921 339.87 42.0921H338.873V43.8204V43.8257Z" fill="white"/>
<path d="M354.811 44.777C354.811 46.5053 353.414 47.6628 351.462 47.6628C349.51 47.6628 348.114 46.5053 348.114 44.777V40.6651H349.951V44.7083C349.951 45.5963 350.574 46.2041 351.457 46.2041C352.339 46.2041 352.962 45.6016 352.962 44.7083V40.6651H354.8V44.777H354.811Z" fill="white"/>
<path d="M360.646 40.6598H362.484V47.536H360.646V40.6598Z" fill="white"/>
<path d="M369.835 42.0921H367.872V40.6598H373.624V42.0921H371.672V47.536H369.835V42.0921Z" fill="white"/>
<path d="M379.024 40.6598H380.794L382.736 43.3923L384.677 40.6598H386.447V47.536H384.76V43.2073L383.244 45.3479H382.237L380.732 43.2073V47.536H379.034V40.6598H379.024Z" fill="white"/>
<path d="M392.361 40.6598H397.256V42.0498H394.198V43.3394H396.934V44.6925H394.198V46.1459H397.417V47.536H392.361V40.6598Z" fill="white"/>
<path d="M402.988 40.6598H404.758L407.836 44.9885V40.6598H409.524V47.536H407.753L404.685 43.2073V47.536H402.988V40.6598Z" fill="white"/>
<path d="M416.87 42.0921H414.907V40.6598H420.659V42.0921H418.707V47.536H416.87V42.0921Z" fill="white"/>
<path d="M116.564 33.4401C116.362 33.4401 116.159 33.3767 115.988 33.2392C115.583 32.9168 115.51 32.3196 115.832 31.9073L127.555 16.7227L115.832 1.53802C115.516 1.12577 115.583 0.528531 115.988 0.206128C116.393 -0.116276 116.98 -0.0475666 117.296 0.364687L129.47 16.136C129.735 16.4796 129.735 16.9658 129.47 17.3094L117.296 33.0807C117.115 33.3185 116.839 33.4454 116.564 33.4454V33.4401Z" fill="url(#paint0_linear_1805_1421)"/>
<path d="M269.967 33.4401C269.765 33.4401 269.562 33.3767 269.391 33.2392C268.986 32.9168 268.913 32.3196 269.235 31.9073L280.958 16.7227L269.235 1.53802C268.919 1.12577 268.986 0.528531 269.391 0.206128C269.796 -0.116276 270.383 -0.0475666 270.699 0.364687L282.873 16.136C283.138 16.4796 283.138 16.9658 282.873 17.3094L270.699 33.0807C270.518 33.3185 270.242 33.4454 269.967 33.4454V33.4401Z" fill="url(#paint1_linear_1805_1421)"/>
</g>
<defs>
<linearGradient id="paint0_linear_1805_1421" x1="115.63" y1="16.7174" x2="129.668" y2="16.7174" gradientUnits="userSpaceOnUse">
<stop offset="0.01" stop-color="#BDE4FC" stop-opacity="0"/>
<stop offset="1" stop-color="#BDE4FC"/>
</linearGradient>
<linearGradient id="paint1_linear_1805_1421" x1="269.038" y1="7.71674e-07" x2="283.076" y2="7.71674e-07" gradientUnits="userSpaceOnUse">
<stop offset="0.01" stop-color="#BDE4FC" stop-opacity="0"/>
<stop offset="1" stop-color="#BDE4FC"/>
</linearGradient>
<clipPath id="clip0_1805_1421">
<rect width="422" height="49" fill="white"/>
</clipPath>
</defs>
</svg>
