<svg width="192" height="148" viewBox="0 0 192 148" fill="none" xmlns="http://www.w3.org/2000/svg">
<path d="M20.708 82V41.68H37.508C45.608 41.68 51.368 46.9 51.368 54.34C51.368 60.34 47.708 64.9 42.068 66.1L53.108 82H44.408L34.628 67.3H28.388V82H20.708ZM28.388 47.8V61.12H36.308C40.508 61.12 43.508 58.48 43.508 54.46C43.508 50.56 40.508 47.8 36.308 47.8H28.388ZM60.3173 82V41.68H68.0573L81.2573 59.8L94.3973 41.68H102.137V82H94.7573V52.6L83.4773 68.14H79.0373L67.6973 52.6V82H60.3173ZM136.231 41.68V47.8H119.611V57.52C121.051 57.28 122.551 57.22 123.811 57.22C132.271 57.22 137.671 62.14 137.671 69.82C137.671 77.32 131.611 82.72 122.911 82.72C118.471 82.72 114.031 81.4 110.131 79.06L113.071 73.42C116.251 75.34 119.431 76.42 122.311 76.42C127.111 76.42 130.171 73.78 130.171 69.64C130.171 65.26 126.931 62.56 121.351 62.56C118.891 62.56 116.071 62.92 112.891 63.64V41.68H136.231ZM143.622 61.84C143.622 48.88 149.262 40.96 159.042 40.96C168.822 40.96 174.462 48.88 174.462 61.84C174.462 74.8 168.822 82.72 159.042 82.72C149.262 82.72 143.622 74.8 143.622 61.84ZM150.822 61.84C150.822 70.9 153.942 76.42 159.042 76.42C164.142 76.42 167.262 70.9 167.262 61.84C167.262 52.78 164.142 47.26 159.042 47.26C153.942 47.26 150.822 52.78 150.822 61.84Z" fill="#DCF94D"/>
<path d="M20.708 80V39.68H37.508C45.608 39.68 51.368 44.9 51.368 52.34C51.368 58.34 47.708 62.9 42.068 64.1L53.108 80H44.408L34.628 65.3H28.388V80H20.708ZM28.388 45.8V59.12H36.308C40.508 59.12 43.508 56.48 43.508 52.46C43.508 48.56 40.508 45.8 36.308 45.8H28.388ZM60.3173 80V39.68H68.0573L81.2573 57.8L94.3973 39.68H102.137V80H94.7573V50.6L83.4773 66.14H79.0373L67.6973 50.6V80H60.3173ZM136.231 39.68V45.8H119.611V55.52C121.051 55.28 122.551 55.22 123.811 55.22C132.271 55.22 137.671 60.14 137.671 67.82C137.671 75.32 131.611 80.72 122.911 80.72C118.471 80.72 114.031 79.4 110.131 77.06L113.071 71.42C116.251 73.34 119.431 74.42 122.311 74.42C127.111 74.42 130.171 71.78 130.171 67.64C130.171 63.26 126.931 60.56 121.351 60.56C118.891 60.56 116.071 60.92 112.891 61.64V39.68H136.231ZM143.622 59.84C143.622 46.88 149.262 38.96 159.042 38.96C168.822 38.96 174.462 46.88 174.462 59.84C174.462 72.8 168.822 80.72 159.042 80.72C149.262 80.72 143.622 72.8 143.622 59.84ZM150.822 59.84C150.822 68.9 153.942 74.42 159.042 74.42C164.142 74.42 167.262 68.9 167.262 59.84C167.262 50.78 164.142 45.26 159.042 45.26C153.942 45.26 150.822 50.78 150.822 59.84Z" fill="white"/>
<path d="M39.7442 116V103.46H35.0582V101.216H47.3342V103.46H42.6702V116H39.7442ZM46.8389 110.61C46.8389 107.288 49.2369 104.956 52.6469 104.956C56.0789 104.956 58.4769 107.288 58.4769 110.61C58.4769 113.932 56.0789 116.264 52.6469 116.264C49.2369 116.264 46.8389 113.932 46.8389 110.61ZM49.6989 110.61C49.6989 112.634 50.9309 114.064 52.6469 114.064C54.3849 114.064 55.6169 112.634 55.6169 110.61C55.6169 108.564 54.3849 107.156 52.6469 107.156C50.9309 107.156 49.6989 108.564 49.6989 110.61ZM71.0298 105.22V116H68.7858L68.4338 114.438C67.6418 115.604 66.2998 116.264 64.7378 116.264C62.2738 116.264 60.5138 114.57 60.5138 112.15V105.22H63.3298V111.688C63.3298 113.03 64.2758 113.954 65.5958 113.954C67.1138 113.954 68.2138 112.81 68.2138 111.16V105.22H71.0298ZM73.2647 110.61C73.2647 107.288 75.6187 104.956 78.9627 104.956C80.3927 104.956 81.8007 105.374 83.0987 106.21L81.9547 108.102C81.1187 107.53 80.2607 107.2 79.3587 107.2C77.4667 107.2 76.1247 108.608 76.1247 110.61C76.1247 112.612 77.4667 114.02 79.3587 114.02C80.2607 114.02 81.1187 113.668 81.9547 113.096L83.0987 115.01C81.8007 115.846 80.3927 116.264 78.9627 116.264C75.6187 116.264 73.2647 113.91 73.2647 110.61ZM84.9027 116V100.512H87.7187V106.606C88.4887 105.55 89.7647 104.956 91.2167 104.956C93.6807 104.956 95.4187 106.65 95.4187 109.07V116H92.6027V109.51C92.6027 108.19 91.6567 107.266 90.3587 107.266C88.8407 107.266 87.7187 108.41 87.7187 110.06V116H84.9027ZM105.217 105.858C105.217 106.87 104.491 107.618 103.457 107.618C102.379 107.618 101.653 106.738 101.653 105.44C101.653 103.614 102.687 101.92 104.469 100.82L105.327 101.92C104.447 102.624 103.919 103.394 103.721 104.23C104.601 104.318 105.217 104.978 105.217 105.858ZM107.461 116V105.22H109.705L110.057 106.782C110.871 105.616 112.213 104.956 113.775 104.956C116.239 104.956 117.977 106.65 117.977 109.07V116H115.161V109.51C115.161 108.19 114.215 107.266 112.917 107.266C111.399 107.266 110.277 108.41 110.277 110.06V116H107.461ZM138.917 107.838V115.01C137.069 115.802 135.243 116.264 133.329 116.264C128.643 116.264 125.387 113.096 125.387 108.608C125.387 104.12 128.577 100.952 133.153 100.952C134.957 100.952 136.805 101.48 138.631 102.47L137.553 104.428C136.101 103.658 134.803 103.196 133.483 103.196C130.381 103.196 128.247 105.44 128.247 108.608C128.247 111.82 130.425 114.02 133.549 114.02C134.495 114.02 135.397 113.822 136.211 113.47V109.994H132.889V107.838H138.917ZM141.005 110.61C141.005 107.288 143.403 104.956 146.813 104.956C150.245 104.956 152.643 107.288 152.643 110.61C152.643 113.932 150.245 116.264 146.813 116.264C143.403 116.264 141.005 113.932 141.005 110.61ZM143.865 110.61C143.865 112.634 145.097 114.064 146.813 114.064C148.551 114.064 149.783 112.634 149.783 110.61C149.783 108.564 148.551 107.156 146.813 107.156C145.097 107.156 143.865 108.564 143.865 110.61ZM55.3467 135.61C55.3467 132.288 57.6127 129.956 60.8687 129.956C63.9267 129.956 66.0607 132.178 66.0607 135.412C66.0607 135.72 66.0387 136.028 66.0167 136.314H58.1627C58.3607 138.03 59.7247 139.174 61.5727 139.174C62.4967 139.174 63.5527 138.888 64.6747 138.272L65.5327 140.186C64.0147 140.934 62.4967 141.264 61.2207 141.264C57.7447 141.264 55.3467 138.932 55.3467 135.61ZM60.8687 132.046C59.4167 132.046 58.3387 133.08 58.1627 134.62H63.3547C63.2667 133.08 62.2767 132.046 60.8687 132.046ZM88.6939 126.216L83.9859 141H81.1259L77.8699 129.758L74.5919 141H71.7319L67.0239 126.216H69.9719L73.2279 137.458L76.5059 126.216H79.2339L82.4899 137.458L85.7679 126.216H88.6939ZM88.4111 137.876C88.4111 135.61 90.2591 134.29 93.3831 134.29C94.0431 134.29 94.7691 134.356 95.4731 134.51V133.938C95.4731 132.838 94.5931 132.046 93.2511 132.046C92.1511 132.046 90.9631 132.31 89.7091 132.816L89.0051 130.858C90.6111 130.242 92.1291 129.956 93.5811 129.956C96.3091 129.956 98.1131 131.584 98.1131 133.982V138.36C98.1131 138.822 98.3991 139.13 98.8611 139.13C99.0811 139.13 99.3231 139.086 99.4111 139.064L99.6091 141.11C99.1471 141.198 98.6411 141.264 98.1131 141.264C97.0131 141.264 96.1771 140.714 95.8031 139.812C94.8791 140.736 93.5811 141.264 92.2611 141.264C90.0171 141.264 88.4111 139.856 88.4111 137.876ZM91.1171 137.722C91.1171 138.602 91.9311 139.284 92.9871 139.284C94.4831 139.284 95.4731 138.25 95.4731 136.776V136.138C94.9011 135.984 94.3071 135.918 93.7131 135.918C92.1071 135.918 91.1171 136.6 91.1171 137.722ZM103.725 125.512V137.92C103.725 138.602 104.165 139.02 104.825 139.02C105.089 139.02 105.441 138.954 105.793 138.888L106.101 141.022C105.397 141.176 104.715 141.264 104.143 141.264C102.163 141.264 100.909 140.076 100.909 138.206V125.512H103.725ZM110.213 125.512V137.92C110.213 138.602 110.653 139.02 111.313 139.02C111.577 139.02 111.929 138.954 112.281 138.888L112.589 141.022C111.885 141.176 111.203 141.264 110.631 141.264C108.651 141.264 107.397 140.076 107.397 138.206V125.512H110.213ZM113.247 135.61C113.247 132.288 115.513 129.956 118.769 129.956C121.827 129.956 123.961 132.178 123.961 135.412C123.961 135.72 123.939 136.028 123.917 136.314H116.063C116.261 138.03 117.625 139.174 119.473 139.174C120.397 139.174 121.453 138.888 122.575 138.272L123.433 140.186C121.915 140.934 120.397 141.264 119.121 141.264C115.645 141.264 113.247 138.932 113.247 135.61ZM118.769 132.046C117.317 132.046 116.239 133.08 116.063 134.62H121.255C121.167 133.08 120.177 132.046 118.769 132.046ZM129.616 127.052V130.22H132.608V132.354H129.616V137.502C129.616 138.404 130.232 139.02 131.134 139.02C131.552 139.02 132.014 138.954 132.52 138.822L132.894 140.934C132.036 141.154 131.222 141.264 130.452 141.264C128.296 141.264 126.8 139.856 126.8 137.788V132.354H124.798V130.22H126.8V127.052H129.616Z" fill="#DCF94D"/>
<path d="M57.0965 18V11.994L51.6845 3.216H54.8745L58.5485 9.398L62.2445 3.216H65.4125L60.0225 11.994V18H57.0965ZM64.3809 12.61C64.3809 9.288 66.7789 6.956 70.1889 6.956C73.6209 6.956 76.0189 9.288 76.0189 12.61C76.0189 15.932 73.6209 18.264 70.1889 18.264C66.7789 18.264 64.3809 15.932 64.3809 12.61ZM67.2409 12.61C67.2409 14.634 68.4729 16.064 70.1889 16.064C71.9269 16.064 73.1589 14.634 73.1589 12.61C73.1589 10.564 71.9269 9.156 70.1889 9.156C68.4729 9.156 67.2409 10.564 67.2409 12.61ZM88.5718 7.22V18H86.3278L85.9758 16.438C85.1838 17.604 83.8418 18.264 82.2798 18.264C79.8158 18.264 78.0558 16.57 78.0558 14.15V7.22H80.8718V13.688C80.8718 15.03 81.8178 15.954 83.1378 15.954C84.6558 15.954 85.7558 14.81 85.7558 13.16V7.22H88.5718ZM116.978 3.216L112.27 18H109.41L106.154 6.758L102.876 18H100.016L95.3081 3.216H98.2561L101.512 14.458L104.79 3.216H107.518L110.774 14.458L114.052 3.216H116.978ZM118.751 18V7.22H121.567V18H118.751ZM118.487 4.14C118.487 3.15 119.191 2.446 120.159 2.446C121.149 2.446 121.853 3.15 121.853 4.14C121.853 5.13 121.149 5.834 120.159 5.834C119.191 5.834 118.487 5.13 118.487 4.14ZM124.445 18V7.22H126.689L127.041 8.782C127.855 7.616 129.197 6.956 130.759 6.956C133.223 6.956 134.961 8.65 134.961 11.07V18H132.145V11.51C132.145 10.19 131.199 9.266 129.901 9.266C128.383 9.266 127.261 10.41 127.261 12.06V18H124.445Z" fill="#DCF94D"/>
</svg>
