<svg width="743" height="84" viewBox="0 0 743 84" fill="none" xmlns="http://www.w3.org/2000/svg">
<g clip-path="url(#clip0_1805_1196)">
<path d="M0 12.8387H11.5535C17.2846 12.8387 21.343 16.5536 21.343 21.8268C21.343 26.3933 18.3175 29.8363 13.7198 30.4161L22.5586 42.8925H18.4546L10.1093 30.9507H3.61048V42.8925H0V12.8387ZM3.61048 28.0423H11.0142C14.9355 28.0423 17.6959 25.5869 17.6959 21.9174C17.6959 18.2479 14.9446 15.7472 11.0142 15.7472H3.61048V28.0423Z" fill="#55FFF5"/>
<path d="M45.428 20.6217C51.2962 20.6217 55.3546 25.1429 55.3546 31.6212C55.3546 32.0652 55.3546 32.4729 55.3089 32.9168H38.3442C38.6641 37.5196 41.909 40.6998 46.5066 40.6998C48.4901 40.6998 50.7935 40.12 53.1426 38.8696L54.2669 41.325C51.3785 42.7566 48.5815 43.427 46.141 43.427C39.4593 43.427 34.7246 38.7337 34.7246 32.0199C34.7246 25.306 39.1486 20.6127 45.4189 20.6127L45.428 20.6217ZM38.3442 30.6336H51.8812C51.7441 26.3389 49.1299 23.3399 45.428 23.3399C41.5068 23.3399 38.7098 26.2483 38.3442 30.6336Z" fill="#55FFF5"/>
<path d="M78.5896 20.6217C81.2495 20.6217 83.8728 21.4281 86.3499 23.0771L84.86 25.5325C82.9679 24.2369 81.0667 23.5664 79.0375 23.5664C74.4307 23.5664 71.2316 27.0094 71.2316 32.0199C71.2316 37.0303 74.4307 40.5186 79.0375 40.5186C81.0667 40.5186 82.9588 39.8028 84.86 38.5072L86.3499 40.9626C83.8728 42.6207 81.2495 43.427 78.5896 43.427C72.1365 43.427 67.5388 38.7337 67.5388 32.0199C67.5388 25.306 72.1456 20.6127 78.5896 20.6127V20.6217Z" fill="#55FFF5"/>
<path d="M99.8869 21.1563H102.775L103.223 25.2698C104.311 22.4973 106.879 20.7939 110.033 20.7939C110.846 20.7939 111.833 20.9298 112.784 21.1472L112.382 24.0557C111.523 23.8745 110.627 23.7386 109.768 23.7386C106.02 23.7386 103.452 26.7376 103.452 31.1138V42.8743H99.8869V21.1382V21.1563Z" fill="#55FFF5"/>
<path d="M144.958 42.8924H142.07L141.622 38.9149C140.087 41.778 137.152 43.4361 133.679 43.4361C128.807 43.4361 125.38 40.129 125.38 35.345V21.1653H128.944V34.8558C128.944 38.1629 131.385 40.4461 134.721 40.4461C138.514 40.4461 141.357 37.583 141.357 33.4242V21.1653H144.968V42.9015L144.958 42.8924Z" fill="#55FFF5"/>
<path d="M162.417 12.1683C163.815 12.1683 164.812 13.1559 164.812 14.5421C164.812 15.9284 163.815 16.916 162.417 16.916C161.018 16.916 159.976 15.9284 159.976 14.5421C159.976 13.1559 160.973 12.1683 162.417 12.1683ZM160.607 21.1563H164.172V42.8925H160.607V21.1563Z" fill="#55FFF5"/>
<path d="M185.606 21.1563H192.507V23.9741H185.606V36.7676C185.606 39.0055 187.142 40.5277 189.399 40.5277C190.35 40.5277 191.383 40.3465 192.516 40.0837L193.01 42.8562C191.474 43.2549 190.03 43.4361 188.632 43.4361C184.71 43.4361 182.041 40.8448 182.041 37.0847V23.9832H177.48V21.1654H182.041V14.7233H185.606V21.1654V21.1563Z" fill="#55FFF5"/>
<path d="M253.337 12.8387H256.81L269.305 42.8925H265.512L262.176 34.6655H247.962L244.626 42.8925H240.833L253.328 12.8387H253.337ZM249.004 31.8477H261.097L255.055 17.0428L249.013 31.8477H249.004Z" fill="#DCF94D"/>
<path d="M291.818 20.6217C294.478 20.6217 297.101 21.4281 299.578 23.0771L298.088 25.5325C296.196 24.2369 294.295 23.5664 292.266 23.5664C287.659 23.5664 284.46 27.0094 284.46 32.0199C284.46 37.0303 287.659 40.5186 292.266 40.5186C294.295 40.5186 296.187 39.8028 298.088 38.5072L299.578 40.9626C297.101 42.6207 294.478 43.427 291.818 43.427C285.365 43.427 280.767 38.7337 280.767 32.0199C280.767 25.306 285.374 20.6127 291.818 20.6127V20.6217Z" fill="#DCF94D"/>
<path d="M319.377 21.1563H326.278V23.9741H319.377V36.7676C319.377 39.0055 320.912 40.5277 323.17 40.5277C324.12 40.5277 325.153 40.3465 326.287 40.0837L326.78 42.8562C325.245 43.2549 323.801 43.4361 322.402 43.4361C318.481 43.4361 315.812 40.8448 315.812 37.0847V23.9832H311.251V21.1654H315.812V14.7233H319.377V21.1654V21.1563Z" fill="#DCF94D"/>
<path d="M342.118 12.1683C343.517 12.1683 344.513 13.1559 344.513 14.5421C344.513 15.9284 343.517 16.916 342.118 16.916C340.72 16.916 339.678 15.9284 339.678 14.5421C339.678 13.1559 340.674 12.1683 342.118 12.1683ZM340.308 21.1563H343.873V42.8925H340.308V21.1563Z" fill="#DCF94D"/>
<path d="M369.411 42.8925H366.075L357.054 21.1563H360.801L367.748 38.779L374.649 21.1563H378.442L369.421 42.8925H369.411Z" fill="#DCF94D"/>
<path d="M399.456 29.7004C400.992 29.7004 402.655 29.8816 404.374 30.3255V28.0876C404.374 25.3151 402.207 23.349 399.008 23.349C396.659 23.349 394.273 23.8835 391.742 24.9617L390.745 22.3704C393.816 21.2107 396.613 20.6308 399.41 20.6308C404.374 20.6308 407.801 23.6751 407.801 28.1873V38.6975C407.801 39.9025 408.523 40.6636 409.785 40.6636C410.15 40.6636 410.69 40.573 410.955 40.5277L411.229 43.2096C410.507 43.3455 409.693 43.4361 408.88 43.4361C406.485 43.4361 404.959 42.0498 404.684 39.8119C402.92 42.0951 400.078 43.4361 397.061 43.4361C392.729 43.4361 389.438 40.6183 389.438 36.9035C389.438 32.337 393.231 29.7004 399.456 29.7004ZM397.93 40.8357C401.723 40.8357 404.383 38.1538 404.383 34.3031V32.4729C402.847 32.1105 401.357 31.9383 399.867 31.9383C395.535 31.9383 392.966 33.7232 392.966 36.677C392.966 39.0508 395.087 40.8357 397.93 40.8357Z" fill="#DCF94D"/>
<path d="M428.468 21.1563H435.369V23.9741H428.468V36.7676C428.468 39.0055 430.003 40.5277 432.261 40.5277C433.212 40.5277 434.245 40.3465 435.378 40.0837L435.872 42.8562C434.336 43.2549 432.892 43.4361 431.493 43.4361C427.572 43.4361 424.903 40.8448 424.903 37.0847V23.9832H420.342V21.1654H424.903V14.7233H428.468V21.1654V21.1563Z" fill="#DCF94D"/>
<path d="M457.434 20.6217C463.302 20.6217 467.361 25.1429 467.361 31.6212C467.361 32.0652 467.361 32.4729 467.315 32.9168H450.35C450.67 37.5196 453.915 40.6998 458.513 40.6998C460.496 40.6998 462.799 40.12 465.149 38.8696L466.273 41.325C463.384 42.7566 460.587 43.427 458.147 43.427C451.465 43.427 446.73 38.7337 446.73 32.0199C446.73 25.306 451.154 20.6127 457.425 20.6127L457.434 20.6217ZM450.35 30.6336H463.887C463.75 26.3389 461.136 23.3399 457.434 23.3399C453.513 23.3399 450.716 26.2483 450.35 30.6336Z" fill="#DCF94D"/>
<path d="M519.406 12.8387H530.823C536.737 12.8387 540.978 16.7257 540.978 22.2798C540.978 27.8339 536.737 31.6755 530.823 31.6755H523.017V42.9015H519.406V12.8387ZM523.017 28.7581H530.283C534.387 28.7581 537.322 26.0762 537.322 22.2707C537.322 18.4653 534.387 15.7381 530.283 15.7381H523.017V28.749V28.7581Z" fill="white"/>
<path d="M554.999 21.1563H557.888L558.335 25.2698C559.423 22.4973 561.992 20.7939 565.145 20.7939C565.959 20.7939 566.946 20.9298 567.896 21.1472L567.494 24.0557C566.635 23.8745 565.739 23.7386 564.88 23.7386C561.132 23.7386 558.564 26.7376 558.564 31.1138V42.8743H554.999V21.1382V21.1563Z" fill="white"/>
<path d="M589.916 20.6217C596.415 20.6217 601.058 25.315 601.058 32.0289C601.058 38.7427 596.415 43.4361 589.916 43.4361C583.417 43.4361 578.728 38.7427 578.728 32.0289C578.728 25.315 583.371 20.6217 589.916 20.6217ZM589.916 40.5639C594.294 40.5639 597.402 37.0756 597.402 32.0198C597.402 26.9641 594.285 23.4758 589.916 23.4758C585.547 23.4758 582.43 27.0094 582.43 32.0198C582.43 37.0303 585.501 40.5639 589.916 40.5639Z" fill="white"/>
<path d="M615.18 21.1563H618.068L618.516 24.9617C620.052 22.1892 622.757 20.6217 626.048 20.6217C629.338 20.6217 632.227 22.4519 633.269 25.3604C634.987 22.4066 637.83 20.6217 641.303 20.6217C645.992 20.6217 649.292 23.8382 649.292 28.3594V42.8924H645.682V28.8939C645.682 25.8043 643.47 23.6117 640.316 23.6117C636.66 23.6117 634.046 26.3842 634.046 30.2802V42.8924H630.435V28.8939C630.435 25.8043 628.223 23.6117 625.024 23.6117C621.368 23.6117 618.754 26.3842 618.754 30.2802V42.8924H615.189V21.1563H615.18Z" fill="white"/>
<path d="M674.191 20.6217C680.69 20.6217 685.333 25.315 685.333 32.0289C685.333 38.7427 680.69 43.4361 674.191 43.4361C667.692 43.4361 663.003 38.7427 663.003 32.0289C663.003 25.315 667.646 20.6217 674.191 20.6217ZM674.191 40.5639C678.569 40.5639 681.677 37.0756 681.677 32.0198C681.677 26.9641 678.56 23.4758 674.191 23.4758C669.822 23.4758 666.705 27.0094 666.705 32.0198C666.705 37.0303 669.776 40.5639 674.191 40.5639Z" fill="white"/>
<path d="M704.107 21.1563H711.008V23.9741H704.107V36.7676C704.107 39.0055 705.643 40.5277 707.901 40.5277C708.851 40.5277 709.884 40.3465 711.018 40.0837L711.511 42.8562C709.976 43.2549 708.531 43.4361 707.133 43.4361C703.212 43.4361 700.543 40.8448 700.543 37.0847V23.9832H695.982V21.1654H700.543V14.7233H704.107V21.1654V21.1563Z" fill="white"/>
<path d="M733.073 20.6217C738.942 20.6217 743 25.1429 743 31.6212C743 32.0652 743 32.4729 742.954 32.9168H725.99C726.31 37.5196 729.554 40.6998 734.152 40.6998C736.136 40.6998 738.439 40.12 740.788 38.8696L741.912 41.325C739.024 42.7566 736.227 43.427 733.786 43.427C727.105 43.427 722.37 38.7337 722.37 32.0199C722.37 25.306 726.794 20.6127 733.064 20.6127L733.073 20.6217ZM725.99 30.6336H739.527C739.39 26.3389 736.775 23.3399 733.073 23.3399C729.152 23.3399 726.355 26.2483 725.99 30.6336Z" fill="white"/>
<path d="M6.70909 69.4946C10.5115 69.4946 13.208 72.0225 13.208 75.6014C13.208 77.6581 12.3213 79.3343 10.8863 80.4125L13.2262 82.0615L11.6724 84.0095L8.29039 81.536C7.79681 81.6447 7.28494 81.7081 6.71823 81.7081C2.9158 81.7081 0.237652 79.1803 0.237652 75.6014C0.237652 72.0225 2.90666 69.4946 6.71823 69.4946H6.70909ZM6.70909 79.1984C8.58288 79.1984 9.89911 77.7034 9.89911 75.6014C9.89911 73.4993 8.59203 72.0043 6.70909 72.0043C4.82616 72.0043 3.53736 73.4993 3.53736 75.6014C3.53736 77.7034 4.82616 79.1984 6.70909 79.1984Z" fill="white"/>
<path d="M34.5235 76.7606C34.5235 79.7234 32.0647 81.7077 28.6279 81.7077C25.1911 81.7077 22.7323 79.7234 22.7323 76.7606V69.7115H25.968V76.6428C25.968 78.165 27.0649 79.207 28.6188 79.207C30.1726 79.207 31.2695 78.1741 31.2695 76.6428V69.7115H34.5052V76.7606H34.5235Z" fill="white"/>
<path d="M47.9234 69.7025H50.9123L55.7293 81.4902H52.4936L51.607 79.1073H47.2379L46.3512 81.4902H43.0972L47.9325 69.7025H47.9234ZM48.0696 76.7969H50.7569L49.4133 73.1999L48.0696 76.7969Z" fill="white"/>
<path d="M64.7235 69.7025H67.9593V79.0348H72.7946V81.4902H64.7235V69.7025Z" fill="white"/>
<path d="M82.3006 69.7025H85.5364V81.4902H82.3006V69.7025Z" fill="white"/>
<path d="M98.4884 72.1579H95.0333V69.7025H105.161V72.1579H101.724V81.4902H98.4884V72.1579Z" fill="white"/>
<path d="M117.994 76.9328L113.68 69.7025H117.181L119.621 74.0878L122.062 69.7025H125.562L121.239 76.9328V81.4902H117.985V76.9328H117.994Z" fill="white"/>
<path d="M146.357 69.7025H151.741C154.273 69.7025 156.055 71.2972 156.055 73.5804C156.055 75.2838 155.095 76.6338 153.56 77.0687L156.603 81.4902H153.103L150.571 77.5761H149.474V81.4902H146.357V69.7025ZM149.474 75.1298H151.229C152.189 75.1298 152.874 74.5499 152.874 73.6348C152.874 72.7197 152.179 72.1579 151.229 72.1579H149.474V75.1207V75.1298Z" fill="white"/>
<path d="M166.164 69.7025H174.784V72.0854H169.4V74.2962H174.217V76.6157H169.4V79.1073H175.067V81.4902H166.164V69.7025Z" fill="white"/>
<path d="M190.505 69.4941C192.032 69.4941 193.622 69.9834 195.021 70.8804L193.732 73.0005C192.809 72.3844 191.913 72.0401 190.953 72.0401C188.878 72.0401 187.471 73.4989 187.471 75.6009C187.471 77.7029 188.887 79.1617 190.953 79.1617C191.913 79.1617 192.809 78.8083 193.732 78.1922L195.021 80.3124C193.622 81.2093 192.032 81.6986 190.505 81.6986C186.758 81.6986 184.153 79.1526 184.153 75.5918C184.153 72.031 186.758 69.485 190.505 69.485V69.4941Z" fill="white"/>
<path d="M204.445 69.7025H209.828C212.36 69.7025 214.143 71.2972 214.143 73.5804C214.143 75.2838 213.183 76.6338 211.647 77.0687L214.691 81.4902H211.19L208.658 77.5761H207.561V81.4902H204.445V69.7025ZM207.552 75.1298H209.307C210.267 75.1298 210.953 74.5499 210.953 73.6348C210.953 72.7197 210.258 72.1579 209.307 72.1579H207.552V75.1207V75.1298Z" fill="white"/>
<path d="M235.613 76.7606C235.613 79.7234 233.155 81.7077 229.718 81.7077C226.281 81.7077 223.822 79.7234 223.822 76.7606V69.7115H227.058V76.6428C227.058 78.165 228.155 79.207 229.709 79.207C231.263 79.207 232.359 78.1741 232.359 76.6428V69.7115H235.595V76.7606H235.613Z" fill="white"/>
<path d="M245.887 69.7025H249.123V81.4902H245.887V69.7025Z" fill="white"/>
<path d="M262.066 72.1579H258.611V69.7025H268.738V72.1579H265.302V81.4902H262.066V72.1579Z" fill="white"/>
<path d="M278.245 69.7025H281.361L284.78 74.3868L288.198 69.7025H291.315V81.4902H288.345V74.0697L285.676 77.7392H283.902L281.252 74.0697V81.4902H278.263V69.7025H278.245Z" fill="white"/>
<path d="M301.726 69.7025H310.346V72.0854H304.962V74.2962H309.779V76.6157H304.962V79.1073H310.629V81.4902H301.726V69.7025Z" fill="white"/>
<path d="M320.437 69.7025H323.554L328.974 77.1231V69.7025H331.945V81.4902H328.828L323.426 74.0697V81.4902H320.437V69.7025Z" fill="white"/>
<path d="M344.878 72.1579H341.423V69.7025H351.551V72.1579H348.114V81.4902H344.878V72.1579Z" fill="white"/>
<path d="M205.231 57.3259C204.874 57.3259 204.518 57.2171 204.216 56.9816C203.503 56.4289 203.375 55.405 203.942 54.6983L224.581 28.6675L203.942 2.63662C203.384 1.9299 203.503 0.906062 204.216 0.353371C204.929 -0.199321 205.962 -0.081534 206.519 0.625186L227.954 27.6618C228.42 28.2507 228.42 29.0843 227.954 29.6732L206.519 56.7098C206.199 57.1175 205.715 57.3349 205.231 57.3349V57.3259Z" fill="url(#paint0_linear_1805_1196)"/>
<path d="M475.322 57.3259C474.965 57.3259 474.609 57.2171 474.307 56.9816C473.594 56.4289 473.466 55.405 474.033 54.6983L494.672 28.6675L474.033 2.63662C473.475 1.9299 473.594 0.906062 474.307 0.353371C475.02 -0.199321 476.053 -0.081534 476.611 0.625186L498.045 27.6618C498.511 28.2507 498.511 29.0843 498.045 29.6732L476.611 56.7098C476.291 57.1175 475.806 57.3349 475.322 57.3349V57.3259Z" fill="url(#paint1_linear_1805_1196)"/>
</g>
<defs>
<linearGradient id="paint0_linear_1805_1196" x1="203.585" y1="28.6584" x2="228.301" y2="28.6584" gradientUnits="userSpaceOnUse">
<stop offset="0.01" stop-color="#BDE4FC" stop-opacity="0"/>
<stop offset="1" stop-color="#BDE4FC"/>
</linearGradient>
<linearGradient id="paint1_linear_1805_1196" x1="473.686" y1="1.00423e-05" x2="498.401" y2="1.00423e-05" gradientUnits="userSpaceOnUse">
<stop offset="0.01" stop-color="#BDE4FC" stop-opacity="0"/>
<stop offset="1" stop-color="#BDE4FC"/>
</linearGradient>
<clipPath id="clip0_1805_1196">
<rect width="743" height="84" fill="white"/>
</clipPath>
</defs>
</svg>
