<svg width="398" height="59" viewBox="0 0 398 59" fill="none" xmlns="http://www.w3.org/2000/svg">
<g clip-path="url(#clip0_2125_3337)">
<path d="M4.94319 0V3.45634H2.67863V6.91267H0.414062V51.8807H2.67863V55.337H4.94319V58.7934H393.466V55.337H395.736V51.8807H398.001V6.91267H395.736V3.45634H393.466V0H4.94319Z" fill="#00C4D9"/>
<path d="M5.0839 3.45636V6.9127H2.81934V10.3779H5.0839V6.9127H393.223V10.3779H395.493V6.9127H393.223V3.45636L5.0839 3.45636Z" fill="white"/>
<path d="M5.0839 6.91266V10.3779H2.81934V48.2284H5.0839V51.6936H393.299V48.2284H395.569V10.3779H393.299V6.91266H5.0839Z" fill="#55FFF5"/>
<path d="M165.221 22.24C165.221 18.82 168.281 16.48 172.691 16.48C174.881 16.48 177.131 16.96 179.561 17.89L178.661 20.86C176.621 20.05 174.701 19.63 172.991 19.63C170.651 19.63 169.151 20.65 169.151 22.24C169.151 26.56 180.281 23.74 180.281 31.48C180.281 34.99 177.191 37.36 172.691 37.36C170.381 37.36 167.831 36.85 165.101 35.71L166.001 32.74C168.341 33.64 170.561 34.21 172.391 34.21C174.851 34.21 176.381 33.16 176.381 31.48C176.381 27.04 165.221 29.8 165.221 22.24ZM188.269 17.98V22.3H192.349V25.21H188.269V32.23C188.269 33.46 189.109 34.3 190.339 34.3C190.909 34.3 191.539 34.21 192.229 34.03L192.739 36.91C191.569 37.21 190.459 37.36 189.409 37.36C186.469 37.36 184.429 35.44 184.429 32.62V25.21H181.699V22.3H184.429V17.98H188.269ZM194.57 32.74C194.57 29.65 197.09 27.85 201.35 27.85C202.25 27.85 203.24 27.94 204.2 28.15V27.37C204.2 25.87 203 24.79 201.17 24.79C199.67 24.79 198.05 25.15 196.34 25.84L195.38 23.17C197.57 22.33 199.64 21.94 201.62 21.94C205.34 21.94 207.8 24.16 207.8 27.43V33.4C207.8 34.03 208.19 34.45 208.82 34.45C209.12 34.45 209.45 34.39 209.57 34.36L209.84 37.15C209.21 37.27 208.52 37.36 207.8 37.36C206.3 37.36 205.16 36.61 204.65 35.38C203.39 36.64 201.62 37.36 199.82 37.36C196.76 37.36 194.57 35.44 194.57 32.74ZM198.26 32.53C198.26 33.73 199.37 34.66 200.81 34.66C202.85 34.66 204.2 33.25 204.2 31.24V30.37C203.42 30.16 202.61 30.07 201.8 30.07C199.61 30.07 198.26 31 198.26 32.53ZM211.964 37V22.3H215.024L215.504 24.58C216.344 22.99 217.934 22.06 219.854 22.06C220.364 22.06 221.024 22.12 221.624 22.27L221.264 25.33C220.754 25.21 220.124 25.12 219.554 25.12C217.274 25.12 215.804 26.89 215.804 29.41V37H211.964ZM230.017 17.98V22.3H234.097V25.21H230.017V32.23C230.017 33.46 230.857 34.3 232.087 34.3C232.657 34.3 233.287 34.21 233.977 34.03L234.487 36.91C233.317 37.21 232.207 37.36 231.157 37.36C228.217 37.36 226.177 35.44 226.177 32.62V25.21H223.447V22.3H226.177V17.98H230.017Z" fill="#004C97"/>
</g>
<defs>
<clipPath id="clip0_2125_3337">
<rect width="397.446" height="58.7934" fill="white" transform="translate(0.554688)"/>
</clipPath>
</defs>
</svg>
