<svg width="398" height="59" viewBox="0 0 398 59" fill="none" xmlns="http://www.w3.org/2000/svg">
<g clip-path="url(#clip0_2238_1009)">
<path d="M4.94319 0V3.45634H2.67863V6.91267H0.414062V51.8807H2.67863V55.337H4.94319V58.7934H393.466V55.337H395.736V51.8807H398.001V6.91267H395.736V3.45634H393.466V0H4.94319Z" fill="#00C4D9"/>
<path d="M5.0839 3.4563V6.91264H2.81934V10.3779H5.0839V6.91264H393.223V10.3779H395.493V6.91264H393.223V3.4563L5.0839 3.4563Z" fill="white"/>
<path d="M5.0839 6.91272V10.378H2.81934V48.2284H5.0839V51.6937H393.299V48.2284H395.569V10.378H393.299V6.91272H5.0839Z" fill="#55FFF5"/>
<path d="M131.315 16.84L123.065 37H119.375L111.125 16.84H115.295L121.235 32.17L127.145 16.84H131.315ZM133.375 37V22.3H137.215V37H133.375ZM133.015 18.1C133.015 16.75 133.975 15.79 135.295 15.79C136.645 15.79 137.605 16.75 137.605 18.1C137.605 19.45 136.645 20.41 135.295 20.41C133.975 20.41 133.015 19.45 133.015 18.1ZM140.268 29.65C140.268 25.12 143.358 21.94 147.798 21.94C151.968 21.94 154.878 24.97 154.878 29.38C154.878 29.8 154.848 30.22 154.818 30.61H144.108C144.378 32.95 146.238 34.51 148.758 34.51C150.018 34.51 151.458 34.12 152.988 33.28L154.158 35.89C152.088 36.91 150.018 37.36 148.278 37.36C143.538 37.36 140.268 34.18 140.268 29.65ZM147.798 24.79C145.818 24.79 144.348 26.2 144.108 28.3H151.188C151.068 26.2 149.718 24.79 147.798 24.79ZM178.61 22.3L173.84 37H170.12L167.24 26.68L164.39 37H160.67L155.87 22.3H159.74L162.59 32.62L165.47 22.3H169.04L171.89 32.62L174.77 22.3H178.61ZM188.408 37V16.84H196.808C200.858 16.84 203.738 19.45 203.738 23.17C203.738 26.17 201.908 28.45 199.088 29.05L204.608 37H200.258L195.368 29.65H192.248V37H188.408ZM192.248 19.9V26.56H196.208C198.308 26.56 199.808 25.24 199.808 23.23C199.808 21.28 198.308 19.9 196.208 19.9H192.248ZM206.304 29.65C206.304 25.12 209.394 21.94 213.834 21.94C218.004 21.94 220.914 24.97 220.914 29.38C220.914 29.8 220.884 30.22 220.854 30.61H210.144C210.414 32.95 212.274 34.51 214.794 34.51C216.054 34.51 217.494 34.12 219.024 33.28L220.194 35.89C218.124 36.91 216.054 37.36 214.314 37.36C209.574 37.36 206.304 34.18 206.304 29.65ZM213.834 24.79C211.854 24.79 210.384 26.2 210.144 28.3H217.224C217.104 26.2 215.754 24.79 213.834 24.79ZM222.947 26.38C222.947 23.8 225.287 21.94 228.677 21.94C230.387 21.94 232.217 22.3 234.077 22.96L233.237 25.72C231.767 25.15 230.297 24.79 228.977 24.79C227.597 24.79 226.697 25.42 226.697 26.38C226.697 29.05 234.557 27.1 234.557 32.8C234.557 35.47 232.157 37.36 228.677 37.36C226.877 37.36 224.897 36.97 222.827 36.19L223.637 33.46C225.347 34.15 226.967 34.51 228.377 34.51C229.847 34.51 230.777 33.82 230.777 32.8C230.777 30.01 222.947 31.96 222.947 26.38ZM251.684 22.3V37H248.624L248.144 34.87C247.064 36.46 245.234 37.36 243.104 37.36C239.744 37.36 237.344 35.05 237.344 31.75V22.3H241.184V31.12C241.184 32.95 242.474 34.21 244.274 34.21C246.344 34.21 247.844 32.65 247.844 30.4V22.3H251.684ZM259.441 15.88V32.8C259.441 33.73 260.041 34.3 260.941 34.3C261.301 34.3 261.781 34.21 262.261 34.12L262.681 37.03C261.721 37.24 260.791 37.36 260.011 37.36C257.311 37.36 255.601 35.74 255.601 33.19V15.88H259.441ZM268.997 17.98V22.3H273.077V25.21H268.997V32.23C268.997 33.46 269.837 34.3 271.067 34.3C271.637 34.3 272.267 34.21 272.957 34.03L273.467 36.91C272.297 37.21 271.187 37.36 270.137 37.36C267.197 37.36 265.157 35.44 265.157 32.62V25.21H262.427V22.3H265.157V17.98H268.997ZM275.418 26.38C275.418 23.8 277.758 21.94 281.148 21.94C282.858 21.94 284.688 22.3 286.548 22.96L285.708 25.72C284.238 25.15 282.768 24.79 281.448 24.79C280.068 24.79 279.168 25.42 279.168 26.38C279.168 29.05 287.028 27.1 287.028 32.8C287.028 35.47 284.628 37.36 281.148 37.36C279.348 37.36 277.368 36.97 275.298 36.19L276.108 33.46C277.818 34.15 279.438 34.51 280.848 34.51C282.318 34.51 283.248 33.82 283.248 32.8C283.248 30.01 275.418 31.96 275.418 26.38Z" fill="#004C97"/>
</g>
<defs>
<clipPath id="clip0_2238_1009">
<rect width="397.446" height="58.7934" fill="white" transform="translate(0.554688)"/>
</clipPath>
</defs>
</svg>
