<svg width="477" height="160" viewBox="0 0 477 160" fill="none" xmlns="http://www.w3.org/2000/svg">
<g clip-path="url(#clip0_2467_12014)">
<g clip-path="url(#clip1_2467_12014)" filter="url(#filter0_d_2467_12014)">
<path d="M87.4676 54.8944C87.4676 54.8944 107.717 55.6525 110.85 65.7317C117.268 86.3811 35.9523 112.655 13.0028 87.1248C-3.97641 68.2298 35.9306 62.4755 35.9306 62.4755C35.9306 62.4755 40.4858 43.1979 42.3917 37.5301C46.0445 26.6856 50.903 17.0973 56.7937 15.8555C60.4899 15.0757 64.5903 20.8373 71.6434 17.2706C79.9886 13.0541 87.9512 23.4366 87.7058 34.5482C87.482 44.5191 87.4603 54.8872 87.4603 54.8872L87.4676 54.8944Z" fill="#321815"/>
<path d="M104.31 134.785C107.782 142.979 126.335 143.918 126.335 143.918C126.335 143.918 116.582 113.464 113.138 102.54C110.489 94.1428 107.32 77.2407 102.794 70.0062C100.974 67.1037 96.8884 65.7752 90.1963 63.833L94.4555 78.8002C94.4555 78.8002 93.8925 110.215 104.31 134.785Z" fill="#6D98DD"/>
<path d="M138.831 171.802C143.04 165.556 144.325 158.026 137.481 147.846C134.009 142.676 117.189 127.355 109.998 126.315C103.797 125.42 103.371 134.972 98.0869 139.441C98.0869 139.441 114.496 161.145 117.55 165.224C123.657 173.405 125.202 179.029 125.202 179.029C125.202 179.029 135.157 177.246 138.831 171.809V171.802Z" fill="#6D98DD"/>
<path d="M89.0415 122.676C84.0531 136.373 61.3203 183.838 84.5007 194.018C94.3475 198.343 142.65 211.909 142.65 211.909C142.65 211.909 199.573 222.407 188.592 191.585C183.626 177.636 113.464 159.773 113.464 159.773L105.089 115.702C105.089 115.702 92.5355 120.77 89.0343 122.669L89.0415 122.676Z" fill="#141623"/>
<path d="M69.6655 120.915C65.4856 127.745 33.0792 178.978 40.8975 195.245C42.63 198.855 45.9147 203.837 49.8636 209.296C61.7173 225.656 79.5845 246.204 79.5845 246.204C79.5845 246.204 79.7577 261.381 83.0857 269.143C90.904 287.388 136.182 341.221 136.182 341.221L151.667 330.795C151.667 330.795 126.054 258.919 117.051 236.573C109.045 216.696 88.9548 171.621 88.9548 171.621C88.9548 171.621 89.8139 163.881 90.7957 150.387C91.4165 141.824 92.6365 130.395 94.0515 119.723C89.72 122.51 82.7681 119.926 69.6655 120.915Z" fill="#1F254C"/>
<path d="M66.818 42.7456L66.6111 42.7772C64.4946 43.1003 63.0407 45.0783 63.3639 47.1951L65.4992 61.1843C65.8223 63.3011 67.8 64.7551 69.9165 64.432L70.1235 64.4004C72.2399 64.0772 73.6938 62.0992 73.3707 59.9825L71.2353 45.9932C70.9122 43.8764 68.9345 42.4224 66.818 42.7456Z" fill="#FB8875"/>
<path d="M63.0962 46.0354C62.663 43.2196 64.5472 43.0896 66.7202 42.7575C68.8931 42.4254 71.0083 44.4398 71.4342 47.2556L72.5604 54.6201C72.7986 56.1579 70.1203 58.0135 66.6119 53.0894C64.8793 50.6563 63.0962 46.0354 63.0962 46.0354Z" fill="#E54945"/>
<path d="M107.111 127.925C107.111 127.925 104.093 127.925 90.1966 129.362C72.4016 131.203 62.1794 133.333 62.1794 133.333L45.5683 94.085L35.606 78.2442C35.606 78.2442 37.3385 73.7172 50.997 67.0892C53.9785 65.638 67.7958 59.0894 67.7958 59.0894C67.7958 59.0894 78.2562 60.6778 82.4361 61.4648C82.8115 61.537 84.2841 61.8474 84.5368 61.9268C95.6397 65.212 97.0042 65.6452 99.2421 67.0892C100.375 67.8184 103.306 75.0962 104.671 79.5943C108.728 93.0092 107.111 127.925 107.111 127.925Z" fill="#E5F4FD"/>
<path d="M52.3972 143.066C51.6681 151.939 32.8335 146.459 32.8335 146.459C32.8335 146.459 32.2199 122.344 30.9854 110.958C29.4189 96.5037 31.563 81.4788 37.1939 76.0999L49.1992 91.8035C49.1992 91.8035 54.5846 116.46 52.39 143.066H52.3972Z" fill="#A5D6FF"/>
<path d="M55.5811 64.8725C55.5811 64.8725 67.8318 75.3055 77.8374 75.5221C87.8359 75.7315 82.4432 61.4646 82.4432 61.4646L68.7198 58.656L55.5811 64.8797V64.8725Z" fill="#FB8875"/>
<path d="M79.2885 34.137C79.2957 33.3284 79.2018 32.5342 79.043 31.7688C78.4077 28.4909 76.2492 25.7545 73.3255 24.3322C73.275 24.3033 73.2244 24.2816 73.1739 24.2527C72.9501 24.1517 72.7263 24.0578 72.4953 23.9639C72.3798 23.9206 72.2643 23.8773 72.1488 23.834C71.9539 23.769 71.759 23.7112 71.5641 23.6535C71.4269 23.6174 71.2825 23.5741 71.1454 23.5452C70.9432 23.4946 70.7339 23.4585 70.5317 23.4224C70.4018 23.4008 70.2718 23.3791 70.1419 23.3647C69.8892 23.3286 69.6366 23.3069 69.3839 23.2925C69.3406 23.2925 69.2973 23.2853 69.254 23.278C69.2251 23.278 69.2034 23.278 69.1818 23.278C68.9363 23.2708 68.6836 23.2636 68.431 23.2708C62.7279 23.4224 58.2449 28.2382 58.1943 33.9421C58.1943 33.9421 58.3748 41.9347 58.5192 43.7469C58.7791 47.0104 61.84 49.5085 64.5688 51.5157C65.7527 52.3893 67.1604 52.8009 68.5681 52.7648C69.9686 52.8225 71.3836 52.4399 72.5892 51.5879C75.3613 49.6313 78.6748 46.6638 79.1224 43.6603C79.5339 40.8806 79.3462 33.7327 79.2957 34.1298L79.2885 34.137Z" fill="#FA6E5C"/>
<path d="M69.3766 23.2851C69.3333 23.2851 69.29 23.2779 69.2467 23.2707C69.2178 23.2707 69.1961 23.2707 69.1745 23.2707C68.929 23.2635 68.6764 23.2563 68.4237 23.2635C62.7206 23.4151 58.2376 28.2309 58.1871 33.9347C58.1149 33.3066 58.1582 39.8696 58.5191 43.8046C58.8079 46.9814 61.8327 49.5012 64.5687 51.5084C65.7526 52.382 67.1604 52.7936 68.5681 52.7575C69.3261 52.7936 71.7734 48.4038 71.8672 36.6423C71.9538 26.3898 69.4993 23.2779 69.3838 23.2707L69.3766 23.2851Z" fill="#FB8875"/>
<path d="M67.9043 41.2704C67.9043 41.2704 69.0738 39.8914 69.608 39.9708C70.1061 40.0503 71.1457 41.2704 70.9435 41.2993C70.7342 41.3354 67.9115 41.2632 67.9115 41.2632L67.9043 41.2704Z" fill="#E54945"/>
<path d="M70.5247 41.4147C69.7306 41.4147 68.128 41.3786 67.9042 41.3714C67.8681 41.3714 67.832 41.3497 67.8176 41.3136C67.8031 41.2775 67.8103 41.2414 67.832 41.2126C67.9547 41.0682 69.052 39.7902 69.6223 39.8841C70.1132 39.9635 71.0662 41.0032 71.0662 41.2775C71.0662 41.3425 71.0228 41.4003 70.9579 41.4075C70.9146 41.4147 70.7557 41.4147 70.5319 41.4147H70.5247ZM68.1136 41.1765C69.1314 41.1981 70.4886 41.2198 70.8424 41.2126C70.7052 40.9526 69.9761 40.1296 69.5862 40.0718C69.5718 40.0718 69.5646 40.0718 69.5502 40.0718C69.2181 40.0718 68.5467 40.6927 68.1136 41.1837V41.1765Z" fill="#E54945"/>
<path d="M63.7457 37.9925C63.7384 38.5917 63.4208 39.0755 63.0454 39.0755C62.6628 39.0755 62.3596 38.5773 62.374 37.978C62.3812 37.3788 62.6989 36.895 63.0743 36.895C63.4569 36.895 63.7601 37.3932 63.7457 37.9925Z" fill="#293159"/>
<path d="M59.429 34.7722C59.2124 34.7577 61.4864 34.144 62.5837 34.0863C65.2692 33.9491 65.7024 35.2487 65.558 35.5375C65.4064 35.8335 62.2083 34.9238 59.429 34.7722Z" fill="#321815"/>
<path d="M64.4747 37.4652C64.4747 37.4652 63.1681 36.0429 61.9914 36.5266C60.8147 37.0104 60.1216 37.0465 59.8906 37.0176C59.8906 37.0176 61.6304 37.7757 62.2079 37.4363C62.7927 37.097 63.3197 37.1403 64.4675 37.458L64.4747 37.4652Z" fill="#111523"/>
<path d="M74.9426 39.5591C75.3214 39.5591 75.6285 39.071 75.6285 38.4689C75.6285 37.8668 75.3214 37.3787 74.9426 37.3787C74.5639 37.3787 74.2568 37.8668 74.2568 38.4689C74.2568 39.071 74.5639 39.5591 74.9426 39.5591Z" fill="#293159"/>
<path d="M78.574 35.2922C78.7906 35.285 76.5238 34.6351 75.4265 34.5702C72.7483 34.4041 72.2935 35.6893 72.4378 35.9853C72.5822 36.2813 75.7947 35.4149 78.574 35.2994V35.2922Z" fill="#321815"/>
<path d="M73.4844 37.9273C73.4844 37.9273 74.7982 36.5194 75.9605 37.0176C77.1228 37.5158 77.8086 37.5591 78.0324 37.5302C78.0324 37.5302 76.2998 38.2739 75.7295 37.9273C75.1592 37.5808 74.6322 37.6241 73.4916 37.9273H73.4844Z" fill="#111523"/>
<path d="M59.5227 40.8298C59.27 41.5879 60.093 42.5482 61.3563 42.967C62.6196 43.3857 63.8541 43.1186 64.1068 42.3605C64.3594 41.6024 63.5365 40.6421 62.2731 40.2234C61.0098 39.7974 59.7753 40.0717 59.5227 40.8298Z" fill="#FA6E5C"/>
<path d="M76.6546 43.621C77.922 43.1996 78.7456 42.2445 78.494 41.4877C78.2424 40.7309 77.011 40.4591 75.7436 40.8805C74.4762 41.3019 73.6527 42.257 73.9042 43.0138C74.1558 43.7706 75.3872 44.0425 76.6546 43.621Z" fill="#E54945"/>
<path d="M65.5288 43.8189C65.5288 43.8189 68.3154 44.447 69.0661 44.4181C70.6182 44.3459 72.8634 43.9055 72.8634 43.9055C72.8634 43.9055 70.3295 41.2918 65.5288 43.8189Z" fill="#E54945"/>
<path d="M65.5288 43.8188C65.5288 43.8188 70.6977 44.7358 72.8634 43.9055C72.8634 43.9055 71.3763 47.4289 69.0373 47.1978C67.1314 47.0029 65.5288 43.8188 65.5288 43.8188Z" fill="white"/>
<path d="M68.0557 47.7971C68.4599 47.9343 68.8281 48.0643 69.1963 48.0354C69.5644 48.0498 69.9037 47.8838 70.2936 47.696C70.1925 47.891 70.0481 48.0643 69.8532 48.1798C69.6655 48.3098 69.4345 48.3675 69.2035 48.382C68.7415 48.382 68.2939 48.1654 68.0557 47.7971Z" fill="#E54945"/>
<path d="M74.1412 38.6495C74.069 39.487 74.4227 40.2162 74.9208 40.274C75.4262 40.3389 75.8882 39.7108 75.9604 38.8733C76.0326 38.0357 75.6788 37.3065 75.1807 37.2488C74.6754 37.1838 74.2134 37.8119 74.1412 38.6495Z" fill="#111523"/>
<path d="M64.0128 38.2957C64.0273 39.1332 63.6302 39.8408 63.1249 39.8624C62.6196 39.8913 62.2009 39.2343 62.1864 38.3968C62.172 37.5592 62.569 36.8517 63.0744 36.83C63.5797 36.8011 63.9984 37.4582 64.0128 38.2957Z" fill="#111523"/>
<path d="M71.5928 26.989C71.5928 26.989 75.3828 22.8375 76.8338 25.2057C81.4613 32.7506 79.8153 23.3573 78.6747 20.1588C76.7039 14.6355 74.1122 13.0759 72.9355 18.2311C71.7588 23.3862 71.5928 26.9962 71.5928 26.9962V26.989Z" fill="#321815"/>
<path d="M70.5173 26.7219C70.1131 24.5198 69.1602 19.6246 64.8359 19.834C64.8359 19.834 60.5622 20.7943 59.5083 22.0867C58.4543 23.3791 63.2983 11.1194 70.9938 14.7078C76.9423 17.4803 73.3617 24.4404 71.6002 26.9891C71.2826 27.4512 70.6184 27.2851 70.5173 26.7219Z" fill="#49312F"/>
<path d="M64.6048 14.0145C66.4024 14.195 68.4598 14.6643 70.4667 18.6787C71.9683 21.675 70.0697 27.6677 69.7737 27.3428C67.7957 25.1407 64.8431 19.3574 58.2159 28.8012C51.5888 38.2451 59.9124 17.6246 60.7859 15.964C61.4501 14.7149 63.3776 13.8918 64.5976 14.0145H64.6048Z" fill="#321815"/>
<path d="M67.074 26.3898C67.24 26.7725 66.843 27.184 66.4748 26.9891C64.3307 25.8772 62.2661 25.8266 60.8728 27.8699C59.7105 29.5811 58.9597 34.3969 58.1007 37.9491C58.1007 37.9491 57.8336 30.433 58.7215 25.4223C59.3568 21.8339 60.8511 19.4152 63.1035 20.8231C64.8 21.8845 66.4748 24.9891 67.0812 26.3826L67.074 26.3898Z" fill="#49312F"/>
<path d="M73.1453 27.1118C73.0226 27.3861 73.3186 27.646 73.5785 27.5016C74.6036 26.924 76.3506 25.4006 77.7294 28.8301C78.2348 30.0792 78.9783 35.5159 79.3754 38.0935C79.3754 38.0935 82.0103 18.5271 76.7404 22.0866C75.0728 23.2129 73.7084 25.8555 73.1453 27.1118Z" fill="#49312F"/>
<path d="M54.3394 41.3713C55.6605 42.9959 57.588 43.5085 58.6492 42.5193C59.7104 41.5302 59.4938 39.4147 58.1727 37.7902C56.8516 36.1657 54.9241 35.6531 53.8629 36.6422C52.8017 37.6314 53.0183 39.7468 54.3394 41.3713Z" fill="#FB8875"/>
<path d="M54.1519 38.0719C54.4334 37.7831 54.8593 37.6603 55.2708 37.6459C55.6895 37.6387 56.101 37.7325 56.4908 37.9419C56.859 38.1657 57.1694 38.469 57.4077 38.8011C57.6531 39.1404 57.848 39.487 57.9996 39.8841C58.0646 40.0502 57.978 40.2379 57.8119 40.2957C57.7831 40.3029 57.7614 40.3101 57.7325 40.3173C57.5448 40.3318 57.3282 40.3606 57.155 40.4112C57.0684 40.4401 56.989 40.4762 56.9456 40.4978C56.924 40.5123 56.9095 40.5267 56.8951 40.5339C56.8807 40.5628 56.859 40.6206 56.8518 40.6567C56.7868 40.8299 56.8085 40.9238 56.9673 41.0899L57.4654 41.5519C57.2416 41.4797 57.025 41.4148 56.8085 41.2992C56.7002 41.2415 56.5775 41.1693 56.4908 41.0249C56.4042 40.8805 56.397 40.7072 56.4042 40.5772C56.4042 40.505 56.4186 40.4545 56.4403 40.3751C56.4692 40.2812 56.5197 40.1946 56.5775 40.1296C56.693 39.9996 56.8157 39.9274 56.9384 39.8697C57.1911 39.7542 57.4221 39.6964 57.682 39.6675L57.4077 40.1007C57.1261 39.4654 56.7363 38.8011 56.2021 38.3968C55.9422 38.2018 55.6029 38.0574 55.2492 37.9852C54.9026 37.913 54.52 37.913 54.1591 38.0574L54.1519 38.0719Z" fill="#FA6E5C"/>
<path d="M83.317 41.5664C81.9309 43.2125 80.0828 43.7107 79.1949 42.6855C78.3069 41.6602 78.704 39.5014 80.09 37.8552C81.4761 36.2091 83.3242 35.7109 84.2121 36.7361C85.1001 37.7614 84.703 39.9202 83.317 41.5664Z" fill="#FA6E5C"/>
<path d="M83.7283 38.1006C83.3673 37.9057 82.9703 37.8551 82.5876 37.8912C82.2122 37.9273 81.8296 38.0356 81.5264 38.2234C80.9128 38.606 80.458 39.2919 80.1404 39.9634L79.931 39.588C80.1981 39.6385 80.4364 39.7179 80.6818 39.8479C80.8045 39.9129 80.9273 39.9923 81.0355 40.1222C81.151 40.2522 81.1944 40.4544 81.2016 40.5699C81.216 40.7071 81.2016 40.8731 81.1222 41.0175C81.0428 41.1692 80.9056 41.2486 80.7901 41.2991C80.5519 41.4074 80.3281 41.4724 80.0898 41.5446C80.2775 41.3858 80.4941 41.263 80.6674 41.1114C80.8551 40.9526 80.8767 40.8298 80.819 40.6277C80.7901 40.5049 80.7684 40.4688 80.7107 40.4255C80.6529 40.3749 80.5663 40.3316 80.4725 40.2883C80.2848 40.2161 80.0537 40.1583 79.8444 40.1222C79.7 40.0934 79.5989 39.9562 79.6206 39.8046C79.6206 39.7829 79.6278 39.7612 79.635 39.7468C79.8083 39.3353 80.0249 38.9815 80.2992 38.6421C80.5735 38.31 80.8984 38.0068 81.3026 37.8046C81.7214 37.6097 82.1545 37.5519 82.5876 37.588C83.0136 37.6385 83.4395 37.7902 83.7283 38.1006Z" fill="#E54945"/>
<path d="M123.188 160.242C123.188 160.242 131.569 157.679 133.525 164.683C133.525 164.683 125.151 163.239 123.188 160.242Z" fill="#FB8875"/>
<path d="M79.6709 45.5589C80.2484 45.4578 80.7104 45.2629 81.0497 45.003C81.3818 44.7358 81.5334 44.4109 81.6056 44.0355C81.6995 43.3207 81.3602 42.4687 80.1474 42.3243C80.5805 41.9272 81.389 41.8695 81.9666 42.3099C82.5441 42.7214 82.8473 43.494 82.7246 44.2015C82.6307 44.9019 82.0965 45.5661 81.454 45.7827C80.8259 46.0065 80.1401 45.9199 79.6709 45.5517V45.5589Z" fill="white"/>
<path d="M58.093 45.559C57.6238 45.92 56.9379 46.0139 56.3099 45.79C55.6674 45.5734 55.126 44.9164 55.0393 44.2089C54.9238 43.4941 55.2198 42.7287 55.7973 42.3172C56.3749 41.8768 57.1834 41.9345 57.6165 42.3316C56.411 42.476 56.0644 43.328 56.1583 44.0428C56.2233 44.4182 56.3749 44.7359 56.7142 45.0103C57.0535 45.2702 57.5155 45.4724 58.093 45.5662V45.559Z" fill="white"/>
<path d="M28.9788 95.9189C26.4521 95.3918 23.9471 94.6698 21.5576 93.6229C19.1608 92.6049 16.8796 91.2691 14.8222 89.6158C13.7898 88.7927 12.8369 87.8613 11.9706 86.8649C11.0971 85.8685 10.2886 84.8072 9.61 83.6375C8.93862 82.4679 8.37554 81.1899 8.14453 79.7965C7.89186 78.4102 7.98571 76.9373 8.42607 75.5799C8.87365 74.2154 9.63887 73.0024 10.5413 71.9555C11.4509 70.9158 12.4832 70.0133 13.5877 69.2335C15.7895 67.674 18.179 66.4971 20.6191 65.4935C23.0591 64.4971 25.5641 63.6957 28.098 63.0243C30.6392 62.3528 33.1658 61.7968 35.7936 61.3781L34.8695 62.2228C36.1617 56.6995 37.555 51.205 38.9916 45.7105C39.728 42.9669 40.4787 40.2377 41.3811 37.4869C42.3124 34.7721 43.3519 32.1079 44.5792 29.5087C45.7992 26.9095 47.1708 24.3753 48.8312 21.9998C49.6758 20.823 50.5854 19.6822 51.6178 18.6425C52.6573 17.61 53.8124 16.657 55.1623 15.9928C55.8409 15.6606 56.5484 15.4152 57.3281 15.2852C58.1438 15.1697 58.9018 15.3141 59.6165 15.5018C61.0531 15.8989 62.3525 16.6065 63.5076 17.4801C64.6699 18.3537 65.6444 19.4584 66.4097 20.6641C67.1749 21.8699 67.8029 23.1478 68.3732 24.4475C67.7019 23.1984 66.98 21.9782 66.1281 20.8591C65.2979 19.7183 64.3161 18.7219 63.1539 17.9711C62.006 17.2057 60.7282 16.6281 59.4072 16.3465C58.7574 16.2166 58.0716 16.1516 57.4869 16.2743C56.8805 16.4187 56.2452 16.6787 55.6749 17.0036C53.3431 18.3248 51.5745 20.5558 50.0729 22.859C48.5713 25.1839 47.308 27.6893 46.2035 30.2524C45.1062 32.8227 44.1244 35.458 43.2725 38.1223C42.4496 40.772 41.771 43.5301 41.0635 46.2593C39.6486 51.7321 38.3563 57.2482 37.0208 62.7427C36.9125 63.1975 36.5443 63.5152 36.1112 63.5874H36.104C31.1156 64.3744 26.1056 65.6524 21.3843 67.4357C19.0309 68.3454 16.7352 69.4285 14.6922 70.8219C12.6781 72.2154 10.8228 73.9482 10.0359 76.1431C9.21295 78.3236 9.70384 80.8073 10.8517 82.9733C12.0139 85.1465 13.6527 87.1393 15.508 88.8432C19.2475 92.2872 24.0554 94.4532 28.986 95.9405L28.9788 95.9189Z" fill="#49312F"/>
<path d="M66.3949 140.387C65.1749 142.481 64.0126 144.604 62.9009 146.748C62.3522 147.824 61.8036 148.9 61.2982 149.997C60.7712 151.08 60.2587 152.17 59.7606 153.275C58.7643 155.47 57.8331 157.694 56.9668 159.932C56.1077 162.178 55.3209 164.437 54.6206 166.726C53.249 171.304 52.2239 175.982 51.9351 180.683L51.834 182.444C51.8052 183.029 51.8629 183.578 51.8629 184.148C51.9495 185.282 52.0867 186.422 52.3466 187.563C52.8231 189.838 53.48 192.119 54.3391 194.336C55.9273 198.827 58.0785 203.151 60.3525 207.404C62.6482 211.649 65.1749 215.786 67.8965 219.786C73.3324 227.793 79.447 235.36 85.908 242.537C86.038 242.681 86.103 242.862 86.1102 243.042V243.093C86.204 245.396 86.3845 247.735 86.63 250.038C86.8898 252.349 87.1425 254.659 87.5323 256.941C87.8933 259.23 88.3698 261.489 88.9328 263.72C89.236 264.825 89.5031 265.944 89.8785 267.013C90.059 267.547 90.2178 268.103 90.42 268.63L91.048 270.197C91.2357 270.731 91.51 271.215 91.7555 271.713C92.0226 272.197 92.2175 272.738 92.5352 273.172L93.4159 274.543C93.7407 275.005 94.1089 275.468 94.4554 275.937C95.8559 277.792 97.2997 279.641 98.7436 281.489L107.341 292.615C113.037 300.066 118.726 307.525 124.328 315.048C129.916 322.586 135.503 330.123 140.932 337.791L140.701 337.972C134.521 330.896 128.522 323.676 122.545 316.441C116.582 309.192 110.713 301.871 104.909 294.492C102.014 290.796 99.1478 287.085 96.3179 283.33C94.9102 281.453 93.5097 279.569 92.1164 277.655C91.7699 277.171 91.4234 276.709 91.0769 276.204L90.0879 274.594C89.7269 274.067 89.5248 273.489 89.2433 272.941C88.9834 272.385 88.6946 271.829 88.4997 271.258L87.85 269.547C87.6406 268.977 87.489 268.392 87.3086 267.814C86.9332 266.666 86.6805 265.489 86.3845 264.327C85.8792 261.988 85.4749 259.634 85.1861 257.28C84.5797 252.566 84.3487 247.844 84.4137 243.093L84.6231 243.649C81.5333 239.865 78.6023 235.995 75.6931 232.104C72.791 228.212 69.925 224.285 67.1313 220.313C61.6014 212.335 56.0139 204.307 52.1156 195.202C51.1699 192.921 50.3541 190.56 49.8199 188.09C49.5384 186.863 49.3723 185.592 49.2641 184.314C49.2496 183.672 49.1846 183.007 49.2207 182.386L49.3507 180.516C49.7189 175.535 50.8667 170.69 52.4549 166.033C53.2273 163.701 54.1514 161.419 55.1332 159.181C56.1149 156.936 57.1906 154.741 58.3456 152.589C59.479 150.423 60.7279 148.329 62.0201 146.264C63.3196 144.2 64.6623 142.171 66.1422 140.229L66.3805 140.395L66.3949 140.387Z" fill="#141623"/>
<path d="M61.2983 131.225C61.2983 131.225 75.9963 130.72 89.2649 129.471C102.526 128.221 107.204 125.702 107.204 125.702L108.186 131.969C108.186 131.969 97.6246 139.42 59.8184 137.478L61.2983 131.232V131.225Z" fill="#486CA0"/>
<path d="M86.8034 137.413C86.594 137.348 86.4424 137.167 86.4207 136.943L85.5689 129.658C85.5472 129.492 85.5978 129.319 85.7061 129.174C85.8143 129.037 85.9659 128.958 86.1392 128.922L94.5422 127.86C97.1338 127.536 99.379 129.391 99.5378 132.005C99.6172 133.304 99.2563 134.662 98.3178 135.629C96.0871 137.94 88.4637 137.925 86.8034 137.405V137.413Z" fill="#DFEA60"/>
<path d="M63.7314 131.124L64.9154 137.968H69.384L70.7845 130.741L63.7314 131.124Z" fill="#1F254C"/>
<path d="M77.0793 60.5767C77.5052 61.8402 77.8517 63.3203 77.7579 64.6561C77.498 68.4466 73.4481 67.7751 70.907 66.7065C68.2143 65.5802 65.6876 63.7608 63.5507 61.7752C63.1393 61.3926 62.1214 62.0063 62.6411 62.49C65.6298 65.277 69.853 68.3599 74.0906 68.5043C79.18 68.6848 79.5915 64.2084 78.2704 60.2662C78.0827 59.6959 76.8916 60.0208 77.0793 60.5839V60.5767Z" fill="#FBFBFB"/>
<path d="M75.8956 66.6053C75.8956 66.6053 76.9352 66.4465 77.9386 68.2876C78.9421 70.1287 78.545 71.2623 77.8014 71.6666C77.0579 72.0709 75.0077 70.1576 74.6756 67.9338C74.6756 67.9338 74.3579 66.3165 75.8956 66.6053Z" fill="#FBFBFB"/>
<path d="M58.158 63.6523C58.158 63.6523 72.1557 97.4928 75.0506 123.442C77.9454 149.391 71.737 181.657 63.3629 180.762C54.9816 179.867 40.7672 171.968 41.7129 168.712C42.6658 165.455 61.2983 131.232 61.2983 131.232C61.2983 131.232 45.6978 91.6084 35.6128 78.2513C35.6128 78.2513 39.5039 70.3381 58.1652 63.6596L58.158 63.6523Z" fill="url(#paint0_linear_2467_12014)"/>
<path d="M37.1 204.328C55.5159 206.588 55.7469 196.509 55.1838 184.264C54.8229 176.452 53.3069 143.492 51.7836 135.182C50.578 128.597 41.1283 137.759 34.4434 135.983C34.4434 135.983 28.9208 166.286 27.8596 172.553C26.3653 181.39 24.5894 190.545 23.7953 194.559C23.5282 195.902 24.0191 197.281 25.0803 198.155C27.5925 200.22 32.4798 203.765 37.0928 204.335L37.1 204.328Z" fill="#A5D6FF"/>
<path d="M85.4678 62.1938C85.4678 62.1938 98.4765 71.4066 102.96 110.489C107.443 149.571 110.041 156.538 113.471 159.78L108.186 125.694C108.186 125.694 111.29 80.735 99.5161 67.1396C99.5161 67.1396 99.0974 66.497 95.5889 65.1902C93.0983 64.2588 85.475 62.2011 85.475 62.2011L85.4678 62.1938Z" fill="url(#paint1_linear_2467_12014)"/>
<path d="M65.3123 60.2373C65.3123 60.2373 56.9599 63.2336 54.4765 65.248C51.9715 67.2841 47.2213 73.7027 46.8315 75.6377C46.4417 77.5727 54.8519 79.4643 54.8519 79.4643C54.8519 79.4643 48.9972 83.0599 49.3726 84.1935C49.6397 85.0021 62.1071 102.749 72.7119 129.037C74.5022 133.478 75.6717 139.745 75.6717 139.745C75.6717 139.745 80.9272 116.72 63.3704 70.858C60.6921 63.8546 65.3051 60.2445 65.3051 60.2445L65.3123 60.2373Z" fill="#6D98DD"/>
<path d="M73.3183 59.5947C73.3183 59.5947 75.3757 59.5008 77.758 59.5947C80.8622 59.703 84.0241 59.8691 85.7206 60.2445C88.8681 60.9448 97.6393 63.7029 98.8521 65.2552C100.065 66.8075 95.4952 71.1035 95.4952 71.1035C95.4952 71.1035 102.296 74.0276 102.462 75.2117C102.584 76.0564 104.829 88.4677 105.674 118.778C105.811 123.564 106.151 135.189 106.151 135.189C106.151 135.189 105.284 129.875 102.332 117.471C99.8628 107.088 96.1594 91.6807 88.1462 70.793C83.9953 59.9774 73.311 59.5947 73.311 59.5947H73.3183Z" fill="#6D98DD"/>
</g>
<g filter="url(#filter1_d_2467_12014)">
<path d="M425.615 223.519C425.615 223.519 422.4 189.866 415.487 154.811C410.086 152.99 389.188 151.269 377.574 149.936C374.127 171.966 383.106 368.923 383.106 368.923L383.163 368.943C383.087 368.675 383.085 368.426 383.169 368.199C383.836 366.365 389.698 366.809 396.261 369.192C402.442 371.437 407.133 375.954 407.139 377.295C408.07 373.469 421.395 318.424 421.895 303.408C422.146 295.859 415.89 272.913 415.89 272.913L425.615 223.519Z" fill="#172E81"/>
<path d="M495.167 370.781C500.799 368.526 505.013 367.142 505.739 368.953L481.278 278.042L462.716 201.207C462.716 201.207 448.908 159.352 443.263 153.266C432.394 157.563 410.166 154.366 405.424 157.524C403.924 187.691 406.916 197.816 406.916 197.816L443.208 277.36C443.208 277.36 449.62 303.582 451.824 310.808C456.367 325.699 484.825 376.699 484.825 376.699C484.483 375.934 489.534 373.036 495.167 370.781Z" fill="#1C2757"/>
<path d="M376.405 155.49L376.252 186.818C376.252 186.818 385.9 199.245 394.833 197.252C403.766 195.259 405.756 160.149 405.756 160.149L376.405 155.49Z" fill="#FBFBFB"/>
<path d="M446.306 155.805C446.306 155.805 452.771 172.483 454.339 176.508C455.906 180.533 421.999 201.13 415.286 195.664C408.573 190.2 401.201 159.585 401.201 159.585L446.306 155.805Z" fill="#FBFBFB"/>
<path d="M374.88 154.807C374.88 154.807 373.885 165.136 374.446 167.005C375.007 168.873 387.661 172.933 411.045 172.185C434.429 171.436 448.585 161.684 448.585 161.684L445.597 153.268L374.88 154.807Z" fill="url(#paint2_linear_2467_12014)"/>
<path d="M357.885 142.706C357.885 142.706 343.776 137.393 343.43 131.784C342.679 119.56 351.248 106.545 358.587 96.2245C365.85 86.0099 371.62 72.494 389.953 70.4029C394.58 69.8755 385.735 96.8418 382.921 102.455C377.27 113.73 357.885 142.706 357.885 142.706Z" fill="url(#paint3_linear_2467_12014)"/>
<path d="M374.76 156.132C376.284 156.815 383.198 161.563 401.461 162.967C418.319 164.263 437.715 160.786 438.67 157.937C440.042 153.855 439.022 154.578 441.245 146.398C445.019 132.51 449.161 116.32 450.747 110.067C452.573 102.876 463.221 95.2676 463.166 88.2153C463.131 83.6405 459.47 80.3494 454.488 78.5036C442.487 74.0576 426.839 69.0821 417.949 67.5674C405.845 65.5049 388.036 70.1655 381.411 72.4897C375.94 74.4092 373.128 77.4324 373.128 77.4324C373.128 77.4324 373.884 79.1597 374.287 89.6911C374.512 95.5599 374.717 101.335 374.334 107.692C373.949 114.08 373.173 127.099 372.51 142.027C372.015 153.18 371.792 154.801 374.76 156.13V156.132Z" fill="url(#paint4_linear_2467_12014)"/>
<path d="M399.74 68.0356C399.74 68.0356 399.646 86.1794 407.075 92.8433C414.504 99.5051 435.633 72.1157 435.633 72.1157L417.267 64.7957L399.742 68.0356H399.74Z" fill="#FBFBFB"/>
<path d="M438.322 44.5261C443.885 35.1619 439.761 32.4698 436.812 31.4804C438.455 29.8758 440.141 27.5128 439.216 25.1088C437.976 21.8893 431.143 19.7164 426.37 21.9404C425.811 17.8399 426.493 10.4054 416.248 11.4049C402.085 12.7868 405.302 27.8664 407.443 29.841C407.443 29.841 403.182 29.8635 402.177 34.0724C401.49 36.9526 403.696 37.944 403.88 37.76C403.44 38.2649 402.21 41.8442 404.296 45.0392C406.434 48.3139 417.111 53.9966 417.111 53.9966C417.111 53.9966 431.452 56.096 438.324 44.5261H438.322Z" fill="#411610"/>
<path d="M419.047 68.8574L420.676 68.9698C423.992 69.2008 427.031 68.2851 427.272 65.2781L428.251 49.7999C428.492 46.793 425.999 44.1683 422.682 43.9373L421.053 43.8249C417.737 43.5939 414.854 45.8445 414.612 48.8514L413.349 64.6404C413.108 67.6473 415.73 68.6264 419.045 68.8574H419.047Z" fill="#D1634E"/>
<path d="M426.778 46.3903C427.128 42.0485 426.798 44.2582 422.621 43.9659C418.444 43.6736 414.772 46.9565 414.422 51.3003L413.645 61.94C413.514 63.608 419.33 64.16 423.249 59.8529C427.42 55.27 426.778 46.3903 426.778 46.3903Z" fill="#AC2A1C"/>
<path d="M428.47 39.3666C428.57 33.2934 427.862 25.2232 416.367 26.5621C413.129 26.9403 410.006 27.5617 408.848 30.0637C407.354 33.2894 407.239 43.0624 407.122 46.9503C406.954 52.4613 406.742 55.2516 408.931 56.844C411.08 58.4057 418.1 58.9372 422.218 57.0361C425.916 55.3272 427.242 53.2688 427.891 47.3673C428.47 42.0975 428.431 41.9218 428.472 39.3666H428.47Z" fill="#D1634E"/>
<path d="M428.47 39.3666C428.564 33.6798 427.95 26.2391 418.429 26.4169C418.298 26.419 415.844 26.5539 415.46 28.6635C413.96 36.9013 413.462 58.2667 415.767 58.2524C418.036 58.2381 420.406 57.8722 422.215 57.0361C425.914 55.3272 427.24 53.2688 427.889 47.3673C428.468 42.0975 428.429 41.9217 428.47 39.3666Z" fill="#BF513F"/>
<path d="M416.973 44.8696C416.973 44.8696 415.266 42.5516 413.839 42.8234C412.413 43.0953 411.905 44.7552 411.905 44.7552L416.973 44.8696Z" fill="#A30404"/>
<path d="M417.218 44.7571C416.52 43.8229 415.37 42.5883 414.099 42.6271C412.912 42.6619 411.981 43.7187 411.639 44.7796C411.61 44.8716 411.743 44.9268 411.809 44.9288C413.497 44.9677 415.185 45.0065 416.876 45.0433C417.109 45.0494 417.429 44.7019 417.07 44.6937C416.391 44.6774 415.713 44.6631 415.034 44.6467C414.181 44.6283 413.082 44.4116 412.245 44.5834C412.204 44.5915 412.056 44.5977 412.015 44.5772C412.302 44.7183 412.134 44.6529 412.302 44.4178C412.762 43.7677 413.153 42.9051 414.14 42.9808C415.179 43.0605 416.143 44.1909 416.731 44.9779C416.86 45.1496 417.369 44.9554 417.22 44.7551L417.218 44.7571Z" fill="#A30404"/>
<path d="M421.3 41.4558C421.284 42.1365 421.589 42.6946 421.984 42.7048C422.379 42.715 422.711 42.1713 422.729 41.4906C422.745 40.8099 422.44 40.2518 422.045 40.2416C421.65 40.2314 421.319 40.7751 421.3 41.4558Z" fill="#3D0601"/>
<path d="M410.007 41.1777C409.991 41.8584 410.296 42.4165 410.691 42.4267C411.086 42.4369 411.418 41.8932 411.436 41.2125C411.452 40.5318 411.147 39.9737 410.752 39.9635C410.357 39.9533 410.026 40.497 410.007 41.1777Z" fill="#3D0601"/>
<path d="M419.272 37.9379C418.126 37.8397 418.235 37.1631 418.681 36.7604C419.102 36.3802 421.851 35.3827 423.171 35.8855C425.821 36.8954 425.4 38.6717 425.43 39.0621C425.461 39.4526 423.191 38.269 419.27 37.9358L419.272 37.9379Z" fill="#411610"/>
<path d="M408.136 38.4589C408.242 37.8437 409.036 37.0771 409.912 36.8502C410.788 36.6233 412.399 37.5779 412.501 38.091C412.603 38.6041 411.56 38.6388 410.379 38.7512C408.832 38.8984 407.986 39.3154 408.134 38.461L408.136 38.4589Z" fill="#411610"/>
<path d="M434.353 47.1043C436.112 45.0997 436.368 42.4505 434.924 41.187C433.481 39.9236 430.885 40.5244 429.126 42.529C427.367 44.5336 427.112 47.1829 428.555 48.4463C429.998 49.7098 432.594 49.1089 434.353 47.1043Z" fill="#BF513F"/>
<path d="M434.958 42.5841C434.479 42.2632 433.91 42.1467 433.361 42.1549C432.813 42.1569 432.254 42.2816 431.787 42.5228C430.838 43.0195 430.107 43.9373 429.565 44.8715L429.391 44.5117C429.747 44.5935 430.077 44.708 430.402 44.8899C430.562 44.9819 430.723 45.0943 430.85 45.2681C430.914 45.3519 430.967 45.4561 430.989 45.5727C431.01 45.681 431.014 45.7566 431.016 45.8547C431.02 46.0387 430.991 46.2534 430.871 46.4271C430.75 46.6009 430.576 46.6908 430.416 46.7623C430.093 46.8993 429.772 46.9913 429.444 47.0894C429.733 46.9095 430.046 46.7644 430.318 46.5845C430.607 46.4005 430.74 46.1859 430.68 45.8772C430.656 45.7076 430.631 45.5992 430.541 45.5216C430.451 45.4337 430.326 45.356 430.191 45.2885C429.917 45.1597 429.596 45.0678 429.295 45.0023H429.289C429.156 44.9717 429.07 44.8388 429.098 44.7059C429.102 44.6835 429.111 44.663 429.121 44.6426C429.405 44.105 429.753 43.6369 430.158 43.1974C430.568 42.766 431.045 42.3818 431.605 42.1344C432.18 41.9014 432.782 41.8339 433.376 41.883C433.963 41.9504 434.557 42.163 434.96 42.5841H434.958Z" fill="#AC2A1C"/>
<path d="M412.492 23.0033C412.492 23.0033 419.999 36.8482 428.836 35.9181C437.673 34.986 419.434 18.8966 412.492 23.0033Z" fill="#411610"/>
<path d="M430.214 40.4049L430.02 38.696C426.256 41.8379 425.448 51.6988 423.033 52.1465C421.897 52.357 421.61 49.9776 420.151 47.7414C418.281 44.8734 415.399 45.6972 412.955 46.1919C411.641 46.4576 410.201 47.0668 409.044 48.698C408.326 49.7119 407.141 51.8153 407.086 52.864C407.004 54.4053 407.245 57.913 409.253 58.7286C414.846 60.9996 422.654 59.1252 424.361 57.9253C426.068 56.7254 430.769 53.2871 429.353 50.2761C428.028 47.4593 430.208 40.407 430.208 40.407L430.214 40.4049Z" fill="#411610"/>
<path d="M410.875 48.4119C410.875 48.4119 417.989 47.0015 418.267 47.2733C418.458 47.4573 417.88 50.8751 414.849 51.3841C413.454 51.6192 411.352 50.2762 410.875 48.4119Z" fill="white"/>
<path d="M424.87 14.6265C424.115 13.4184 422.93 12.4781 421.54 12.0488C420.151 11.6052 418.655 11.5786 417.189 11.6665C415.72 11.7912 414.257 12.0365 412.904 12.5292C411.549 13.0095 410.323 13.7393 409.316 14.6612C408.299 15.5811 407.554 16.7278 407.055 17.9645C406.535 19.1971 406.285 20.5279 406.197 21.8627C406.13 23.1996 406.201 24.5569 406.465 25.8774C406.594 26.5376 406.76 27.1938 406.989 27.8193C407.21 28.4305 407.515 29.0846 407.861 29.4546L407.875 29.4689C408.092 29.6999 408.064 30.0495 407.814 30.2478C407.707 30.3316 407.579 30.3765 407.448 30.3827C406.588 30.4174 405.602 30.6791 404.844 31.1472C404.06 31.6051 403.444 32.2796 403.047 33.0768C402.661 33.8741 402.392 34.7796 402.505 35.6218C402.556 36.0429 402.708 36.4476 402.957 36.791C403.082 36.9628 403.232 37.1202 403.403 37.2448C403.485 37.3103 403.577 37.3654 403.663 37.4063C403.708 37.4309 403.747 37.4431 403.78 37.4534C403.805 37.4636 403.794 37.4595 403.794 37.4595C403.78 37.4595 403.825 37.4615 403.755 37.4677C403.706 37.4758 403.655 37.5085 403.631 37.5453L404.144 37.9542C404.015 38.1177 403.876 38.4345 403.778 38.7085C403.674 38.9946 403.586 39.291 403.518 39.5915C403.383 40.1925 403.313 40.8098 403.32 41.4312C403.338 42.67 403.663 43.9108 404.296 45.0392C403.927 44.5056 403.594 43.9435 403.371 43.3343C403.154 42.7252 403.008 42.0935 402.941 41.4496C402.88 40.8057 402.894 40.1557 402.982 39.5098C403.092 38.8495 403.174 38.2506 403.616 37.5637L404.13 37.9726C404.075 38.0196 403.995 38.0625 403.915 38.0829C403.817 38.1054 403.827 38.0911 403.78 38.0952C403.715 38.0932 403.641 38.085 403.606 38.0727C403.514 38.0523 403.43 38.0237 403.363 37.991C403.215 37.9296 403.086 37.8581 402.968 37.7743C402.724 37.6128 402.519 37.4166 402.345 37.2019C401.993 36.7706 401.776 36.2575 401.684 35.7363C401.498 34.6815 401.752 33.6635 402.149 32.715C402.558 31.7604 403.281 30.8835 404.236 30.303C405.19 29.7061 406.248 29.3729 407.443 29.2972L407.03 30.2253C406.371 29.5487 406.113 28.8741 405.839 28.1811C405.579 27.4902 405.397 26.7911 405.252 26.0838C404.963 24.6734 404.852 23.2323 404.951 21.7952C405.057 20.3603 405.338 18.9191 405.925 17.5598C406.494 16.1984 407.38 14.9331 408.542 13.9253C409.691 12.9053 411.105 12.1633 412.589 11.7156C414.074 11.2516 415.62 11.0676 417.15 11.0063C418.683 10.9634 420.265 11.1167 421.692 11.6952C423.128 12.2532 424.279 13.3427 424.87 14.6244V14.6265Z" fill="#6E3831"/>
<path d="M413.039 22.6128C413.367 23.5388 413.77 24.4321 414.236 25.2886C414.682 26.1532 415.19 26.9852 415.763 27.7681C416.878 29.3544 418.196 30.7914 419.723 31.977C420.47 32.5882 421.275 33.1278 422.101 33.6287C422.94 34.109 423.816 34.5322 424.707 34.9124C426.493 35.6401 428.409 36.1961 430.38 36.0162C428.433 36.4557 426.391 36.0183 424.533 35.3641C422.652 34.7121 420.902 33.7002 419.322 32.4819C417.761 31.235 416.41 29.7305 415.341 28.0543C414.275 26.3801 413.446 24.5445 413.039 22.6148V22.6128Z" fill="#6E3831"/>
<path d="M407.077 53.5959C407.267 54.7713 407.515 55.9467 407.996 56.9851C408.256 57.4982 408.546 57.9581 409.005 58.228C409.467 58.5182 410.007 58.7308 410.556 58.8984C411.659 59.2439 412.826 59.4115 413.994 59.5383C415.167 59.6568 416.354 59.6813 417.551 59.6936C416.379 59.9491 415.175 60.0513 413.966 60.037C412.758 60.0248 411.542 59.8694 410.364 59.5178C409.778 59.3257 409.197 59.0988 408.661 58.737C408.102 58.3588 407.74 57.7537 407.537 57.1814C407.116 56.0101 407.003 54.7938 407.075 53.598L407.077 53.5959Z" fill="#9E5046"/>
<path d="M431.811 155.49C431.811 155.49 437.875 161.862 444.119 159.466C456.959 154.539 465.614 149.818 466.793 122.103C467.409 107.641 467.681 86.6332 458.948 80.8013C458.948 80.8013 447.843 92.8147 442.383 107.588C438.411 118.336 431.813 155.49 431.813 155.49H431.811Z" fill="url(#paint5_linear_2467_12014)"/>
<path d="M446.173 115.141C447.487 114.135 449.194 125.633 448.953 126.171C447.995 128.295 444.161 133.352 438.826 133.048C438.161 133.009 436.092 126.277 437.766 123.892C439.36 121.621 443.502 117.185 446.171 115.141H446.173Z" fill="#D1634E"/>
<path d="M439.272 115.533L439.505 115.378C440.968 115.709 441.169 117.183 440.741 118.718L440.039 120.364L439.669 124.767C439.669 124.767 438.24 128.595 437.524 128.113C436.237 127.246 437.371 120.263 437.371 120.263L439.272 115.531V115.533Z" fill="#D1634E"/>
<path d="M455.945 115.431C455.986 116.496 454.778 116.958 453.178 116.844C452.64 116.805 451.158 116.652 451.158 116.652L445.004 118.211L446.277 115.088L452.13 114.131L455.945 115.433V115.431Z" fill="#D1634E"/>
<path d="M459.56 121.042C459.257 122.248 458.217 122.604 456.158 122.064C455.467 121.882 452.687 120.881 452.687 120.881L446.059 121.298L446.067 118.291L453.574 117.723L459.558 121.042H459.56Z" fill="#D1634E"/>
<path d="M455.454 121.942L457.842 123.847C457.525 125.278 455.419 125.173 453.692 124.137C452.971 123.704 451.246 123.25 451.246 123.25L445.945 123.489L446.567 120.68L452.904 120.707L455.454 121.942Z" fill="#D1634E"/>
<path d="M455.837 125.682C455.763 126.792 454.365 127.191 453.784 127.087C453.385 127.017 451.578 126.608 451.578 126.608L447.303 126.633L447.835 124.129L452.538 124.754L455.839 125.68L455.837 125.682Z" fill="#D1634E"/>
<path d="M437.598 125.402L418.729 129.063L429.375 139.955L443.748 130.372L437.598 125.402Z" fill="#D1634E"/>
<mask id="mask0_2467_12014" style="mask-type:luminance" maskUnits="userSpaceOnUse" x="399" y="64" width="37" height="30">
<path d="M399.74 68.0356C399.74 68.0356 399.646 86.1794 407.075 92.8433C414.504 99.5051 435.633 72.1157 435.633 72.1157L417.267 64.7957L399.742 68.0356H399.74Z" fill="white"/>
</mask>
<g mask="url(#mask0_2467_12014)">
<path d="M411.791 73.9248C411.791 73.9248 401.038 85.2596 400.639 90.4905C400.24 95.7215 409.73 100.155 414.636 97.7247C419.541 95.2963 414.56 74.3398 414.56 74.3398L411.793 73.9248H411.791Z" fill="url(#paint6_linear_2467_12014)"/>
</g>
<path d="M421.685 144.345C405.927 155.909 365.187 152.422 349.064 141.729C336.038 133.09 348.051 113.138 348.051 113.138C348.051 113.138 355.937 112.203 365.494 114.464C381.063 118.15 402.681 125.995 413.878 128.023C418.399 128.843 420.157 128.673 420.157 128.673C420.157 128.673 425.639 141.443 421.685 144.345Z" fill="url(#paint7_linear_2467_12014)"/>
<path d="M388.824 137.739C388.824 137.739 389.72 144.672 386.728 149.934C383.736 155.198 401.756 151.537 401.756 151.537L403.938 136.118L388.824 137.739Z" fill="#F1F4FB"/>
<path d="M373.127 116.378C380.818 122.841 385.885 135.499 394.397 142.195C410.205 154.634 418.369 157.314 430.951 159.879C450.6 163.883 456.194 146.159 448.707 141.833C437.036 135.092 428.069 127.222 405.756 120.854C401.63 119.677 385.693 114.748 380.542 113.968C378.385 113.641 371.67 115.153 373.127 116.378Z" fill="#D1634E"/>
<path d="M396.361 141.752C394.787 144.11 395.585 145.852 397.614 148.219C403.686 155.306 429.262 162.788 439.354 161.533C461.926 158.73 464.388 139.546 464.388 139.546C464.388 139.546 430.51 128.43 415.186 123.203C412.067 122.14 404.144 120.125 404.144 120.125C404.144 120.125 407.441 125.149 396.361 141.752Z" fill="url(#paint8_linear_2467_12014)"/>
<path d="M387.85 136.498C387.85 136.498 391.067 140.858 395.53 144.719C397.495 146.418 402.1 137.81 403.874 131.641C405.397 126.347 405.377 120.368 405.377 120.368C405.377 120.368 398.729 118.043 396.578 117.565C395.827 117.397 394.79 128.843 387.85 136.498Z" fill="#FBFBFB"/>
<path d="M393.856 137.416C392.669 137.78 391.527 137.218 391.306 136.159C391.085 135.1 391.869 133.949 393.056 133.585C394.243 133.221 395.385 133.783 395.606 134.842C395.827 135.901 395.043 137.052 393.856 137.416Z" fill="#DCE5F7"/>
<g opacity="0.56">
<path d="M397.108 68.7776C397.402 71.8295 397.779 74.8671 398.335 77.8679C398.868 80.8707 399.541 83.849 400.454 86.7333C401.397 89.5869 402.545 92.4426 404.402 94.687C404.864 95.2431 405.384 95.7357 405.939 96.1588C406.501 96.5861 407.097 96.9172 407.733 97.093C409.019 97.4753 410.468 97.2933 411.843 96.8743C414.62 96.0096 417.195 94.3395 419.599 92.5346C422.027 90.7316 424.292 88.6936 426.509 86.6045C428.711 84.4991 430.845 82.3118 432.919 80.0653C435.018 77.8393 437.018 75.5212 438.987 73.1704C435.534 78.244 431.642 83.0293 427.34 87.4447C425.193 89.6585 422.911 91.7476 420.467 93.6711C417.997 95.5435 415.373 97.3281 412.273 98.3011C410.734 98.7528 409.002 98.992 407.324 98.4892C405.621 97.9761 404.344 96.8232 403.323 95.5763C401.317 93.0211 400.206 90.0387 399.357 87.0665C397.715 81.0792 397.136 74.91 397.105 68.7817L397.108 68.7776Z" fill="#0073BD"/>
</g>
<path d="M412.648 75.6481C410.611 75.0533 409.445 72.9233 410.04 70.8893L411.205 66.9135C411.26 66.7275 411.457 66.6191 411.643 66.6743L418.337 68.6306C418.523 68.6858 418.632 68.882 418.577 69.068L417.412 73.0439C416.817 75.0778 414.684 76.2429 412.648 75.6481Z" fill="url(#paint9_linear_2467_12014)"/>
<path d="M417.596 77.0236C417.596 77.0236 423.206 76.8826 427.952 73.7959C429.671 72.6778 431.789 70.5846 431.789 70.5846L427.485 61.9399C427.485 61.9399 425.776 65.0041 423.087 66.11C418.249 68.0969 414.913 66.8357 414.913 66.8357L417.598 77.0236H417.596Z" fill="#F1F4FB"/>
<path d="M407.64 73.148C407.64 73.148 407.317 70.8422 407.415 69.4808C407.589 67.0462 407.747 66.482 407.747 66.482L413.583 60.9526C413.583 60.9526 413.598 63.1521 413.647 63.8758C413.807 66.1856 415.71 67.4673 415.71 67.4673L407.642 73.148H407.64Z" fill="#F1F4FB"/>
<path d="M398.072 143.571C399.753 145.083 401.541 146.453 403.422 147.682C405.283 148.935 407.213 150.077 409.19 151.126C411.169 152.166 413.184 153.135 415.258 153.969C417.316 154.834 419.424 155.578 421.559 156.236C425.826 157.563 430.214 158.507 434.657 159.072C436.882 159.345 439.119 159.54 441.362 159.607C442.483 159.65 443.609 159.646 444.733 159.609C445.856 159.552 446.98 159.47 448.103 159.333C443.699 160.451 439.072 160.523 434.543 160.196C429.995 159.865 425.486 158.986 421.117 157.661C416.754 156.312 412.523 154.501 408.606 152.158C404.693 149.832 401.015 147.025 398.068 143.577L398.072 143.571Z" fill="#0F428F"/>
</g>
</g>
<defs>
<filter id="filter0_d_2467_12014" x="0" y="14" width="192" height="354" filterUnits="userSpaceOnUse" color-interpolation-filters="sRGB">
<feFlood flood-opacity="0" result="BackgroundImageFix"/>
<feColorMatrix in="SourceAlpha" type="matrix" values="0 0 0 0 0 0 0 0 0 0 0 0 0 0 0 0 0 0 127 0" result="hardAlpha"/>
<feOffset dx="-3" dy="5"/>
<feGaussianBlur stdDeviation="2.5"/>
<feColorMatrix type="matrix" values="0 0 0 0 0.145098 0 0 0 0 0.239216 0 0 0 0 0.423529 0 0 0 0.2 0"/>
<feBlend mode="normal" in2="BackgroundImageFix" result="effect1_dropShadow_2467_12014"/>
<feBlend mode="normal" in="SourceGraphic" in2="effect1_dropShadow_2467_12014" result="shape"/>
</filter>
<filter id="filter1_d_2467_12014" x="335" y="10.9995" width="191.001" height="408" filterUnits="userSpaceOnUse" color-interpolation-filters="sRGB">
<feFlood flood-opacity="0" result="BackgroundImageFix"/>
<feColorMatrix in="SourceAlpha" type="matrix" values="0 0 0 0 0 0 0 0 0 0 0 0 0 0 0 0 0 0 127 0" result="hardAlpha"/>
<feOffset dx="-3" dy="5"/>
<feGaussianBlur stdDeviation="2.5"/>
<feColorMatrix type="matrix" values="0 0 0 0 0.145098 0 0 0 0 0.239216 0 0 0 0 0.423529 0 0 0 0.2 0"/>
<feBlend mode="normal" in2="BackgroundImageFix" result="effect1_dropShadow_2467_12014"/>
<feBlend mode="normal" in="SourceGraphic" in2="effect1_dropShadow_2467_12014" result="shape"/>
</filter>
<linearGradient id="paint0_linear_2467_12014" x1="37.8796" y1="73.8254" x2="67.5647" y2="172.962" gradientUnits="userSpaceOnUse">
<stop stop-color="#A5D6FF"/>
<stop offset="1" stop-color="#6D98DD"/>
</linearGradient>
<linearGradient id="paint1_linear_2467_12014" x1="86.2041" y1="71.5799" x2="120.315" y2="142.022" gradientUnits="userSpaceOnUse">
<stop stop-color="#A5D6FF"/>
<stop offset="1" stop-color="#6D98DD"/>
</linearGradient>
<linearGradient id="paint2_linear_2467_12014" x1="374.274" y1="165.898" x2="379.974" y2="142.755" gradientUnits="userSpaceOnUse">
<stop offset="0.25" stop-color="#003865"/>
<stop offset="1" stop-color="#004C97"/>
</linearGradient>
<linearGradient id="paint3_linear_2467_12014" x1="343.384" y1="118.443" x2="386.986" y2="88.4522" gradientUnits="userSpaceOnUse">
<stop offset="0.25" stop-color="#003865"/>
<stop offset="1" stop-color="#004C97"/>
</linearGradient>
<linearGradient id="paint4_linear_2467_12014" x1="372.214" y1="130.97" x2="434.316" y2="69.9802" gradientUnits="userSpaceOnUse">
<stop offset="0.25" stop-color="#003865"/>
<stop offset="1" stop-color="#004C97"/>
</linearGradient>
<linearGradient id="paint5_linear_2467_12014" x1="431.811" y1="133.428" x2="470.766" y2="115.422" gradientUnits="userSpaceOnUse">
<stop offset="0.25" stop-color="#003865"/>
<stop offset="1" stop-color="#004C97"/>
</linearGradient>
<linearGradient id="paint6_linear_2467_12014" x1="400.627" y1="90.1932" x2="415.376" y2="80.0759" gradientUnits="userSpaceOnUse">
<stop offset="0.25" stop-color="#003865"/>
<stop offset="1" stop-color="#004C97"/>
</linearGradient>
<linearGradient id="paint7_linear_2467_12014" x1="343" y1="138.589" x2="362.021" y2="97.5722" gradientUnits="userSpaceOnUse">
<stop offset="0.25" stop-color="#003865"/>
<stop offset="1" stop-color="#004C97"/>
</linearGradient>
<linearGradient id="paint8_linear_2467_12014" x1="395.53" y1="147.731" x2="418.834" y2="107.614" gradientUnits="userSpaceOnUse">
<stop offset="0.25" stop-color="#003865"/>
<stop offset="1" stop-color="#004C97"/>
</linearGradient>
<linearGradient id="paint9_linear_2467_12014" x1="409.885" y1="72.7354" x2="415.788" y2="66.8967" gradientUnits="userSpaceOnUse">
<stop offset="0.25" stop-color="#003865"/>
<stop offset="1" stop-color="#004C97"/>
</linearGradient>
<clipPath id="clip0_2467_12014">
<rect width="477" height="160" fill="white"/>
</clipPath>
<clipPath id="clip1_2467_12014">
<rect width="182" height="344" fill="white" transform="translate(8 14)"/>
</clipPath>
</defs>
</svg>
